<svg xmlns="http://www.w3.org/2000/svg" width="19" height="19" viewBox="0 0 19 19">
    <defs>
        <filter id="s64oxt56aa" color-interpolation-filters="auto">
            <feColorMatrix in="SourceGraphic" values="0 0 0 0 0.862745 0 0 0 0 0.301961 0 0 0 0 0.356863 0 0 0 1.000000 0"/>
        </filter>
    </defs>
    <g fill="none" fill-rule="evenodd">
        <g filter="url(#s64oxt56aa)" transform="translate(-254.000000, -79.000000)">
            <g fill="#000" fill-rule="nonzero">
                <path d="M10.756 6.218H9.403v3.391c0 .41-.222.79-.58.99-.356.2-.794.19-1.143-.024l-1.287-.79c-.007-.004-.016-.004-.023 0l-1.286.79c-.349.214-.787.224-1.144.023-.357-.2-.58-.579-.58-.989V6.218H.597c-.328 0-.596.267-.596.596v11.59c0 .328.268.596.596.596h11.572c.329 0 .596-.268.596-.597V8.241c-.85-.464-1.55-1.17-2.008-2.023zm-2.34 9.21H4.348c-.307 0-.556-.249-.556-.556 0-.308.249-.557.556-.557h4.068c.307 0 .556.25.556.557 0 .307-.249.556-.556.556z" transform="translate(254.000000, 79.000000)"/>
                <path d="M4.482 9.627c.01.005.014.003.02 0l1.288-.792c.365-.223.818-.223 1.183 0l1.288.791c.007.004.01.006.02 0 .01-.005.01-.01.01-.016V6.218H4.472V9.61c0 .007 0 .011.01.017zM15.139 0c-2.129 0-3.861 1.735-3.861 3.867 0 1.232.58 2.336 1.486 3.046C15.304 8.905 19 7.06 19 3.867 19 1.735 17.268 0 15.139 0zm1.68 4.762c.35.35.098.95-.394.95-.141 0-.284-.054-.392-.163l-.894-.895-.894.895c-.217.217-.569.217-.786 0-.217-.217-.217-.57 0-.787l.894-.895-.894-.895c-.217-.218-.217-.57 0-.788.217-.217.569-.217.786 0l.894.895.894-.895c.217-.217.568-.217.786 0 .217.218.217.57 0 .788l-.894.895.894.895z" transform="translate(254.000000, 79.000000)"/>
            </g>
        </g>
    </g>
</svg>
