<svg xmlns="http://www.w3.org/2000/svg" width="23" height="14" viewBox="0 0 23 14">
    <defs>
        <filter id="hvv35uw1ja" color-interpolation-filters="auto">
            <feColorMatrix in="SourceGraphic" values="0 0 0 0 0.862745 0 0 0 0 0.301961 0 0 0 0 0.356863 0 0 0 1.000000 0"/>
        </filter>
    </defs>
    <g fill="none" fill-rule="evenodd">
        <g filter="url(#hvv35uw1ja)" transform="translate(-685.000000, -82.000000)">
            <g fill="#000" fill-rule="nonzero">
                <path d="M14.596 1.739L16.365 1.739 16.365 0 15.923 0 15.923.001 14.596.001zM11.942 6.957L11.058 6.957 10.615 6.957 10.615 8.696 12.385 8.696 12.385 6.957zM15.923 6.957L15.923 13.044 23 13.044 23 6.957 21.231 6.957 21.231 9.566 17.692 9.566 17.692 6.957z" transform="translate(685.000000, 82.000000)"/>
                <path d="M7.962 6.957L7.962 13.044 15.038 13.044 15.038 6.957 13.269 6.957 13.269 9.566 9.731 9.566 9.731 6.957zM18.577 8.696L20.346 8.696 20.346 6.957 19.904 6.957 18.577 6.957zM13.712.001L11.942.001 11.942 6.087 15.038 6.087 15.923 6.087 19.019 6.087 19.019 0 17.25 0 17.25 2.609 13.712 2.609zM0 6.957L0 13.044 7.077 13.044 7.077 6.957 5.308 6.957 5.308 9.566 1.769 9.566 1.769 6.957z" transform="translate(685.000000, 82.000000)"/>
                <path d="M3.096 6.957L2.654 6.957 2.654 8.696 4.423 8.696 4.423 6.957zM7.962 6.087L11.058 6.087 11.058.001 9.288.001 9.288 2.609 5.75 2.609 5.75 0 3.981 0 3.981 6.087 7.077 6.087z" transform="translate(685.000000, 82.000000)"/>
                <path d="M8.404 0.001L7.077 0.001 7.077 0 6.635 0 6.635 1.739 8.404 1.739z" transform="translate(685.000000, 82.000000)"/>
            </g>
        </g>
    </g>
</svg>
