<svg xmlns="http://www.w3.org/2000/svg" width="16" height="21" viewBox="0 0 16 21">
    <defs>
        <filter id="vc4n7xjyia" color-interpolation-filters="auto">
            <feColorMatrix in="SourceGraphic" values="0 0 0 0 0.862745 0 0 0 0 0.301961 0 0 0 0 0.356863 0 0 0 1.000000 0"/>
        </filter>
    </defs>
    <g fill="none" fill-rule="evenodd">
        <g filter="url(#vc4n7xjyia)" transform="translate(-970.000000, -78.000000)">
            <g>
                <path fill="#000" fill-rule="nonzero" d="M15.64 5.248c-.316.01-1.01.002-2.77.002-1.153 0-2.088-.94-2.088-2.1 0-1.771-.007-2.47.003-2.788C10.79.164 10.634 0 10.437 0H1.391C.623 0 0 .627 0 1.4v18.2c0 .773.623 1.4 1.391 1.4h13.217c.769 0 1.392-.627 1.392-1.4V5.598c0-.198-.163-.356-.36-.35zM2.87 4.113h3.086c.192 0 .348.156.348.35 0 .193-.156.35-.348.35H2.87c-.192 0-.347-.157-.347-.35 0-.194.155-.35.347-.35zm0 2.187h4.825c.193 0 .348.157.348.35 0 .194-.155.35-.348.35H2.87c-.192 0-.347-.156-.347-.35 0-.193.155-.35.347-.35zm10.608 10.325c0 .193-.156.35-.348.35H2.87c-.193 0-.348-.157-.348-.35V9.45c0-.193.155-.35.347-.35H13.13c.192 0 .348.157.348.35v7.175zm-3.913-2.728h-6c-.192 0-.348-.157-.348-.35v-1.019c0-.193.156-.35.348-.35h6c.192 0 .348.157.348.35v1.019c0 .193-.156.35-.348.35zM10.956 9.8h1.478c.193 0 .348.157.348.35v.978c0 .194-.155.35-.348.35h-1.478c-.192 0-.348-.156-.348-.35v-.978c0-.193.156-.35.348-.35zm-7.739 1.328v-.978c0-.193.156-.35.348-.35h6c.192 0 .348.157.348.35v.978c0 .194-.156.35-.348.35h-6c-.192 0-.348-.156-.348-.35zm9.217 2.769h-1.478c-.192 0-.348-.157-.348-.35v-1.019c0-.193.156-.35.348-.35h1.478c.193 0 .348.157.348.35v1.019c0 .193-.155.35-.348.35zm-2.869 2.378h-6c-.192 0-.348-.157-.348-.35v-.978c0-.193.156-.35.348-.35h6c.192 0 .348.157.348.35v.978c0 .193-.156.35-.348.35zm3.217-1.328v.978c0 .193-.155.35-.348.35h-1.478c-.192 0-.348-.157-.348-.35v-.978c0-.193.156-.35.348-.35h1.478c.193 0 .348.157.348.35zm2.87-10.397h-2.783c-.767 0-1.391-.628-1.391-1.4V.35c0-.31.374-.467.594-.247l3.826 3.85c.219.22.063.597-.246.597z" transform="translate(970.000000, 78.000000)"/>
            </g>
        </g>
    </g>
</svg>
