<svg xmlns="http://www.w3.org/2000/svg" width="19" height="19" viewBox="0 0 19 19">
    <defs>
        <filter id="j4sxnincva" color-interpolation-filters="auto">
            <feColorMatrix in="SourceGraphic" values="0 0 0 0 0.862745 0 0 0 0 0.301961 0 0 0 0 0.356863 0 0 0 1.000000 0"/>
        </filter>
    </defs>
    <g fill="none" fill-rule="evenodd">
        <g filter="url(#j4sxnincva)" transform="translate(-807.000000, -79.000000)">
            <g fill="#000" fill-rule="nonzero">
                <path d="M8.208 14.51L0 8.673 0 19 19 19 19 8.673 10.792 14.51z" transform="translate(807.000000, 79.000000)"/>
                <path d="M8.565 13.396h1.87l7.83-5.566h-4.34c-1.017 1.344-2.614 2.227-4.425 2.227S6.092 9.174 5.075 7.83H.735l7.83 5.566z" transform="translate(807.000000, 79.000000)"/>
                <path d="M9.5 8.943c2.46 0 4.453-1.993 4.453-4.453S11.96 0 9.5 0C7.04 0 5.047 2.03 5.047 4.49c0 2.46 1.994 4.453 4.453 4.453zM7.532 3.31l.787-.788L9.5 3.703l1.18-1.18.788.787-1.18 1.18 1.18 1.18-.787.788L9.5 5.278l-1.18 1.18-.788-.787 1.18-1.18-1.18-1.181z" transform="translate(807.000000, 79.000000)"/>
            </g>
        </g>
    </g>
</svg>
