<svg xmlns="http://www.w3.org/2000/svg" width="19" height="19" viewBox="0 0 19 19">
    <defs>
        <filter id="uskn809v4a" color-interpolation-filters="auto">
            <feColorMatrix in="SourceGraphic" values="0 0 0 0 0.862745 0 0 0 0 0.301961 0 0 0 0 0.356863 0 0 0 1.000000 0"/>
        </filter>
    </defs>
    <g fill="none" fill-rule="evenodd">
        <g filter="url(#uskn809v4a)" transform="translate(-22.000000, -79.000000)">
            <g fill="#000" fill-rule="nonzero">
                <path d="M15.223 7.554C17.306 7.554 19 5.86 19 3.777S17.306 0 15.223 0s-3.777 1.694-3.777 3.777 1.694 3.777 3.777 3.777zm-1.611-4.462l.996.996 2.11-2.109.79.792-2.9 2.9-1.788-1.788.792-.791z" transform="translate(22.000000, 79.000000)"/>
                <path d="M4.387 13.89h11.996l.557-5.572c-.53.199-1.105.308-1.704.308-2.684 0-4.867-2.184-4.867-4.87 0-.414.052-.816.15-1.2h-6.65L3.614 0H0v1.113h2.607L3.783 12.88c-.715.25-1.23.932-1.23 1.731 0 1.012.823 1.835 1.834 1.835h.86c-.094.221-.147.465-.147.72C5.1 18.178 5.922 19 6.933 19c1.011 0 1.834-.823 1.834-1.834 0-.256-.053-.5-.148-.721h3.029c-.095.221-.148.465-.148.72 0 1.012.822 1.835 1.833 1.835 1.011 0 1.834-.823 1.834-1.834 0-.256-.053-.5-.148-.721h1.364V15.33H4.387c-.397 0-.72-.323-.72-.72 0-.398.323-.721.72-.721zm7.751-3.669h1.113v1.113h-1.113v-1.113zm-2.561 0h1.113v1.113H9.577v-1.113zm-2.562 0h1.113v1.113H7.015v-1.113z" transform="translate(22.000000, 79.000000)"/>
            </g>
        </g>
    </g>
</svg>
