<svg xmlns="http://www.w3.org/2000/svg" width="19" height="19" viewBox="0 0 19 19">
    <defs>
        <filter id="qxd7o2jxga" color-interpolation-filters="auto">
            <feColorMatrix in="SourceGraphic" values="0 0 0 0 1.000000 0 0 0 0 1.000000 0 0 0 0 1.000000 0 0 0 1.000000 0"/>
        </filter>
    </defs>
    <g fill="none" fill-rule="evenodd">
        <g filter="url(#qxd7o2jxga)" transform="translate(-394.000000, -79.000000)">
            <g fill="#000" fill-rule="nonzero">
                <path d="M1.707 11.207H.557c-.308 0-.557.249-.557.557v6.68c0 .307.249.556.557.556h1.15c.92 0 1.67-.75 1.67-1.67v-4.453c0-.92-.75-1.67-1.67-1.67zM12.877 0C9.504 0 6.754 2.75 6.754 6.123c0 1.47.523 2.817 1.392 3.874.7.2 1.358.557 1.914 1.047.105.078.164.077.279.089h1.981c.768 0 1.448.378 1.837.98 2.761-.59 4.843-3.05 4.843-5.99C19 2.75 16.25 0 12.877 0zm.568 8.806h-.011v.657c0 .312-.245.557-.557.557-.312 0-.557-.245-.557-.557v-.657c-.367-.122-.712-.356-1.013-.724-.2-.233-.167-.579.067-.779.234-.2.59-.167.78.067.3.356.634.49.912.39.223-.078.368-.29.368-.524 0-.311-.245-.556-.557-.556-.924 0-1.67-.746-1.67-1.67 0-.668.4-1.28 1.024-1.537.023-.01.056-.01.09-.022v-.668c0-.312.244-.556.556-.556.312 0 .557.244.557.556v.668c.289.1.567.245.823.49.223.212.223.568.012.79-.212.223-.568.223-.79.012-.268-.257-.569-.357-.814-.245-.211.089-.345.29-.345.512 0 .311.245.556.557.556.924 0 1.67.746 1.67 1.67 0 .702-.445 1.325-1.102 1.57z" transform="translate(394.000000, 79.000000)"/>
                <path d="M18.833 12.287c-.067-.111-.156-.2-.256-.278-.41-.359-1.1-.325-1.503.11l-2.527 2.918-.078.089c-.312.345-.757.534-1.225.534H8.888c-.312 0-.557-.245-.557-.557 0-.311.245-.556.557-.556h3.432c.613 0 1.114-.501 1.114-1.113v-.012c-.012-.612-.501-1.102-1.114-1.102h-2.052c-.334 0-.691-.122-.98-.367-1.358-1.191-3.34-1.27-4.798-.256v6.847c1.102.3 2.238.456 3.385.456h5.002c1.225 0 2.382-.579 3.117-1.559l2.672-3.562c.39-.512.42-1.214.167-1.592z" transform="translate(394.000000, 79.000000)"/>
            </g>
        </g>
    </g>
</svg>
