<svg xmlns="http://www.w3.org/2000/svg" width="19" height="19" viewBox="0 0 19 19">
    <defs>
        <filter id="4omoo586wa" color-interpolation-filters="auto">
            <feColorMatrix in="SourceGraphic" values="0 0 0 0 1.000000 0 0 0 0 1.000000 0 0 0 0 1.000000 0 0 0 1.000000 0"/>
        </filter>
    </defs>
    <g fill="none" fill-rule="evenodd">
        <g filter="url(#4omoo586wa)" transform="translate(-517.000000, -79.000000)">
            <g fill="#000" fill-rule="nonzero">
                <path d="M7.257 3.34H3.34v3.414h3.917c-.362-.474-.577-1.066-.577-1.707s.215-1.233.577-1.707zm-1.69 2.264H4.452V4.49h1.113v1.114zM9.5 3.34c-.941 0-1.707.766-1.707 1.707 0 .941.766 1.707 1.707 1.707.941 0 1.707-.766 1.707-1.707 0-.941-.766-1.707-1.707-1.707zM11.743 3.34c.362.474.577 1.066.577 1.707s-.215 1.233-.577 1.707h3.917V3.34h-3.917zm2.804 2.264h-1.113V4.49h1.113v1.114zM18.248 11.207c.277.223.529.475.752.752v-.752h-.752zM0 11.207v1.113h10.94c.282-.42.626-.795 1.019-1.113H0z" transform="translate(517.000000, 79.000000)"/>
                <path d="M0 0v10.094h19V0H0zm16.773 7.867H2.227v-5.64h14.546v5.64zM0 13.434v1.113h10.125c.043-.386.13-.759.255-1.113H0zM15.104 11.207c-2.149 0-3.897 1.748-3.897 3.897 0 2.148 1.748 3.896 3.897 3.896C17.252 19 19 17.252 19 15.104c0-2.149-1.748-3.897-3.896-3.897zm-.557 4.453v-3.34h1.113v2.227h2.227v1.113h-3.34z" transform="translate(517.000000, 79.000000)"/>
            </g>
        </g>
    </g>
</svg>
