<svg xmlns="http://www.w3.org/2000/svg" width="19" height="19" viewBox="0 0 19 19">
    <defs>
        <filter id="h5mg0tmf8a" color-interpolation-filters="auto">
            <feColorMatrix in="SourceGraphic" values="0 0 0 0 1.000000 0 0 0 0 1.000000 0 0 0 0 1.000000 0 0 0 1.000000 0"/>
        </filter>
    </defs>
    <g fill="none" fill-rule="evenodd">
        <g filter="url(#h5mg0tmf8a)" transform="translate(-129.000000, -79.000000)">
            <g>
                <path fill="#000" fill-rule="nonzero" d="M18.406 19H15.24c-.328 0-.594-.266-.594-.594v-.99H12.27v.99c0 .328-.266.594-.594.594H7.323c-.328 0-.594-.266-.594-.594v-.99H4.354v.99c0 .328-.266.594-.594.594H.594C.266 19 0 18.734 0 18.406v-2.573h19v2.573c0 .328-.266.594-.594.594zM12.667 0h-2.375v1.583c0 .437-.355.792-.792.792-.437 0-.792-.355-.792-.792V0H6.333c-.437 0-.791.355-.791.792v4.75c0 .437.354.791.791.791h6.334c.437 0 .791-.354.791-.791V.792c0-.437-.354-.792-.791-.792zM7.917 7.917H5.542V9.5c0 .437-.355.792-.792.792-.437 0-.792-.355-.792-.792V7.917H1.583c-.437 0-.791.354-.791.791v4.75c0 .437.354.792.791.792h6.334c.437 0 .791-.355.791-.792v-4.75c0-.437-.354-.791-.791-.791zM17.417 7.917h-2.375V9.5c0 .437-.355.792-.792.792-.437 0-.792-.355-.792-.792V7.917h-2.375c-.437 0-.791.354-.791.791v4.75c0 .437.354.792.791.792h6.334c.437 0 .791-.355.791-.792v-4.75c0-.437-.354-.791-.791-.791z" transform="translate(129.000000, 79.000000)"/>
            </g>
        </g>
    </g>
</svg>
