<svg xmlns="http://www.w3.org/2000/svg" width="17" height="18" viewBox="0 0 17 18">
    <defs>
        <filter id="x21gor90ha" color-interpolation-filters="auto">
            <feColorMatrix in="SourceGraphic" values="0 0 0 0 1.000000 0 0 0 0 1.000000 0 0 0 0 1.000000 0 0 0 1.000000 0"/>
        </filter>
    </defs>
    <g fill="none" fill-rule="evenodd">
        <g filter="url(#x21gor90ha)" transform="translate(-643.000000, -87.000000)">
            <g fill="#000" fill-rule="nonzero">
                <path d="M12.072 8.98c-.036-.035-.075-.068-.116-.099-.461-.309-1.073-.249-1.467.144l-.074.075c-.155.158-.287.338-.39.535l-.392.736v-9.14C9.656.647 9.257.132 8.693.017c-.617-.108-1.203.312-1.31.938-.012.07-.017.141-.016.212v9.204L6.8 9.341l-.357-.362c-.442-.45-1.16-.45-1.602 0-.022.022-.043.045-.063.07-.38.484-.334 1.182.107 1.61l2.782 2.824c.442.45 1.16.45 1.603.001l2.834-2.877c.433-.458.42-1.186-.032-1.627z" transform="translate(643.000000, 87.000000)"/>
                <path d="M16.999 14.973V8.07v-.069c-.108-1.725-1.094-2.726-2.833-2.801h-2.788c-.626 0-1.133.515-1.133 1.15 0 .636.507 1.15 1.133 1.15h2.737c.482 0 .567.07.618.616v6.805c0 .438-.108.576-.607.628H2.874c-.527-.04-.567-.167-.606-.576v-6.85c0-.628.192-.628.566-.628h2.833c.626 0 1.133-.515 1.133-1.15 0-.636-.507-1.15-1.133-1.15H2.834c-1.7 0-2.76 1.08-2.833 2.875v6.95c-.044 1.517 1.132 2.784 2.628 2.829H14.24c1.52.004 2.756-1.244 2.76-2.788l-.001-.088z" transform="translate(643.000000, 87.000000)"/>
            </g>
        </g>
    </g>
</svg>
