<svg xmlns="http://www.w3.org/2000/svg" width="21" height="21" viewBox="0 0 21 21">
    <defs>
        <filter id="2tlwfpnqja" color-interpolation-filters="auto">
            <feColorMatrix in="SourceGraphic" values="0 0 0 0 0.929412 0 0 0 0 0.341176 0 0 0 0 0.121569 0 0 0 1.000000 0"/>
        </filter>
    </defs>
    <g fill="none" fill-rule="evenodd">
        <g filter="url(#2tlwfpnqja)" transform="translate(-21.000000, -85.000000)">
            <g fill="#000" fill-rule="nonzero">
                <path d="M10.17 4.16l.648-.432c.206-.138.476-.138.682 0l.647.431.374-.249V0H9.797v3.91l.373.25z" transform="translate(21.000000, 85.000000)"/>
                <path d="M5.228 10.631h9.543l1.66-1.66c.308-.308.747-.626 1.274-.86V1.932C17.705.867 16.838 0 15.772 0h-2.02v4.24c0 .205-.104.397-.275.512l-.988.659c-.207.137-.476.137-.683 0l-.647-.432-.647.432c-.207.137-.476.137-.683 0l-.988-.66c-.171-.114-.274-.306-.274-.511V0h-2.02C5.48 0 4.612.867 4.612 1.933v8.083c0 .34.275.615.615.615zm1.406-2.636H9.27c.34 0 .615.276.615.616 0 .34-.276.615-.615.615H6.634c-.34 0-.616-.276-.616-.615 0-.34.276-.616.616-.616z" transform="translate(21.000000, 85.000000)"/>
                <path d="M20.648 9.285c-1.596-.793-2.922.13-3.346.555l-5.708 5.708c-.115.115-.272.18-.435.18H8.54c-.33 0-.616-.254-.631-.585-.017-.354.264-.645.614-.645h2.126c.164 0 .32-.065.435-.18l1.756-1.756c.258-.258.075-.7-.29-.7H6.593c-1.045 0-2.027.406-2.765 1.145L.18 16.655c-.24.24-.24.63 0 .87l3.295 3.295c.116.115.272.18.435.18.163 0 .32-.065.435-.18l1.797-1.797h5.676c.163 0 .32-.065.435-.18l8.567-8.567c.115-.115.18-.272.18-.435 0-.245-.144-.457-.352-.556z" transform="translate(21.000000, 85.000000)"/>
            </g>
        </g>
    </g>
</svg>
