<svg xmlns="http://www.w3.org/2000/svg" width="23" height="19" viewBox="0 0 23 19">
    <defs>
        <filter id="orany4zhca" color-interpolation-filters="auto">
            <feColorMatrix in="SourceGraphic" values="0 0 0 0 0.929412 0 0 0 0 0.341176 0 0 0 0 0.121569 0 0 0 1.000000 0"/>
        </filter>
    </defs>
    <g fill="none" fill-rule="evenodd">
        <g filter="url(#orany4zhca)" transform="translate(-380.000000, -86.000000)">
            <g fill="#000" fill-rule="nonzero">
                <path d="M8.49 9.774L9.099 8.929 7.78 8.521 5.646 5.561 3.513 8.521 0 9.607 2.195 12.523 2.157 16.155 5.646 14.997 6.574 15.305 3.559 11.299zM23 9.607L19.487 8.521 17.354 5.561 15.22 8.521 13.874 8.937 14.478 9.774 19.408 11.299 16.383 15.319 17.354 14.997 20.843 16.155 20.805 12.523zM10.81 0L12.158 0 12.158 3.6 10.81 3.6z" transform="translate(380.000000, 86.000000)"/>
                <path d="M7.401 2.48L8.739 2.489 8.754 4.677 7.416 4.668z" transform="translate(380.000000, 86.000000) translate(8.077845, 3.578393) rotate(-45.000000) translate(-8.077845, -3.578393)"/>
                <path d="M13.788 2.902L15.976 2.917 15.985 4.256 13.797 4.241z" transform="translate(380.000000, 86.000000) translate(14.886276, 3.579120) rotate(-45.000000) translate(-14.886276, -3.579120)"/>
                <path d="M17.13 12.03L13.617 10.943 11.484 7.983 9.351 10.943 5.837 12.03 8.032 14.945 7.994 18.577 11.484 17.419 14.974 18.577 14.936 14.945z" transform="translate(380.000000, 86.000000)"/>
            </g>
        </g>
    </g>
</svg>
