<svg xmlns="http://www.w3.org/2000/svg" width="19" height="21" viewBox="0 0 19 21">
    <defs>
        <filter id="3d1m3324xa" color-interpolation-filters="auto">
            <feColorMatrix in="SourceGraphic" values="0 0 0 0 1.000000 0 0 0 0 1.000000 0 0 0 0 1.000000 0 0 0 1.000000 0"/>
        </filter>
    </defs>
    <g fill="none" fill-rule="evenodd">
        <g filter="url(#3d1m3324xa)" transform="translate(-268.000000, -85.000000)">
            <g fill="#000" fill-rule="nonzero">
                <g>
                    <path d="M7.533 12.008V8.613H6.308c.111 1.596.628 2.854 1.225 3.395zM8.788 8.613v3.395c.597-.54 1.114-1.8 1.225-3.395H8.788zM8.788 3.987v3.396h1.225c-.11-1.596-.628-2.854-1.225-3.396zM7.533 7.383V3.987c-.597.542-1.114 1.8-1.225 3.396h1.225zM11.266 7.383h1.225c-.184-1.244-.897-2.319-1.925-2.982.386.812.633 1.83.7 2.982z" transform="translate(268.000000, 85.000000) translate(1.339348, 0.000000)"/>
                    <path d="M8.16 0C3.662 0 0 3.588 0 7.998c0 4.478 3.716 7.998 8.16 7.998 4.442 0 8.161-3.52 8.161-7.998 0-4.41-3.66-7.998-8.16-7.998zm0 13.535c-3.115 0-5.649-2.484-5.649-5.537S5.045 2.46 8.161 2.46c3.115 0 5.65 2.484 5.65 5.537s-2.535 5.537-5.65 5.537z" transform="translate(268.000000, 85.000000) translate(1.339348, 0.000000)"/>
                    <path d="M11.266 8.613c-.067 1.151-.314 2.17-.7 2.981 1.028-.662 1.741-1.737 1.925-2.98h-1.225zM5.055 7.383c.067-1.152.314-2.17.7-2.982-1.028.663-1.741 1.738-1.925 2.982h1.225zM5.055 8.613H3.83c.184 1.244.897 2.319 1.925 2.981-.386-.811-.633-1.83-.7-2.98z" transform="translate(268.000000, 85.000000) translate(1.339348, 0.000000)"/>
                </g>
                <path d="M2.953 14.775L.184 17.489c-.18.176-.234.44-.136.67.097.23.326.38.58.38h3.378l1.082 2.12c.098.191.289.32.505.338.207.02.424-.067.559-.244l2.673-3.493c-2.15-.13-4.153-.904-5.872-2.485zM16.046 14.774c-1.669 1.538-3.648 2.352-5.87 2.487l2.672 3.492c.135.177.352.264.559.244.216-.019.407-.147.505-.337l1.082-2.121h3.378c.254 0 .483-.15.58-.38.098-.23.044-.494-.136-.67l-2.77-2.715z" transform="translate(268.000000, 85.000000)"/>
            </g>
        </g>
    </g>
</svg>
