<svg xmlns="http://www.w3.org/2000/svg" width="22" height="13" viewBox="0 0 22 13">
    <defs>
        <filter id="p0lm1p8l3a" color-interpolation-filters="auto">
            <feColorMatrix in="SourceGraphic" values="0 0 0 0 1.000000 0 0 0 0 1.000000 0 0 0 0 1.000000 0 0 0 1.000000 0"/>
        </filter>
    </defs>
    <g fill="none" fill-rule="evenodd">
        <g filter="url(#p0lm1p8l3a)" transform="translate(-531.000000, -89.000000)">
            <g fill="#000" fill-rule="nonzero" transform="translate(531.000000, 89.000000)">
                <circle cx="8.422" cy="4.492" r="1"/>
                <circle cx="13.578" cy="8.342" r="1"/>
                <path d="M20.066 0H1.934C.867 0 0 .864 0 1.925v2.567c0 .354.288.641.645.641h.644c.71 0 1.29.576 1.29 1.284 0 .707-.58 1.283-1.29 1.283H.645C.288 7.7 0 7.987 0 8.342v2.566c0 1.062.867 1.925 1.934 1.925h18.132c1.067 0 1.934-.863 1.934-1.925V8.342c0-.355-.288-.642-.645-.642h-.644c-.71 0-1.29-.576-1.29-1.283 0-.708.58-1.284 1.29-1.284h.644c.357 0 .645-.287.645-.641V1.925C22 .864 21.133 0 20.066 0zM6.488 4.492c0-1.062.868-1.925 1.934-1.925 1.066 0 1.933.863 1.933 1.925 0 1.061-.867 1.925-1.933 1.925s-1.934-.864-1.934-1.925zm1.531 5.634c-.278-.222-.323-.625-.1-.902l5.156-6.417c.223-.275.628-.321.906-.1.278.222.323.625.1.902l-5.156 6.417c-.224.277-.629.32-.906.1zm5.56.14c-1.067 0-1.934-.863-1.934-1.924 0-1.062.867-1.925 1.933-1.925s1.934.863 1.934 1.925c0 1.061-.868 1.925-1.934 1.925z"/>
            </g>
        </g>
    </g>
</svg>
