<svg id="Marketplace" xmlns="http://www.w3.org/2000/svg" width="25" height="25" viewBox="0 0 25 25">
  <g id="marketplace-vendor-setting" transform="translate(-11 -349)">
    <g id="Group_10" data-name="Group 10" transform="translate(11 349)">
      <path id="Shape" d="M24.443,10.381l-2.925-.718A9.442,9.442,0,0,0,20.9,8.169L22.4,5.679a.729.729,0,0,0-.1-.894l-2.08-2.08a.729.729,0,0,0-.893-.1L16.831,4.1a9.434,9.434,0,0,0-1.494-.615l-.7-2.925A.752.752,0,0,0,13.916,0h-2.93a.751.751,0,0,0-.718.557l-.7,2.925A9.434,9.434,0,0,0,8.071,4.1L5.581,2.6a.729.729,0,0,0-.894.1l-2.08,2.08a.729.729,0,0,0-.1.894L4,8.169a9.433,9.433,0,0,0-.615,1.494l-2.827.718a.722.722,0,0,0-.557.7v2.93a.722.722,0,0,0,.557.7l2.827.718A9.433,9.433,0,0,0,4,16.929L2.5,19.419a.729.729,0,0,0,.1.894l2.08,2.08a.729.729,0,0,0,.894.1L8.071,21a9.433,9.433,0,0,0,1.494.615l.7,2.827a.752.752,0,0,0,.718.557h2.93a.752.752,0,0,0,.718-.557l.7-2.827A9.433,9.433,0,0,0,16.831,21l2.49,1.494a.729.729,0,0,0,.893-.1l2.08-2.08a.729.729,0,0,0,.1-.894L20.9,16.929a9.442,9.442,0,0,0,.615-1.494l2.925-.718a.722.722,0,0,0,.557-.7v-2.93A.722.722,0,0,0,24.443,10.381Zm-11.992,5.83a3.662,3.662,0,1,1,3.662-3.662A3.663,3.663,0,0,1,12.451,16.211Z" fill="#3585ed"/>
    </g>
  </g>
</svg>
