<svg id="Marketplace" xmlns="http://www.w3.org/2000/svg" width="21" height="21" viewBox="0 0 21 21">
  <g id="marketplace-payments" transform="translate(-515 -84)">
    <g id="Group_2" data-name="Group 2" transform="translate(515 84)">
      <path id="Path" d="M1.887,12.387H.615A.615.615,0,0,0,0,13v7.383A.615.615,0,0,0,.615,21H1.887a1.848,1.848,0,0,0,1.846-1.846V14.232A1.848,1.848,0,0,0,1.887,12.387Z" fill="#3585ed"/>
      <path id="Shape" d="M14.232,0A6.758,6.758,0,0,0,9,11.05a5.49,5.49,0,0,1,2.116,1.157.485.485,0,0,0,.308.1h2.19a2.4,2.4,0,0,1,2.03,1.083A6.769,6.769,0,0,0,14.232,0Zm.628,9.733h-.012v.726a.615.615,0,0,1-1.231,0V9.733a2.441,2.441,0,0,1-1.12-.8.611.611,0,1,1,.935-.787c.332.394.7.541,1.009.431a.615.615,0,0,0-.209-1.194,1.843,1.843,0,0,1-.714-3.544c.025-.012.062-.012.1-.025V3.076a.615.615,0,0,1,1.231,0v.738a2.42,2.42,0,0,1,.91.541.618.618,0,0,1-.861.886.832.832,0,0,0-.9-.271.613.613,0,0,0,.234,1.181,1.845,1.845,0,0,1,.628,3.581Z" fill="#3585ed"/>
      <path id="Path-2" data-name="Path" d="M20.815,13.58a1.125,1.125,0,0,0-.283-.308,1.219,1.219,0,0,0-1.661.123l-2.793,3.224-.086.1a1.816,1.816,0,0,1-1.353.591H9.823a.615.615,0,0,1,0-1.23h3.794a1.234,1.234,0,0,0,1.231-1.231v-.012a1.232,1.232,0,0,0-1.231-1.218H11.349a1.693,1.693,0,0,1-1.083-.406,4.312,4.312,0,0,0-5.3-.283V20.5A14.205,14.205,0,0,0,8.7,21h5.529a4.312,4.312,0,0,0,3.445-1.723l2.953-3.937A1.629,1.629,0,0,0,20.815,13.58Z" fill="#3585ed"/>
    </g>
  </g>
</svg>
