<svg id="Marketplace" xmlns="http://www.w3.org/2000/svg" width="21" height="21" viewBox="0 0 21 21">
  <g id="marketplace-settings" transform="translate(-941 -87)">
    <g id="Group_6" data-name="Group 6" transform="translate(941 87)">
      <path id="Shape" d="M20.532,8.72l-2.457-.6a7.927,7.927,0,0,0-.517-1.255L18.814,4.77a.612.612,0,0,0-.086-.751L16.98,2.272a.612.612,0,0,0-.751-.086L14.138,3.441a7.926,7.926,0,0,0-1.255-.517L12.292.468a.631.631,0,0,0-.6-.468H9.229a.631.631,0,0,0-.6.468L8.035,2.924a7.925,7.925,0,0,0-1.255.517L4.688,2.186a.612.612,0,0,0-.751.086L2.19,4.02A.612.612,0,0,0,2.1,4.77L3.359,6.862a7.925,7.925,0,0,0-.517,1.255l-2.375.6A.606.606,0,0,0,0,9.311v2.461a.606.606,0,0,0,.468.591l2.375.6a7.921,7.921,0,0,0,.517,1.255L2.1,16.312a.612.612,0,0,0,.086.751L3.938,18.81a.612.612,0,0,0,.751.086L6.78,17.641a7.918,7.918,0,0,0,1.255.517l.591,2.375a.631.631,0,0,0,.6.468h2.461a.631.631,0,0,0,.6-.468l.591-2.375a7.918,7.918,0,0,0,1.255-.517L16.23,18.9a.612.612,0,0,0,.751-.086l1.747-1.747a.612.612,0,0,0,.086-.751L17.559,14.22a7.924,7.924,0,0,0,.517-1.255l2.457-.6A.606.606,0,0,0,21,11.771V9.311A.606.606,0,0,0,20.532,8.72Zm-10.073,4.9a3.076,3.076,0,1,1,3.076-3.076A3.077,3.077,0,0,1,10.459,13.617Z" fill="#3585ed"/>
    </g>
  </g>
</svg>
