<svg id="Marketplace" xmlns="http://www.w3.org/2000/svg" width="21" height="21" viewBox="0 0 21 21">
  <g id="marketplace-report" transform="translate(-807 -87)">
    <g id="Group_3" data-name="Group 3" transform="translate(807 87)">
      <path id="Path" d="M20.385,19.77H1.23V.615A.615.615,0,0,0,0,.615v19.77A.615.615,0,0,0,.615,21h19.77a.615.615,0,0,0,0-1.23Z" fill="#3585ed"/>
      <path id="Path-2" data-name="Path" d="M3.076,18.539h2.5a.615.615,0,0,0,.615-.615V14.191a.615.615,0,0,0-.615-.615h-2.5a.615.615,0,0,0-.615.615v3.732A.615.615,0,0,0,3.076,18.539Z" fill="#3585ed"/>
      <path id="Path-3" data-name="Path" d="M8.039,11.115a.615.615,0,0,0-.615.615v6.193a.615.615,0,0,0,.615.615H10.5a.615.615,0,0,0,.615-.615V11.731a.615.615,0,0,0-.615-.615Z" fill="#3585ed"/>
      <path id="Path-4" data-name="Path" d="M12.961,8.654a.615.615,0,0,0-.615.615v8.654a.615.615,0,0,0,.615.615h2.461a.615.615,0,0,0,.615-.615V9.27a.615.615,0,0,0-.615-.615Z" fill="#3585ed"/>
      <path id="Path-5" data-name="Path" d="M20.385,6.193h-2.5a.615.615,0,0,0-.615.615V17.924a.615.615,0,0,0,.615.615h2.5A.615.615,0,0,0,21,17.924V6.809A.615.615,0,0,0,20.385,6.193Z" fill="#3585ed"/>
      <path id="Path-6" data-name="Path" d="M2.534,10.791a.616.616,0,0,0,.833.25L17.694,3.35l-.361.723a.615.615,0,1,0,1.1.55l1.23-2.461a.615.615,0,0,0-.55-.89H16.037a.615.615,0,0,0,0,1.23h.636L2.785,9.958A.616.616,0,0,0,2.534,10.791Z" fill="#3585ed"/>
    </g>
  </g>
</svg>
