<svg id="Marketplace" xmlns="http://www.w3.org/2000/svg" width="20" height="21" viewBox="0 0 20 21">
  <g id="marketplace-vendor" transform="translate(-243 -84)">
    <g id="Group_11" data-name="Group 11" transform="translate(243 84)">
      <path id="Path" d="M19,18.98h-.424V8.484h0a2.482,2.482,0,0,1-1.424-.459,2.466,2.466,0,0,1-1.434.459,2.43,2.43,0,0,1-.318-.026v7.807a.8.8,0,0,1-.8.807H11.709V14.861l1.017,1.706a.639.639,0,0,0,.88.222.647.647,0,0,0,.22-.885l-2.044-3.43a.633.633,0,0,0-.586-.3c-.015,0-2.368,0-2.382,0a.635.635,0,0,0-.595.306L6.174,15.9a.647.647,0,0,0,.22.885.639.639,0,0,0,.88-.222L8.3,14.85v2.222H5.407a.8.8,0,0,1-.8-.807V8.458a2.43,2.43,0,0,1-.318.026,2.508,2.508,0,0,1-.49-.049,2.471,2.471,0,0,1-.945-.41,2.48,2.48,0,0,1-1.424.459h0v10.5H1A1.01,1.01,0,0,0,1,21H19a1.01,1.01,0,0,0,0-2.02Z" fill="#3585ed"/>
      <path id="Path-2" data-name="Path" d="M10,8.546a1.447,1.447,0,0,0-1.336,1.537A1.448,1.448,0,0,0,10,11.62a1.448,1.448,0,0,0,1.337-1.537A1.447,1.447,0,0,0,10,8.546Z" fill="#3585ed"/>
      <path id="Path-3" data-name="Path" d="M1.02,7.347A1.425,1.425,0,0,0,2.8,6.381l.075-.253a1.423,1.423,0,0,0,2.814.122l.035-.176A1.43,1.43,0,0,0,7,7.4c.048,0,.1.007.144.007a1.432,1.432,0,0,0,1.42-1.294l.011-.107a1.425,1.425,0,0,0,2.85,0l.011.107a1.432,1.432,0,0,0,1.42,1.294c.048,0,.1,0,.144-.007a1.43,1.43,0,0,0,1.279-1.325l.035.176a1.423,1.423,0,0,0,2.814-.122l.075.253a1.429,1.429,0,1,0,2.738-.822L18.651,1.22A1.7,1.7,0,0,0,17.022,0H2.978A1.7,1.7,0,0,0,1.349,1.22L.06,5.559A1.438,1.438,0,0,0,1.02,7.347Z" fill="#3585ed"/>
    </g>
  </g>
</svg>
