<svg id="Marketplace" xmlns="http://www.w3.org/2000/svg" width="13.095" height="25" viewBox="0 0 13.095 25">
  <g id="marketplace-vendor-list" transform="translate(-17 -189)">
    <g id="Group_8" data-name="Group 8" transform="translate(17 189)">
      <path id="XMLID_402_" d="M6.376,4.876A2.393,2.393,0,0,0,8.722,2.438,2.393,2.393,0,0,0,6.376,0,2.393,2.393,0,0,0,4.03,2.438,2.393,2.393,0,0,0,6.376,4.876Z" fill="#3585ed"/>
      <path id="XMLID_399_" d="M12.614,16.137h-.152v-1.4a1.068,1.068,0,0,0,.2-1.158L9.316,5.963A.984.984,0,0,0,8.3,5.372H4.454a.984.984,0,0,0-1.018.591L.091,13.58a1.06,1.06,0,0,0,.5,1.382A.969.969,0,0,0,1,15.056a1,1,0,0,0,.914-.61l1.616-3.681,0,12.984A1.228,1.228,0,0,0,4.734,25a1.228,1.228,0,0,0,1.2-1.251V16.292h.878v7.457a1.2,1.2,0,1,0,2.408,0l0-12.984,1.617,3.681a1.013,1.013,0,0,0,.421.47v1.221h-.152a.491.491,0,0,0-.481.5v5.23a.491.491,0,0,0,.481.5h1.508a.491.491,0,0,0,.481-.5v-5.23A.491.491,0,0,0,12.614,16.137ZM7.207,11.042l-.642,1.272a.214.214,0,0,1-.19.119.211.211,0,0,1-.188-.119l-.643-1.271A.514.514,0,0,1,5.49,10.8a13.743,13.743,0,0,1,.448-3.664l-.3-.31a.227.227,0,0,1,0-.314l.585-.608a.207.207,0,0,1,.3,0l.585.608a.227.227,0,0,1,0,.314l-.3.31A13.72,13.72,0,0,1,7.262,10.8.528.528,0,0,1,7.207,11.042Z" fill="#3585ed"/>
    </g>
  </g>
</svg>
