<svg id="settle-list-on" xmlns="http://www.w3.org/2000/svg" width="18.75" height="25" viewBox="0 0 18.75 25">
  <g id="Group_39" data-name="Group 39" transform="translate(-15 -487)">
    <g id="Group_38" data-name="Group 38">
      <path id="Path_7" data-name="Path 7" d="M13.281,1.563h-1.7a2.343,2.343,0,0,0-4.419,0h-1.7a.781.781,0,0,0-.782.78V5.47a.782.782,0,0,0,.782.781H13.28a.781.781,0,0,0,.781-.781V2.344a.781.781,0,0,0-.78-.781Z" transform="translate(15 487)" fill="#3585ed"/>
      <path id="Path_8" data-name="Path 8" d="M17.188,3.125H15.625V5.469a2.346,2.346,0,0,1-2.344,2.343H5.47A2.346,2.346,0,0,1,3.126,5.469V3.125H1.562A1.566,1.566,0,0,0,0,4.688v18.75A1.545,1.545,0,0,0,1.563,25H17.187a1.546,1.546,0,0,0,1.563-1.563V4.688a1.545,1.545,0,0,0-1.563-1.562ZM9.146,16.959,6.021,20.084a.782.782,0,0,1-1.106,0L3.352,18.522a.781.781,0,0,1,1.1-1.1l1.01,1.01L8.04,15.855a.781.781,0,0,1,1.106,1.1Zm0-6.25L6.021,13.834a.782.782,0,0,1-1.106,0L3.352,12.272a.781.781,0,0,1,1.1-1.1l1.01,1.01L8.04,9.6a.781.781,0,0,1,1.106,1.1Zm5.7,8.041H11.718a.782.782,0,0,1,0-1.563h3.126a.782.782,0,0,1,0,1.563Zm0-6.25H11.718a.781.781,0,0,1,0-1.562h3.126a.781.781,0,1,1,0,1.562Z" transform="translate(15 487)" fill="#3585ed"/>
    </g>
  </g>
</svg>
