<svg xmlns="http://www.w3.org/2000/svg" width="19" height="19" viewBox="0 0 19 19">
    <defs>
        <filter id="l0h7prf5na" color-interpolation-filters="auto">
            <feColorMatrix in="SourceGraphic" values="0 0 0 0 1.000000 0 0 0 0 1.000000 0 0 0 0 1.000000 0 0 0 1.000000 0"/>
        </filter>
    </defs>
    <g fill="none" fill-rule="evenodd">
        <g filter="url(#l0h7prf5na)" transform="translate(-471.000000, -88.000000)">
            <g>
                <path fill="#000" fill-rule="nonzero" d="M17.084 0H1.916C.858 0 0 .859 0 1.918v15.164C0 18.142.858 19 1.916 19h15.168C18.142 19 19 18.141 19 17.082V1.902C18.992.85 18.136 0 17.084 0zM8.542 16.097c0 .635-.515 1.15-1.15 1.15H2.901c-.635 0-1.15-.515-1.15-1.15v-4.465c0-.635.515-1.15 1.15-1.15h4.46c.636 0 1.15.515 1.15 1.15l.031 4.465zm0-8.745c0 .636-.515 1.15-1.15 1.15H2.901c-.635 0-1.15-.514-1.15-1.15V2.888c0-.635.515-1.15 1.15-1.15h4.46c.636 0 1.15.515 1.15 1.15l.031 4.464zm7.534 6.662H14.16v1.918c0 .159-.129.287-.287.287-.16 0-.288-.128-.288-.287v-1.918H11.67c-.159 0-.287-.129-.287-.288 0-.158.128-.287.287-.287h1.916V11.52c0-.159.129-.287.288-.287.158 0 .287.128.287.287v1.918h1.916c.159 0 .287.129.287.287 0 .16-.128.288-.287.288zm1.184-6.662c0 .636-.515 1.15-1.15 1.15h-4.472c-.635 0-1.15-.514-1.15-1.15V2.888c0-.635.515-1.15 1.15-1.15h4.457c.635 0 1.15.515 1.15 1.15l.015 4.464z" transform="translate(471.000000, 88.000000)"/>
            </g>
        </g>
    </g>
</svg>
