<svg id="CMS" xmlns="http://www.w3.org/2000/svg" width="21" height="21" viewBox="0 0 21 21">
  <g id="cms-blog" transform="translate(-377 -86)">
    <g id="Group_30" data-name="Group 30" transform="translate(377 86)">
      <path id="Shape" d="M0,2.25H21V.375A.375.375,0,0,0,20.625,0H.375A.375.375,0,0,0,0,.375ZM19.5.75h.375a.375.375,0,0,1,0,.75H19.5a.375.375,0,0,1,0-.75ZM9,.75h9a.375.375,0,0,1,0,.75H9A.375.375,0,0,1,9,.75ZM4.875.75H5.25a.375.375,0,0,1,0,.75H4.875a.375.375,0,0,1,0-.75ZM3,.75h.375a.375.375,0,0,1,0,.75H3A.375.375,0,0,1,3,.75ZM1.125.75H1.5a.375.375,0,0,1,0,.75H1.125a.375.375,0,0,1,0-.75Z" fill="#b282e7"/>
      <path id="Path" d="M2.25,5.25H9V10.5H2.25Z" fill="#b282e7"/>
      <path id="Path-2" data-name="Path" d="M2.25,13.5H9v5.25H2.25Z" fill="#b282e7"/>
      <path id="Shape-2" data-name="Shape" d="M.375,21h20.25A.375.375,0,0,0,21,20.625V3H0V20.625A.375.375,0,0,0,.375,21Zm18.75-1.5H18.75a.375.375,0,0,1,0-.75h.375a.375.375,0,0,1,0,.75Zm0-8.25H18.75a.375.375,0,0,1,0-.75h.375a.375.375,0,0,1,0,.75Zm.375,1.875a.375.375,0,0,1-.375.375H13.5a.375.375,0,0,1,0-.75h5.625A.375.375,0,0,1,19.5,13.125ZM13.5,4.5h5.625a.375.375,0,0,1,0,.75H13.5a.375.375,0,0,1,0-.75Zm-1.875,0H12a.375.375,0,0,1,0,.75h-.375a.375.375,0,0,1,0-.75Zm0,1.5h7.5a.375.375,0,0,1,0,.75h-7.5a.375.375,0,0,1,0-.75Zm0,1.5h7.5a.375.375,0,0,1,0,.75h-7.5a.375.375,0,0,1,0-.75Zm0,1.5h7.5a.375.375,0,0,1,0,.75h-7.5a.375.375,0,0,1,0-.75Zm0,1.5H17.25a.375.375,0,0,1,0,.75H11.625a.375.375,0,0,1,0-.75Zm0,2.25H12a.375.375,0,0,1,0,.75h-.375a.375.375,0,0,1,0-.75Zm0,1.5h7.5a.375.375,0,0,1,0,.75h-7.5a.375.375,0,0,1,0-.75Zm0,1.5h7.5a.375.375,0,0,1,0,.75h-7.5a.375.375,0,0,1,0-.75Zm0,1.5h7.5a.375.375,0,0,1,0,.75h-7.5a.375.375,0,0,1,0-.75Zm0,1.5H17.25a.375.375,0,0,1,0,.75H11.625a.375.375,0,0,1,0-.75ZM1.5,4.875A.375.375,0,0,1,1.875,4.5h7.5a.375.375,0,0,1,.375.375v6a.375.375,0,0,1-.375.375h-7.5a.375.375,0,0,1-.375-.375Zm0,8.25a.375.375,0,0,1,.375-.375h7.5a.375.375,0,0,1,.375.375v6a.375.375,0,0,1-.375.375h-7.5a.375.375,0,0,1-.375-.375Z" fill="#b282e7"/>
    </g>
  </g>
</svg>
