<svg id="CMS" xmlns="http://www.w3.org/2000/svg" width="23" height="21" viewBox="0 0 23 21">
  <g id="cms-files-group" transform="translate(-127 -86)">
    <g id="Group_31" data-name="Group 31" transform="translate(127 86)">
      <path id="Shape" d="M20.9,0a.738.738,0,1,0,0,1.476.611.611,0,0,1,.612.608V18.915a.611.611,0,0,1-.612.608A.738.738,0,1,0,20.9,21,2.092,2.092,0,0,0,23,18.915V2.084A2.092,2.092,0,0,0,20.9,0ZM17.466,0a.738.738,0,1,0,0,1.476.611.611,0,0,1,.612.608V18.915a.611.611,0,0,1-.612.608.738.738,0,1,0,0,1.476,2.092,2.092,0,0,0,2.1-2.084V2.084A2.092,2.092,0,0,0,17.466,0ZM16.123,2.084V18.915A2.092,2.092,0,0,1,14.027,21H7.084a.74.74,0,0,1-.742-.739c0-.658,0-1.97,0-4.642a.927.927,0,0,0-.929-.924c-2.686,0-4.005,0-4.668,0A.74.74,0,0,1,0,13.955V2.084A2.09,2.09,0,0,1,2.1,0H14.027A2.092,2.092,0,0,1,16.123,2.084ZM5.631,16.138v4.123a.743.743,0,0,1-1.267.522c-4.478-4.454-4.29-4.2-4.35-4.5a.739.739,0,0,1,.728-.88H4.889A.74.74,0,0,1,5.631,16.138Z" fill="#b282e7"/>
    </g>
  </g>
</svg>
