<svg xmlns="http://www.w3.org/2000/svg" width="18" height="19" viewBox="0 0 18 19">
    <defs>
        <filter id="3titssq79a" color-interpolation-filters="auto">
            <feColorMatrix in="SourceGraphic" values="0 0 0 0 1.000000 0 0 0 0 1.000000 0 0 0 0 1.000000 0 0 0 1.000000 0"/>
        </filter>
    </defs>
    <g fill="none" fill-rule="evenodd">
        <g filter="url(#3titssq79a)" transform="translate(-24.000000, -88.000000)">
            <g>
                <path fill="#000" fill-rule="nonzero" d="M13.513.63l3.044 3H14.87c-.749-.003-1.355-.601-1.357-1.34V.63zM10.563 19H1.357C.608 18.998.002 18.4 0 17.66V4.505c.002-.738.608-1.337 1.357-1.339h5.985v2.29c0 1.233 1.013 2.232 2.262 2.232h2.32v9.974c-.004.74-.611 1.337-1.36 1.339zm.728-12.205H9.604c-.749-.003-1.355-.6-1.357-1.34v-1.66l3.044 3zm4.542 9.04h-3.008V7.232c0-.118-.048-.232-.131-.317l-4.57-4.504-.004-.005c-.085-.087-.203-.135-.325-.134H5.27V1.34C5.272.601 5.88.002 6.627 0h5.985v2.29c0 1.233 1.013 2.232 2.262 2.232h2.316v9.973c-.002.74-.608 1.338-1.357 1.34z" transform="translate(24.000000, 88.000000)"/>
            </g>
        </g>
    </g>
</svg>
