<svg xmlns="http://www.w3.org/2000/svg" width="19" height="19" viewBox="0 0 19 19">
    <defs>
        <filter id="eon8ykw1za" color-interpolation-filters="auto">
            <feColorMatrix in="SourceGraphic" values="0 0 0 0 1.000000 0 0 0 0 1.000000 0 0 0 0 1.000000 0 0 0 1.000000 0"/>
        </filter>
    </defs>
    <g fill="none" fill-rule="evenodd">
        <g filter="url(#eon8ykw1za)" transform="translate(-258.000000, -88.000000)">
            <g fill="#000" fill-rule="nonzero">
                <path d="M0 2.714L2.714 2.714 2.714 6.107 0 6.107zM0 6.786L2.714 6.786 2.714 10.518 0 10.518zM.34 19h2.374v-3.393H0v3.054c0 .187.152.339.34.339zM0 11.196L2.714 11.196 2.714 14.929 0 14.929zM19 .34c0-.188-.152-.34-.34-.34H.34C.151 0 0 .152 0 .34v1.696h19V.339zM1.357 1.356h-.34c-.187 0-.338-.152-.338-.34C.679.83.83.68 1.018.68h.34c.187 0 .338.151.338.339 0 .187-.151.34-.339.34zm1.697 0h-.34c-.187 0-.339-.152-.339-.34 0-.187.152-.338.34-.338h.339c.187 0 .339.151.339.339 0 .187-.152.34-.34.34zm1.696 0h-.34c-.187 0-.339-.152-.339-.34 0-.187.152-.338.34-.338h.339c.187 0 .34.151.34.339 0 .187-.153.34-.34.34zm11.536 0H8.143c-.188 0-.34-.152-.34-.34 0-.187.152-.338.34-.338h8.143c.187 0 .339.151.339.339 0 .187-.152.34-.34.34zm1.696 0h-.34c-.187 0-.338-.152-.338-.34 0-.187.151-.338.339-.338h.34c.187 0 .338.151.338.339 0 .187-.151.34-.339.34zM5.429 4.75L16.964 4.75 16.964 9.5 5.429 9.5z" transform="translate(258.000000, 88.000000)"/>
                <path d="M19 18.66V2.715H3.393V19H18.66c.187 0 .339-.152.339-.34zm-3.393-1.017H5.09c-.187 0-.339-.152-.339-.34 0-.187.152-.339.34-.339h10.517c.188 0 .34.152.34.34 0 .187-.152.339-.34.339zm1.697 0h-.34c-.187 0-.339-.152-.339-.34 0-.187.152-.339.34-.339h.339c.187 0 .339.152.339.34 0 .187-.152.339-.34.339zm0-1.357H5.089c-.187 0-.339-.152-.339-.34 0-.187.152-.339.34-.339h12.214c.187 0 .339.152.339.34 0 .187-.152.339-.34.339zm0-1.357H5.089c-.187 0-.339-.152-.339-.34 0-.187.152-.339.34-.339h12.214c.187 0 .339.152.339.34 0 .187-.152.339-.34.339zm0-1.358H5.089c-.187 0-.339-.151-.339-.339 0-.187.152-.34.34-.34h12.214c.187 0 .339.153.339.34 0 .188-.152.34-.34.34zM4.75 11.875c0-.187.152-.34.34-.34h.339c.187 0 .339.153.339.34 0 .187-.152.34-.34.34H5.09c-.187 0-.339-.153-.339-.34zm12.554.34H6.786c-.188 0-.34-.153-.34-.34 0-.187.152-.34.34-.34h10.518c.187 0 .339.153.339.34 0 .187-.152.34-.34.34zm.339-2.376c0 .188-.152.34-.34.34H5.09c-.187 0-.339-.152-.339-.34V4.411c0-.188.152-.34.34-.34h12.214c.187 0 .339.152.339.34v5.428z" transform="translate(258.000000, 88.000000)"/>
            </g>
        </g>
    </g>
</svg>
