<svg xmlns="http://www.w3.org/2000/svg" width="20" height="18" viewBox="0 0 20 18">
    <defs>
        <filter id="2fquvoj4xa" color-interpolation-filters="auto">
            <feColorMatrix in="SourceGraphic" values="0 0 0 0 1.000000 0 0 0 0 1.000000 0 0 0 0 1.000000 0 0 0 1.000000 0"/>
        </filter>
    </defs>
    <g fill="none" fill-rule="evenodd">
        <g filter="url(#2fquvoj4xa)" transform="translate(-128.000000, -89.000000)">
            <g>
                <path fill="#000" fill-rule="nonzero" d="M17.918 0c-.351 0-.636.283-.636.632 0 .35.285.633.636.633.29 0 .524.234.524.521v14.427c0 .287-.235.521-.524.521-.351 0-.636.283-.636.633 0 .349.285.632.636.632.99 0 1.796-.801 1.796-1.786V1.786C19.714.801 18.908 0 17.918 0zM14.97 0c-.351 0-.636.283-.636.632 0 .35.285.633.636.633.289 0 .524.234.524.521v14.427c0 .287-.235.521-.524.521-.351 0-.636.283-.636.633 0 .349.285.632.636.632.99 0 1.796-.801 1.796-1.786V1.786C16.767.801 15.961 0 14.971 0zM13.82 1.786v14.427c0 .985-.806 1.786-1.797 1.786H6.072c-.352 0-.636-.284-.636-.634.002-.564 0-1.689 0-3.978 0-.438-.358-.793-.797-.793-2.303 0-3.434-.002-4.001 0-.352 0-.638-.283-.638-.633V1.786C0 .8.804 0 1.797 0h10.226c.991 0 1.797.801 1.797 1.786zM4.826 13.832v3.535c0 .552-.671.85-1.086.447-3.838-3.818-3.677-3.597-3.728-3.86-.077-.386.222-.754.624-.754H4.19c.351 0 .636.283.636.632z" transform="translate(128.000000, 89.000000)"/>
            </g>
        </g>
    </g>
</svg>
