<svg id="CMS" xmlns="http://www.w3.org/2000/svg" width="21" height="21" viewBox="0 0 21 21">
  <g id="cms-banner" transform="translate(-263 -86)">
    <g id="Group_29" data-name="Group 29" transform="translate(263 86)">
      <path id="Path" d="M0,3H3V6.75H0Z" fill="#b282e7"/>
      <path id="Path-2" data-name="Path" d="M0,7.5H3v4.125H0Z" fill="#b282e7"/>
      <path id="Path-3" data-name="Path" d="M.375,21H3V17.25H0v3.375A.375.375,0,0,0,.375,21Z" fill="#b282e7"/>
      <path id="Path-4" data-name="Path" d="M0,12.375H3V16.5H0Z" fill="#b282e7"/>
      <path id="Shape" d="M21,.375A.375.375,0,0,0,20.625,0H.375A.375.375,0,0,0,0,.375V2.25H21ZM1.5,1.5H1.125a.375.375,0,0,1,0-.75H1.5a.375.375,0,0,1,0,.75Zm1.875,0H3A.375.375,0,0,1,3,.75h.375a.375.375,0,0,1,0,.75Zm1.875,0H4.875a.375.375,0,0,1,0-.75H5.25a.375.375,0,0,1,0,.75ZM18,1.5H9A.375.375,0,0,1,9,.75h9a.375.375,0,0,1,0,.75Zm1.875,0H19.5a.375.375,0,0,1,0-.75h.375a.375.375,0,0,1,0,.75Z" fill="#b282e7"/>
      <path id="Path-5" data-name="Path" d="M6,5.25H18.75V10.5H6Z" fill="#b282e7"/>
      <path id="Shape-2" data-name="Shape" d="M21,20.625V3H3.75V21H20.625A.375.375,0,0,0,21,20.625ZM17.25,19.5H5.625a.375.375,0,0,1,0-.75H17.25a.375.375,0,0,1,0,.75Zm1.875,0H18.75a.375.375,0,0,1,0-.75h.375a.375.375,0,0,1,0,.75Zm0-1.5H5.625a.375.375,0,0,1,0-.75h13.5a.375.375,0,0,1,0,.75Zm0-1.5H5.625a.375.375,0,0,1,0-.75h13.5a.375.375,0,0,1,0,.75Zm0-1.5H5.625a.375.375,0,0,1,0-.75h13.5a.375.375,0,0,1,0,.75ZM5.25,13.125a.375.375,0,0,1,.375-.375H6a.375.375,0,0,1,0,.75H5.625A.375.375,0,0,1,5.25,13.125Zm13.875.375H7.5a.375.375,0,0,1,0-.75H19.125a.375.375,0,0,1,0,.75Zm.375-2.625a.375.375,0,0,1-.375.375H5.625a.375.375,0,0,1-.375-.375v-6A.375.375,0,0,1,5.625,4.5h13.5a.375.375,0,0,1,.375.375Z" fill="#b282e7"/>
    </g>
  </g>
</svg>
