<svg xmlns="http://www.w3.org/2000/svg" width="19" height="19" viewBox="0 0 19 19">
    <defs>
        <filter id="awtta5p3ua" color-interpolation-filters="auto">
            <feColorMatrix in="SourceGraphic" values="0 0 0 0 1.000000 0 0 0 0 1.000000 0 0 0 0 1.000000 0 0 0 1.000000 0"/>
        </filter>
    </defs>
    <g fill="none" fill-rule="evenodd">
        <g filter="url(#awtta5p3ua)" transform="translate(-371.000000, -88.000000)">
            <g fill="#000" fill-rule="nonzero">
                <path d="M0 2.036h19V.339C19 .152 18.848 0 18.66 0H.34C.151 0 0 .152 0 .34v1.696zM17.643.679h.34c.187 0 .338.151.338.339 0 .187-.151.34-.339.34h-.34c-.187 0-.338-.153-.338-.34 0-.188.151-.34.339-.34zm-9.5 0h8.143c.187 0 .339.151.339.339 0 .187-.152.34-.34.34H8.144c-.188 0-.34-.153-.34-.34 0-.188.152-.34.34-.34zm-3.732 0h.339c.187 0 .34.151.34.339 0 .187-.153.34-.34.34h-.34c-.187 0-.339-.153-.339-.34 0-.188.152-.34.34-.34zm-1.697 0h.34c.187 0 .339.151.339.339 0 .187-.152.34-.34.34h-.339c-.187 0-.339-.153-.339-.34 0-.188.152-.34.34-.34zm-1.696 0h.34c.187 0 .338.151.338.339 0 .187-.151.34-.339.34h-.34c-.187 0-.338-.153-.338-.34 0-.188.151-.34.339-.34zM2.036 4.75L8.143 4.75 8.143 9.5 2.036 9.5zM2.036 12.214L8.143 12.214 8.143 16.964 2.036 16.964z" transform="translate(371.000000, 88.000000)"/>
                <path d="M.34 19h18.32c.188 0 .34-.152.34-.34V2.715H0v15.947c0 .187.152.339.34.339zm16.964-1.357h-.34c-.187 0-.339-.152-.339-.34 0-.187.152-.339.34-.339h.339c.187 0 .339.152.339.34 0 .187-.152.339-.34.339zm0-7.464h-.34c-.187 0-.339-.152-.339-.34 0-.187.152-.339.34-.339h.339c.187 0 .339.152.339.34 0 .187-.152.339-.34.339zm.339 1.696c0 .187-.152.34-.34.34h-5.089c-.187 0-.339-.153-.339-.34 0-.187.152-.34.34-.34h5.089c.187 0 .339.153.339.34zm-5.429-7.804h5.09c.187 0 .339.152.339.34 0 .187-.152.339-.34.339h-5.089c-.187 0-.339-.152-.339-.34 0-.187.152-.339.34-.339zm-1.696 0h.34c.187 0 .338.152.338.34 0 .187-.151.339-.339.339h-.34c-.187 0-.338-.152-.338-.34 0-.187.151-.339.339-.339zm0 1.358h6.786c.187 0 .339.151.339.339 0 .187-.152.34-.34.34h-6.785c-.188 0-.34-.153-.34-.34 0-.188.152-.34.34-.34zm0 1.357h6.786c.187 0 .339.152.339.339 0 .187-.152.34-.34.34h-6.785c-.188 0-.34-.153-.34-.34 0-.187.152-.34.34-.34zm0 1.357h6.786c.187 0 .339.152.339.34 0 .187-.152.338-.34.338h-6.785c-.188 0-.34-.151-.34-.339 0-.187.152-.34.34-.34zm0 1.357h5.09c.187 0 .338.152.338.34 0 .187-.151.339-.339.339h-5.09c-.187 0-.338-.152-.338-.34 0-.187.151-.339.339-.339zm0 2.036h.34c.187 0 .338.152.338.339 0 .187-.151.34-.339.34h-.34c-.187 0-.338-.153-.338-.34 0-.187.151-.34.339-.34zm0 1.357h6.786c.187 0 .339.152.339.34 0 .187-.152.338-.34.338h-6.785c-.188 0-.34-.151-.34-.339 0-.187.152-.34.34-.34zm0 1.357h6.786c.187 0 .339.152.339.34 0 .187-.152.339-.34.339h-6.785c-.188 0-.34-.152-.34-.34 0-.187.152-.339.34-.339zm0 1.357h6.786c.187 0 .339.152.339.34 0 .187-.152.339-.34.339h-6.785c-.188 0-.34-.152-.34-.34 0-.187.152-.339.34-.339zm0 1.357h5.09c.187 0 .338.152.338.34 0 .187-.151.339-.339.339h-5.09c-.187 0-.338-.152-.338-.34 0-.187.151-.339.339-.339zM1.358 4.411c0-.188.151-.34.338-.34h6.786c.188 0 .34.152.34.34v5.428c0 .188-.152.34-.34.34H1.696c-.187 0-.339-.152-.339-.34V4.411zm0 7.464c0-.187.151-.34.338-.34h6.786c.188 0 .34.153.34.34v5.429c0 .187-.152.339-.34.339H1.696c-.187 0-.339-.152-.339-.34v-5.428z" transform="translate(371.000000, 88.000000)"/>
            </g>
        </g>
    </g>
</svg>
