<svg xmlns="http://www.w3.org/2000/svg" width="28.216" height="32" viewBox="0 0 28.216 32">
  <g id="checkout" transform="translate(-13.997 0)">
    <path id="Path_175" data-name="Path 175" d="M107.009,114.942a1.014,1.014,0,0,0,1.007.91,1.028,1.028,0,0,0,.105-.005,1.014,1.014,0,0,0,.9-1.112l-.467-4.523a1.014,1.014,0,1,0-2.016.208Z" transform="translate(-80.033 -94.528)" fill="#fff"/>
    <path id="Path_176" data-name="Path 176" d="M151.151,115.846a1.029,1.029,0,0,0,.105.005,1.014,1.014,0,0,0,1.007-.91l.467-4.523a1.014,1.014,0,1,0-2.016-.208l-.467,4.523A1.013,1.013,0,0,0,151.151,115.846Z" transform="translate(-117.83 -94.528)" fill="#fff"/>
    <path id="Path_177" data-name="Path 177" d="M78.821,190.329a3.138,3.138,0,1,0,3.138,3.138A3.141,3.141,0,0,0,78.821,190.329Zm0,4.249a1.111,1.111,0,1,1,1.11-1.111A1.112,1.112,0,0,1,78.821,194.578Z" transform="translate(-53.349 -164.605)" fill="#fff"/>
    <path id="Path_178" data-name="Path 178" d="M156.261,190.329a3.138,3.138,0,1,0,3.138,3.138A3.141,3.141,0,0,0,156.261,190.329Zm0,4.249a1.111,1.111,0,1,1,1.111-1.111A1.112,1.112,0,0,1,156.261,194.578Z" transform="translate(-120.323 -164.605)" fill="#fff"/>
    <path id="Path_179" data-name="Path 179" d="M42,56.071a1.014,1.014,0,0,0-.8-.394h-20.2l-.848-3.263a1.014,1.014,0,0,0-.981-.758H15.011a1.014,1.014,0,0,0,0,2.027h3.371l.841,3.233c0,.02.01.04.016.06l3.129,12.032a1.014,1.014,0,0,0,.981.758H38.063a1.014,1.014,0,0,0,.981-.758l3.137-12.063A1.014,1.014,0,0,0,42,56.071ZM37.279,67.74H24.132L21.522,57.7H39.888Z" transform="translate(0 -44.674)" fill="#fff"/>
    <path id="Path_180" data-name="Path 180" d="M100.117,5.308h5.937l-1.55,1.55a1.014,1.014,0,1,0,1.433,1.433l3.279-3.279a1.014,1.014,0,0,0,0-1.433L105.934.3A1.014,1.014,0,1,0,104.5,1.731l1.55,1.55h-5.934a1.014,1.014,0,1,0,0,2.027Z" transform="translate(-73.604 0)" fill="#fff"/>
  </g>
</svg>