<svg xmlns="http://www.w3.org/2000/svg" width="24" height="24" viewBox="0 0 24 24">
  <g id="Group_1266" data-name="Group 1266" transform="translate(-11825 6354)">
    <circle id="Ellipse_867" data-name="Ellipse 867" cx="12" cy="12" r="12" transform="translate(11825 -6354)"/>
    <g id="cross-black-circular-button" transform="translate(11831.539 -6347.345)">
      <g id="_x31_0_23_" transform="translate(0 0)">
        <g id="Group_1262" data-name="Group 1262" transform="translate(0)">
          <path id="Path_2245" data-name="Path 2245" d="M202.37,200.5a.923.923,0,0,1-1.306,1.306l-3.913-3.913-3.94,3.94a.931.931,0,0,1-1.316-1.316l3.94-3.94-3.913-3.913a.923.923,0,1,1,1.306-1.306l3.913,3.913,3.968-3.968a.931.931,0,0,1,1.316,1.316l-3.968,3.968Z" transform="translate(-191.623 -191.031)" fill="#fff"/>
        </g>
      </g>
    </g>
  </g>
</svg>
