<svg xmlns="http://www.w3.org/2000/svg" width="25.508" height="15.895" viewBox="0 0 25.508 15.895">
  <g id="Icon_ionic-ios-eye" data-name="Icon ionic-ios-eye" transform="translate(-2.252 -7.875)">
    <path id="Path_155" data-name="Path 155" d="M14.992,7.875c-4.577,0-8.187,2.793-12.5,7.357a.853.853,0,0,0-.006,1.176c3.695,3.957,6.952,7.362,12.508,7.362,5.488,0,9.6-4.288,12.531-7.4a.846.846,0,0,0,.028-1.142C24.568,11.727,20.441,7.875,14.992,7.875Zm.251,12.909A5.049,5.049,0,0,1,9.885,15.59a5.126,5.126,0,0,1,10.237.464A5.059,5.059,0,0,1,15.243,20.784Z" transform="translate(0)" fill="#c2c2c2"/>
    <path id="Path_156" data-name="Path 156" d="M17.032,14.438a2.593,2.593,0,0,1,.171-.933c-.055,0-.11-.006-.171-.006a3.532,3.532,0,1,0,3.532,3.532c0-.072-.006-.143-.006-.215a2.447,2.447,0,0,1-1,.215A2.562,2.562,0,0,1,17.032,14.438Z" transform="translate(-2.029 -1.21)" fill="#c2c2c2"/>
  </g>
</svg>