<svg xmlns="http://www.w3.org/2000/svg" xmlns:xlink="http://www.w3.org/1999/xlink" width="16" height="15" viewBox="0 0 16 15">
  <defs>
    <linearGradient id="linear-gradient" x2="0.869" y2="0.802" gradientUnits="objectBoundingBox">
      <stop offset="0" stop-color="#ffd800"/>
      <stop offset="1" stop-color="#ffaf00"/>
    </linearGradient>
  </defs>
  <path id="Path_35" data-name="Path 35" d="M16.068,4.825H14.323a2.336,2.336,0,0,0,.144-.789,2.37,2.37,0,0,0-1.708-2.268,2.413,2.413,0,0,0-2.692.966l-.4.529-.4-.537a2.423,2.423,0,0,0-3.7-.364,2.315,2.315,0,0,0-.558,2.465H3.266A1.577,1.577,0,0,0,1.675,6.4l-.008,8.684a1.562,1.562,0,0,0,.466,1.118,1.6,1.6,0,0,0,1.133.461h12.8a1.6,1.6,0,0,0,1.133-.461,1.562,1.562,0,0,0,.466-1.118V6.4A1.562,1.562,0,0,0,17.2,5.286,1.6,1.6,0,0,0,16.068,4.825Zm0,6.316H3.266V6.4H7.331L5.667,8.638l1.3.924L8.867,7l.8-1.073L10.467,7l1.9,2.558,1.3-.924L12,6.4h4.065Z" transform="translate(-1.667 -1.667)" fill="url(#linear-gradient)"/>
</svg>
