<svg xmlns="http://www.w3.org/2000/svg" id="grid" width="14" height="14" viewBox="0 0 14 14">
    <defs>
        <style>
            .cls-1{fill:#2874f0}
        </style>
    </defs>
    <path id="Rectangle" d="M0 0H4.12V4.12H0z" class="cls-1" transform="translate(4.94 9.88)"/>
    <path id="Rectangle-2" d="M0 0H4.12V4.12H0z" class="cls-1" transform="translate(4.94 4.94)"/>
    <path id="Rectangle-3" d="M0 0H4.12V4.12H0z" class="cls-1" transform="translate(9.88)"/>
    <path id="Rectangle-4" d="M0 0H4.12V4.12H0z" class="cls-1" transform="translate(0 4.94)"/>
    <path id="Rectangle-5" d="M0 0H4.12V4.12H0z" class="cls-1" transform="translate(9.88 4.94)"/>
    <path id="Rectangle-6" d="M0 0H4.12V4.12H0z" class="cls-1" transform="translate(0 9.88)"/>
    <path id="Rectangle-7" d="M0 0H4.12V4.12H0z" class="cls-1" transform="translate(9.88 9.88)"/>
    <path id="Rectangle-8" d="M0 0H4.12V4.12H0z" class="cls-1"/>
    <path id="Rectangle-9" d="M0 0H4.12V4.12H0z" class="cls-1" transform="translate(4.94)"/>
</svg>
