<svg data-name="011-instagram" xmlns="http://www.w3.org/2000/svg" width="20" height="20" viewBox="0 0 20 20">
    <path data-name="Path 5146" d="M210.838 208.919a1.919 1.919 0 1 1-1.919-1.919 1.919 1.919 0 0 1 1.919 1.919zm0 0" transform="translate(-198.919 -198.919)" style="fill:#de943e"/>
    <path data-name="Path 5147" d="M144.692 136.813a1.906 1.906 0 0 0-1.093-1.093 3.185 3.185 0 0 0-1.069-.2c-.607-.028-.789-.034-2.326-.034s-1.719.006-2.326.034a3.187 3.187 0 0 0-1.069.2 1.907 1.907 0 0 0-1.093 1.093 3.186 3.186 0 0 0-.2 1.069c-.028.607-.034.789-.034 2.326s.006 1.719.034 2.326a3.185 3.185 0 0 0 .2 1.069 1.906 1.906 0 0 0 1.093 1.093 3.181 3.181 0 0 0 1.069.2c.607.028.789.034 2.326.034s1.719-.006 2.326-.034a3.181 3.181 0 0 0 1.069-.2 1.906 1.906 0 0 0 1.093-1.093 3.189 3.189 0 0 0 .2-1.069c.028-.607.034-.789.034-2.326s-.006-1.719-.034-2.326a3.181 3.181 0 0 0-.2-1.069zm-4.488 6.351a2.956 2.956 0 1 1 2.956-2.956 2.956 2.956 0 0 1-2.96 2.956zm3.073-5.338a.691.691 0 1 1 .691-.691.691.691 0 0 1-.691.691zm0 0" transform="translate(-130.204 -130.208)" style="fill:#de943e"/>
    <path data-name="Path 5148" d="M10 0a10 10 0 1 0 10 10A10 10 0 0 0 10 0zm5.708 12.367a4.213 4.213 0 0 1-.267 1.394 2.936 2.936 0 0 1-1.679 1.679 4.216 4.216 0 0 1-1.394.267c-.612.028-.808.035-2.367.035s-1.755-.007-2.368-.035a4.216 4.216 0 0 1-1.394-.267 2.936 2.936 0 0 1-1.679-1.679 4.212 4.212 0 0 1-.267-1.394c-.028-.612-.035-.808-.035-2.368s.007-1.755.035-2.367a4.213 4.213 0 0 1 .267-1.394 2.938 2.938 0 0 1 1.68-1.679 4.217 4.217 0 0 1 1.394-.267c.612-.028.808-.035 2.367-.035s1.755.007 2.367.035a4.218 4.218 0 0 1 1.394.267 2.937 2.937 0 0 1 1.679 1.68 4.213 4.213 0 0 1 .267 1.394c.028.612.034.808.034 2.367s-.006 1.755-.034 2.367zm0 0" style="fill:#de943e"/>
</svg>
