<svg xmlns="http://www.w3.org/2000/svg" width="20" height="14" viewBox="0 0 20 14">
  <g id="list" transform="translate(0 14)" opacity="0.55">
    <path id="Path" d="M14.226,0H.774A.909.909,0,0,1,0-1,.909.909,0,0,1,.774-2H14.226A.909.909,0,0,1,15-1,.909.909,0,0,1,14.226,0Z" transform="translate(5 -6)" fill="#b1a58a"/>
    <path id="Path-2" data-name="Path" d="M14.226,0H.774A.909.909,0,0,1,0-1,.909.909,0,0,1,.774-2H14.226A.909.909,0,0,1,15-1,.909.909,0,0,1,14.226,0Z" transform="translate(5)" fill="#b1a58a"/>
    <path id="Path-3" data-name="Path" d="M14.226,0H.774A.909.909,0,0,1,0-1,.909.909,0,0,1,.774-2H14.226A.909.909,0,0,1,15-1,.909.909,0,0,1,14.226,0Z" transform="translate(5 -12)" fill="#b1a58a"/>
    <circle id="Oval" cx="1" cy="1" r="1" transform="translate(0 -2)" fill="#b1a58a"/>
    <circle id="Oval-2" data-name="Oval" cx="1" cy="1" r="1" transform="translate(0 -8)" fill="#b1a58a"/>
    <circle id="Oval-3" data-name="Oval" cx="1" cy="1" r="1" transform="translate(0 -14)" fill="#b1a58a"/>
  </g>
</svg>