<svg xmlns="http://www.w3.org/2000/svg" xmlns:xlink="http://www.w3.org/1999/xlink" width="415.766" height="444.034" viewBox="0 0 415.766 444.034">
  <defs>
    <linearGradient id="linear-gradient" y1="0.5" x2="1" y2="0.5" gradientUnits="objectBoundingBox">
      <stop offset="0" stop-color="#2874f0"/>
      <stop offset="0.76" stop-color="#aed6f3"/>
      <stop offset="1" stop-color="#bed7ff"/>
    </linearGradient>
    <linearGradient id="linear-gradient-2" y1="0.5" x2="1" y2="0.5" gradientUnits="objectBoundingBox">
      <stop offset="0" stop-color="#f9fbfc"/>
      <stop offset="0.11" stop-color="#eff4fd"/>
      <stop offset="0.4" stop-color="#dce6fe"/>
      <stop offset="0.69" stop-color="#d1deff"/>
      <stop offset="1" stop-color="#cddbff"/>
    </linearGradient>
    <linearGradient id="linear-gradient-3" x1="0" y1="0.501" x2="1" y2="0.501" xlink:href="#linear-gradient-2"/>
    <linearGradient id="linear-gradient-4" x1="-0.001" y1="0.503" x2="1" y2="0.503" gradientUnits="objectBoundingBox">
      <stop offset="0" stop-color="#030840"/>
      <stop offset="0.26" stop-color="#050a43"/>
      <stop offset="0.48" stop-color="#0b124e"/>
      <stop offset="0.69" stop-color="#141f60"/>
      <stop offset="0.89" stop-color="#223078"/>
      <stop offset="1" stop-color="#2c3d8a"/>
    </linearGradient>
    <linearGradient id="linear-gradient-5" x1="0" y1="0.5" x2="1" y2="0.5" xlink:href="#linear-gradient-4"/>
    <linearGradient id="linear-gradient-6" x1="1" y1="0.5" x2="0" y2="0.5" xlink:href="#linear-gradient-4"/>
    <linearGradient id="linear-gradient-7" x1="0" y1="0.497" x2="1" y2="0.497" xlink:href="#linear-gradient-4"/>
    <linearGradient id="linear-gradient-8" x1="1.01" y1="0.145" x2="0.013" y2="0.851" xlink:href="#linear-gradient-4"/>
    <linearGradient id="linear-gradient-9" x1="0" y1="0.5" x2="1" y2="0.5" xlink:href="#linear-gradient-4"/>
    <linearGradient id="linear-gradient-10" y1="0.498" x2="1" y2="0.498" gradientUnits="objectBoundingBox">
      <stop offset="0" stop-color="#fe9d67"/>
      <stop offset="1" stop-color="#fb641b"/>
    </linearGradient>
    <linearGradient id="linear-gradient-12" y1="0.5" x2="1" y2="0.5" gradientUnits="objectBoundingBox">
      <stop offset="0" stop-color="#030840"/>
      <stop offset="0.46" stop-color="#040942"/>
      <stop offset="0.64" stop-color="#080e49"/>
      <stop offset="0.76" stop-color="#0f1755"/>
      <stop offset="0.87" stop-color="#182366"/>
      <stop offset="0.96" stop-color="#24337c"/>
      <stop offset="1" stop-color="#2c3d8a"/>
    </linearGradient>
    <linearGradient id="linear-gradient-13" x1="-1.306" y1="0.5" x2="2.299" y2="0.5" xlink:href="#linear-gradient-4"/>
    <linearGradient id="linear-gradient-14" x1="-18.153" y1="-1.039" x2="-17.195" y2="-1.039" gradientUnits="objectBoundingBox">
      <stop offset="0" stop-color="#030840"/>
      <stop offset="0.93" stop-color="#373737"/>
      <stop offset="1" stop-color="#050b44"/>
    </linearGradient>
    <linearGradient id="linear-gradient-15" x1="-8.641" y1="-1.655" x2="-7.664" y2="-1.655" gradientUnits="objectBoundingBox">
      <stop offset="0" stop-color="#f84a84"/>
      <stop offset="1" stop-color="#eb8554"/>
    </linearGradient>
    <linearGradient id="linear-gradient-16" x1="-5.947" y1="0.235" x2="-4.954" y2="0.235" gradientUnits="objectBoundingBox">
      <stop offset="0" stop-color="#f84a84"/>
      <stop offset="1" stop-color="#e1682e"/>
    </linearGradient>
    <linearGradient id="linear-gradient-21" x1="-7.528" y1="-0.551" x2="-6.572" y2="-0.551" gradientUnits="objectBoundingBox">
      <stop offset="0" stop-color="#030840"/>
      <stop offset="0.44" stop-color="#192568"/>
      <stop offset="0.79" stop-color="#273681"/>
      <stop offset="1" stop-color="#2c3d8a"/>
    </linearGradient>
    <linearGradient id="linear-gradient-23" x1="1.001" y1="0.498" x2="0.001" y2="0.498" gradientUnits="objectBoundingBox">
      <stop offset="0" stop-color="#030840"/>
      <stop offset="0.34" stop-color="#040a42"/>
      <stop offset="0.54" stop-color="#09104b"/>
      <stop offset="0.71" stop-color="#111a59"/>
      <stop offset="0.85" stop-color="#1c286d"/>
      <stop offset="0.99" stop-color="#2a3b87"/>
      <stop offset="1" stop-color="#2c3d8a"/>
    </linearGradient>
    <linearGradient id="linear-gradient-24" x1="0.997" y1="0.498" x2="0.001" y2="0.498" xlink:href="#linear-gradient-23"/>
    <linearGradient id="linear-gradient-25" y1="0.499" x2="1" y2="0.499" gradientUnits="objectBoundingBox">
      <stop offset="0" stop-color="#2c3d8a"/>
      <stop offset="0.14" stop-color="#1e2b71"/>
      <stop offset="0.31" stop-color="#121c5b"/>
      <stop offset="0.49" stop-color="#0a114c"/>
      <stop offset="0.7" stop-color="#050a43"/>
      <stop offset="1" stop-color="#030840"/>
    </linearGradient>
    <linearGradient id="linear-gradient-26" x1="1.116" y1="0.239" x2="-0.236" y2="0.7" gradientUnits="objectBoundingBox">
      <stop offset="0" stop-color="#030840"/>
      <stop offset="0.48" stop-color="#040942"/>
      <stop offset="0.65" stop-color="#080e49"/>
      <stop offset="0.77" stop-color="#0e1754"/>
      <stop offset="0.87" stop-color="#182365"/>
      <stop offset="0.96" stop-color="#24327b"/>
      <stop offset="1" stop-color="#2c3d8a"/>
    </linearGradient>
    <linearGradient id="linear-gradient-27" x1="-0.717" y1="0.351" x2="1.519" y2="0.658" xlink:href="#linear-gradient-23"/>
    <linearGradient id="linear-gradient-28" x1="-0.248" y1="0.67" x2="1.183" y2="0.284" gradientUnits="objectBoundingBox">
      <stop offset="0" stop-color="#030840"/>
      <stop offset="0.21" stop-color="#080e49"/>
      <stop offset="0.55" stop-color="#151f60"/>
      <stop offset="0.97" stop-color="#2a3b87"/>
      <stop offset="1" stop-color="#2c3d8a"/>
    </linearGradient>
    <linearGradient id="linear-gradient-29" x1="1.002" y1="0.499" x2="0" y2="0.499" gradientUnits="objectBoundingBox">
      <stop offset="0" stop-color="#fb641b"/>
      <stop offset="1" stop-color="#fb641b"/>
    </linearGradient>
    <linearGradient id="linear-gradient-30" x1="0.999" y1="0.5" x2="0" y2="0.5" xlink:href="#linear-gradient-21"/>
    <linearGradient id="linear-gradient-31" x1="1" y1="0.5" x2="0" y2="0.5" gradientUnits="objectBoundingBox">
      <stop offset="0" stop-color="#030840"/>
      <stop offset="1" stop-color="#141e5f"/>
    </linearGradient>
    <linearGradient id="linear-gradient-32" x1="1" y1="0.5" y2="0.5" xlink:href="#linear-gradient-31"/>
  </defs>
  <g id="Layer_2" data-name="Layer 2" transform="translate(-42.631 -44.943)">
    <g id="OBJECTS" transform="translate(0 -0.01)">
      <path id="Path_3485" data-name="Path 3485" d="M322.229,257.313A67.449,67.449,0,0,0,315.54,273.2c26.72-8.755,37.495-22.016,43.331-35.72C345.505,242.278,330.307,244.3,322.229,257.313Z" transform="translate(55.258 39.75)" fill="#b9cdff"/>
      <path id="Path_3497" data-name="Path 3497" d="M105.8,263.531a4.342,4.342,0,0,0,3.187.56,6.2,6.2,0,0,0,2.125-1.237,15.619,15.619,0,0,0,3.969-4.3,7.237,7.237,0,0,0,.829-5.662,4.774,4.774,0,0,0-4.319-3.4,20.034,20.034,0,0,0-2.206.3,12.838,12.838,0,0,0-2.02.175,5.557,5.557,0,0,0-3.058,2.778C101.645,257.146,100.594,260.59,105.8,263.531Z" transform="translate(17.831 41.761)" fill="#e1e9fe"/>
      <path id="Path_3498" data-name="Path 3498" d="M127,238.361a6.735,6.735,0,0,0-2,.245,4.961,4.961,0,0,0-1.8,1.506,15.269,15.269,0,0,0-2.113,4.342,2.474,2.474,0,0,0,.222,1.249,10.062,10.062,0,0,0,2.778,4.669,6.21,6.21,0,0,0,5.72,1.167,12.516,12.516,0,0,0,2.09-.957,11.872,11.872,0,0,0,2.965-2.043,4.389,4.389,0,0,0,1.389-3.234,6.537,6.537,0,0,0-1.167-2.872,8.977,8.977,0,0,0-2.7-3.164A9.5,9.5,0,0,0,127,238.361Z" transform="translate(21.149 39.885)" fill="#e1e9fe"/>
      <path id="Path_3499" data-name="Path 3499" d="M129.378,262.465a3.187,3.187,0,0,0,.292-1.424,2.86,2.86,0,0,0-.7-1.436,6.549,6.549,0,0,0-3.315-2.335c-3.911-1.1-8.171,4.307-5.451,7.646S128.071,265.851,129.378,262.465Z" transform="translate(20.836 43.038)" fill="#e1e9fe"/>
      <path id="Path_3502" data-name="Path 3502" d="M133.956,203.7a20.756,20.756,0,0,0-5.5,2.988,7,7,0,0,0-2.708,5.428,9.922,9.922,0,0,0,1.039,3.5c.946,2.136,2.335,4.494,4.588,4.879a6.817,6.817,0,0,0,3.117-.42,10.7,10.7,0,0,0,2.054-.852c2.195-1.226,3.374-3.665,4.424-5.942s1.658-4.844-.829-6.525a20.026,20.026,0,0,0-2.65-1.167A15.842,15.842,0,0,0,133.956,203.7Z" transform="translate(21.966 34.098)" fill="#e1e9fe"/>
      <path id="Path_3503" data-name="Path 3503" d="M139.051,217.47a7.821,7.821,0,0,0-1.4,3.992,4.144,4.144,0,0,0,3.5,3.876,7.085,7.085,0,0,0,2.825-.385,30.249,30.249,0,0,0,3.572-1.272,10.319,10.319,0,0,0,3.3-2.02c2.708-2.661.957-7.167-2.463-8.276C145.238,212.357,140.592,214.832,139.051,217.47Z" transform="translate(24.041 35.678)" fill="#e1e9fe"/>
      <path id="Path_3504" data-name="Path 3504" d="M139.9,228.385a2.183,2.183,0,0,1,.14-1.949,6.385,6.385,0,0,1,1.3-1.564,5.171,5.171,0,0,1,1.938-1.354,3.76,3.76,0,0,1,1.167-.117c2.066.105,7.494,2.977,5.02,5.533C147.725,230.685,141.094,230.65,139.9,228.385Z" transform="translate(24.397 37.393)" fill="#e1e9fe"/>
      <path id="Path_3505" data-name="Path 3505" d="M121.563,231.556a5.44,5.44,0,0,0,4.307,1.518,10.787,10.787,0,0,0,4.424-1.506,6.175,6.175,0,0,0,2.8-2.65c.759-1.728.07-3.724-.7-5.44a5.078,5.078,0,0,0-1.693-2.335c-1.331-.829-3.07-.327-4.553.2-1.833.665-5.533,1.167-6.444,3.14C118.61,226.8,120.536,229.63,121.563,231.556Z" transform="translate(20.849 36.943)" fill="#e1e9fe"/>
      <path id="Path_3508" data-name="Path 3508" d="M92.479,211.426a28.236,28.236,0,0,0-3.292-2.183,39.457,39.457,0,0,1-3.28-2.335,37.657,37.657,0,0,1-5.837-5.428,37.892,37.892,0,0,0,5.953,5.276c1.074.794,2.183,1.529,3.315,2.23a26.967,26.967,0,0,1,3.49,2.195Z" transform="translate(13.982 33.726)" fill="#e1e9fe"/>
      <path id="Path_3509" data-name="Path 3509" d="M93.94,212.38a11.031,11.031,0,0,1-2.615,2.136,8.942,8.942,0,0,1-3.257.829,44.008,44.008,0,0,0-6.479,1.564,45.719,45.719,0,0,1,6.444-1.751,8.428,8.428,0,0,0,3.14-.911,10.506,10.506,0,0,0,2.463-2.148Z" transform="translate(14.247 35.503)" fill="#e1e9fe"/>
      <path id="Path_3510" data-name="Path 3510" d="M97.5,225.073c.245-1.763.549-3.5.759-5.265s.268-3.607,1.167-5.148a12.327,12.327,0,0,0-1.039,5.16c-.128,1.774-.35,3.5-.514,5.3Z" transform="translate(17.01 35.932)" fill="#e1e9fe"/>
      <path id="Path_3511" data-name="Path 3511" d="M100.839,231.232a28.437,28.437,0,0,0-6.829-3.5,28.82,28.82,0,0,1,7,3.163Z" transform="translate(16.408 38.119)" fill="#e1e9fe"/>
      <path id="Path_3512" data-name="Path 3512" d="M117.846,245.62l-6.455-3.56a24.518,24.518,0,0,0-3.3-1.6,6.245,6.245,0,0,0-3.607-.315,6.316,6.316,0,0,1,3.63.21,23.708,23.708,0,0,1,3.374,1.529l6.56,3.362Z" transform="translate(18.246 40.167)" fill="#e1e9fe"/>
      <path id="Path_3513" data-name="Path 3513" d="M119.469,248.29l-3.864,2.521-1.926,1.272a8.252,8.252,0,0,0-1.809,1.424A8.532,8.532,0,0,1,113.609,252l1.879-1.354,3.747-2.708Z" transform="translate(19.527 41.5)" fill="#e1e9fe"/>
      <path id="Path_3514" data-name="Path 3514" d="M129.206,261.816a21.573,21.573,0,0,0-.14-6.362c-.14-1.062-.315-2.125-.525-3.175a26.034,26.034,0,0,0-.77-3.128,25.484,25.484,0,0,1,.876,3.105c.233,1.051.455,2.1.63,3.163a22.273,22.273,0,0,1,.339,6.479Z" transform="translate(22.291 41.703)" fill="#e1e9fe"/>
      <path id="Path_3515" data-name="Path 3515" d="M132.629,263.74c-2.066-.9-4.109-1.809-6.2-2.65,2.136.7,4.237,1.494,6.35,2.265Z" transform="translate(22.066 43.701)" fill="#e1e9fe"/>
      <path id="Path_3517" data-name="Path 3517" d="M129.483,244.089v-7.436a25.8,25.8,0,0,0-.14-3.689,8.545,8.545,0,0,0-1.529-3.327,19.7,19.7,0,0,1-3.163-6.712c-.315-1.167-.432-2.451-.712-3.654a5.125,5.125,0,0,0-1.8-3.152,5.183,5.183,0,0,1,1.844,3.14c.3,1.167.444,2.451.77,3.642a19.846,19.846,0,0,0,3.222,6.619,8.708,8.708,0,0,1,1.576,3.4,24.957,24.957,0,0,1,.187,3.724l.105,7.436Z" transform="translate(21.32 36.176)" fill="#e1e9fe"/>
      <path id="Path_3518" data-name="Path 3518" d="M127.88,222.337a23.067,23.067,0,0,1,3.163-5.837,22.647,22.647,0,0,0-2.767,6.012Z" transform="translate(22.313 36.239)" fill="#e1e9fe"/>
      <path id="Path_3519" data-name="Path 3519" d="M128.515,237.749a2.335,2.335,0,0,1,.268-1.564c.222-.455.467-.876.712-1.319.479-.864.981-1.728,1.483-2.568a57.1,57.1,0,0,1,3.35-4.926,36.1,36.1,0,0,1,8.557-8.171,35.685,35.685,0,0,0-8.381,8.323,55.647,55.647,0,0,0-3.257,4.95c-.49.852-.981,1.716-1.436,2.591s-1.1,1.763-.9,2.615Z" transform="translate(22.439 36.691)" fill="#e1e9fe"/>
      <path id="Path_3520" data-name="Path 3520" d="M131.9,228.768c2.008-.28,4.016-.175,6-.28a12.7,12.7,0,0,0,5.743-1.377,12.7,12.7,0,0,1-5.732,1.588c-2,.163-4,.14-5.942.479Z" transform="translate(23.031 38.015)" fill="#e1e9fe"/>
      <path id="Path_3523" data-name="Path 3523" d="M112.909,201.881a23.5,23.5,0,0,0-3.735-.327,16.855,16.855,0,0,0-1.879.07c-.63.07-1.237.187-1.856.28a37.545,37.545,0,0,1-3.677.9,17.743,17.743,0,0,1-3.77-.222,17.721,17.721,0,0,0,3.77.117c1.261-.093,2.335-.782,3.63-.992.63-.117,1.249-.268,1.879-.339s1.261-.105,1.9-.117a23.055,23.055,0,0,1,3.806.222Z" transform="translate(17.115 33.687)" fill="#e1e9fe"/>
      <path id="Path_3531" data-name="Path 3531" d="M317.013,160.773c3.023-.222,5.942.082,8.942-.07A17.253,17.253,0,0,0,335,157.924c.759-.514,1.833-1.412,2.872-1.984.268.607.537,1.226.794,1.844-2.125,2.218-5.44,3.5-7.646,4.471-4.891,2.043-9.876,4.121-14.755,4.518a32.685,32.685,0,0,1-8.918-.735,8.487,8.487,0,0,1-4.378-1.774C307.674,162.7,312.344,161.123,317.013,160.773Z" transform="translate(53.017 26.106)" fill="#e1e9fe"/>
      <path id="Path_3532" data-name="Path 3532" d="M314.414,127a57.474,57.474,0,0,0-5.837.794c-9.537,1.272-18.677-1.984-28.144.409a7.262,7.262,0,0,0-2.463,1l4.961,1.739a38.7,38.7,0,0,0,7.611,2.078c4.611.619,9.607-.245,14.428-1.4,2.335-.572,4.669-1.226,7.086-1.8s5.055-.7,7.1-1.553C318.243,127.21,316.037,127,314.414,127Z" transform="translate(48.668 21.263)" fill="#e1e9fe"/>
      <path id="Path_3533" data-name="Path 3533" d="M322.12,133.659a10.588,10.588,0,0,0-2.276,0,36.185,36.185,0,0,0-5.346.654c-3.409.619-6.887,1.436-10.319,1.086-2.767-.292-5.416-1.331-8.171-1.062a25.262,25.262,0,0,0-4.3,1.027,38.52,38.52,0,0,1-8.171,1.4,17.032,17.032,0,0,0,6.771,2.72c4.074.992,8.3,1.984,12.572,1.319,4.611-.724,8.989-2.872,13.261-4.669a18.818,18.818,0,0,1,5.5-1.424c.829-.082,1.611-.479.782-.946A1.17,1.17,0,0,0,322.12,133.659Z" transform="translate(49.634 22.367)" fill="#e1e9fe"/>
      <path id="Path_3534" data-name="Path 3534" d="M320.321,138a18.759,18.759,0,0,0-7.1,1.1A62.048,62.048,0,0,0,301.7,144a12.924,12.924,0,0,1-3.14,1.424,12.55,12.55,0,0,1-3.245.175l-5.627-.175a4.984,4.984,0,0,0,3.222,2.171,20.673,20.673,0,0,0,7.179,1.459c2.872-.105,5.475-1.412,7.985-2.7l9.222-4.728a15.175,15.175,0,0,1,4.331-1.716c.957-.175,2.206.117,3.047-.339C323.811,138.446,321.57,138.06,320.321,138Z" transform="translate(50.69 23.102)" fill="#e1e9fe"/>
      <path id="Path_3535" data-name="Path 3535" d="M315.293,151.142a13.249,13.249,0,0,1-4.366,2.276,14.008,14.008,0,0,1-3.957,0,32.02,32.02,0,0,0-12.21,1.412,50.7,50.7,0,0,1,13.156-8.171,13.33,13.33,0,0,1,3.385-1.086,38.428,38.428,0,0,1,4.494-.058c2.662,0,5.206-.817,7.868-.875,1.658,0,4.786.093,5.942,1.914C324.574,146.228,319.414,148.457,315.293,151.142Z" transform="translate(51.576 24.215)" fill="#e1e9fe"/>
      <path id="Path_3536" data-name="Path 3536" d="M323.384,149.454l-.794.128a29.114,29.114,0,0,0-9.339,3.654c-3.654,2.1-7.191,4.156-11.031,5.942,5.416.362,11.183.677,16.494-1.459,2-.805,3.852-1.926,5.907-2.591a26.848,26.848,0,0,1,5.568-.957c.992-.105,3.42,0,4.249-.56s.2-1.249-.49-1.529a5.323,5.323,0,0,0-1.634-.222,7.8,7.8,0,0,1-3.5-1.051,7,7,0,0,0-5.428-1.354Z" transform="translate(52.87 25.004)" fill="#e1e9fe"/>
      <path id="Path_3540" data-name="Path 3540" d="M304.384,87.393a21.884,21.884,0,0,1-2.055,5.125c-.63,1.1-1.389,2.125-1.938,3.28a32.842,32.842,0,0,0-1.6,5.708,14.008,14.008,0,0,1-4.763,7.121,5.206,5.206,0,0,0,3.117-.946,29.1,29.1,0,0,0,6.771-4.728,10.623,10.623,0,0,0,3.222-7.611c-.058-2.545-1.039-4.985-.91-7.553.07-1.447,1.074-4.471-.409-5.51C305.271,83.984,304.875,85.712,304.384,87.393Z" transform="translate(51.347 13.78)" fill="#e1e9fe"/>
      <path id="Path_3541" data-name="Path 3541" d="M307.146,98.9a11.4,11.4,0,0,0-1.413,4.868c-.3,1.879-1.821,3.105-2.335,4.938-.175.6-.268,1.167-.444,1.821a15.5,15.5,0,0,1-1.1,2.615c-.467.922-.922,1.844-1.377,2.767-.082.152.642.187.712.175a6.41,6.41,0,0,0,.665-.689c.525-.6.934-1.3,1.471-1.879.969-1.051,1.926-2.113,2.883-3.175l2.755-3.058a17.51,17.51,0,0,0,4.121-6.012,6.712,6.712,0,0,0-2.113-7C310.427,96.009,308.255,97.293,307.146,98.9Z" transform="translate(52.471 15.786)" fill="#e1e9fe"/>
      <path id="Path_3542" data-name="Path 3542" d="M314.353,103.811a11.37,11.37,0,0,1-2.837,2.335c-2.183,1.483-4.191,3.3-4.669,5.953-.432,2.16.163,4.763-.584,6.771-.315.852-.864,1.564-1.167,2.428a3.269,3.269,0,0,0,.42,2.965,8.358,8.358,0,0,1,2.171-4.272c.759-.782,1.681-1.424,2.521-2.136a17.592,17.592,0,0,0,6.128-12.841,5.977,5.977,0,0,0-.63-3.794C314.7,101.383,314.867,103.088,314.353,103.811Z" transform="translate(53.24 16.949)" fill="#e1e9fe"/>
      <path id="Path_3544" data-name="Path 3544" d="M292.8,85.534a8.171,8.171,0,0,0,2.661-2.755,9.443,9.443,0,0,0,.549-3.152,20.382,20.382,0,0,1,3.047-9.257,32.23,32.23,0,0,0-9.455,7.774,8.288,8.288,0,0,0-1.471,2.335,24.789,24.789,0,0,0-.7,3.5c-.432,2.1-1.482,3.876-1.926,5.965-.268,1.307-.6,3.852.911,5.37C286.939,91.3,289.74,87.938,292.8,85.534Z" transform="translate(49.821 11.787)" fill="#e1e9fe"/>
      <path id="Path_3545" data-name="Path 3545" d="M290.614,92.3c.058-.2.14-.4.222-.607a17.511,17.511,0,0,1,4.541-6.339,86.371,86.371,0,0,0,6.864-7c-.327,4.448-.759,9.14-3.385,12.736-.992,1.354-2.265,2.5-3.128,3.934a16.717,16.717,0,0,0-1.588,4.156c-.21.759-.385,2.743-1.051,3.222s-1.167-.222-1.342-.864a3.9,3.9,0,0,1,0-1.377,6.42,6.42,0,0,0-.537-3.093C290.334,95.136,290.018,94.062,290.614,92.3Z" transform="translate(50.692 13.122)" fill="#e1e9fe"/>
      <path id="Path_3556" data-name="Path 3556" d="M290.527,101.457c-2.265.385-4.553,1.074-6.829,1.506a44.679,44.679,0,0,1-5.51.689l-1.623-.128a61.657,61.657,0,0,1-8.673-1.482c-.245-.105-.479-.21-.712-.339a31.074,31.074,0,0,1,8.813-3.292,22.971,22.971,0,0,1,3.5-.117q4.611.105,9.187.268a20.768,20.768,0,0,1,5.452.665,7.973,7.973,0,0,1,2.708,1.681C294.752,101.457,292.651,101.083,290.527,101.457Z" transform="translate(46.728 16.456)" fill="#e1e9fe"/>
      <path id="Path_3557" data-name="Path 3557" d="M297.293,105.005a45.108,45.108,0,0,0-5.031,1.167c-8.171,1.8-16.693-.864-24.584,2.019a5.568,5.568,0,0,0-2.008,1.167l4.669,1.4a33.664,33.664,0,0,0,7,1.6c4.144.339,8.381-.794,12.42-2.206,1.984-.689,3.946-1.459,5.93-2.16s4.331-.969,5.977-1.914C300.678,105.005,298.741,104.888,297.293,105.005Z" transform="translate(46.491 17.577)" fill="#e1e9fe"/>
      <path id="Path_3558" data-name="Path 3558" d="M304.4,110.822a7.915,7.915,0,0,0-2,.128,26.546,26.546,0,0,0-4.576.946c-2.895.794-5.837,1.8-8.883,1.646-2.463-.117-4.938-.981-7.354-.56a18.082,18.082,0,0,0-3.607,1.249,29.184,29.184,0,0,1-6.946,1.833,15.526,15.526,0,0,0,6.35,2.253c3.724.735,7.576,1.471,11.218.572,3.934-.981,7.436-3.315,10.88-5.323a14.183,14.183,0,0,1,4.611-1.7c.7-.128,1.331-.56.537-.969a.771.771,0,0,0-.233-.07Z" transform="translate(47.422 18.553)" fill="#e1e9fe"/>
      <path id="Path_3559" data-name="Path 3559" d="M307.322,119.408a13.518,13.518,0,0,0-6.082-.747,45.527,45.527,0,0,0-10.588,1.879,9.76,9.76,0,0,1-2.918.584,8.907,8.907,0,0,1-2.7-.642l-4.588-1.6a4.786,4.786,0,0,0,2.148,2.93,16.343,16.343,0,0,0,5.557,3.257c2.335.63,4.821,0,7.179-.607L304,122.128a11.5,11.5,0,0,1,3.957-.572c.829.082,1.786.677,2.592.444C310.077,120.774,308.361,119.84,307.322,119.408Z" transform="translate(49.05 19.855)" fill="#e1e9fe"/>
      <path id="Path_3560" data-name="Path 3560" d="M313.879,127.614c1.167-1.926,2.72-3.759,3.981-5.662a43.846,43.846,0,0,0,2.708-4.751c.163-.514.327-1.027.479-1.541a59.246,59.246,0,0,0,1.856-8.44,3.429,3.429,0,0,0-.058-.77,30.083,30.083,0,0,0-6.409,6.782,21.085,21.085,0,0,0-1.448,3.21c-1.074,2.813-2.136,5.638-3.175,8.451a19.682,19.682,0,0,0-1.413,5.218,7.634,7.634,0,0,0,.584,3.093C312.326,131.466,312.747,129.435,313.879,127.614Z" transform="translate(54.202 17.824)" fill="#e1e9fe"/>
      <path id="Path_3563" data-name="Path 3563" d="M326.664,149.048a13.693,13.693,0,0,1,2.755-5.568,45.584,45.584,0,0,1,7.354-7.868,9.737,9.737,0,0,0,2.09-2.125,9.467,9.467,0,0,0,.945-2.638c.385-1.576.782-3.152,1.167-4.669a4.833,4.833,0,0,1,1.284,3.409,16.856,16.856,0,0,1-.35,6.479c-.782,2.335-2.638,4.051-4.436,5.7l-6.642,6.023a11.673,11.673,0,0,0-2.65,3.012c-.385.735-.409,1.879-1.051,2.416C326.291,152.13,326.454,150.169,326.664,149.048Z" transform="translate(57.03 21.126)" fill="#e1e9fe"/>
      <path id="Path_3564" data-name="Path 3564" d="M341.433,149.752a10.2,10.2,0,0,0,3.175-2.837,10.926,10.926,0,0,0,.922-3.292,23.346,23.346,0,0,1,4.249-9.654,39.689,39.689,0,0,0-10.88,8.078,10.144,10.144,0,0,0-1.821,2.451,27.7,27.7,0,0,0-1.167,3.7c-.7,2.195-2.02,4.051-2.708,6.234-.432,1.366-1.051,4.016.374,5.6C334.581,155.764,337.919,152.25,341.433,149.752Z" transform="translate(58.119 22.429)" fill="#e1e9fe"/>
      <path id="Path_3571" data-name="Path 3571" d="M109.687,89.894C102.543,79.82,88.839,73.937,76.5,70.54c9.444,9.245,29.288,27.9,48.036,40.343Z" transform="translate(13.403 11.815)" fill="#b9cdff"/>
      <path id="Path_3572" data-name="Path 3572" d="M321.3,62.52h60.675l-14.733,74.242h66.571v59.3H356.046l-15.3,73.25H414.98v59.8H329.533l-16.475,82.717H252.372l16.475-82.717H184.683l-16.475,82.717H107.45l17.075-82.717H60.32v-59.8h75.408l14.722-73.25H79.172v-59.3H162.23L176.963,62.52H237.05l-14.71,74.242h84.246ZM295.407,196.063H211.125l-14.675,73.25h84.234Z" transform="translate(10.094 10.473)" fill="#d8eeff"/>
      <path id="Path_3573" data-name="Path 3573" d="M314.026,62.52H374.7l-14.733,74.242h66.571v59.3H348.776l-15.3,73.25H407.71v59.8H322.263l-16.475,82.717h-60.7l16.475-82.717H177.354l-16.475,82.717h-60.7l17.075-82.717H53.05v-59.8h75.408l14.722-73.25H71.9v-59.3H154.96L169.693,62.52H229.78l-14.733,74.242h84.246ZM288.137,196.063H203.855l-14.722,73.25h84.234Z" transform="translate(8.877 10.473)" fill="url(#linear-gradient)"/>
      <path id="Path_3574" data-name="Path 3574" d="M282.682,377.633a11.6,11.6,0,0,0-.245-2.113c-.409-2.055-1.167-4.109-.84-6.187.584-4.342,5.16-7,6.794-11.09,2.078-5.171-.922-10.681.467-15.946,1.062-4.062,5-9.712,2.79-13.88-2.335-4.518-9.164-6.642-13.611-8.171-4.016-1.366-8.44-2.837-12.607-1.226a12.2,12.2,0,0,0-7.062,8.078c-1.611,5.288-.817,10.775-.887,16.2,0,2.521-.537,5.1-.479,7.576a27.852,27.852,0,0,0,1.8,7.693c.782,2.241,2.6,3.981,3.327,6.257,1.389,4.389-1.763,9.21-.525,13.646a3.362,3.362,0,0,0,.665,1.319,5.16,5.16,0,0,0,2.708,1.167,11.533,11.533,0,0,1,6.327,4.156c.5.654,1.167,1.447,1.949,1.167a2.138,2.138,0,0,0,.782-.7c1.879-2.16,5.557-1.9,7.459-4.051a5.545,5.545,0,0,0,1.191-3.9Z" transform="translate(44.971 53.277)" fill="#050b44"/>
      <path id="Path_3575" data-name="Path 3575" d="M194.826,344.631s-1.1,14.008-.467,19.389-3.689,20.93-3.689,20.93-1.669,2.451-6.035,2.521c-2.545,0-6.619-.665-7-5.837s9.957-38.2,9.957-38.2Z" transform="translate(31.029 57.481)" fill="#fccdcd"/>
      <path id="Path_3576" data-name="Path 3576" d="M185.892,321.219a40.946,40.946,0,0,1,1.284,4.669,34.787,34.787,0,0,1,.665,11.043c-.9,6.607-2.988,16.926-2.988,16.926l8.557.42s.7-10.436,1.961-13.716a5.837,5.837,0,0,1,1.237-2.148c.724-.619,2.533.234,3.444-3.012,0,0,1.494-1.961-2.218-8.055,0,0-2.568-7-3.3-8.171s-3.992-6.922-8.685-7.086c0,0-1.961,0-1.3,4.062A38.1,38.1,0,0,0,185.892,321.219Z" transform="translate(32.212 52.235)" fill="#fccdcd"/>
      <path id="Path_3577" data-name="Path 3577" d="M186.958,324.946c3.5,4.307,3.2,14.58,9.339,13.926a3.118,3.118,0,0,1,.362-.409c.724-.619,2.533.233,3.444-3.012,0,0,1.494-1.961-2.218-8.055,0,0-2.568-7-3.3-8.171s-3.992-6.922-8.685-7.086c0,0-1.961,0-1.3,4.062a38.1,38.1,0,0,0,1.342,5.066C186.257,322.483,186.654,323.65,186.958,324.946Z" transform="translate(32.221 52.243)" fill="#e1682e"/>
      <path id="Path_3578" data-name="Path 3578" d="M185.01,318.21c1.914,2.883,5.942,4.669,7.646,8.055.887,1.8.677,3.584,1.167,5.451.934,3.362,4.191,4.611,6.385,3.292.245-.864.339-3.117-2.4-7.611,0,0-2.568-7-3.3-8.171s-3.992-6.922-8.685-7.086c0,0-1.961,0-1.3,4.062C184.672,316.844,184.835,317.533,185.01,318.21Z" transform="translate(32.207 52.243)" fill="#e98555"/>
      <path id="Path_3579" data-name="Path 3579" d="M189.952,365.288c-2.148-4.144-5.335-14.72-6.187-17.568a22.356,22.356,0,0,1-.677-4.319c0-.887,1.634-1.483,2.568-2.591s3.105-3.023,3.187-4.669a1.856,1.856,0,0,0-.14-.747c-.28-.735-4.249-3.5-5.533-4.436l-3.724-2.872a34.74,34.74,0,0,0-9.794-6.432c-9.654-4.226-9.992-1.879-9.992-1.879a7.483,7.483,0,0,0,1.448,2.848c.268.4,6.549,6.035,6.549,6.035s5.4,9.2,7.086,12.7a24.339,24.339,0,0,1,1.646,7.448c0,.42.082,1.284.152,2.451h0c.525,8.3,2.183,32.615,3.957,36.456,2.16,4.669,6.222,3.887,8.592,2.953,4.062-1.6,4.763-4.494,4.763-4.494S192.439,370.085,189.952,365.288Z" transform="translate(27.935 53.412)" fill="#ffe1df"/>
      <path id="Path_3580" data-name="Path 3580" d="M183.17,330.916l-3.724-2.872a34.738,34.738,0,0,0-9.794-6.432c-9.654-4.226-9.992-1.879-9.992-1.879a7.482,7.482,0,0,0,1.448,2.848c.268.4,6.549,6.035,6.549,6.035h0c2.533-1.529,4.588-1.693,7,.759,3.887,3.9,5.965,8.662,11.113,11.23,1.062-1.226,2.953-2.93,3.035-4.541a1.856,1.856,0,0,0-.14-.747C188.423,334.617,184.454,331.9,183.17,330.916Z" transform="translate(27.922 53.405)" fill="#e1682e"/>
      <path id="Path_3581" data-name="Path 3581" d="M278.32,342.33c-9.911-8.44-18.421,3.327-24.911,10.681a41.789,41.789,0,0,1-15.175,10.506c-1.9-1.3-16.611-8.02-32.58,1.342q-5.311,3.093-10.576,6.245c-4,2.335-9.339,4.518-12.385,8.066a44.467,44.467,0,0,0-3.14,4.961,19.167,19.167,0,0,1-6.222,6.059c2.953,2.463,7.307,1.774,11.078,1.016,11.533-2.335,23.347-4.436,35.113-4.938,5.638-.233,11.323-.315,16.95-.712,8.533-.6,13.518-5.918,20.323-10.343a90.93,90.93,0,0,1,8.977-5.136,48.252,48.252,0,0,0,7.506.887c3.245-.07,5.988-11.475,6.619-14.347C283.048,345.6,278.32,342.33,278.32,342.33Z" transform="translate(30.579 56.805)" fill="#e1682e"/>
      <path id="Path_3582" data-name="Path 3582" d="M258.8,348.732s-5.206,26.405.3,33.129l6.21.759c.315-4.4,2.568-31.425,2.335-33.036a4.016,4.016,0,0,0-3.817-3.5S259.861,345.743,258.8,348.732Z" transform="translate(44.798 57.921)" fill="#fccdcd"/>
      <path id="Path_3583" data-name="Path 3583" d="M258.74,378s7.518,2.335,38.429.852l-.105-5.066s-19.46-2.626-25.039-3.934S262.032,367.814,258.74,378Z" transform="translate(45.289 61.777)" fill="#fccdcd"/>
      <path id="Path_3584" data-name="Path 3584" d="M290.8,373.733l.852-.327h.093l7.4-1.833a.876.876,0,0,1,.77.175l8.043,6.665a1.016,1.016,0,0,1,.257.374l.093.245a.875.875,0,0,1-.817,1.167h-1.4a.852.852,0,0,1-.467-.152l-2.918-1.914a.887.887,0,0,0-.6-.14,52,52,0,0,1-10.191.455.864.864,0,0,1-.782-.794Z" transform="translate(50.803 62.184)" fill="#fccdcd"/>
      <path id="Path_3585" data-name="Path 3585" d="M268.329,354.186c1.167-11.475-4.342-11.066-4.342-11.066s-5.65-2.031-6.887,9.689c-.35,3.327-.829,5.171-.969,6.222l5.837.712,5.837.712C267.885,359.4,268,357.513,268.329,354.186Z" transform="translate(44.725 57.405)" fill="#eb8554"/>
      <path id="Path_3586" data-name="Path 3586" d="M286.007,332.452s-4.914,15.094-11.918,16.845c0,0-8.171-3.4-7.564-12.5S278.315,319.67,286.007,332.452Z" transform="translate(46.564 54.53)" fill="#ffe1df"/>
      <path id="Path_3587" data-name="Path 3587" d="M258.53,340.475s6.479,1.3,9.736-5.965l2.6,9.911s-4.751,5.183-7.086,5.837C263.748,350.257,259.219,349.253,258.53,340.475Z" transform="translate(45.144 55.986)" fill="#ffe1df"/>
      <path id="Path_3588" data-name="Path 3588" d="M280.7,337.18l-3.257,5.545,2.65,1.553Z" transform="translate(48.409 56.433)" fill="#fccdcd"/>
      <path id="Path_3589" data-name="Path 3589" d="M290.447,330.219s.28,7.424-19.565,3.934c0,0-9.876,5.113-12.5-1.961-1.494-4.016.607-8.86,3.794-11.475a17.767,17.767,0,0,1,11.195-3.817,12.771,12.771,0,0,1,6.736,2.428S292.327,321.208,290.447,330.219Z" transform="translate(45.116 53.04)" fill="#050b44"/>
      <path id="Path_3590" data-name="Path 3590" d="M256.449,349.632s-5.206,26.405.3,33.129l6.21.759c.315-4.4,2.58-31.425,2.335-33.036a3.992,3.992,0,0,0-3.817-3.5S257.465,346.643,256.449,349.632Z" transform="translate(44.387 58.071)" fill="#ffe1df"/>
      <path id="Path_3591" data-name="Path 3591" d="M256.39,378.9s7.518,2.335,38.429.852l-.105-5.066s-19.459-2.626-25.039-3.934S259.682,368.748,256.39,378.9Z" transform="translate(44.878 61.928)" fill="#ffe1df"/>
      <path id="Path_3592" data-name="Path 3592" d="M265.99,355.086c1.167-11.487-4.354-11.066-4.354-11.066s-5.65-2.043-6.887,9.689c-.35,3.327-.829,5.171-.969,6.222l5.837.712,5.837.712C265.547,360.362,265.71,358.413,265.99,355.086Z" transform="translate(44.315 57.555)" fill="#eb8554"/>
      <path id="Path_3593" data-name="Path 3593" d="M288.45,374.621l.852-.315h.105l7.319-1.821a1,1,0,0,1,.9.21l7.95,6.6a.946.946,0,0,1,.3.432h0a1.027,1.027,0,0,1-.957,1.389h-1.167a1.051,1.051,0,0,1-.56-.163l-2.825-1.844a1,1,0,0,0-.689-.152,53.691,53.691,0,0,1-10.016.455,1.027,1.027,0,0,1-.922-.934Z" transform="translate(50.392 62.336)" fill="#ffe1df"/>
      <path id="Path_3594" data-name="Path 3594" d="M269.661,332.078s-.875-3.5-2.942-2.638c-1.774.724-2.638,4.237,0,6.771Z" transform="translate(46.252 55.115)" fill="#ffe1df"/>
      <rect id="Rectangle_1331" data-name="Rectangle 1331" width="30.047" height="2.043" transform="translate(346.172 444.369)" fill="#030840"/>
      <rect id="Rectangle_1332" data-name="Rectangle 1332" width="33.876" height="2.043" transform="matrix(0.611, -0.792, 0.792, 0.611, 374.698, 445.155)" fill="#030840"/>
      <path id="Path_3595" data-name="Path 3595" d="M340.465,358.7l-20.078,26.032-6.117-10.564,13.915-17.989Z" transform="translate(54.946 59.613)" fill="url(#linear-gradient-2)"/>
      <path id="Path_3596" data-name="Path 3596" d="M317.555,371.59H299.5l-4.856,10.588,29.032-.023Z" transform="translate(51.527 62.191)" fill="url(#linear-gradient-3)"/>
      <path id="Path_3597" data-name="Path 3597" d="M91.935,138.749c.7-1.564-.362-4.109-.724-5.685s-1.541-2.7-1.167-3.5a35.02,35.02,0,0,1,4.669-5.907l-7-4.086s-3.012,5.7-6.093,8.09-12.129,8.171-12.129,8.171c-1.949,1.261-5.381.5-6.864,2.7a4.261,4.261,0,0,0-.432.934c-.128.339-.257.665-.374,1a2.662,2.662,0,0,0-.245,1.459c.28,1.284,5.381.957,6.537,1.1a35.019,35.019,0,0,0,11.673-1.342l4.669-.887c1.588-.3,6.4-.957,7-1.483A1.833,1.833,0,0,0,91.935,138.749Z" transform="translate(10.3 20.02)" fill="#fccdcd"/>
      <path id="Path_3598" data-name="Path 3598" d="M90.085,128.391a4.183,4.183,0,0,1,.21-.374,11.055,11.055,0,0,1-9.2-1.167c-3.5,2.591-11.58,7.809-11.58,7.809-1.949,1.261-5.381.5-6.864,2.7a4.262,4.262,0,0,0-.432.934c-.128.339-.257.665-.374,1a2.661,2.661,0,0,0-.245,1.459c.28,1.284,5.381.957,6.537,1.1a35.02,35.02,0,0,0,11.673-1.342l4.669-.887c1.588-.3,6.4-.957,7-1.483a1.833,1.833,0,0,0,.455-.607c.7-1.564-.362-4.109-.724-5.685S89.665,129.185,90.085,128.391Z" transform="translate(10.305 21.238)" fill="url(#linear-gradient-4)"/>
      <path id="Path_3599" data-name="Path 3599" d="M112.46,78.55c7.821,5.545,14.417,12.841,20.673,20,3.117,3.584,7.331,7.3,10.167,11.1,5.393,7.2,7.985,18.187-1.693,23.347a10.506,10.506,0,0,1-3.934,1.167c-16.214,1.623-23.662-19.646-28.518-31.074-2.1-4.973-4.109-9.992-5.907-15.082C104.674,78.947,112.46,78.55,112.46,78.55Z" transform="translate(18.084 13.156)" fill="url(#linear-gradient-5)"/>
      <path id="Path_3600" data-name="Path 3600" d="M112.759,79.908s-1.716-1.167-4.669,3.572S82.77,128.026,82.77,128.026l6.257,5.043s24.117-23.849,29.452-43.612C118.479,89.457,121.21,80.924,112.759,79.908Z" transform="translate(14.485 13.362)" fill="url(#linear-gradient-6)"/>
      <path id="Path_3601" data-name="Path 3601" d="M65.937,167.041c1.167-1.167,1.167-3.981,1.331-5.6s-.467-3.175.187-3.735a31.447,31.447,0,0,1,6.42-3.5L68.8,147.36s-4.8,4-8.522,4.891-14.16,2.4-14.16,2.4c-1.7.245-3.3-1.027-5.16-.607a6.409,6.409,0,0,0-4.436,3.5c5.113,3.887,11.031,5.463,17.136,7l4.669,1.167c1.588.409,6.28,1.879,7,1.634a1.6,1.6,0,0,0,.607-.315Z" transform="translate(6.111 24.67)" fill="#ffe1df"/>
      <path id="Path_3602" data-name="Path 3602" d="M67.314,157.153a13.821,13.821,0,0,1-6.712-5.09l-.385-.444c-3.77.9-14.1,2.393-14.1,2.393-1.7.245-3.3-1.027-5.16-.607a6.409,6.409,0,0,0-4.436,3.5c5.113,3.887,11.031,5.463,17.136,7l4.669,1.167c1.588.409,6.28,1.879,7,1.634a1.6,1.6,0,0,0,.642-.362c1.167-1.167,1.167-3.981,1.331-5.6C67.431,159.371,66.906,157.9,67.314,157.153Z" transform="translate(6.111 25.383)" fill="url(#linear-gradient-7)"/>
      <path id="Path_3603" data-name="Path 3603" d="M107.369,121.08s-1.167-1.891-5.58,1.307S62.52,152.924,62.52,152.924l4.062,7.366s30.829-11.837,42.748-27.876C109.318,132.414,114.863,125.644,107.369,121.08Z" transform="translate(10.462 20.179)" fill="url(#linear-gradient-8)"/>
      <path id="Path_3604" data-name="Path 3604" d="M150.005,120.446a20.1,20.1,0,0,0,.525-8.86c-.058-.327-3.035-10.669-4.494-9l-.549.63-8.4-.35c-1.588,2.335-4.319,6.035-6.736,7.506a11.265,11.265,0,0,1-1.518.712c-11.463,4.763-23.615,8.545-33.993,15.526,0,0-2.335,7.2,5.428,11.6,1.6.911,6.257,0,8.171,0a56.618,56.618,0,0,0,8.171-.245c4.774-.782,9.771-1.821,14.475-3.058,6.5-1.728,13.214-4.506,16.9-10.121A16.516,16.516,0,0,0,150.005,120.446Z" transform="translate(16.572 17.147)" fill="url(#linear-gradient-9)"/>
      <path id="Path_3605" data-name="Path 3605" d="M144.245,66.21h-.093c-1.518.245-3.292-.163-4.564.922-1.669,1.412-2.335,4.062-3.222,6-2.988,6.771-6.771,14.4-7.973,21.747-.49,3.035-.712,6.117-1.319,9.129a21.421,21.421,0,0,1-1.261,4.331c-.233.5-2.078,2.685-2.043,2.977.128,1.412,1.331,2.451,2.44,3.339,4.389,3.5,9.152,1.354,13.529,4.821a13.694,13.694,0,0,1,4.144,4.448,6.747,6.747,0,0,0,1.331,2.335c2.44-1.564,3.759-4.354,4.833-7a92.629,92.629,0,0,0,6.56-27.117,73.917,73.917,0,0,0,.175-11.813,15.175,15.175,0,0,0-5.568-10.938,12.318,12.318,0,0,0-1.494-1.272,14.089,14.089,0,0,0-4.576-1.774A3.14,3.14,0,0,0,144.245,66.21Z" transform="translate(21.653 11.091)" fill="url(#linear-gradient-10)"/>
      <path id="Path_3606" data-name="Path 3606" d="M150.362,81.96s-17.312,19.039-25.6,18.677l-4.833-7c3.2-2.743,23.347-17.125,24.7-17.86a3.829,3.829,0,0,1,4.879.911S152.008,79.485,150.362,81.96Z" transform="translate(20.977 12.606)" fill="#ffe1df"/>
      <path id="Path_3607" data-name="Path 3607" d="M128.777,98.891s1.588,1.074-26.347-8.522l1.447-4.669s14.942,2.778,20.4,3.07S128.462,88.688,128.777,98.891Z" transform="translate(17.909 14.352)" fill="#ffe1df"/>
      <path id="Path_3608" data-name="Path 3608" d="M137.941,77.437c9.654-8.778,12.981-3.5,12.981-3.5s5.662,3.759-4.156,12.841c-2.79,2.568-4.144,4.249-5.008,5.078l-4.564-4.8-4.564-4.809C133.494,81.36,135.14,79.982,137.941,77.437Z" transform="translate(23.175 12.12)" fill="url(#linear-gradient-10)"/>
      <path id="Path_3609" data-name="Path 3609" d="M133.306,46.068s-3.619,17.8,2.335,23.487c0,0,15.537,1.459,14.58-8.171C149.742,56.843,148.178,37.733,133.306,46.068Z" transform="translate(23.099 7.372)" fill="#ffe1df"/>
      <path id="Path_3610" data-name="Path 3610" d="M147.2,58.709l-9.07-1.389c3.759,8.09-.922,16.343-.922,16.343,7.167,3.432,10.926-2.475,10.926-2.475C146.759,66.682,147.2,58.709,147.2,58.709Z" transform="translate(23.957 9.603)" fill="#ffe1df"/>
      <path id="Path_3611" data-name="Path 3611" d="M132.909,53.04,133,60.394l-3.5.047Z" transform="translate(22.596 8.887)" fill="#fccdcd"/>
      <path id="Path_3612" data-name="Path 3612" d="M146.29,54.1s3.058-3.7,4.774-1.167c1.459,2.148.245,7.132-4.156,8.393Z" transform="translate(25.53 8.721)" fill="#ffd9b6"/>
      <path id="Path_3613" data-name="Path 3613" d="M148.8,70.182s-4.774-17.51-6.42-18.677-7.751-.56-10.319-5.685-.339-7.237.922-7.319,2.988,4.786,7.424,2.58,12.992-1.167,13.88,2.335c0,0,4.494,1.027,3.175,8.3C154.659,67.1,148.8,70.182,148.8,70.182Z" transform="translate(22.883 6.454)" fill="#050b44"/>
      <path id="Path_3614" data-name="Path 3614" d="M143.855,53.686s3.876-3.584,5.37-.6c1.284,2.556-.77,7.809-5.755,8.533Z" transform="translate(25.039 8.696)" fill="#ffe1df"/>
      <path id="Path_3615" data-name="Path 3615" d="M132.693,60.807l4.751,3.572,2.265-1.669-7.249-3.35C132.518,59.85,132.6,60.341,132.693,60.807Z" transform="translate(23.12 9.945)" fill="url(#linear-gradient-12)"/>
      <path id="Path_3616" data-name="Path 3616" d="M133.38,65.145a9.106,9.106,0,0,0,2.031,3.2s6.911.642,11.23-1.774l-1.167-15.035-2.416-.3.385,10.238L133.4,65.1Z" transform="translate(23.293 8.584)" fill="#050b44"/>
      <rect id="Rectangle_1333" data-name="Rectangle 1333" width="1.564" height="15.911" transform="translate(109.037 81.784) rotate(-15.05)" fill="url(#linear-gradient-13)"/>
      <path id="Path_3617" data-name="Path 3617" d="M102.358,83.09c-.572-.385-1.272-.444-1.786-.969a6.759,6.759,0,0,1-1.272-2c-.292-.642-.327-1.319-.584-1.961a.607.607,0,0,0-.21-.315.654.654,0,0,0-.677.07A2.253,2.253,0,0,0,97.093,80a8.564,8.564,0,0,0,.175,1.074c0,.245.117,1.237.339,1.377l-3.385-2.078a3.024,3.024,0,0,0-.572,1.669c0,.6,0,1.167,0,1.8a3.77,3.77,0,0,0,0,1.4,3.129,3.129,0,0,0,.525.887l1.576,2.055a1.949,1.949,0,0,0,.362.4,2.008,2.008,0,0,0,.607.315l7.319,2.837,2.5-4.2s-1.844-1.833-2-2.019a27.79,27.79,0,0,0-1.844-2.195,1.984,1.984,0,0,0-.339-.222Z" transform="translate(16.342 13.028)" fill="#ffe1df"/>
      <path id="Path_3618" data-name="Path 3618" d="M328.838,162.638c-.607.292-1.167.607-1.763.946-3.327,2.008-4.2,5.743-5.346,9.21a37.1,37.1,0,0,0-1.506,6.654c-.292,2.265-.409,4.669-1.646,6.584-2.241,3.5-6.35,2.942-9.2,5.23s-4.237,7.494-4.074,11.043,1.506,6.922.339,10.132c-.619,1.693-1.914,3.21-1.9,5.02a5.919,5.919,0,0,0,2.568,4.261,14.849,14.849,0,0,0,9.105,3.2c1.541,0,2.93-.49,4.4-.152,1.879.432,3.4,1.529,5.428,1.611a16.028,16.028,0,0,0,4.786-.77c3.806-1,7.915-2.218,10.214-5.416a28.692,28.692,0,0,0,2.626-5.837c.841-1.961,2.125-3.922,4.132-4.669a16.109,16.109,0,0,0,2.7-.852,4.67,4.67,0,0,0,1.1-.969,8.79,8.79,0,0,0,1.6-8.428c-.63-1.821-1.856-3.42-2.195-5.323-.5-2.872,1.167-5.615,1.949-8.428.876-3.105.759-6.49,1.342-9.642a11.673,11.673,0,0,0-1.856-8.918c-1.3-1.6-3.187-2.568-4.833-3.782a21.4,21.4,0,0,0-2.883-2.031,10.506,10.506,0,0,0-4.821-.946,24.082,24.082,0,0,0-10.261,2.276Z" transform="translate(53.227 26.844)" fill="url(#linear-gradient-14)"/>
      <path id="Path_3619" data-name="Path 3619" d="M311.08,236.82c.724-3.21,2.4-5.953,3.677-8.953a40.159,40.159,0,0,0,3.035-10.926,14.006,14.006,0,0,0,0-2.335c-.14-3.339-1.471-6.747-1.914-10.074a24.035,24.035,0,0,1,.619-10.821,8.172,8.172,0,0,1,1.786-3.023,9.923,9.923,0,0,1,2.72-2,17.041,17.041,0,0,1,3.28-1.226,17.371,17.371,0,0,1,3.175-.63,5.031,5.031,0,0,0,1.506-.327,7.174,7.174,0,0,0,.735-.362,7.715,7.715,0,0,0,1.728-1.261,7.564,7.564,0,0,0,1.541-2.265,9.643,9.643,0,0,0,.759-3.5c0-.14,0-.28,0-.409l5.486,6.887s-.233.724-.619,1.7c1.062.374,2.942.9,3.233,1.016.992.42,2.7.911,3.339,1.856,1.6,2.335-.315,6-.4,8.475-.093,2.953,1.6,5.755,1.4,8.7-.292,4.167-4.2,7.237-5.1,11.311a11.674,11.674,0,0,0,.712,6.49,5.6,5.6,0,0,0,1.109,2.218,18.832,18.832,0,0,1,2.335,2.72,7.167,7.167,0,0,1,1.249,4.4,3.175,3.175,0,0,1-.6,1.728c-.9,1.167-1.891.4-3.047.268-1.529-.163-3.07-.268-4.6-.362-2.907-.175-5.837-.233-8.732-.152a89.1,89.1,0,0,0-16.763,2.09c-.467.105-1.261.4-1.576-.093a.362.362,0,0,1-.058-.117A1.634,1.634,0,0,1,311.08,236.82Z" transform="translate(54.423 29.916)" fill="#ffe1df"/>
      <path id="Path_3620" data-name="Path 3620" d="M342.618,222.557s-2.055-3.56-2.148-3.77a46.577,46.577,0,0,1-3.654-11.311,64.543,64.543,0,0,1-1.167-9.689c-.117-2.848-1.027-12.35,4.354-10.284a5.334,5.334,0,0,1,2.743,3.082c2.416,5.743,5.125,26.755,5.125,26.755Z" transform="translate(58.588 31.338)" fill="url(#linear-gradient-15)"/>
      <path id="Path_3621" data-name="Path 3621" d="M362.587,230.609c-7.681-2.428-15.887-3.175-23.627-3.747-2.078-.152-4.354-.409-6.56-.654s-4.272-.479-6.245-.63c-1.459-.105-2.837-.268-4.167-.409-3.9-.444-7.261-.829-8.557.525-.747.782-.957,2.335-.6,4.669.49,3.14,1.167,6.712,3.117,9.455,1.693,2.335,4.669,3.887,9.012,4.669a59.979,59.979,0,0,0,12.3.362,52.459,52.459,0,0,0,10.681-1.354c4.891-1.167,9.152-2.335,13-3.572C364.851,235.722,363.252,231.73,362.587,230.609Z" transform="translate(54.795 37.621)" fill="#fccdcd"/>
      <path id="Path_3622" data-name="Path 3622" d="M356.209,230.01h.28l.128-.07c.14,0,1.027.385,2.171,2.953,1.588,3.5,11.848,28.786,15.339,37.355h0c.233.572.432,1.074.607,1.482a22.426,22.426,0,0,0,2.837,4.809l.233.093c2.778,1.016,9.059,2.44,9.666,2.6h.152l2.626-.117.759-.082a11.164,11.164,0,0,1,2.416,0h0a6.084,6.084,0,0,1,1.109.245h.093c.782.292,2.148,1.167,2.265,2.09s-.945,1.623-1.693,1.938c-2.813,1.167-5.486,2.743-8.5,3.362-2.72.56-5.58.537-8.288.864-1.471.187-2.907.56-4.378.665a2.27,2.27,0,0,1-2.825-1.6,6.817,6.817,0,0,1-.245-.665,8.231,8.231,0,0,1-.5-2.1,17.577,17.577,0,0,1,.093-1.926,1.871,1.871,0,0,1,.07-.619,2.738,2.738,0,0,0,.093-.6,4.561,4.561,0,0,0,0-1.1,18.531,18.531,0,0,0-1.576-3.362l-.175.117c-3.315-4.413-17.265-23.814-19.378-38.767C349.707,236.664,350.384,229.917,356.209,230.01Z" transform="translate(61.498 38.488)" fill="#fccdcd"/>
      <path id="Path_3623" data-name="Path 3623" d="M368.03,278.357a4.275,4.275,0,0,1-.21-.537,3.664,3.664,0,0,0,.21.537Z" transform="translate(64.549 46.5)" fill="#ffc58c"/>
      <path id="Path_3624" data-name="Path 3624" d="M379.62,275Z" transform="translate(66.523 46.028)" fill="#ffc58c"/>
      <path id="Path_3625" data-name="Path 3625" d="M379.12,275.11h0Z" transform="translate(66.44 46.047)" fill="#ffc58c"/>
      <path id="Path_3626" data-name="Path 3626" d="M381.79,273l-.07.187Z" transform="translate(66.875 45.694)" fill="#ffc58c"/>
      <path id="Path_3627" data-name="Path 3627" d="M381.84,272.873v-.093Z" transform="translate(66.895 45.657)" fill="#ffc58c"/>
      <path id="Path_3628" data-name="Path 3628" d="M393.825,274.3a2.222,2.222,0,0,0-.187-.315,3.641,3.641,0,0,0-.268-.327,3.749,3.749,0,0,0-.327-.28l-.175-.14a4.959,4.959,0,0,0-.805-.49l-.245-.105h-.257l-.35-.105H390.9l-.432-.07h0a8.293,8.293,0,0,0-1.167,0h-1.214l-.759.082-2.626.117h-.21c-.479-.128-5.37-1.447-8.755-2.5-.735,3.012-5.265,5.09-8.346,4.471a4.313,4.313,0,0,1-.07.735c0,.525-.175,1.039-.175,1.564v.28l.07.537a1.812,1.812,0,0,0,.093.42,4.919,4.919,0,0,0,.14.56,1.579,1.579,0,0,0,.082.292,11.674,11.674,0,0,0,.4,1.167,3.5,3.5,0,0,0,.3.63.966.966,0,0,0,.093.14,1.832,1.832,0,0,0,.35.385,1.8,1.8,0,0,0,.455.269l.257.082a4.109,4.109,0,0,0,1.366.093c.735-.058,1.751-.292,2.486-.42l1.086-.2,1.1-.163c1.167-.14,2.393-.21,3.619-.3.876-.058,1.739-.128,2.615-.233.689-.082,1.377-.187,2.055-.327l.56-.128.56-.152c.35-.093.7-.21,1.051-.327l.572-.21,1.576-.665c1.4-.619,2.767-1.307,4.179-1.879a5.831,5.831,0,0,0,.747-.4,1.774,1.774,0,0,0,.946-1.541,1,1,0,0,0-.105-.35Zm-6.584-1.891-.619.07h0a11.667,11.667,0,0,1-1.914,0h0Z" transform="translate(64.435 45.22)" fill="url(#linear-gradient-16)"/>
      <path id="Path_3629" data-name="Path 3629" d="M364.48,281.429a3.128,3.128,0,0,1-.21-.549,2.228,2.228,0,0,0,.21.549Z" transform="translate(63.955 47.012)" fill="#ffc58c"/>
      <path id="Path_3630" data-name="Path 3630" d="M376.05,278.08Z" transform="translate(65.926 46.544)" fill="#ffc58c"/>
      <path id="Path_3631" data-name="Path 3631" d="M375.55,278.188l.3-.058Z" transform="translate(65.842 46.552)" fill="#ffc58c"/>
      <path id="Path_3632" data-name="Path 3632" d="M378.22,276.08l-.07.187Z" transform="translate(66.277 46.209)" fill="#ffc58c"/>
      <path id="Path_3633" data-name="Path 3633" d="M378.27,275.943v-.093Z" transform="translate(66.297 46.171)" fill="#fff"/>
      <path id="Path_3634" data-name="Path 3634" d="M322.636,284.97c.093-.21.187-.432.292-.654A8.256,8.256,0,0,1,324,282.448a16.57,16.57,0,0,1,1.436-1.354,5.225,5.225,0,0,1,.479-.409l.479-.374a3.607,3.607,0,0,0,1.272-1.891c1.284-4.1,1.541-8.58,2.335-12.841.84-4.436,1.833-8.86,3.047-13.214a91.845,91.845,0,0,1,3.315-9.887c.607-1.471,1.261-2.93,2-4.354a14.137,14.137,0,0,1,2.253-3.724c.642-.607,5.837-5.218,10.191-1.109l.187.175h.14c.2.2.5,1.226-.385,3.794-1.284,3.735-15.712,41.429-16.506,44.709l.105.233c1.331,2.65,4.9,8.008,5.23,8.533a.455.455,0,0,1,.093.117c.257.21,1.074.922,1.984,1.716l.619.467a10.645,10.645,0,0,1,1.763,1.634l.292.268-.28-.257a5.693,5.693,0,0,1,.63.934.291.291,0,0,0,0,.082c.362.747.77,2.335.21,3.082s-1.809.525-2.568.234c-2.837-1.086-5.837-1.774-8.475-3.4-2.335-1.459-4.424-3.5-6.619-5.066-1.167-.887-2.486-1.6-3.63-2.545a2.335,2.335,0,0,1-.957-3.105Z" transform="translate(56.378 38.767)" fill="#ffe1df"/>
      <path id="Path_3635" data-name="Path 3635" d="M345.057,291.5a1.831,1.831,0,0,0,.093-.362c0-.128,0-.268,0-.409v-.654a5.325,5.325,0,0,0-.257-.922.578.578,0,0,0-.093-.233h0l-.07-.152a.233.233,0,0,1,0-.093l-.187-.315-.082-.128-.105-.14a3.674,3.674,0,0,0-.257-.339l.28.257-.292-.268a8.263,8.263,0,0,0-.829-.864l-.42-.362-.082-.058-.432-.35-.619-.467c-.91-.794-1.728-1.506-1.984-1.716v-.07c-.269-.42-2.907-4.739-4.669-7.833-2.6,1.681-7.319.07-9.129-2.5a3.983,3.983,0,0,1-.56.479,14.386,14.386,0,0,0-1.167,1.027l-.175.21a2.936,2.936,0,0,0-.315.432l-.233.362-.28.5-.14.28c-.222.444-.4.841-.49,1.086a3.648,3.648,0,0,0-.21.665.932.932,0,0,0,0,.175,1.982,1.982,0,0,0,0,.525,1.471,1.471,0,0,0,.152.5,2.334,2.334,0,0,0,.117.245,4.179,4.179,0,0,0,.934.992c.572.467,1.471,1,2.09,1.412l.934.607c.3.21.607.42.9.642.957.7,1.891,1.482,2.837,2.265.677.549,1.354,1.1,2.055,1.623s1.167.817,1.728,1.167l.49.292.5.269c.327.175.665.339,1,.479s.362.163.56.245c.525.222,1.062.42,1.6.607,1.436.514,2.907.957,4.319,1.506a4.179,4.179,0,0,0,.817.222,1.739,1.739,0,0,0,1.751-.455,1.422,1.422,0,0,0,.164-.327Zm-3.5-5.9-.49-.385h0a11.392,11.392,0,0,1-1.412-1.284h0Z" transform="translate(56.339 45.781)" fill="url(#linear-gradient-16)"/>
      <path id="Path_3636" data-name="Path 3636" d="M311.534,234.51c.175-.584.385-1.167.607-1.7a5.556,5.556,0,0,1,1.016-2.428l.07-.07c.572-1.167,1.167-2.335,1.681-3.607a40.157,40.157,0,0,0,3.035-10.926,14.007,14.007,0,0,0,0-2.335c-.14-3.339-1.471-6.747-1.914-10.074a24.035,24.035,0,0,1,.619-10.821c1.506-4.564,6.093-6.012,10.424-6.864,0,0,2.848,6.269,8.416,5.4a3.817,3.817,0,0,0,1.261-.409,4.564,4.564,0,0,0,2.545-3.444,4.062,4.062,0,0,0,0-.922c1.051.339,2.416.735,2.662.829.992.42,2.7.911,3.339,1.856,1.6,2.335-.315,6-.4,8.475-.093,2.953,1.6,5.755,1.4,8.7-.292,4.167-4.2,7.237-5.1,11.311a11.673,11.673,0,0,0,.712,6.49,5.6,5.6,0,0,0,1.109,2.218,18.827,18.827,0,0,1,2.335,2.72,8.288,8.288,0,0,1,.957,2.031c5.44,1.4,10.81,3,16.168,4.669a3.572,3.572,0,0,1,2.872,3.42,2.335,2.335,0,0,0-1.494-.315,20.49,20.49,0,0,1-2.055-.374c-1.051-.093-2.1-.14-3.14-.14a30.406,30.406,0,0,0-6.245.724,33.292,33.292,0,0,0-9.105,3.6c-2.7,1.506-3.677,3.9-4.9,6.712-2.685,6.164-4.272,12.841-7.8,18.6a2.7,2.7,0,0,1-1.716-1.891,17.218,17.218,0,0,0-.829-2.521,17.242,17.242,0,0,0-2.335-2.568c-1.786-2.078-2.09-5.066-3.829-7.167-1.576-1.914-4.588-2.253-6.619-3.572s-3.724-2.428-4.342-4.926a19.05,19.05,0,0,1-.829-5.837A13.342,13.342,0,0,1,311.534,234.51Z" transform="translate(54.372 31.082)" fill="url(#linear-gradient-16)"/>
      <path id="Path_3637" data-name="Path 3637" d="M314.84,224.337a39.873,39.873,0,0,0,2.335-9.152,14.007,14.007,0,0,0,0-2.335c-.14-3.339-1.471-6.747-1.914-10.074a32.362,32.362,0,0,1-.3-5.627c1.016-3.56,3.2-10.343,7.167-7.1a5.241,5.241,0,0,1,1.646,3.794c.3,4.016-1.319,14.09-2.521,20.743,4.669-.432,11.4-.35,20.79-1.4a13.085,13.085,0,0,0-1.588,3.7,9.338,9.338,0,0,0-.082,3.5C332.222,222.528,319.86,225.4,314.84,224.337Z" transform="translate(55.05 31.671)" fill="#e1682e"/>
      <path id="Path_3638" data-name="Path 3638" d="M339.05,214.427l.77-.339h.105l6.724-1.973a.946.946,0,0,1,.84.163l7.634,5.837a.992.992,0,0,1,.3.385h0a.946.946,0,0,1-.84,1.319h-1.039a1.086,1.086,0,0,1-.537-.14l-2.685-1.6a.875.875,0,0,0-.642-.117,49.333,49.333,0,0,1-9.339.817.945.945,0,0,1-.887-.829Z" transform="translate(59.735 35.5)" fill="#ffd9b6"/>
      <path id="Path_3639" data-name="Path 3639" d="M310.873,223.615s-.42-4.167-.432-4.4a47.943,47.943,0,0,1,1.307-12.024,65.534,65.534,0,0,1,2.953-9.479c1.062-2.685,4.156-11.9,8.3-7.739a5.428,5.428,0,0,1,1.272,3.992c-.14,6.339-6.339,26.989-6.339,26.989Z" transform="translate(54.215 31.623)" fill="url(#linear-gradient-15)"/>
      <path id="Path_3640" data-name="Path 3640" d="M310.813,219.8s-.642-7.179,4.809-7.95,14.6,1.576,30.841,1.436l-.642,5.767S315.7,223.829,310.813,219.8Z" transform="translate(54.386 35.436)" fill="url(#linear-gradient-15)"/>
      <path id="Path_3641" data-name="Path 3641" d="M346.843,209.617l-8.1,17.37-12.07-.829-.292,2.556,38.522,4.4,8.767-20.44-27.211-3.105" transform="translate(57.614 35.08)" fill="url(#linear-gradient-21)"/>
      <path id="Path_3642" data-name="Path 3642" d="M344.256,170.046s1.436,14.288-3.677,18.28c0,0-7.961.163-10.821-7.564S333.237,162.272,344.256,170.046Z" transform="translate(57.478 28.015)" fill="#ffe1df"/>
      <path id="Path_3643" data-name="Path 3643" d="M340.5,175.3l-.654,5.767,2.743.315Z" transform="translate(59.868 29.345)" fill="#fccdcd"/>
      <path id="Path_3644" data-name="Path 3644" d="M344.09,165.694s-1.506,5.942-12.841,10.95l-4.669-2.16s-1.9-13.413,8.23-11.825Z" transform="translate(57.029 27.208)" fill="url(#linear-gradient-14)"/>
      <path id="Path_3645" data-name="Path 3645" d="M331.073,175.068s-1.167-2.486-2.953-1.611-1.167,5.358,2.335,6.642Z" transform="translate(57.085 29.006)" fill="#ffe1df"/>
      <path id="Path_3649" data-name="Path 3649" d="M41.72,385.83a6.244,6.244,0,0,1,.782-.28A4.132,4.132,0,0,0,41.72,385.83Z" transform="translate(6.981 64.527)" fill="#ffc58c"/>
      <path id="Path_3650" data-name="Path 3650" d="M48.848,405.767l-.268-.117Z" transform="translate(8.129 67.891)" fill="#ffc58c"/>
      <path id="Path_3651" data-name="Path 3651" d="M49,405.84h0Z" transform="translate(8.199 67.922)" fill="#ffc58c"/>
      <g id="Group_1633" data-name="Group 1633" transform="translate(45.869 256.064)">
        <path id="Path_3646" data-name="Path 3646" d="M104.5,414.011a13.425,13.425,0,0,0-.805-2.778c-.093-.257-.794-2.79-.794-3.07-.082-4.121.876-15.479.876-15.479l-11.37-.374s1.424,9.876-.292,15.642h0c-5.066,2.673-14.16,6.245-14.16,6.245s-10.179,1.447-10.728,1.669a9.6,9.6,0,0,0-3.4,1.914s-1.237,2.6,11.4,4.856a42.282,42.282,0,0,0,14.276.117l5.732-.385c1.949-.128,7.833-.2,8.615-.759a2.4,2.4,0,0,0,.642-.654C105.6,419.182,104.713,415.96,104.5,414.011Z" transform="translate(-56.248 -190.405)" fill="#ffe1df"/>
        <path id="Path_3647" data-name="Path 3647" d="M103.7,408.786c0-.152-.3-1.062-.514-1.856-.444.233-.876.444-1.3.642-4.9,2.335-10.144,1.984-15.3.782l-.28-.082c-4.226,1.868-8.311,3.5-8.311,3.5s-10.179,1.447-10.728,1.669a9.6,9.6,0,0,0-3.4,1.914s-1.237,2.6,11.4,4.856a42.28,42.28,0,0,0,14.276.117l5.732-.385c1.949-.128,7.833-.2,8.615-.759a2.4,2.4,0,0,0,.642-.654c1.062-1.774.175-5,0-7a13.424,13.424,0,0,0-.84-2.743Z" transform="translate(-56.313 -187.958)" fill="url(#linear-gradient-23)"/>
        <path id="Path_3648" data-name="Path 3648" d="M54.6,424.071c1.342.117,2.335-1.424,2.72-2.5,1.576-4.086,3.759-7.973,4.553-12.315.712-3.922.584-8.043.957-11.93.21-2.125.7-4.2.805-6.327a4.214,4.214,0,0,0-.7-2.965A4.015,4.015,0,0,0,61.238,387c-1.167-.42-4.774-1.576-5.837-.689l-.082.082a.653.653,0,0,0,0-.14h-.257c-1.658-.093-3.42.805-4.144.105a39.129,39.129,0,0,1-4.926-6.934l-6.677,6.3s5.23,5.078,6.829,9.187,4.8,14.849,5.055,15.712h0v.21c0,.467,0,2.02-.07,3.771,0,.374-.07.735-.093,1.109a15.537,15.537,0,0,0,0,3.5h0a7.857,7.857,0,0,0,.385,1.564l.058.14C51.97,422,53.242,423.942,54.6,424.071Z" transform="translate(14.196 -192.562)" fill="#ffe1df"/>
        <path id="Path_3652" data-name="Path 3652" d="M46.1,422.982a2.393,2.393,0,0,1-.479-.257,4.275,4.275,0,0,1-.455-.374,5.355,5.355,0,0,1-.432-.455l-.2-.245a7.95,7.95,0,0,1-.735-1.167c0-.105-.117-.222-.163-.327h0c0-.082-.07-.152-.093-.222l-.058-.14a2.282,2.282,0,0,0-.163-.5,1.411,1.411,0,0,0-.058-.21v-.245c0-.082-.082-.409-.117-.607h0a12.153,12.153,0,0,1-.117-1.728v-1.728c0-.257.058-.735.093-1.109,0-1.751,0-3.3.07-3.77v-.21c-.21-.689-2.335-7.669-3.9-12.5,4.307-1.167,7-7.307,5.988-11.673a5.835,5.835,0,0,0,1.051-.128c.759-.07,1.494-.28,2.253-.292h.467a5.966,5.966,0,0,1,.77.082,5.494,5.494,0,0,1,.607.105l.805.187.42.105c.689.2,1.3.4,1.646.525a5.843,5.843,0,0,1,.91.42l.222.128a3.186,3.186,0,0,1,.56.49,2.51,2.51,0,0,1,.4.654,3.326,3.326,0,0,1,.14.362,6.047,6.047,0,0,1,.163,1.949,28.832,28.832,0,0,1-.362,3.163l-.245,1.576c-.07.525-.14,1.051-.2,1.588-.163,1.693-.233,3.444-.315,5.195,0,1.261-.128,2.51-.245,3.759-.093,1-.222,2-.4,2.977a3.946,3.946,0,0,1-.163.805c-.058.269-.128.537-.2.805-.128.514-.28,1.016-.444,1.518-.093.28-.187.549-.292.829-.268.77-.572,1.541-.887,2.335-.84,2.02-1.774,4.016-2.568,6.059a5.93,5.93,0,0,1-.549,1.086A2.5,2.5,0,0,1,46.66,423.2a1.987,1.987,0,0,1-.5-.128Zm-2.942-9.339.07-.887v-.082a16.563,16.563,0,0,0,0-2.743h0Z" transform="translate(22.179 -191.613)" fill="url(#linear-gradient-24)"/>
        <path id="Path_3653" data-name="Path 3653" d="M50.918,354.389s-1.879,1.471,2.335,6.187,41.242,35.043,41.242,35.043l7.471-5.183S82.786,363.308,63.1,351.261C63.1,351.261,54.688,345.541,50.918,354.389Z" transform="translate(-37.154 -197.578)" fill="url(#linear-gradient-25)"/>
        <path id="Path_3654" data-name="Path 3654" d="M98.148,302.407c-2.965-3.63-7.529-4.518-11.954-3.642-10.506,2.113-7.634-3.245-11.79,6.654-2.708,6.444-13.693,35.394-14.393,42.421a81.271,81.271,0,0,0,.245,16.845,1.167,1.167,0,0,0,.105.49c.409.794,4.518,2.825,5.545,2.93,1.821.175,4.3,0,5.837-1.436C76.529,362,90.491,334.6,93.479,329.839c3.6-5.732,7.319-12.572,7.366-19.518a12.222,12.222,0,0,0-2.7-7.915Z" transform="translate(-46.762 -206.111)" fill="url(#linear-gradient-26)"/>
        <path id="Path_3655" data-name="Path 3655" d="M63.332,339.839s-2.673-.2-2.72,6.9,1.611,64.74,1.611,64.74l10.506,1.436s10.051-41.65,3-66.468C75.752,346.446,73.114,335.438,63.332,339.839Z" transform="translate(-25.229 -199.359)" fill="url(#linear-gradient-27)"/>
        <path id="Path_3656" data-name="Path 3656" d="M76.587,300.609c-3.712-2.837-8.37-2.65-12.467-.759-9.794,4.494-8.171-1.4-9.934,9.187-1.167,6.9-4.4,30.094-3.5,37.086.817,6.082,4.669,18.677,4.669,18.677s5.055-.222,5.79-.339c1.821-.245,4.191-.969,5.311-2.732,3.584-5.6,10.086-28.016,11.883-33.339,2.171-6.409,4.214-13.926,2.65-20.7a12.187,12.187,0,0,0-4.4-7.086Z" transform="translate(-16.76 -206.111)" fill="url(#linear-gradient-28)"/>
        <path id="Path_3657" data-name="Path 3657" d="M81.557,293.021s2.335-4.366,2.463-4.611a49.087,49.087,0,0,0,3.584-13.8,69.084,69.084,0,0,0,.374-11.743c-.187-3.432-.105-14.954-7.179-12.292a6.07,6.07,0,0,0-3.362,3.794c-2.58,7-3.7,32.487-3.7,32.487Z" transform="translate(-50.928 -214.188)" fill="#ff9563"/>
        <path id="Path_3658" data-name="Path 3658" d="M103.512,288.251s-2.5,9.957-8.265,9.724c-2.265-.082-21.712-4.669-26.09-6.841-1.518-.759-3.163-1.856-3.327-3.5a4.973,4.973,0,0,1,.584-2.428,7,7,0,0,1,2.335-3.327c1.7-1.086,3.572-.584,5.428-.409,1.483.14,3.012.14,4.506.245a108.565,108.565,0,0,1,15.292,1.961C96.882,284.305,102.077,285.2,103.512,288.251Z" transform="translate(-57.102 -208.997)" fill="#ff9563"/>
        <path id="Path_3659" data-name="Path 3659" d="M89.031,324.222a.6.6,0,0,1,0-.152c1.4-8.428,1.564-21.28,2.556-29.779a126.447,126.447,0,0,0,1.1-22.518c-.28-4.412-1-8.907-3.187-12.759-3.5-6.105-10.308-9.794-17.265-10.728a39.211,39.211,0,0,0-14.638,1.074c-2,.49-4.821.887-6.385,2.253s-2.335,4.062-2.662,6.129c-1.167,8.253.759,17.008.934,25.32q.28,13.448-.514,26.849c-.035,1.623-3.537,11.627-3.537,11.627s28.74,2,41.429,4.307a2.1,2.1,0,0,0,1.366,0A2.055,2.055,0,0,0,89.031,324.222Z" transform="translate(-22.06 -214.548)" fill="url(#linear-gradient-29)"/>
        <path id="Path_3660" data-name="Path 3660" d="M100.9,268.594l-.409-.887a.362.362,0,0,0-.058-.117l-4.179-6.946a1.051,1.051,0,0,0-.84-.525L84.358,259.08a1.167,1.167,0,0,0-.572.105h0a1.1,1.1,0,0,0-.315,1.786l.852.852a1.167,1.167,0,0,0,.56.292l3.5.747a1.039,1.039,0,0,1,.654.409,56.649,56.649,0,0,0,7.261,7.961,1.1,1.1,0,0,0,1.4,0Z" transform="translate(-74.802 -212.699)" fill="#ffe1df"/>
        <path id="Path_3661" data-name="Path 3661" d="M50.559,299.192c.257.327,6.187-4.973,6.782-5.533a50.2,50.2,0,0,0,7.938-9.689A68.386,68.386,0,0,0,70.7,273.534c1.307-3.175,6.339-13.541-1.167-14.183a6.047,6.047,0,0,0-4.669,1.926c-5.346,5.23-17.312,27.736-17.312,27.736Z" transform="translate(-5.3 -212.655)" fill="#fe7f42"/>
        <path id="Path_3662" data-name="Path 3662" d="M88.571,298.308a1.716,1.716,0,0,0,.49-.327c2.79-2.335,6.175-6.876,3.6-10.506-3.5-4.891-12.315-10.343-24.514-23.265l-5.16,6.21c1.494,2.16,3.047,4.284,4.669,6.4,3.187,4.284,6.479,8.51,10.027,12.5,2.708,3.082,5.837,7,9.712,8.638.35.152.759.444,1.167.327Z" transform="translate(-43.336 -211.84)" fill="#fe7f42"/>
        <path id="Path_3663" data-name="Path 3663" d="M98.672,282.747s.152,5.148-1.973,6.175-3.269.42-4.109-1.237S93.827,279.514,98.672,282.747Z" transform="translate(-83.448 -208.887)" fill="#fccdcd"/>
        <path id="Path_3664" data-name="Path 3664" d="M93.046,286.236l15.7,3.887-7.3-27.316-15.7-3.887Z" transform="translate(-85.723 -212.726)" fill="url(#linear-gradient-30)"/>
        <path id="Path_3665" data-name="Path 3665" d="M93.312,288.916l-1.856.759-7.3-27.316,1.856-.759Z" transform="translate(-68.403 -212.278)" fill="url(#linear-gradient-31)"/>
        <path id="Path_3666" data-name="Path 3666" d="M107.967,262.157l-15.7-3.887-1.856.759,15.7,3.887Z" transform="translate(-90.41 -212.834)" fill="url(#linear-gradient-32)"/>
        <path id="Path_3667" data-name="Path 3667" d="M99.454,290.734l-.712-.665-.093-.093-5.265-6.164a1.167,1.167,0,0,1-.233-.969l2.533-10.81a.969.969,0,0,1,.268-.5h0a1.1,1.1,0,0,1,1.8.257l.537,1.086a1.168,1.168,0,0,1,.105.619l-.42,3.6a1.074,1.074,0,0,0,.175.747,55.788,55.788,0,0,1,5.253,9.409,1.1,1.1,0,0,1-.444,1.331Z" transform="translate(-89.097 -210.675)" fill="#fccdcd"/>
        <path id="Path_3668" data-name="Path 3668" d="M74.554,241.728l-2.066,8.6s-4.459,9.887-14.148,1.751l3.572-13.343Z" transform="translate(-18.895 -216.103)" fill="#fccdcd"/>
        <path id="Path_3669" data-name="Path 3669" d="M77.685,231.788l-.77,5.008-1.167,7.658-.327,2.148c-6.887,6.829-14.965,5.6-16.81,2.241s1.074-19.063,1.074-19.063Z" transform="translate(-21.629 -217.602)" fill="#ffe1df"/>
        <path id="Path_3670" data-name="Path 3670" d="M77.46,238.88s-1.377-1.844-3.315,2.8l.981-8.311s-11.778,2.486-16.763-.467a16.436,16.436,0,0,1-6.7-8.276s9.152.747,10.623-.934,9.082-8.323,17.253-.911c0,0,2.942,2.591,2.335,5.171,0,0,3.047,2.125,1.938,4.985s-2.043,12.782-8.545,16Z" transform="translate(-20.598 -219.348)" fill="#050b44"/>
        <path id="Path_3671" data-name="Path 3671" d="M60.034,236.5c1.167,2.031-.362,6.012-4.529,7l1.1-7.1a2.148,2.148,0,0,1,3.432.093Z" transform="translate(-1.445 -216.629)" fill="#ffe1df"/>
        <path id="Path_3672" data-name="Path 3672" d="M75.572,236.51l.852,6.747-3.864.49Z" transform="translate(-37.364 -216.476)" fill="#fccdcd"/>
      </g>
    </g>
  </g>
</svg>