<?xml version="1.0" encoding="utf-8"?>
<!-- Generator: Adobe Illustrator 16.0.0, SVG Export Plug-In . SVG Version: 6.00 Build 0)  -->
<!DOCTYPE svg PUBLIC "-//W3C//DTD SVG 1.1//EN" "http://www.w3.org/Graphics/SVG/1.1/DTD/svg11.dtd">
<svg version="1.1" id="Layer_1" xmlns="http://www.w3.org/2000/svg" xmlns:xlink="http://www.w3.org/1999/xlink" x="0px" y="0px"
	 width="97.25px" height="31.25px" viewBox="0 0 97.25 31.25" enable-background="new 0 0 97.25 31.25" xml:space="preserve">
<g>
	<path d="M1.004,17.171l5.171-1.187c0.22,2.358,1.831,3.53,3.984,3.53c1.611,0,2.754-0.732,2.739-2.241
		c0-1.816-2.212-2.432-4.702-3.223C5.135,13.055,1.78,11.854,1.78,7.928C1.78,3.943,5.003,1.6,9.456,1.6
		c3.75,0,7.676,1.509,8.555,5.757l-4.805,1.187c-0.352-2.036-1.567-2.915-3.442-2.915c-1.641,0-2.944,0.674-2.944,2.168
		c0,1.421,2.007,1.934,4.321,2.651c3.135,0.981,6.929,2.3,6.929,6.548c0,4.614-3.882,6.548-8.13,6.548
		C5.325,23.543,1.634,21.316,1.004,17.171z"/>
	<path d="M36.395,7.957V23.25h-4.512l-0.117-1.802c-1.099,1.318-2.827,2.095-4.951,2.095c-3.838,0-5.83-1.934-5.83-5.288V7.957
		h4.805v9.272c0,1.86,1.187,2.505,2.549,2.505c1.67,0,3.252-0.776,3.281-3.574V7.957H36.395z"/>
	<path d="M57.166,15.647c0,5.054-3.369,7.969-7.412,7.969c-1.89,0-3.604-0.659-4.482-1.875v8.862h-4.775V7.957h4.526l0.117,1.787
		c0.835-1.348,2.607-2.08,4.614-2.08C53.797,7.664,57.166,10.594,57.166,15.647z M52.376,15.647c0-2.549-1.641-4.043-3.735-4.043
		c-2.124,0-3.765,1.538-3.765,4.043s1.641,4.028,3.765,4.028C50.735,19.676,52.376,18.196,52.376,15.647z"/>
	<path d="M69.676,7.781v4.233c-3.311,0-4.775,0.85-4.775,4.014v7.222h-4.834V7.957h4.57v2.358
		C65.413,9.041,67.449,7.796,69.676,7.781z"/>
	<path d="M70.701,15.589c0-4.995,3.53-7.925,8.584-7.925c5.068,0,8.599,2.93,8.599,7.925c0,5.024-3.545,7.954-8.599,7.954
		C74.261,23.543,70.701,20.613,70.701,15.589z M83.138,15.589c0-2.49-1.553-4.189-3.911-4.189c-2.256,0-3.779,1.699-3.779,4.189
		c0,2.505,1.523,4.204,3.779,4.204C81.585,19.793,83.138,18.094,83.138,15.589z"/>
	<path d="M90.755,20.906c0-1.465,1.216-2.666,2.637-2.666c1.465,0,2.681,1.201,2.681,2.666c0,1.436-1.216,2.637-2.681,2.637
		C91.971,23.543,90.755,22.342,90.755,20.906z"/>
</g>
</svg>
