<svg xmlns="http://www.w3.org/2000/svg" width="6.599" height="9" viewBox="0 0 6.599 9">
    <g style="fill:#fff">
        <path d="M8.3 9.376C7.192 7.951 5.5 5.468 5.5 4.3c0-1.544 1.256-2.8 2.8-2.8 1.543 0 2.8 1.256 2.8 2.8 0 1.168-1.693 3.651-2.8 5.076zm0-7.076c-.938 0-1.7.762-1.7 1.7 0 .937.762 1.7 1.7 1.7.937 0 1.7-.763 1.7-1.7 0-.938-.763-1.7-1.7-1.7z" style="stroke:none" transform="translate(-5 -1)"/>
        <path d="M6.182 3.404A2.287 2.287 0 0 0 6 4.3c0 .776 1.105 2.635 2.3 4.249 1.194-1.614 2.3-3.473 2.3-4.25 0-.317-.066-.62-.183-.895A2.202 2.202 0 0 1 8.3 6.2a2.202 2.202 0 0 1-2.117-2.796M8.3 1a3.3 3.3 0 0 1 3.3 3.3c0 1.742-2.94 5.429-3.066 5.588a.3.3 0 0 1-.468 0C7.94 9.728 5 6.042 5 4.3A3.3 3.3 0 0 1 8.3 1zm0 4.2a1.2 1.2 0 1 0 0-2.4 1.2 1.2 0 0 0 0 2.4z" style="fill:#fff;stroke:none" transform="translate(-5 -1)"/>
    </g>
</svg>
