<svg xmlns="http://www.w3.org/2000/svg" width="646.911" height="443.198" viewBox="0 0 646.911 443.198">
  <g id="Group_1572" data-name="Group 1572" transform="translate(-632.088 -208)">
    <path id="Path_2868" data-name="Path 2868" d="M1018.105,1369.985s-17.954-103.606-25.213-114.294c-10.036-14.784-22.511,30.589-23.121,26.6-5.745-37.663-4.542-85.164-31.419-92.361-15.278-4.093,1.009,35.476-.893,45.67s-27.314-26.192-42.967-45.459-25.237-8.631-16.162,14.73c8.772,22.588,40.557,49.06,33.443,51.325s-47.012-29.2-53.025-17.605c-7.373,14.218,54.087,39.318,47.92,42.152s-35.443-10.483-35.443.845,40.455,14.159,39.4,19.049c-1.706,7.932-27.118-12.373-29.1-1.369-2.03,11.257,34.5,12.108,33.223,20.912-.732,5.06-9.932-.235-11.608,6.718-3.795,15.858,53.766,38.08,53.766,38.08Z" transform="translate(-204.127 -723.92)" fill="#619dff"/>
    <path id="Path_2869" data-name="Path 2869" d="M1021.655,1603.5c-7.3-9.5-50.453-62.659-76.574-71.136-28.832-9.367-1.658,27.829-1.658,27.829s-51.147-56.117-69.916-51.058c-17.2,4.637,0,39.423,0,39.423s-19.376-19.27-42.89-19.27c-22.871,0,7.391,59.475,25.493,74.211Z" transform="translate(-179.031 -954.755)" fill="#95bdff"/>
    <g id="Group_1571" data-name="Group 1571">
      <path id="Path_2870" data-name="Path 2870" d="M876.721,1686.907c-.137.893-1.048,3.429-.488,5.953a10.68,10.68,0,0,0,2.155,4.816,11.368,11.368,0,0,1-4.828-3.363c-2.152-2.349-3.342-6.45-2.866-8.221.509-3.732,3.6-5.548,4.878-4.465S876.921,1684.964,876.721,1686.907Z" transform="translate(-212.875 -1075.915)" fill="#2874f0"/>
      <path id="Path_2871" data-name="Path 2871" d="M939.881,1709.6c-.137.893-1.051,3.429-.488,5.953a10.683,10.683,0,0,0,2.155,4.816A11.349,11.349,0,0,1,936.72,1717c-2.152-2.348-3.343-6.45-2.866-8.221.506-3.732,3.6-5.548,4.878-4.465S940.075,1707.654,939.881,1709.6Z" transform="translate(-257.236 -1091.851)" fill="#2874f0"/>
      <path id="Path_2872" data-name="Path 2872" d="M1004.059,1738.3c-.14.893-1.051,3.429-.488,5.953a10.649,10.649,0,0,0,2.155,4.816,11.37,11.37,0,0,1-4.831-3.363c-2.152-2.346-3.342-6.45-2.863-8.221.506-3.733,3.6-5.548,4.875-4.465S1004.255,1736.366,1004.059,1738.3Z" transform="translate(-302.309 -1112.009)" fill="#2874f0"/>
      <path id="Path_2873" data-name="Path 2873" d="M858.865,1741.617c.387-.726,1.134-3.116,2.95-4.658a9.823,9.823,0,0,1,4.265-2.343,10.581,10.581,0,0,0-5.429-.226c-2.89.527-6.051,2.884-6.685,4.465-1.7,3.033-.432,6.1,1.116,6.015S857.93,1743.155,858.865,1741.617Z" transform="translate(-200.633 -1113)" fill="#2874f0"/>
      <path id="Path_2874" data-name="Path 2874" d="M924.523,1764.947c.384-.726,1.131-3.116,2.947-4.658a9.841,9.841,0,0,1,4.268-2.342,10.585,10.585,0,0,0-5.432-.226c-2.89.527-6.048,2.884-6.682,4.465-1.7,3.033-.435,6.1,1.113,6.015S923.6,1766.489,924.523,1764.947Z" transform="translate(-246.746 -1129.386)" fill="#2874f0"/>
      <path id="Path_2875" data-name="Path 2875" d="M821.373,1697.6a8.227,8.227,0,0,0,.78,3.453,6.337,6.337,0,0,0,2.083,2.34,6.779,6.779,0,0,1-3.331-1.042c-1.634-.944-3.036-3.051-3.08-4.137-.375-2.2,1.054-3.783,1.97-3.393S821.141,1696.466,821.373,1697.6Z" transform="translate(-175.773 -1085.356)" fill="#2874f0"/>
      <path id="Path_2876" data-name="Path 2876" d="M810.894,1723.767a8.134,8.134,0,0,1,2.461-2.533,6.29,6.29,0,0,1,2.977-.908,6.787,6.787,0,0,0-3.378-.86c-1.884-.054-4.167,1.009-4.783,1.911-1.47,1.678-1.077,3.774-.092,3.926S810.117,1724.609,810.894,1723.767Z" transform="translate(-168.354 -1102.704)" fill="#2874f0"/>
      <path id="Path_2877" data-name="Path 2877" d="M923.687,1410c20.9,32.74,36.381,72.029,45.1,110.687h2.256c-8.685-37.836-24.886-77.452-45.75-110.163-4.849-7.6-10.084-16.623-19.162-19.588-.173-.056-.241.208-.074.274C914.347,1394.345,919.151,1402.894,923.687,1410Z" transform="translate(-237.717 -871.953)" fill="#2874f0"/>
      <path id="Path_2878" data-name="Path 2878" d="M897.269,1617.961a434.317,434.317,0,0,0-86.53-88.48c-.339-.256-.792.333-.453.6a429.936,429.936,0,0,1,84.729,87.884Z" transform="translate(-170.438 -969.228)" fill="#2874f0"/>
      <path id="Path_2879" data-name="Path 2879" d="M942.661,1371.105c-.536.792-2.6,2.863-3.2,5.584a11.54,11.54,0,0,0-.1,5.7,12.384,12.384,0,0,1-3.176-5.512c-1.027-3.274-.3-7.843.97-9.352,2.205-3.411,6.057-3.756,6.8-2.1C944.751,1367.063,943.745,1369.3,942.661,1371.105Z" transform="translate(-258.604 -853.366)" fill="#2874f0"/>
      <path id="Path_2880" data-name="Path 2880" d="M926.649,1468.387c.78-.556,2.8-2.679,5.5-3.324a11.267,11.267,0,0,1,5.676-.214,12.405,12.405,0,0,0-5.557-3.078c-3.3-.964-7.819-.155-9.3,1.158-3.357,2.28-3.625,6.152-1.962,6.87S924.868,1469.507,926.649,1468.387Z" transform="translate(-247.588 -921.416)" fill="#2874f0"/>
      <path id="Path_2881" data-name="Path 2881" d="M952,1511.394c.783-.557,2.8-2.661,5.5-3.322a11.259,11.259,0,0,1,5.673-.214,12.306,12.306,0,0,0-5.557-3.077c-3.292-.965-7.816-.155-9.3,1.155-3.357,2.28-3.625,6.152-1.961,6.869C948.01,1513.582,950.219,1512.528,952,1511.394Z" transform="translate(-265.393 -951.625)" fill="#2874f0"/>
      <path id="Path_2882" data-name="Path 2882" d="M861.58,1611.271c.78-.557,2.8-2.679,5.5-3.322a11.272,11.272,0,0,1,5.676-.214,12.327,12.327,0,0,0-5.557-3.077c-3.292-.968-7.819-.155-9.3,1.155-3.354,2.28-3.625,6.152-1.962,6.869C857.595,1613.447,859.8,1612.39,861.58,1611.271Z" transform="translate(-201.885 -1021.772)" fill="#2874f0"/>
      <path id="Path_2883" data-name="Path 2883" d="M815.388,1570.438c.78-.557,2.8-2.679,5.5-3.325a11.272,11.272,0,0,1,5.676-.214,12.389,12.389,0,0,0-5.557-3.077c-3.292-.964-7.819-.155-9.3,1.158-3.357,2.28-3.625,6.152-1.961,6.869C811.4,1572.61,813.609,1571.557,815.388,1570.438Z" transform="translate(-169.443 -993.093)" fill="#2874f0"/>
      <path id="Path_2884" data-name="Path 2884" d="M977.094,1419.644c-.655.7-3.015,2.417-4.039,5.009a11.532,11.532,0,0,0-1,5.61,12.451,12.451,0,0,1-2.268-5.953c-.5-3.408.926-7.792,2.426-9.081,2.712-3.021,6.572-2.753,7.051-1S978.445,1418.034,977.094,1419.644Z" transform="translate(-282.477 -887.409)" fill="#2874f0"/>
      <path id="Path_2885" data-name="Path 2885" d="M1008.154,1465.454c-.932.5-4.194,1.4-5.837,3.845a10.031,10.031,0,0,0-1.967,5.833c.175.158-2.325-3.6-2.218-7.616-.232-4.015,2.146-8.3,4.241-9.09,3.869-2.2,8.84-.235,9.248,1.926C1012.092,1462.531,1010.1,1464.237,1008.154,1465.454Z" transform="translate(-302.443 -918.688)" fill="#2874f0"/>
      <path id="Path_2886" data-name="Path 2886" d="M1046.506,1538.576c-1,.333-4.369.67-6.4,2.807a9.956,9.956,0,0,0-2.92,5.417c.146.188-1.688-3.938-.893-7.881.443-4,3.506-7.816,5.7-8.242,4.194-1.515,8.757,1.256,8.8,3.456C1050.875,1536.359,1048.628,1537.707,1046.506,1538.576Z" transform="translate(-329.121 -969.807)" fill="#2874f0"/>
      <path id="Path_2887" data-name="Path 2887" d="M935.885,1594.639c-.732.458-3.333,1.378-4.53,3.465a8.124,8.124,0,0,0-1.271,4.854,13.624,13.624,0,0,1-2.235-6.069c-.417-3.253,1.274-6.87,2.935-7.635,3.03-2.012,7.176-.7,7.631,1.039C938.918,1592.038,937.394,1593.541,935.885,1594.639Z" transform="translate(-253.049 -1010.541)" fill="#2874f0"/>
      <path id="Path_2888" data-name="Path 2888" d="M885.215,1393.972a8.8,8.8,0,0,1,3.11-2.208,6.79,6.79,0,0,1,3.345-.375,7.311,7.311,0,0,0-3.42-1.578c-1.991-.426-4.631.253-5.45,1.093-1.887,1.488-1.875,3.8-.86,4.149S884.212,1394.714,885.215,1393.972Z" transform="translate(-220.371 -871.081)" fill="#2874f0"/>
      <path id="Path_2889" data-name="Path 2889" d="M899.4,1364.662a8.864,8.864,0,0,0,.155,3.819,6.775,6.775,0,0,0,1.747,2.89,7.428,7.428,0,0,1-3.333-1.756c-1.551-1.322-2.628-3.837-2.464-5,.03-2.414,1.851-3.81,2.75-3.218S899.368,1363.411,899.4,1364.662Z" transform="translate(-230.359 -851.121)" fill="#2874f0"/>
      <path id="Path_2890" data-name="Path 2890" d="M788.448,1535.329a8.807,8.807,0,0,1,3.11-2.206,6.822,6.822,0,0,1,3.349-.378,7.374,7.374,0,0,0-3.423-1.574c-1.988-.426-4.631.253-5.45,1.092-1.884,1.488-1.875,3.8-.86,4.149S787.444,1536.07,788.448,1535.329Z" transform="translate(-152.404 -970.367)" fill="#2874f0"/>
      <path id="Path_2891" data-name="Path 2891" d="M805.5,1505.455a8.662,8.662,0,0,0-.155,3.819,6.685,6.685,0,0,0,1.506,3.024,7.213,7.213,0,0,1-3.179-2.024c-1.438-1.444-2.307-4.039-2.051-5.182.226-2.4,2.158-3.646,3.006-2.976S805.575,1504.208,805.5,1505.455Z" transform="translate(-164.408 -949.924)" fill="#2874f0"/>
      <path id="Path_2892" data-name="Path 2892" d="M826.424,1721.81A108.763,108.763,0,0,1,844.247,1725c10.667,2.8,20.93,6.944,31.026,11.346,4.965,2.164,9.962,4.3,14.831,6.67a53.68,53.68,0,0,1,6.664,3.643,74.133,74.133,0,0,1,7.774,6.361l-2.319.069A77.039,77.039,0,0,0,886.747,1743c-19.132-9.227-38.991-18.668-60.344-21.013a.089.089,0,0,1,.021-.176Z" transform="translate(-181.793 -1104.354)" fill="#2874f0"/>
    </g>
    <path id="Path_2893" data-name="Path 2893" d="M1850.951,1340.463c5.656-4.854,9.09-10,8.212-15.12-1.565-9.135-14.531-3.274-15.025-9.861-.857-11.474,46.839-8.652,45.2-23.362-1.6-14.385-36.178,9.007-37.7-1.387-.94-6.42,59.088-14.721,54.977-28.773-4.712-16.111-39.586,7.825-47.658,3.539s58.933-32.336,50.376-51.42c-6.989-15.567-45.456,22.918-54.855,19.263s38.16-29.261,50.3-62.668c11.135-30.657-.711-51.962-22.7-21.781-19.264,26.439-58.745,68.585-60.308,55.251s43.122-56.2,14.323-56.2c-37.628,0-51.138,65.079-62.63,113.011-1.214,5.06-13.614-54.679-28.645-36.666-7.738,9.266,6.608,77.494,15.546,116.172Z" transform="translate(-825.348 -691.717)" fill="#95bdff"/>
    <path id="Path_2894" data-name="Path 2894" d="M1401.737,347.667h0l-.057-.018c-.512-.185-1.035-.351-1.565-.5-.179-.054-.357-.107-.542-.155s-.384-.1-.575-.143-.393-.092-.595-.134-.372-.077-.56-.113-.423-.08-.634-.113l-.545-.086c-.226-.033-.458-.06-.69-.086-.167-.021-.333-.042-.5-.057-.265-.027-.53-.045-.8-.06-.14,0-.28-.024-.42-.03-.408-.018-.822-.03-1.235-.03H1203.151c-.443,0-.893,0-1.318.033a25.412,25.412,0,0,0-2.581.262c-.422.065-.845.14-1.262.226a25.678,25.678,0,0,0-20.3,22.54q-.128,1.3-.131,2.628V761.2a25.7,25.7,0,0,0,16.891,24.162h0l.131.045q.732.259,1.488.476l.545.155c.191.051.384.1.577.14s.39.1.6.137.372.077.563.113l.634.113c.179.03.36.06.542.083.229.033.458.062.69.089l.506.056c.262.024.53.042.795.06l.42.03c.411.018.821.03,1.235.03h189.871a26.118,26.118,0,0,0,2.619-.131,25.659,25.659,0,0,0,22.853-22.918q.128-1.295.131-2.625V371.829a25.692,25.692,0,0,0-16.909-24.163Z" transform="translate(-428.48 -138.14)" fill="#2874f0"/>
    <rect id="Rectangle_1302" data-name="Rectangle 1302" width="216.992" height="370.72" transform="translate(761.48 243.012)" fill="#eff5ff"/>
    <rect id="Rectangle_1303" data-name="Rectangle 1303" width="92.536" height="4.646" rx="0.79" transform="translate(823.514 226.72)" fill="#fff"/>
    <path id="Path_2895" data-name="Path 2895" d="M1567.635,1744.166a10.623,10.623,0,1,1-10.623-10.656,10.623,10.623,0,0,1,10.623,10.656Z" transform="translate(-687.531 -1112.572)" fill="#daeef7" opacity="0.3"/>
    <rect id="Rectangle_1304" data-name="Rectangle 1304" width="216.254" height="15.555" transform="translate(761.48 598.177)" fill="#3cb4c5" opacity="0.2"/>
    <rect id="Rectangle_1305" data-name="Rectangle 1305" width="216.992" height="19.674" transform="translate(761.48 243.012)" fill="#3cb4c5" opacity="0.2"/>
    <circle id="Ellipse_903" data-name="Ellipse 903" cx="73.351" cy="73.351" r="73.351" transform="translate(766.244 455.207) rotate(-45)" fill="#fff"/>
    <path id="Path_2896" data-name="Path 2896" d="M1417.272,922.71l14.855,45.033a5.035,5.035,0,0,0,4.61,3.006h49.575a5.039,5.039,0,0,0,4.935-4.021l3.5-44.387a1.839,1.839,0,0,0-1.786-2.211h-74a1.839,1.839,0,0,0-1.685,2.58Zm61.8,5a3.572,3.572,0,1,1,7.143,0v35.452a3.572,3.572,0,1,1-7.143,0Zm-15.18,0a3.572,3.572,0,0,1,7.144,0l1.146,35.452a3.572,3.572,0,1,1-7.143,0Zm-16.439,0a3.572,3.572,0,1,1,7.143,0l3.572,35.452a3.572,3.572,0,0,1-7.144,0Zm-18.99,0a3.572,3.572,0,0,1,7.144,0l8.557,35.452a3.572,3.572,0,1,1-7.143,0Z" transform="translate(-596.736 -489.808)" fill="#355389"/>
    <path id="Path_2897" data-name="Path 2897" d="M1454.35,938.181a2.679,2.679,0,0,0,2.679,2.679H1515.6a8.837,8.837,0,0,0,8.584-6.908l7.072-59.055a3.485,3.485,0,0,1,3.616-2.732l4.744.3a2.679,2.679,0,0,0,2.834-2.512h0a2.679,2.679,0,0,0-2.512-2.834l-7.06-.423a6.128,6.128,0,0,0-6.355,4.8l-7.569,61.314a3.455,3.455,0,0,1-3.354,2.7h-58.576a2.679,2.679,0,0,0-2.679,2.679Z" transform="translate(-622.885 -452.268)" fill="#355389"/>
    <path id="Path_2898" data-name="Path 2898" d="M1468.82,1126.288a7.828,7.828,0,1,0,7.828-7.828,7.828,7.828,0,0,0-7.828,7.828Z" transform="translate(-633.047 -629.106)" fill="#355389"/>
    <path id="Path_2899" data-name="Path 2899" d="M1613.54,1126.288a7.828,7.828,0,1,0,7.825-7.828A7.828,7.828,0,0,0,1613.54,1126.288Z" transform="translate(-734.693 -629.104)" fill="#355389"/>
    <path id="Path_2903" data-name="Path 2903" d="M1642,589.22h34.595v9.873a15.826,15.826,0,0,1-15.844,15.826h-2.944A15.825,15.825,0,0,1,1642,599.093Z" transform="translate(-754.684 -308.87)" fill="#3182b5"/>
    <path id="Path_2904" data-name="Path 2904" d="M1525.76,589.22h34.6v9.873a15.825,15.825,0,0,1-15.826,15.826h-2.943a15.826,15.826,0,0,1-15.826-15.826V589.22Z" transform="translate(-673.041 -308.87)" fill="#e6b051"/>
    <path id="Path_2905" data-name="Path 2905" d="M1409.53,589.22h34.595v9.873a15.825,15.825,0,0,1-15.825,15.826h-2.944a15.826,15.826,0,0,1-15.826-15.826V589.22Z" transform="translate(-591.406 -308.87)" fill="#3182b5"/>
    <path id="Path_2906" data-name="Path 2906" d="M1293.31,589.22H1327.9v9.873a15.825,15.825,0,0,1-15.825,15.826h-2.944a15.826,15.826,0,0,1-15.826-15.826V589.22Z" transform="translate(-509.777 -308.87)" fill="#e6b051"/>
    <path id="Path_2907" data-name="Path 2907" d="M1177.08,589.22h34.595v9.873a15.826,15.826,0,0,1-15.826,15.826h-2.944a15.826,15.826,0,0,1-15.826-15.826V589.22Z" transform="translate(-428.143 -308.87)" fill="#3182b5"/>
    <path id="Path_2908" data-name="Path 2908" d="M1990.39,589.22h34.595v9.873a15.825,15.825,0,0,1-15.825,15.826h-2.944a15.826,15.826,0,0,1-15.826-15.826V589.22Z" transform="translate(-999.377 -308.87)" fill="#e6b051"/>
    <path id="Path_2909" data-name="Path 2909" d="M1874.17,589.22h34.595v9.873a15.826,15.826,0,0,1-15.826,15.826H1890a15.826,15.826,0,0,1-15.826-15.826V589.22Z" transform="translate(-917.752 -308.87)" fill="#3182b5"/>
    <path id="Path_2910" data-name="Path 2910" d="M1758.2,589.22h34.592v9.873a15.826,15.826,0,0,1-15.826,15.826h-2.944a15.826,15.826,0,0,1-15.825-15.826V589.22Z" transform="translate(-836.295 -308.87)" fill="#e6b051"/>
    <path id="Path_2911" data-name="Path 2911" d="M1060.839,589.22h34.595v9.873a15.826,15.826,0,0,1-15.826,15.826h-2.952a15.826,15.826,0,0,1-15.826-15.826V589.22Z" transform="translate(-346.49 -308.87)" fill="#e6b051"/>
    <path id="Path_2912" data-name="Path 2912" d="M1555.355,463.77h-24.6l-5,37.339h34.592Z" transform="translate(-673.041 -220.758)" fill="#f7cc7f"/>
    <path id="Path_2913" data-name="Path 2913" d="M1449.122,463.77h-24.594l-15,37.339h34.595Z" transform="translate(-591.406 -220.758)" fill="#4faae3"/>
    <path id="Path_2914" data-name="Path 2914" d="M1342.9,463.77h-24.6l-24.993,37.339H1327.9Z" transform="translate(-509.777 -220.758)" fill="#f7cc7f"/>
    <path id="Path_2915" data-name="Path 2915" d="M1236.668,463.77h-24.594l-34.994,37.339h34.595Z" transform="translate(-428.143 -220.758)" fill="#4faae3"/>
    <path id="Path_2916" data-name="Path 2916" d="M1130.445,463.77h-24.594l-44.991,37.339h34.592Z" transform="translate(-346.514 -220.758)" fill="#f7cc7f"/>
    <path id="Path_2917" data-name="Path 2917" d="M1897.144,463.77H1872.55l35.074,37.339h34.594Z" transform="translate(-916.611 -220.758)" fill="#f7cc7f"/>
    <path id="Path_2918" data-name="Path 2918" d="M1814.917,463.77h-24.6l24.957,37.339h34.592Z" transform="translate(-858.855 -220.758)" fill="#4faae3"/>
    <path id="Path_2919" data-name="Path 2919" d="M1732.284,463.77H1707.69l15.037,37.339h34.595Z" transform="translate(-800.82 -220.758)" fill="#f7cc7f"/>
    <path id="Path_2920" data-name="Path 2920" d="M1649.647,463.77h-24.6l5.039,37.339h34.595Z" transform="translate(-742.777 -220.758)" fill="#4faae3"/>
    <rect id="Rectangle_1306" data-name="Rectangle 1306" width="3.292" height="75.407" transform="translate(1265.129 648.966) rotate(169.27)" fill="#184655"/>
    <path id="Path_2943" data-name="Path 2943" d="M2388.14,1652.663h-3.89l14.492-75.053,3.235.613Z" transform="translate(-1276.01 -1003.076)" fill="#184655"/>
    <path id="Path_2944" data-name="Path 2944" d="M2769.59,1652.663h-3.89l14.5-75.053,3.232.613Z" transform="translate(-1543.926 -1003.076)" fill="#184655"/>
    <path id="Path_2945" data-name="Path 2945" d="M2483.4,1653.464l3.158.039-13.9-74.753-3.233.613Z" transform="translate(-1335.838 -1003.874)" fill="#184655"/>
    <path id="Path_2946" data-name="Path 2946" d="M2464.478,1030.135c17.263,1.849,39.6,3.8,62.029,41.857,24.51,41.6,11.608,103.731-7.739,121s-82.53,38.586-135.647,6.67c0,0-32.073-19.346-15.611-51.441,25.329-49.408,21.749-59.7,33.074-79.059S2427.835,1026.221,2464.478,1030.135Z" transform="translate(-1260.951 -618.247)" fill="#86b1f2"/>
    <path id="Path_2947" data-name="Path 2947" d="M2551.1,1079.961c-15.308-25.975-30.573-35.122-44.212-38.911a114.3,114.3,0,0,1,15.977,21.567c24.51,41.6,11.608,103.731-7.739,121-17.156,15.31-68.791,33.806-117.3,15.537a49.246,49.246,0,0,0,9.891,8.477c53.114,31.916,116.3,10.6,135.646-6.67S2575.607,1121.559,2551.1,1079.961Z" transform="translate(-1285.539 -626.216)" fill="#6394db"/>
    <path id="Path_2948" data-name="Path 2948" d="M2507.708,1243.57l-4.437,13.311,13.521-5.319Z" transform="translate(-1359.604 -768.459)" fill="#f79c8d"/>
    <path id="Path_2949" data-name="Path 2949" d="M2521.721,1110.48c-.894.038-3.373.863-6.986,7.667-4.613,8.688-11.355,34.934-11.355,34.934l20.126,7.468,2.584-5.477,4.262-42.176S2521.977,1110.471,2521.721,1110.48Z" transform="translate(-1359.684 -674.98)" fill="#0f2e35"/>
    <path id="Path_2950" data-name="Path 2950" d="M2588.607,1097.77c-5.753,0-19.993,1.682-26.6,3.786,0,0-4.854,41.586,4.37,73.187,2.065,7.075-1.708,29.324-1.708,29.324l59.632-.783s-7.063-53.79-4.4-62.478,2.723-38.97,2.723-38.97-.408-.062-13.394-2.3A135.61,135.61,0,0,0,2588.607,1097.77Z" transform="translate(-1399.963 -666.055)" fill="#184655"/>
    <path id="Path_2951" data-name="Path 2951" d="M2672.206,1719s-1.318,15.18-3.744,19.38.127,11.343.256,12.325,5.1,2.382,13.021,1.542,7.787-2.679,7.144-5.6-4.851-6.724-5.107-9.525,2.426-12.888,2.426-12.888Z" transform="translate(-1474.893 -1102.381)" fill="#f7a491"/>
    <path id="Path_2952" data-name="Path 2952" d="M2469.018,1410.627s-41.163-2.277-50.358,3.274,1.664,16.941,1.664,16.941,33.511,14.522,89.616,17.749c13.284.762,14.43-34.526,11.945-37.446S2469.018,1410.627,2469.018,1410.627Z" transform="translate(-1297.582 -885.141)" fill="#e5b05c"/>
    <path id="Path_2953" data-name="Path 2953" d="M2680.71,1801.335c8.151-.863,7.143-4.854,6.485-7.884-.411-1.9-2.75-4.132-4.143-6.251a13.36,13.36,0,0,1-5.453,2.643c-3.676,1.08-8.715-1.06-11.923-2.4a39.282,39.282,0,0,0-1.089,10.477C2664.717,1798.933,2672.56,1802.2,2680.71,1801.335Z" transform="translate(-1472.879 -1150.281)" fill="#86b1f2"/>
    <path id="Path_2954" data-name="Path 2954" d="M2674.9,1440.936c-1.646,12.4-9.79,74.146-9.79,74.146l18.894,2.336s23.237-80.592,22.043-92.917-9.888-13.364-9.888-13.364S2679.242,1408.1,2674.9,1440.936Z" transform="translate(-1473.273 -886.098)" fill="#f7cc7f"/>
    <path id="Path_2955" data-name="Path 2955" d="M2607.383,1126.851c-5.578-2.083-8.3,47.983-9.057,68.591-9.873.946-27.085,0-31.368-.316-2.015-.152-6.661-1.845-8.665-2.107a20.128,20.128,0,0,0-4.926-.232c-.372.063-10.665,4.256-11.542,5.176-1.092,1.143-4.045,4.018-3.545,5.265s5.677-3.468,5.677-3.468l2.529-1.417c-3.148,3.069-9.161,7.108-8.3,8.578s6.266-2.679,10.12-5.459c-3.312,2.977-7.441,8.334-6.483,9.156.854.747,5.536-5.435,10.543-7.212,1.854-.661,3.7,1.167,5.161,1.387a10.535,10.535,0,0,0,3.78.208l5.417-1.53c1.848.167,1.893,1.253,3.756,1.649,2.167.458,5.714.944,8.47,1.613,15.87,3.869,21.166,5.655,26.023,5.655C2619.706,1212.369,2620.56,1131.765,2607.383,1126.851Z" transform="translate(-1384.07 -686.436)" fill="#f7a491"/>
    <path id="Path_2956" data-name="Path 2956" d="M2753.033,1162.776c1.045-21.109.894-47.125-10.979-51.563-4.685-1.753-12.944,8.777-11.459,51.992C2736.934,1163.729,2746.238,1164.149,2753.033,1162.776Z" transform="translate(-1519.143 -675.37)" fill="#184655"/>
    <path id="Path_2957" data-name="Path 2957" d="M2445.806,1757.84s1.649,5.268-1.3,8.753-15.218,6.9-16.828,8.787a5.279,5.279,0,0,0-1.489,3.494l34.431-.944-.375-10.364-1.587-7.441Z" transform="translate(-1305.461 -1129.661)" fill="#f7a491"/>
    <path id="Path_2958" data-name="Path 2958" d="M2429.829,1791.217s8.846,3.572,13.12,1.456,4.143-2.7,5.381-1.908,1.678,11.373,1.678,11.373l-38.714.262c-2.694-.062-4.057-2.039-1.866-3.733a30.681,30.681,0,0,1,4.221-2.5C2416.676,1794.435,2429.829,1791.217,2429.829,1791.217Z" transform="translate(-1292.926 -1152.55)" fill="#86b1f2"/>
    <path id="Path_2959" data-name="Path 2959" d="M2424.976,1422.338c-2.661-5.581-8.715-12.846-19.362-8.471-10.155,4.167-12.882,14.433-9.679,24.936s24.3,72.255,25.035,80.747l16.844.11s-3.06-48.894-3.81-60.719C2433.28,1447.575,2429.589,1432.015,2424.976,1422.338Z" transform="translate(-1283.326 -887.127)" fill="#f7cc7f"/>
    <path id="Path_2960" data-name="Path 2960" d="M2395.985,1254.41h56.3a3.671,3.671,0,0,1,3.4,2.28l17.335,42.265h31.041a1.572,1.572,0,0,1,1.572,1.572h0a1.572,1.572,0,0,1-1.572,1.569h-88.343a6.168,6.168,0,0,1-5.625-3.64l-17.456-38.884a3.673,3.673,0,0,1,3.348-5.161Z" transform="translate(-1281.676 -776.071)" fill="#f2e9da"/>
    <path id="Path_2961" data-name="Path 2961" d="M2506.294,1327.469a3.1,3.1,0,1,0,2.321-4.042A3.31,3.31,0,0,0,2506.294,1327.469Z" transform="translate(-1361.672 -824.511)" fill="#fff"/>
    <path id="Path_2962" data-name="Path 2962" d="M2639.156,1035.343l2.756,18.156s-10.061,21.62-16.073,19.745c-5.039-1.574-1.937-20.7-1.937-20.7s2.745-10.271,1.923-15.412S2639.156,1035.343,2639.156,1035.343Z" transform="translate(-1443.666 -621.452)" fill="#f7a491"/>
    <path id="Path_2963" data-name="Path 2963" d="M2631.774,1037.128c-.825-5.14,13.326-1.786,13.326-1.786l.229,1.506a8.337,8.337,0,0,1-1.536,2.53,18.621,18.621,0,0,1-12.373,5.6A28.034,28.034,0,0,0,2631.774,1037.128Z" transform="translate(-1449.609 -621.452)" fill="#f47458" opacity="0.2"/>
    <path id="Path_2964" data-name="Path 2964" d="M2628.162,938.207c.4-.146,3.206,20.68-2.12,26.41s-15.7,7.6-19.418,3.092c-4.117-4.991-3.911-27.383,4.369-33.267S2628.162,938.207,2628.162,938.207Z" transform="translate(-1430.352 -550.004)" fill="#f7a491"/>
    <path id="Path_2965" data-name="Path 2965" d="M2621.138,901.2a23,23,0,0,1,12.066,6.882c2.9.342,6.846,1.949,10.933,8.7,5.012,8.3,1.31,17.5-4.527,22.025s-5.756,9.727-5.756,9.727l-.923-2.7a15.045,15.045,0,0,1-.729-6.352,12.329,12.329,0,0,1,.943-3.819c1.4-3.012-3.015-5.015-4.256-7.521-.952-1.932-1-6.349-2.5-9.525l-1.786-2.438s-4.143-3.223-8.194-2.313S2612.926,899.525,2621.138,901.2Z" transform="translate(-1437.344 -527.898)" fill="#184655"/>
    <path id="Path_2966" data-name="Path 2966" d="M2665.047,993.686c-.042,2.539,1.113,4.619,2.578,4.643s2.679-2.012,2.735-4.554-1.113-4.619-2.581-4.646S2665.089,991.144,2665.047,993.686Z" transform="translate(-1473.23 -589.749)" fill="#f7a491"/>
    <path id="Path_2967" data-name="Path 2967" d="M2621.937,1027.117l-8.037-.417a3.512,3.512,0,0,0,3.551,3.343C2621.757,1030.391,2621.937,1027.117,2621.937,1027.117Z" transform="translate(-1437.307 -616.137)" fill="#fff"/>
  </g>
</svg>
