<svg id="shopping-cart_1_" data-name="shopping-cart (1)" xmlns="http://www.w3.org/2000/svg" width="18.202" height="15.997" viewBox="0 0 18.202 15.997">
  <path id="Path_3937" data-name="Path 3937" d="M5.9,10.662h9.636a.532.532,0,0,0,.512-.387l2.133-7.463a.532.532,0,0,0-.513-.679h-13L4.29.418A.533.533,0,0,0,3.769,0H.533a.533.533,0,0,0,0,1.066H3.341L5.267,9.729A1.6,1.6,0,0,0,5.9,12.794h9.636a.533.533,0,1,0,0-1.066H5.9a.533.533,0,1,1,0-1.066Zm0,0" fill="#fff"/>
  <path id="Path_3938" data-name="Path 3938" d="M151,361.607a1.6,1.6,0,1,0,1.6-1.6A1.6,1.6,0,0,0,151,361.607Zm0,0" transform="translate(-145.633 -347.21)" fill="#fff"/>
  <path id="Path_3939" data-name="Path 3939" d="M362,361.607a1.6,1.6,0,1,0,1.6-1.6A1.6,1.6,0,0,0,362,361.607Zm0,0" transform="translate(-349.143 -347.21)" fill="#fff"/>
</svg>