<svg xmlns="http://www.w3.org/2000/svg" width="16" height="15" viewBox="0 0 16 15">
    <path data-name="Icon ionic-ios-star" d="M17.643 8.567h-5.254l-1.6-4.81a.577.577 0 0 0-1.086 0l-1.6 4.81H2.821a.576.576 0 0 0-.571.577.428.428 0 0 0 .011.1.556.556 0 0 0 .239.407l4.318 3.072-1.657 4.862a.582.582 0 0 0 .2.649.55.55 0 0 0 .321.141.7.7 0 0 0 .357-.13l4.214-3.032 4.214 3.032a.665.665 0 0 0 .357.13.511.511 0 0 0 .318-.141.575.575 0 0 0 .2-.649l-1.657-4.864 4.282-3.1.1-.09a.552.552 0 0 0-.421-.963z" transform="translate(-2.25 -3.375)" style="fill:#c2c2c2"/>
</svg>
