<svg xmlns="http://www.w3.org/2000/svg" width="16" height="15.999" viewBox="0 0 16 15.999">
    <g data-name="tag (2)">
        <g data-name="Group 1671">
            <g data-name="Group 1670">
                <path data-name="Path 3784" d="M14.625 23.224H8.868a1.375 1.375 0 0 0-.972.4L.4 31.119a1.375 1.375 0 0 0 0 1.945l5.76 5.757a1.375 1.375 0 0 0 1.944 0l7.496-7.492a1.379 1.379 0 0 0 .4-.973V24.6a1.375 1.375 0 0 0-1.375-1.376zm-2.406 4.812a1.031 1.031 0 1 1 1.031-1.031 1.032 1.032 0 0 1-1.031 1.031z" transform="translate(0 -23.224)" style="fill:#2874f0"/>
            </g>
        </g>
    </g>
</svg>
