<svg xmlns="http://www.w3.org/2000/svg" width="242.386" height="226.443" viewBox="0 0 242.386 226.443">
    <defs>
        <clipPath id="clip-path">
            <path id="Path_3903" fill="#2874f0" stroke="#263238" stroke-linecap="round" stroke-linejoin="round" d="M314.511 180.188c-1.976-3.144-10.182-17.088-10.182-17.088h-13.1l6.737 17.088z" transform="translate(-291.23 -163.1)"/>
        </clipPath>
        <style>
            .cls-17,.cls-8{stroke:#263238}.cls-10,.cls-17,.cls-6,.cls-8{stroke-linecap:round;stroke-linejoin:round}.cls-10,.cls-17,.cls-2,.cls-6{fill:none}.cls-6{stroke:#1a2b46}.cls-7{fill:#f5c5b3}.cls-16,.cls-8{fill:#263238}.cls-10{stroke:#5dadec}.cls-11{fill:#5dadec}.cls-13{fill:#eed349}.cls-14{fill:#ece751}.cls-17{stroke-width:.5px}.cls-18{fill:#545454}.cls-19{fill:#fb641b}
        </style>
    </defs>
    <g id="Group_2522" transform="translate(-899.807 -168)">
        <g id="Layer_2" transform="translate(847.5 145.943)">
            <g id="Character" transform="translate(.5 .5)">
                <path id="Rectangle_1590" d="M0 0H77.842V65.39H0z" class="cls-2" transform="translate(216.343 153.306)"/>
                <path id="Rectangle_1594" d="M0 0H25.867V65.39H0z" class="cls-2" transform="translate(268.326 153.306)"/>
                <path id="Path_3915" d="M0 0h111.466v12.974H0z" class="cls-2" transform="translate(150.02 197.273)"/>
                <path id="Rectangle_1617" d="M0 0H12.489V12.974H0z" class="cls-2" transform="translate(150.02 197.273)"/>
                <path id="Rectangle_1619" d="M0 0H12.489V12.974H0z" class="cls-2" transform="translate(199.505 197.273)"/>
                <ellipse id="Ellipse_925" cx="53.07" cy="6.45" fill="#c6ff00" rx="53.07" ry="6.45" transform="translate(51.807 227.1)"/>
                <ellipse id="Ellipse_926" cx="53.07" cy="6.45" fill="#f1f9ff" rx="53.07" ry="6.45" transform="translate(51.807 227.1)"/>
                <path id="Path_3879" fill="#101d31" d="M149.151 31.905s-4.107-3.225-8.816-1.609-8.279 9.455-9.55 15.831.616-3.556-4.981 18.689 12.084 31.045 15.575 25.234 20.187-15.633 25.028-22.377 2.836-14.943-.029-22.208-7.626-13.958-11.585-15.244-5.642 1.684-5.642 1.684z" transform="translate(-33.703 -8.287)"/>
                <path id="Path_3880" d="M134.57 84.89a11.754 11.754 0 0 0 2.152.735" class="cls-6" transform="translate(-36.077 -23.551)"/>
                <path id="Path_3881" d="M148.9 39.77a50.492 50.492 0 0 1-6.3 10.491c-4.195 5.4-13.488 10.491-14.09 16.162a5.377 5.377 0 0 0 1.308 4.239" class="cls-6" transform="translate(-34.456 -10.921)"/>
                <path id="Path_3882" d="M179.063 76.64a9.5 9.5 0 0 1-1.153 1.991" class="cls-6" transform="translate(-47.578 -21.301)"/>
                <path id="Path_3883" d="M174.64 57.32s4.731 5.451 4.268 11.269" class="cls-6" transform="translate(-46.71 -16.04)"/>
                <path id="Path_3884" d="M151.306 35.659a11.593 11.593 0 0 0-9.9 3.908c-.162.191-.323.375-.47.573" class="cls-6" transform="translate(-37.768 -9.814)"/>
                <path id="Path_3885" d="M110.917 213.723l-.911 14.134s-3.908 18.954-5.142 26.77-3.49 19.71-3.908 19.71-7.148 4.077-9.315 7.4.588 4.746 3.578 3.673 7.067-4.077 8.4-7.655 2-4.907 2.079-5.488 14.3-38.752 15.721-42.822 4.408-16.052 4.408-16.052l6.986-23.7s7.486 24.368 7.567 25.448 7.736 63.362 8.081 65.691.25 3.989 1.668 4.489 4.738.5 6.479.5 7.817.918 10.814.169 3.328-1.249 1.249-2.748-13.628-2.454-14.693-6.817c-.081-.331-.162-64.442-.162-64.442s-1-21.2-2.667-27.182h-38.48z" class="cls-7" transform="translate(-24.479 -51.969)"/>
                <path id="Path_3886" d="M95.212 318.051c3-1.087 7.067-4.077 8.4-7.655.1-.257.191-.507.279-.735-1.69 1.807-4.408 4.32-4.408 4.32a5.326 5.326 0 0 0-1.08-2.329 1.918 1.918 0 0 0-1.91-.58l2.939-3.232c-2.2 1.366-6.171 4.158-7.736 6.553-2.196 3.321.526 4.738 3.516 3.658z" class="cls-8" transform="translate(-24.489 -84.619)"/>
                <path id="Path_3887" d="M189.415 317.5c-1.425-1.021-7.28-1.793-11.189-3.578a1.381 1.381 0 0 0-.375.5 14.9 14.9 0 0 0-.58 2.167l-8.081-1.726v.228c.338 2.329.25 3.989 1.668 4.489s4.738.5 6.487.5 7.809.918 10.807.169 3.342-1.249 1.263-2.749z" class="cls-8" transform="translate(-45.264 -86.233)"/>
                <path id="Path_3888" fill="#2874f0" d="M128.724 137.91s-3.813 1.756-8.426 10.042c-5.047 9.043-4.18 14.068-4.254 24.978s-.294 29.018-.294 29.018 13.958 3.739 23.964 3.152 22.722-2.858 22.722-2.858-2.711-36.938-5.275-47.568-4.107-15.391-4.107-15.391a60.88 60.88 0 0 1-14.95.22c-8.499-.858-9.38-1.593-9.38-1.593z" transform="translate(-31.083 -38.439)"/>
                <path id="Path_3889" d="M155.26 182.34c.382 1.256.735 2.527 1.043 3.8" class="cls-10" transform="translate(-41.568 -50.187)"/>
                <path id="Path_3890" d="M143.21 154a122.907 122.907 0 0 1 7.6 16.985" class="cls-10" transform="translate(-38.37 -42.514)"/>
                <path id="Path_3891" d="M235.519 117.648c-.441-.294-7.655-1.425-7.655-1.425l-1.41-.58s8.735.735 8.816.331.367-.808-.22-.882-11.864-2.358-11.864-2.358 2.858-2.7 3.225-3.291.882-1.763.294-1.763-.735.367-1.543.882-3.952 1.756-4.834 2.49-3.519 2.637-3.519 2.637l-30.546-4.2s-10.726-13.223-13.055-16.044a30.466 30.466 0 0 0-5.488-5c-2.241-.992-2.16.669-2.16.669l4.658 20.871s12.136 7.236 12.886 7.236 33.558 1.087 33.558 1.087 2.2 1.028 3.592 1.9 10.189 3.673 10.189 3.673.588-.294-.073-.808-4.915-2.564-4.915-2.564l8.816 1.91s.507-.367.294-.735-8.081-3.372-8.081-3.372l8.816.441s.66-.811.219-1.105z" class="cls-7" transform="translate(-44.301 -24.551)"/>
                <path id="Path_3892" d="M184.455 107.216c-3.137-3.9-9.492-11.688-11.218-13.774a30.464 30.464 0 0 0-5.488-5c-2.241-.992-2.16.669-2.16.669l4.658 20.871s5.48 3.262 9.3 5.407z" class="cls-11" transform="translate(-44.309 -24.52)"/>
                <path id="Path_3893" fill="#469ee4" d="M142.274 85.933s-6.377.294-10.285 4.614-3.445 13.855-1.837 19.571 3.673 8.867 3.225 10.851-2.05 2.637-1.168 4.467 5.936 3.813 14.876 3.519 10.63-2.2 10.7-3.886-.588-3.078-.367-4.1 6.671-6.744 6.671-13.047-2.777-8.5-3.423-13.047-.441-5.2-3.152-7.185-11.626-3.006-15.24-1.757z" transform="translate(-34.591 -23.829)"/>
                <path id="Path_3896" d="M164.784 92.41l.735 7.038-3.078-3.592z" class="cls-11" transform="translate(-43.473 -25.624)"/>
                <path id="Path_3897" d="M160.05 98.581l4.1-7.626-3.74-4.025z" class="cls-11" transform="translate(-42.839 -24.14)"/>
                <path id="Path_3898" d="M149.27 69.17a31.081 31.081 0 0 1 .955 7.765 28.715 28.715 0 0 1-.514 5.065l7.479 11.872 2.123-11.02 1.388-7.626s-8.501-.487-11.431-6.056z" class="cls-7" transform="translate(-39.978 -19.316)"/>
                <path id="Path_3899" d="M157.435 95.118l1.951 4.608-2.318-3.277z" class="cls-11" transform="rotate(3 619.97 -718.925)"/>
                <path id="Path_3900" d="M145.2 86.47l8.1 10.489 1.429-4.7-5.468-9.828z" class="cls-11" transform="translate(-39.238 -22.406)"/>
                <path id="Path_3916" d="M0 1.781h61.864v48.982H0z" class="cls-13" transform="translate(164.816 67.771)"/>
                <path id="Rectangle_1624" d="M0 0H61.864V50.763H0z" class="cls-2" transform="translate(164.816 67.771)"/>
                <path id="Rectangle_1625" d="M0 0H61.864V50.763H0z" class="cls-14" transform="translate(152 69.237)"/>
                <path id="Path_3901" d="M314.511 180.188c-1.976-3.144-10.182-17.088-10.182-17.088h-13.1l6.737 17.088z" class="cls-14" transform="translate(-77.649 -45.006)"/>
                <path id="Path_3904" d="M314.511 180.188c-1.976-3.144-10.182-17.088-10.182-17.088h-13.1l6.737 17.088z" class="cls-2" transform="translate(-77.649 -45.006)"/>
                <path id="Path_3905" d="M193.1 180.188c1.976-3.144 10.211-17.088 10.211-17.088h13.1l-6.744 17.088z" class="cls-14" transform="translate(-51.609 -45.006)"/>
                <path id="Path_3906" d="M204.9 163.1l-5.693 17.088h64.611l2.99-17.088z" class="cls-13" transform="translate(-53.23 -45.006)"/>
                <path id="Path_3907" d="M132.61 107.763a33.9 33.9 0 0 0 7.552 6.377c4.408 2.637 20.57 11.8 21.841 12.313s39.869-5.789 39.869-5.789 2.2 1.028 3.592 1.9 10.189 3.673 10.189 3.673.58-.294-.073-.808-4.915-2.564-4.915-2.564l8.816 1.91s.514-.367.294-.735-8.081-3.372-8.081-3.372l8.816.441s.661-.808.22-1.1-9.455-2.343-9.455-2.343 9.6-.808 9.675-1.175.367-.8-.22-.874-12.606-1.249-12.606-1.249a24.175 24.175 0 0 0 3.519-2.564c.367-.588.882-1.763.294-1.763s-.735.367-1.543.882-3.96 1.763-4.834 2.49-3.519 2.637-3.519 2.637l-35.329.073L144.776 98.8" class="cls-11" transform="translate(-35.557 -27.446)"/>
                <path id="Path_3908" d="M229.427 119.636c-.588-.073-12.606-1.249-12.606-1.249a24.176 24.176 0 0 0 3.519-2.564c.367-.588.882-1.763.294-1.763s-.735.367-1.543.882-3.96 1.763-4.834 2.49-3.519 2.637-3.519 2.637l-35.329.073-3.938-3.1c-1.469 2.571-4.217 7.412-6 10.6 2.748 1.528 4.834 2.667 5.253 2.836 1.242.514 39.869-5.789 39.869-5.789s2.2 1.028 3.592 1.9 10.189 3.673 10.189 3.673.58-.294-.073-.808-4.915-2.564-4.915-2.564l8.816 1.91s.514-.367.294-.735-8.081-3.372-8.081-3.372l8.816.441s.661-.808.22-1.1-9.455-2.343-9.455-2.343 9.6-.808 9.675-1.175.344-.807-.244-.88z" class="cls-7" transform="translate(-44.277 -31.58)"/>
                <path id="Path_3909" d="M171.682 60.651a1.043 1.043 0 0 1 1.829.441 5.965 5.965 0 0 1-1.168 4.54c-.808.808-1.543 1.028-1.543 0a46.882 46.882 0 0 1 .882-4.981z" class="cls-7" transform="translate(-45.691 -16.835)"/>
                <path id="Path_3910" d="M155.317 43.3A14.965 14.965 0 0 1 151 52.792a35.689 35.689 0 0 1-7.9 5.877s.433 2.3 1.293 3.019a4.3 4.3 0 0 0 2.593.573 18.667 18.667 0 0 0 4.738 7.192c3.453 3.159 7.479 2.872 9.778-1.873s3.453-9.484 3.159-12.217l-.286-2.733s-7.475-4.151-9.058-9.33z" class="cls-7" transform="translate(-38.341 -11.858)"/>
                <ellipse id="Ellipse_927" cx=".661" cy="1.175" class="cls-16" rx=".661" ry="1.175" transform="translate(115.882 43.307)"/>
                <ellipse id="Ellipse_928" cx=".661" cy="1.175" class="cls-16" rx=".661" ry="1.175" transform="translate(119.474 52.126)"/>
                <ellipse id="Ellipse_929" cx=".661" cy="1.175" class="cls-16" rx=".661" ry="1.175" transform="translate(122.258 43.307)"/>
                <path id="Path_3911" d="M165.151 59.35a6.905 6.905 0 0 0-.22 2.711c.22 1.249 1.242 3.372.367 3.739a2.432 2.432 0 0 1-2.5-.294" class="cls-17" transform="translate(-43.568 -16.586)"/>
                <path id="Path_3912" d="M156.55 57.433s.331-2.248 3.269-1.991" class="cls-17" transform="translate(-41.91 -15.074)"/>
                <path id="Path_3913" d="M167.29 56.173s2.748-2.2 3.673 1.822" class="cls-17" transform="translate(-44.76 -15.114)"/>
            </g>
        </g>
        <g id="Group_1889" transform="translate(15223 5296.476)">
            <path id="Path_3927" d="M381.012 419.18a11.012 11.012 0 1 0 11.012 11.012 11.012 11.012 0 0 0-11.012-11.012z" class="cls-18" transform="translate(-14489.087 -5343.236)"/>
            <path id="Path_3928" d="M395.837 440a5.067 5.067 0 1 0 5.067 5.067 5.067 5.067 0 0 0-5.067-5.067z" class="cls-19" transform="translate(-14503.91 -5358.096)"/>
            <path id="Path_3929" d="M74.225 419.18a11.012 11.012 0 1 0 11.009 11.011 11.012 11.012 0 0 0-11.009-11.011z" class="cls-18" transform="translate(-14270.114 -5343.236)"/>
            <path id="Path_3930" d="M89.049 440a5.067 5.067 0 1 0 5.064 5.066A5.067 5.067 0 0 0 89.049 440z" class="cls-19" transform="translate(-14284.939 -5358.096)"/>
            <path id="Path_3931" d="M139.678 8.389a1.652 1.652 0 0 0-2.336-.089l-14.095 13.079a1.663 1.663 0 0 0-.449.71l-1.792 5.628-118.28 5.607a1.649 1.649 0 0 0-1.571 1.732l2.422 49.77a1.655 1.655 0 0 0 1.54 1.569l97.121 7.047h.12a1.652 1.652 0 0 0 1.574-1.145l19.863-62.448.026-.074 2-6.269L139.6 10.722a1.649 1.649 0 0 0 .08-2.333zm-33.053 64.523L95.762 72.5l4.543-18.32 12.309-.1zm-13.786-.53l-12.226-.467 4.133-17.621 12.595-.106zM76.775 88.28l3.172-13.525 12.188.467L88.7 89.145zm-14.123-1.024l2.427-13.07 11.951.458-3.149 13.427zm-15.563-1.128l1.9-12.558 13.2.5-2.4 12.976zM34.1 85.186l.919-12.151 11.086.415-1.879 12.46zm-15.739-1.145l.756-11.619 13.047.5-.907 12.054zM5.431 54.967l11.951-.1-.947 14.6-10.3-.4zm14.822-.123l13.279-.112-1.145 15.337-13.079-.5zm14.759-19.751l-1.271 16.771-13.3.117 1.053-16.236zm17.023-.807L49.4 51.724l-12.775.109 1.271-16.889zm17.7-.842l-3.362 18.145-14.073.118 2.656-17.553zm17.143-.813l-4.406 18.812-13.185.112 3.383-18.24zM51.863 54.575l13.975-.12-3.117 16.774-13.3-.51zM46.542 70.6l-11.3-.435L36.4 54.7l12.561-.106zm22.213-16.174l13.045-.112L77.7 71.8l-12.088-.464zM85.42 51.42l4.425-18.92 13.021-.618-4.805 19.438zm-66.8-15.543L17.568 52l-12.277.1-.747-15.56zM6.261 71.933l9.987.372-.748 11.521-8.7-.63zm94.908 18.119l-9.586-.7 3.475-14.026 10.666.409zm12.369-38.864l-12.529.106 4.866-19.554 14.063-.656z" class="cls-11" transform="translate(-14232.82 -5032.654)"/>
            <path id="Path_3932" fill="#c65447" d="M459.242 10.437a1.984 1.984 0 0 1-1.311-3.455l7.207-6.374a1.984 1.984 0 0 1 2.622 2.974l-7.208 6.36a1.978 1.978 0 0 1-1.311.5z" transform="translate(-14558.381 -5027.157)"/>
            <path id="Path_3934" d="M121.372 341.022l-2.216-13.333a1.652 1.652 0 0 0 1.571-1.649v-18.065a1.643 1.643 0 0 0-.6-1.277l-13.437-11.012a1.653 1.653 0 1 0-2.1 2.556l12.83 10.514v15.663l-94.633 1.717-3.057-8.625a1.652 1.652 0 1 0-3.112 1.1l2.905 8.181-12.704 4.97a1.652 1.652 0 0 0 1.2 3.077l13.82-5.4 1.984-.037 8.888 12.761c.458.658 1.314.212 1.277-.667l-.527-12.271 75.707-1.374 11.2 13.708a.58.58 0 0 0 1.004-.537z" class="cls-11" transform="translate(-14229.114 -5254.824)"/>
        </g>
    </g>
</svg>
