<svg id="Capa_1" enable-background="new 0 0 512 512" height="512" viewBox="0 0 512 512" width="512" xmlns="http://www.w3.org/2000/svg"><path d="m497 1h-161c-7.03 0-13.118 4.883-14.643 11.746l-4.056 18.254h-122.602l-4.057-18.254c-1.524-6.863-7.612-11.746-14.642-11.746h-161c-8.284 0-15 6.716-15 15v480c0 8.284 6.716 15 15 15h482c8.284 0 15-6.716 15-15v-480c0-8.284-6.716-15-15-15zm-161 320c-7.03 0-13.118 4.883-14.643 11.746l-4.056 18.254h-122.602l-4.057-18.254c-1.524-6.863-7.612-11.746-14.642-11.746h-146v-130h133.967l17.39 78.254c1.525 6.863 7.613 11.746 14.643 11.746h120c7.03 0 13.118-4.883 14.643-11.746l17.39-78.254h133.967v130zm-25.366 60-6.667 30h-95.935l-6.667-30zm-109.268-160h109.268l-6.667 30h-95.935zm109.268-160-6.667 30h-95.935l-6.667-30zm-146.667-30 17.39 78.254c1.525 6.863 7.613 11.746 14.643 11.746h120c7.03 0 13.118-4.883 14.643-11.746l17.39-78.254h133.967v130h-146c-7.03 0-13.118 4.883-14.643 11.746l-4.056 18.254h-122.602l-4.057-18.254c-1.524-6.863-7.612-11.746-14.642-11.746h-146v-130zm318.033 450h-452v-130h133.967l17.39 78.254c1.525 6.863 7.613 11.746 14.643 11.746h120c7.03 0 13.118-4.883 14.643-11.746l17.39-78.254h133.967z"/></svg>