<svg xmlns="http://www.w3.org/2000/svg" width="14" height="13.999" viewBox="0 0 14 13.999">
  <g id="cancel" transform="translate(-642 -1075)">
    <path id="Path_113" data-name="Path 113" d="M650.541,1082l5.233-5.234a.762.762,0,0,0,0-1.083l-.458-.458a.766.766,0,0,0-1.083,0L649,1080.458l-5.234-5.234a.765.765,0,0,0-1.082,0l-.459.458a.766.766,0,0,0,0,1.082l5.234,5.235-5.234,5.234a.767.767,0,0,0,0,1.083l.458.458a.766.766,0,0,0,1.083,0L649,1083.54l5.234,5.234a.766.766,0,0,0,1.083,0l.458-.458a.766.766,0,0,0,0-1.083Z" fill="#078e05"/>
  </g>
</svg>
