<svg width="93" height="90" viewBox="0 0 93 90" xmlns="http://www.w3.org/2000/svg">
    <g fill-rule="nonzero" fill="none">
        <path d="M29.424 59.093v4.53h-9.303C10.396 63.629 2.31 56.135 1.57 46.43.83 36.727 7.686 28.091 17.3 26.62a21.517 21.517 0 0 1-.279-3.336c-.004-9.968 6.771-18.66 16.433-21.08a21.702 21.702 0 0 1 24.423 10.84 13.791 13.791 0 0 1 4.11-.621c7.706 0 13.954 6.252 13.954 13.964 0 .093-.016.186-.016.279 9.537 1.604 16.253 10.256 15.448 19.9-.805 9.643-8.863 17.059-18.533 17.058h-9.303V48.108c0-4.282-7.629-7.757-17.056-7.757-9.427 0-17.056 3.475-17.056 7.757v10.985z" fill="#BDDBFF"/>
        <g fill="#3D9AE2">
            <path d="M32.525 57.418h3.101v3.103h-3.1zM38.727 58.97h3.101v3.102h-3.1zM32.525 68.278h3.101v3.103h-3.1zM38.727 69.83h3.101v3.103h-3.1zM32.525 79.14h3.101v3.102h-3.1zM38.727 80.69h3.101v3.104h-3.1zM37.177 46.557h18.606v3.103H37.177z"/>
            <path d="M77.46 25.394c-.532-8.164-7.3-14.516-15.475-14.523a14.973 14.973 0 0 0-3.349.373A23.25 23.25 0 0 0 32.483.857C22.423 3.662 15.466 12.834 15.47 23.284c-.001.694.035 1.388.108 2.079C5.613 27.689-1.03 37.119.131 47.293c1.161 10.175 9.757 17.864 19.99 17.882h7.753v15.516c0 5.306 8 9.309 18.606 9.309 10.606 0 18.606-4.003 18.606-9.31V65.176h7.753c10.231.008 18.844-7.66 20.025-17.83 1.181-10.17-5.444-19.61-15.405-21.951zM61.984 80.69c0 2.932-6.636 6.206-15.505 6.206s-15.505-3.274-15.505-6.206v-5.57c3.271 2.451 8.884 4.018 15.505 4.018 6.62 0 12.234-1.567 15.505-4.018v5.57zm0-10.861c0 2.932-6.636 6.206-15.505 6.206s-15.505-3.274-15.505-6.206v-5.57c3.271 2.451 8.884 4.018 15.505 4.018 6.62 0 12.234-1.567 15.505-4.018v5.57zm0-10.86c0 2.932-6.636 6.205-15.505 6.205s-15.505-3.273-15.505-6.206V53.4c3.271 2.451 8.884 4.019 15.505 4.019 6.62 0 12.234-1.568 15.505-4.019v5.57zM46.48 54.313c-8.869 0-15.505-3.273-15.505-6.206 0-2.932 6.636-6.206 15.505-6.206s15.505 3.274 15.505 6.206c0 2.933-6.636 6.206-15.505 6.206zm26.359 7.758h-7.753V48.108c0-5.306-8-9.309-18.606-9.309-10.605 0-18.606 4.003-18.606 9.31v13.963H20.12c-8.916.009-16.332-6.86-17.011-15.757-.68-8.896 5.608-16.813 14.422-18.16a1.55 1.55 0 0 0 1.023-.62c.238-.333.338-.744.28-1.148a18.905 18.905 0 0 1-.264-3.103C18.563 14.025 24.855 5.95 33.829 3.7a20.152 20.152 0 0 1 22.683 10.072c.345.663 1.12.978 1.83.744a12.41 12.41 0 0 1 11.017 1.895 12.428 12.428 0 0 1 5.03 9.99c0 .047-.015.217-.015.264a1.551 1.551 0 0 0 1.302 1.536c8.742 1.47 14.898 9.402 14.158 18.242-.74 8.84-8.13 15.635-16.995 15.628z"/>
            <path d="M23.222 23.284h3.101c.008-6.852 5.557-12.405 12.404-12.413V7.768c-8.559.01-15.495 6.95-15.505 15.516zM82.142 45.005c-.005 5.14-4.168 9.304-9.303 9.31v3.103c6.847-.008 12.396-5.56 12.404-12.413h-3.101z"/>
        </g>
    </g>
</svg>
