<svg xmlns="http://www.w3.org/2000/svg" width="13.334" height="16.002" viewBox="0 0 13.334 16.002">
  <path id="_1608662_database_icon" data-name="1608662_database_icon" d="M134.667,6.857a18.3,18.3,0,0,0,3.845-.384,7.455,7.455,0,0,0,2.821-1.134V6.857q0,.616-.894,1.143a7.913,7.913,0,0,1-2.431.835,17.013,17.013,0,0,1-3.342.308,17.013,17.013,0,0,1-3.342-.308A7.913,7.913,0,0,1,128.894,8Q128,7.473,128,6.857V5.339a7.455,7.455,0,0,0,2.821,1.134,18.3,18.3,0,0,0,3.846.384Zm0,6.857a18.3,18.3,0,0,0,3.845-.384,7.455,7.455,0,0,0,2.821-1.134v1.518q0,.616-.894,1.143a7.913,7.913,0,0,1-2.431.835,17.013,17.013,0,0,1-3.342.308,17.013,17.013,0,0,1-3.342-.308,7.913,7.913,0,0,1-2.431-.835Q128,14.33,128,13.714V12.2a7.455,7.455,0,0,0,2.821,1.134,18.3,18.3,0,0,0,3.846.38Zm0-3.429a18.3,18.3,0,0,0,3.845-.384,7.455,7.455,0,0,0,2.821-1.134v1.518q0,.616-.894,1.143a7.913,7.913,0,0,1-2.431.835,17.013,17.013,0,0,1-3.342.308,17.013,17.013,0,0,1-3.342-.308,7.913,7.913,0,0,1-2.431-.835Q128,10.9,128,10.286V8.768A7.455,7.455,0,0,0,130.821,9.9a18.3,18.3,0,0,0,3.846.386Zm0-10.286a17.013,17.013,0,0,1,3.342.308,7.913,7.913,0,0,1,2.431.835q.894.527.894,1.143V3.429q0,.616-.894,1.143a7.913,7.913,0,0,1-2.431.835,17.013,17.013,0,0,1-3.342.308,17.013,17.013,0,0,1-3.342-.308,7.913,7.913,0,0,1-2.431-.835Q128,4.045,128,3.429V2.286q0-.616.894-1.143a7.913,7.913,0,0,1,2.431-.835A17.013,17.013,0,0,1,134.667,0Z" transform="translate(-128 0.001)" fill="#239323"/>
</svg>
