<svg width="32" height="32" viewBox="0 0 32 32" xmlns="http://www.w3.org/2000/svg">
    <g fill="none" fill-rule="evenodd">
        <path d="M0 0h32v32H0z"/>
        <g transform="translate(3.5 3.5)" fill="#DE2D75" fill-rule="nonzero">
            <circle cx="12.5" cy="12.5" r="4"/>
            <path d="M18 0H7a7.008 7.008 0 0 0-7 7v11a7.008 7.008 0 0 0 7 7h11a7.008 7.008 0 0 0 7-7V7a7.008 7.008 0 0 0-7-7zm-5.5 18.5a6 6 0 1 1 6-6 6.007 6.007 0 0 1-6 6zm6.5-11a1.5 1.5 0 1 1 0-3 1.5 1.5 0 0 1 0 3z"/>
        </g>
    </g>
</svg>
