<svg xmlns="http://www.w3.org/2000/svg" width="243.525" height="209.663" viewBox="0 0 243.525 209.663">
  <g id="Group_2531" data-name="Group 2531" transform="translate(-516 -303.5)">
    <path id="Path_5108" data-name="Path 5108" d="M561.336,176.392l-.115-.137H409.645l.344.371H408.6a15.96,15.96,0,0,0-15.96,15.96V353.933H379.259l-.115.137a21.292,21.292,0,0,0,0,27.261l.115.137H531.036a17.375,17.375,0,0,0,17.375-17.375V204.162s0-.132,0-.371h12.814l.115-.138A21.292,21.292,0,0,0,561.336,176.392Z" transform="translate(146.756 131.694)" opacity="0.17"/>
    <g id="Group_2523" data-name="Group 2523" transform="translate(516 304)">
      <path id="Path_5109" data-name="Path 5109" d="M438.084,195.514H589.66l.115-.138a21.29,21.29,0,0,0,0-27.26l-.115-.138H438.084l.75.807a19.073,19.073,0,0,1-.616,26.6Z" transform="translate(-402.648 -167.978)" fill="#f2f2f2"/>
      <path id="Path_5110" data-name="Path 5110" d="M540.833,373.192h-138.4V184.309a15.96,15.96,0,0,1,15.96-15.96h135.4s14.051-.834,13.768,0c-9.858.193-9.353,27.536-9.353,27.536V355.817A17.375,17.375,0,0,1,540.833,373.192Z" transform="translate(-384.007 -167.978)" fill="#fff" stroke="#f5f5f5" stroke-width="1"/>
      <path id="Path_5111" data-name="Path 5111" d="M520.429,567.956H368.854l-.115-.138a21.292,21.292,0,0,1,0-27.261l.115-.137H520.429l-.75.807c-7.033,7.569-8.228,20.483.75,26.729Z" transform="translate(-363.804 -362.741)" fill="#f2f2f2"/>
    </g>
    <rect id="Rectangle_1846" data-name="Rectangle 1846" width="94.164" height="7.924" transform="translate(568.102 334.916)" fill="#f2f2f2"/>
    <rect id="Rectangle_1847" data-name="Rectangle 1847" width="42.102" height="2.582" transform="translate(633.268 469.561)" fill="#64727e"/>
    <rect id="Rectangle_1853" data-name="Rectangle 1853" width="120.371" height="3.219" transform="translate(554.998 452.538)" fill="#e6e6e6"/>
    <g id="Group_2526" data-name="Group 2526" transform="translate(672.561 331.245)">
      <path id="Path_5113" data-name="Path 5113" d="M716.409,377.2l-6.981-4.184,4.761-10.956,45.323-75.608L769.6,292.5l-45.29,75.552Z" transform="translate(-701.104 -257.18)" fill="#5dadec"/>
      <rect id="Rectangle_1855" data-name="Rectangle 1855" width="43.162" height="14.893" rx="0.981" transform="matrix(0.514, -0.858, 0.858, 0.514, 51.735, 37.02)" fill="#48a0e5"/>
      <path id="Path_5114" data-name="Path 5114" d="M853.314,241.043l-.374-.224-14.247-8.54a.377.377,0,0,0-.517.129l-.909,1.517a.377.377,0,0,0,.129.517l13.924,8.347a.377.377,0,0,1,.13.517L839.428,263.36a.376.376,0,0,0,.13.516l1.446.867a.377.377,0,0,0,.517-.129L854.839,242.4a.377.377,0,0,0-.129-.517Z" transform="translate(-767.928 -228.82)" fill="#c4c4c4"/>
      <path id="Path_5115" data-name="Path 5115" d="M705.248,467.839l-4.334-2.6,8.825-20.305,10.084,6.045Z" transform="translate(-696.652 -340.055)" fill="#498fc6"/>
      <path id="Path_5116" data-name="Path 5116" d="M700.576,490.1l-4.334-2.6-2.276,1.467-1.986,8.875,1.157.694,7.086-5.944Z" transform="translate(-691.98 -362.313)" fill="#dae7e8"/>
      <path id="Rectangle_1856" data-name="Rectangle 1856" d="M.653,0h0a.653.653,0,0,1,.653.653V14.112a.654.654,0,0,1-.654.654h0A.653.653,0,0,1,0,14.113V.653A.653.653,0,0,1,.653,0Z" transform="translate(11.246 104.769) rotate(-59.059)" fill="#50a6e9"/>
      <path id="Rectangle_1857" data-name="Rectangle 1857" d="M.654,0h0a.653.653,0,0,1,.653.653v13.46a.653.653,0,0,1-.653.653h0A.653.653,0,0,1,0,14.113V.654A.654.654,0,0,1,.654,0Z" transform="translate(10.305 106.338) rotate(-59.059)" fill="#50a6e9"/>
      <g id="Group_2525" data-name="Group 2525" transform="translate(0.452 129.534)">
        <path id="Path_5117" data-name="Path 5117" d="M699.941,498.048a.948.948,0,1,1-.326-1.3A.948.948,0,0,1,699.941,498.048Z" transform="translate(-695.673 -496.612)" fill="#414141"/>
        <rect id="Rectangle_1858" data-name="Rectangle 1858" width="5.88" height="0.457" transform="translate(0 6.266) rotate(-59.058)" fill="#414141"/>
      </g>
      <path id="Path_5118" data-name="Path 5118" d="M803.557,304.567l10.084,6.045-5.576,9.3Z" transform="translate(-750.328 -266.65)" opacity="0.04"/>
    </g>
    <rect id="Rectangle_1859" data-name="Rectangle 1859" width="13.288" height="7.924" transform="translate(568.102 334.916)" fill="#5dadec"/>
    <g id="Group_2530" data-name="Group 2530" transform="translate(564.226 375.213)">
      <path id="Path_5119" data-name="Path 5119" d="M435.008,337.185c.128-.092.36-.265.407-.289s.049-.027,0,0a1.3,1.3,0,0,1,.173-.041c-.153.021.116.013.135.013.193,0-.073-.037.128.019.1.027.195.045.292.068.131.032.395.114.451.136a6.755,6.755,0,0,0,1.952.6,2.563,2.563,0,0,0,1.926-.7c.09-.078.174-.162.261-.243.065-.056.058-.055-.021,0a1.553,1.553,0,0,1,.211-.125c-.187.082.13-.019.166-.026-.211.041.119,0,.166,0a13.553,13.553,0,0,1,1.743.159l1.95.225a7.87,7.87,0,0,0,2.186.077A1.187,1.187,0,0,0,448,335.92a1.234,1.234,0,0,0-.867-1.139,8.981,8.981,0,0,0-2.342-.345l-2.184-.221a7.879,7.879,0,0,0-1.726-.062,3.347,3.347,0,0,0-2.013.985c-.027.025-.275.235-.114.113q-.2.109-.048.028-.215.048-.037.028a1.662,1.662,0,0,1-.375-.005c.144.016-.225-.053-.271-.065a7.162,7.162,0,0,0-1.7-.365c-.948,0-2.646.742-2.182,1.961a.6.6,0,0,0,.868.353Z" transform="translate(-391.247 -285.189)" fill="#7d242d"/>
      <g id="Group_2529" data-name="Group 2529" transform="translate(0)">
        <g id="Group_2527" data-name="Group 2527" transform="translate(3.258 6.137)">
          <path id="Path_5120" data-name="Path 5120" d="M337.479,203.749c-4.5-4.346-11.617-3.123-16.392.242-.211.074-.42.15-.625.232-5.564,2.2-10.072,7.321-9.42,13.619,1.357,13.1,21.136,12.6,27.491,3.832C342.38,216.363,342.356,208.454,337.479,203.749Z" transform="translate(-310.979 -200.952)" fill="#272727"/>
          <path id="Path_5121" data-name="Path 5121" d="M330.595,226.2a7.54,7.54,0,0,1,.908-.932c.079-.068.159-.137.242-.2-.232.177.1-.059.117-.074q.257-.174.53-.323t.563-.276c-.357.156.029,0,.085-.021.1-.034.2-.065.3-.094.068-.02.245-.025.3-.071l-.861-.127a1.033,1.033,0,0,1-.584-.879q-.02-.25-.011-.04l.04-.25a1.116,1.116,0,0,1-.035.148q-.057.185.082-.165a2.628,2.628,0,0,0-.291.488c-.2.324.158-.174.015-.009-.065.074-.126.151-.193.224a5.292,5.292,0,0,1-.467.451c-.245.209-.072-.016.015-.006a1.473,1.473,0,0,0-.244.167,5.442,5.442,0,0,1-.566.321c-.058.028-.366.124-.123.059s-.077.022-.131.04a5.2,5.2,0,0,1-.57.154q-.087.018-.174.033-.193.032.154-.018c-.059.048-.285.023-.353.027l1.62,2.127c.044-.148.1-.292.145-.438.108-.317-.16.3.012-.022.128-.238.248-.474.4-.7a1.634,1.634,0,0,1,.2-.282c-.309.294-.044.067.029-.016a6.014,6.014,0,0,1,.574-.567c.043-.038.088-.075.133-.111q.145-.117-.112.085a1.215,1.215,0,0,1,.332-.229,7.455,7.455,0,0,1,.654-.364c.3-.155-.332.119.076-.032.126-.047.253-.089.382-.126q.165-.048.334-.086c.105-.024.633-.1.121-.035l-1.68-1.68c-.039.407.093-.363-.007.033-.025.1-.043.2-.07.295s-.06.193-.089.29c-.092.3.1-.19.011-.008a6.315,6.315,0,0,1-.32.584c-.028.043-.229.33-.08.126s-.065.071-.1.111c-.09.1-.3.391-.436.42q.25-.186.1-.077c-.049.036-.1.071-.149.1-.084.056-.171.108-.258.158-.368.212-.759.384-1.117.614a3.419,3.419,0,0,0-1.739,2.789,2.627,2.627,0,0,0,1.91,2.683l.446-3.3c-.351-.016.388.1.057,0,.134.041.309.167.093.02-.164-.111.271.258.071.045-.228-.242.169.322.017.025-.132-.259.04.279.02.085a1.415,1.415,0,0,0-.065-.239l.037.251q.006-.21-.021.028c-.114.312.055-.022.029-.066q-.154.34-.063.171a1.171,1.171,0,0,1,.078-.127c.021.084-.288.286-.04.083.155-.126-.327.2-.074.052.087-.05.169-.1.259-.15.063-.032.3-.193.081-.042s.018,0,.1-.027c.188-.065.379-.121.57-.176a7.432,7.432,0,0,0,2.558-1.178,5.823,5.823,0,0,0,1.9-2.652l-2.808.741c.3.318-.114-.233.015.006a1.469,1.469,0,0,0,.128.228q-.162-.4-.07-.161c.015.041.028.082.039.124.028.1.036.2.066.3-.141-.441-.032-.269-.028-.1a2.441,2.441,0,0,0-.012.354c-.027-.142.073-.408.005-.094-.022.1-.05.2-.082.3-.013.042-.028.085-.044.127q-.1.244.066-.154a1.811,1.811,0,0,0-.125.236c-.03.051-.061.1-.094.15q-.149.212.106-.127a2.625,2.625,0,0,0-.176.2c-.059.06-.14.111-.193.175q.342-.256.13-.109-.073.047-.149.088c-.248.165.372-.108.082-.028-.115.031-.227.066-.345.088l1.295,3.071,1.121-.681-2.468-1a.889.889,0,0,1,.049.142q.051.194-.016-.2c-.017.032-.02.4.017.072.04-.353-.041.058-.037.067q.157-.344.068-.173a1.187,1.187,0,0,1-.076.13l.143-.179a1.542,1.542,0,0,1-.138.144c-.015-.071.368-.2.059-.061-.183.082.368-.1.081-.043q.4-.036.2-.028t.19.041c-.035-.043-.382-.061-.091-.01.341.06-.1-.056-.068-.066q.28.225.143.094a1.271,1.271,0,0,1-.105-.115c.04-.009.248.332.065.035-.1-.165.107.348.046.063q.037.393.028.193a.982.982,0,0,1,0-.154l-.024.243q.073-.219,0-.024c-.188.269.283-.242.037-.034-.187.157.079-.056.118-.1.267-.283-.277.172.047-.046.184-.124.37-.246.562-.357q.333-.193.681-.359c.143-.068.264-.121.046-.03.129-.054.26-.1.392-.152a9.46,9.46,0,0,1,1.485-.4c.047-.009.434-.076.191-.036s.146-.015.194-.02c.279-.026.559-.038.839-.04a1.68,1.68,0,0,0,0-3.36,11.483,11.483,0,0,0-4.779,1.11c-1.534.716-3.142,1.9-3.151,3.761a3.107,3.107,0,1,0,6.045-.995,1.7,1.7,0,0,0-2.468-1l-1.121.681a1.683,1.683,0,0,0,1.295,3.071,4.428,4.428,0,0,0,2.164-7.217,1.683,1.683,0,0,0-1.635-.432,1.748,1.748,0,0,0-1.174,1.174c-.128.343.156-.261-.015.03-.069.118-.129.24-.2.356-.031.05-.064.1-.1.146q.2-.251.085-.107c-.078.087-.153.178-.236.262-.063.064-.214.264-.3.278l.155-.118q-.094.069-.193.133c-.1.064-.2.123-.3.177l-.1.053q-.257.118.09-.035s-1.134.354-1.242.387a6.091,6.091,0,0,0-1.5.631,3.222,3.222,0,0,0-1.512,3.526,3.266,3.266,0,0,0,3.027,2.439,1.683,1.683,0,0,0,.447-3.3c-.255-.058.2.123.272.173.279.194-.081-.124.133.135q.141.2.044.035l.107.247a.587.587,0,0,0-.04-.167c.152.315.017.334.042.136s-.113.442-.013.133c.073-.227-.046.125-.077.147.031-.023.187-.3.022-.066s.07-.048.1-.079c.178-.174-.046,0-.059.043.025-.091.372-.229.464-.279.338-.184.689-.346,1.011-.559a6.317,6.317,0,0,0,2.8-4.779,1.68,1.68,0,0,0-1.68-1.68,7.893,7.893,0,0,0-4.208,1.808,7.421,7.421,0,0,0-2.312,3.581,1.694,1.694,0,0,0,1.62,2.127,6.942,6.942,0,0,0,3.8-1.313c1.133-.842,2.39-2.155,2.4-3.664a2.225,2.225,0,0,0-1.666-2.265,3.155,3.155,0,0,0-2.5.741,8.022,8.022,0,0,0-2.675,3.048,1.221,1.221,0,0,0,.311,1.558,1.2,1.2,0,0,0,1.586-.094Z" transform="translate(-322.216 -214.327)" fill="#fff"/>
          <path id="Path_5122" data-name="Path 5122" d="M355.4,248.391a1.992,1.992,0,0,0,.286-.147q-.15.062-.053.022.113-.038-.091,0a.784.784,0,0,0,.132.014l-.232-.031.026.006-.4-.232,0,.005a.907.907,0,0,0,.543.26,1.027,1.027,0,0,0,.6-.112l.077-.034-.229.1a3.563,3.563,0,0,1,.837-.224l-.3.04a2.54,2.54,0,0,1,.534-.018l-.607-2.24a13.445,13.445,0,0,0-1.473.857,3.56,3.56,0,0,0-1.018.773,4.256,4.256,0,0,0-.473,1.033.88.88,0,0,0,.167.812.9.9,0,0,0,.732.367l.345-.01a2.836,2.836,0,0,0,.665-.059,3.653,3.653,0,0,0,1.214-.8,13.211,13.211,0,0,0,1.3-1.083,1.225,1.225,0,0,0,.188-1.457,1.436,1.436,0,0,0-.431-.431,1.215,1.215,0,0,0-.926-.121,4.993,4.993,0,0,0-.959.4,3.873,3.873,0,0,0-.791.615.972.972,0,0,0-.148,1.145l0,0-.123-.456,0,.025q.015-.116.031-.232c-.018.111-.033.223-.046.335l.027-.2q.081-.175.027-.071l-.036.072c-.018.037-.035.074-.051.111-.052.119-.1.239-.145.362a.541.541,0,0,0,.791.608Z" transform="translate(-339.856 -231.272)" fill="#fff"/>
        </g>
        <g id="Group_2528" data-name="Group 2528" transform="translate(65.713 8.258)">
          <path id="Path_5123" data-name="Path 5123" d="M533.341,221.626c-.033-.294-.072-.587-.116-.88-.694-4.641-1.82-7.036-5.611-9.954a14.709,14.709,0,0,0-14.778-2.164c-4.664,1.729-8.891,6-7.1,11.5a12.259,12.259,0,0,0,3.159,7.559,16.992,16.992,0,0,0,11.347,5.512,10.533,10.533,0,0,0,7.9-.306,8.374,8.374,0,0,0,3.255-2.683,7,7,0,0,0,1.372-1.8C533.832,226.405,533.588,223.811,533.341,221.626Z" transform="translate(-505.313 -207.553)" fill="#272727"/>
          <path id="Path_5124" data-name="Path 5124" d="M520.3,224.967a.335.335,0,0,1-.267.045q-.268-.024-.118.014l-.428-.249a1.247,1.247,0,0,0,.861.368l-.538-.146q.148.078-.084-.084a.845.845,0,0,1-.189-.315l.3-1.148c-.057.055-.105.116-.159.173-.068.072-.26.209.034.005a6.283,6.283,0,0,0-.566.489c-.2.175.269-.179.035-.029-.056.036-.11.075-.166.111s-.138.085-.208.124-.34.159-.061.046c.364-.147-.193.076-.338.161-.071.041-.139.087-.211.127s-.145.079-.219.115c-.122.059-.372.12.092-.033a5.567,5.567,0,0,1-.951.25l.443-.059c-.082.01-.163.018-.245.025L519,226.627a2.14,2.14,0,0,1,.007-.383l-.06.446a2.336,2.336,0,0,1,.133-.514l-.169.4a2.367,2.367,0,0,1,.176-.34c.11-.173.193-.133-.08.092.048-.04.087-.1.131-.142s.128-.1.142-.131c-.021.052-.364.26-.123.1a2.391,2.391,0,0,1,.372-.2l-.4.169a2.243,2.243,0,0,1,.515-.134l-.447.06a2.071,2.071,0,0,1,.46.007l-1.62-1.233a1.681,1.681,0,0,1,.088.308q-.03-.223-.06-.447a1.556,1.556,0,0,1,0,.381q.03-.223.06-.447a1.937,1.937,0,0,1-.1.372l.169-.4a2.462,2.462,0,0,1-.147.288c-.081.136-.332.365.017.005-.144.148-.274.307-.428.447-.088.081-.18.156-.271.233-.228.193.321-.23.062-.049a3.582,3.582,0,0,1-.6.367l.4-.169a1.321,1.321,0,0,1-.253.064l.447-.06a1.118,1.118,0,0,1-.182,0l.447.06a1.01,1.01,0,0,1-.166-.043l.4.169c-.052-.023-.1-.056-.148-.079q.376.31.23.173a.7.7,0,0,1-.06-.063c.064.023.273.405.124.142a1.77,1.77,0,0,1-.081-.171l.169.4a2.085,2.085,0,0,1-.115-.448q.03.223.06.447a2.241,2.241,0,0,1,0-.469l-.06.447a2.435,2.435,0,0,1,.173-.606l-.169.4a3.216,3.216,0,0,1,.284-.517c.013-.019.065-.116.086-.12.006,0-.285.335-.123.167.077-.08.15-.164.231-.241.059-.056.335-.279.084-.086s.035-.019.1-.062a3.791,3.791,0,0,1,.561-.292l-.4.169a3.741,3.741,0,0,1,.858-.232l-.446.06a3.386,3.386,0,0,1,.811,0l-.447-.06a3.418,3.418,0,0,1,.436.092l-1.173-2.067a9.931,9.931,0,0,1-.44,1.438l.169-.4a4.455,4.455,0,0,1-.216.442c-.04.071-.085.138-.127.207-.159.258.276-.3.07-.084-.055.059-.106.12-.164.176-.113.11-.306.171.094-.054a3.432,3.432,0,0,1-.339.192l.4-.169a1.946,1.946,0,0,1-.422.107l.447-.06a2.161,2.161,0,0,1-.5-.006l.446.06a2.067,2.067,0,0,1-.473-.132l.4.169c-.073-.033-.14-.072-.211-.11-.225-.122.341.329.135.105a.829.829,0,0,1-.06-.06q-.16-.183.158.21c-.02-.064-.077-.132-.1-.2l.169.4a1.256,1.256,0,0,1-.058-.219q.03.223.06.447a1.308,1.308,0,0,1,0-.321q-.03.223-.06.447a1.493,1.493,0,0,1,.075-.263l-.169.4c.029-.062.063-.118.094-.179.1-.192-.113.187-.141.176l.147-.15c.177-.182-.307.2-.143.1a6.392,6.392,0,0,1,.7-.377l-.4.169a4.976,4.976,0,0,1,1.154-.331l-.447.06a3.312,3.312,0,0,1,.808-.011l-.447-.06a1.985,1.985,0,0,1,.416.1l-.4-.169c.053.022.1.049.153.074.206.1-.313-.274-.186-.151.148.145-.087.007-.14-.2a1.117,1.117,0,0,0,.076.144l-.169-.4a1.141,1.141,0,0,1,.055.229q-.03-.224-.06-.447a.827.827,0,0,1,0,.17q.03-.223.06-.447a1.377,1.377,0,0,1-.059.243l.169-.4c-.013.03-.136.311-.164.3,0,0,.3-.349.065-.1-.04.044-.083.087-.125.13-.208.207-.429.4-.645.6l-.646.6c-.112.1-.23.2-.338.31-.131.129.3-.187.131-.1-.064.032-.123.075-.187.107l.4-.169a1.154,1.154,0,0,1-.232.071l.447-.06a.544.544,0,0,1-.155,0l.447.06a.511.511,0,0,1-.153-.048l.4.169q-.215-.128.194.153.28.409.171.191l.169.4a.965.965,0,0,1-.042-.177q.03.224.06.447a1.4,1.4,0,0,1,0-.194l-.06.447a1.556,1.556,0,0,1,.11-.4l-.169.4c.038-.08.231-.36.056-.134s-.034.049.007,0,.1-.105.153-.154c.013-.011.121-.119.132-.113s-.352.228-.129.111c.129-.067.248-.141.382-.2l-.4.169a2.381,2.381,0,0,1,.494-.13l-.447.06a2.171,2.171,0,0,1,.426,0l-.447-.06a1.848,1.848,0,0,1,.376.1l-.4-.169c.1.041.185.092.278.142.242.13-.3-.281-.094-.072.142.144.106.211-.057-.109.046.09.11.171.154.264l-.169-.4a1.6,1.6,0,0,1,.105.361l-.06-.447a1.588,1.588,0,0,1,0,.3l.06-.447a1.29,1.29,0,0,1-.067.254l.169-.4c-.027.061-.06.116-.091.174-.127.241.3-.353.074-.112-.212.224.272-.157.131-.1-.069.028-.135.075-.205.106l.4-.169a1.484,1.484,0,0,1-.313.082l.447-.06a1.358,1.358,0,0,1-.253,0l.447.06a1.156,1.156,0,0,1-.243-.067l.4.169a1.022,1.022,0,0,0-.114-.06c.036-.02.348.328.162.115-.081-.093.167.306.147.187a.886.886,0,0,0-.071-.142l.169.4a1.426,1.426,0,0,1-.066-.247q.03.224.06.447a1.58,1.58,0,0,1,0-.4l-.06.447a1.855,1.855,0,0,1,.114-.393l-.169.4c.039-.085.085-.162.132-.242.131-.224-.3.305-.091.127a1.025,1.025,0,0,1,.075-.07q.149-.13-.206.159c.1-.034.2-.119.3-.164l-.4.169a2.561,2.561,0,0,1,.577-.155l-.446.06a3.836,3.836,0,0,1,.965.017l-.447-.06c.175.027.348.061.52.1l-1.174-2.067a1.9,1.9,0,0,1-.093.317l.17-.4a1.9,1.9,0,0,1-.093.184c-.093.157-.166.1.094-.105a1.4,1.4,0,0,0-.116.118c-.211.217.332-.225.073-.068a1.681,1.681,0,0,0,1.7,2.9,3.221,3.221,0,0,0,1.51-2.053,1.71,1.71,0,0,0-1.173-2.067,5.435,5.435,0,0,0-2.715-.049,3.318,3.318,0,0,0-2.23,2.052,2.907,2.907,0,0,0,.205,2.5,2.647,2.647,0,0,0,2.91,1.152,2.945,2.945,0,0,0,2.076-1.964,3.017,3.017,0,0,0-.747-2.877,3.572,3.572,0,0,0-5.269.308,2.961,2.961,0,0,0-.741,2.774,2.265,2.265,0,0,0,3.47,1.108,9.161,9.161,0,0,0,1.093-.933c.318-.294.639-.584.952-.883a3.032,3.032,0,0,0,1.054-2.935c-.454-1.869-2.656-2.16-4.228-1.769-1.618.4-3.283,1.474-3.34,3.309-.066,2.1,2.276,3.258,4.1,2.763,1.873-.51,2.658-2.447,3.075-4.152a1.711,1.711,0,0,0-1.174-2.067,5.086,5.086,0,0,0-5.832,2.67,3.8,3.8,0,0,0-.406,1.856,3.422,3.422,0,0,0,.8,2.026,2.42,2.42,0,0,0,1.893.817A3.9,3.9,0,0,0,519.664,228c1.169-.93,2.208-2.522,1.608-4.065a1.737,1.737,0,0,0-1.62-1.233,3.79,3.79,0,0,0-4,3.926,1.776,1.776,0,0,0,.49,1.182,1.606,1.606,0,0,0,1.181.489,6.542,6.542,0,0,0,2.1-.583,4.264,4.264,0,0,0,.64-.37,4.133,4.133,0,0,0,.956-.985,4.332,4.332,0,0,0,.741-1.485,1.362,1.362,0,0,0-.4-1.553,1.622,1.622,0,0,0-1.061-.31,1.068,1.068,0,0,0-.918.527l.084-.093-.147.19a1.283,1.283,0,0,0-.088.193,1.009,1.009,0,0,0-.085.47.786.786,0,0,0,1.165.668Z" transform="translate(-511.697 -217.048)" fill="#fff"/>
          <path id="Path_5125" data-name="Path 5125" d="M550.495,234.9l-.169-.4a1.688,1.688,0,0,0-.6-.6c-.01-.008-.022-.013-.032-.02s0-.01,0-.014a1.771,1.771,0,0,0-.81-1.053,2.4,2.4,0,0,0-.64-.249,2.528,2.528,0,0,0-1.148.005,2.232,2.232,0,0,0-.637.256,1.883,1.883,0,0,0-.409.313,4.015,4.015,0,0,0-1.482,2.073l-.057.423.057.423a1.579,1.579,0,0,0,.571.827,1.57,1.57,0,0,0,.753.314,1.759,1.759,0,0,0,.653-.037,2.348,2.348,0,0,0,.6.187,1.341,1.341,0,0,0,.706-.032c.277-.047.559-.082.831-.148l.381-.093c.073-.018.146-.033.218-.053a1.8,1.8,0,0,0,1.049-.822,1.25,1.25,0,0,0,.2-.624A1.272,1.272,0,0,0,550.495,234.9Z" transform="translate(-531.91 -224.477)" fill="#fff"/>
        </g>
        <path id="Path_5126" data-name="Path 5126" d="M302.019,192.152l.488.025a.9.9,0,0,0,.272.013c-.1.033-.229-.04-.321-.058q-.252-.1.069.032a1.117,1.117,0,0,0,.571.128l.536.051c.041,0,.085.014.127.013-.09,0-.582-.08-.053-.009a3.224,3.224,0,0,0,.886-.06q1.276-.177,2.549-.377,2.863-.45,5.705-1.021a66.354,66.354,0,0,0,11.5-3.21,20.836,20.836,0,0,0,5.058-2.666,1.852,1.852,0,0,0,.772-1,1.716,1.716,0,0,0-.169-1.295,1.7,1.7,0,0,0-2.3-.6,20.2,20.2,0,0,1-4.025,2.237c.464-.213.11-.047,0,0l-.32.129q-.325.129-.654.252-.652.245-1.312.468c-.919.312-1.848.6-2.782.862a103.5,103.5,0,0,1-11.669,2.5q-1.421.23-2.845.432a3.493,3.493,0,0,0-1.013.255c-.026.012.372-.145.2-.088-.053.018-.105.041-.158.061l-.31.12a1.952,1.952,0,0,0-.77.42c.1-.107.551-.254.224-.156-.193.058-.384.119-.576.177a1.213,1.213,0,0,0,.321,2.372Z" transform="translate(-300.84 -181.857)"/>
        <path id="Path_5127" data-name="Path 5127" d="M548.2,190.383c-.327-.038.3.19.085-.008a1.3,1.3,0,0,0-.146-.1,3.31,3.31,0,0,0-.382-.237,4.719,4.719,0,0,0-1.753-.36c-.753-.042-1.5-.1-2.254-.181q-.292-.033-.583-.07c-.1-.013-.494-.021-.024,0a2.325,2.325,0,0,1-.237-.033q-.661-.095-1.32-.209-1.261-.218-2.51-.5a66.128,66.128,0,0,1-9.87-3.009c-.418-.164-.849-.317-1.255-.509.38.18.128.054.03.012l-.366-.158q-.282-.124-.563-.251-1.131-.511-2.231-1.087a1.681,1.681,0,0,0-1.7,2.9,57.356,57.356,0,0,0,9.332,3.8,60.893,60.893,0,0,0,10.652,2.4c.889.114,1.782.2,2.677.248a4.752,4.752,0,0,0,1.6-.137,2.831,2.831,0,0,0,.755-.4.966.966,0,0,0,.146-.1q.153-.087-.015-.038l.192-.038a.977.977,0,0,0,.705-1.08,1,1,0,0,0-.967-.854Z" transform="translate(-451.132 -182.957)"/>
      </g>
    </g>
  </g>
</svg>
