<svg xmlns="http://www.w3.org/2000/svg" width="16" height="16">
    <defs>
        <style>
            .cls-1{fill:#6b777e}
        </style>
    </defs>
    <g id="process_1_" data-name="process (1)">
        <path id="Path_468" data-name="Path 468" class="cls-1" d="m6.794 242.126-.691.4a3.251 3.251 0 0 0-.447-.259v-.8a.468.468 0 0 0-.468-.467H3.313a.468.468 0 0 0-.469.469v.8a4.006 4.006 0 0 0-.512.259l-.691-.4A.469.469 0 0 0 1 242.3l-.938 1.624a.469.469 0 0 0 .172.64l.682.394a2.86 2.86 0 0 0 0 .526l-.682.394a.469.469 0 0 0-.172.64L1 248.14a.47.47 0 0 0 .64.172l.691-.4a4 4 0 0 0 .512.259V249a.469.469 0 0 0 .469.469h1.876a.468.468 0 0 0 .468-.469v-.829a3.248 3.248 0 0 0 .447-.259l.691.4a.47.47 0 0 0 .64-.172l.938-1.624a.469.469 0 0 0-.172-.64l-.682-.394c.008-.087.012-.174.012-.263s0-.177-.012-.263l.682-.394a.469.469 0 0 0 .172-.64l-.937-1.622a.47.47 0 0 0-.641-.174zm-2.544 4.5a1.406 1.406 0 1 1 1.406-1.406 1.408 1.408 0 0 1-1.406 1.405z" transform="translate(0 -233.469)"/>
        <path id="Path_469" data-name="Path 469" class="cls-1" d="M.469 2.844a.469.469 0 0 0 0 .938h.516a2.388 2.388 0 0 0 .374.822l-.366.366a.469.469 0 0 0 .663.663l.367-.367a2.328 2.328 0 0 0 .822.343v.516a.469.469 0 1 0 .938 0v-.516a2.328 2.328 0 0 0 .817-.343l.367.367a.469.469 0 0 0 .663-.663l-.364-.37a2.328 2.328 0 0 0 .343-.822h.516a.469.469 0 0 0 0-.938h-.516a2.328 2.328 0 0 0-.343-.822l.367-.367a.507.507 0 0 0 0-.694.469.469 0 0 0-.663 0l-.367.4a2.328 2.328 0 0 0-.822-.343V.469a.469.469 0 0 0-.938 0v.547a2.328 2.328 0 0 0-.822.343l-.367-.4a.469.469 0 0 0-.663 0 .507.507 0 0 0 0 .694l.367.367a2.388 2.388 0 0 0-.374.822zm2.844 0a.469.469 0 1 1-.469.469.469.469 0 0 1 .469-.469z"/>
        <path id="Path_470" data-name="Path 470" class="cls-1" d="M307.125 303.813h-.547a2.328 2.328 0 0 0-.343-.822l.367-.367a.469.469 0 0 0-.663-.663l-.367.367a2.327 2.327 0 0 0-.822-.343v-.516a.469.469 0 0 0-.937 0v.516a2.327 2.327 0 0 0-.822.343l-.367-.367a.469.469 0 0 0-.663.663l.367.367a2.327 2.327 0 0 0-.343.822h-.516a.469.469 0 0 0 0 .938h.516a2.327 2.327 0 0 0 .343.822l-.367.367a.469.469 0 0 0 .663.663l.367-.367a2.328 2.328 0 0 0 .822.343v.547a.469.469 0 0 0 .938 0v-.547a2.328 2.328 0 0 0 .822-.343l.367.367a.469.469 0 0 0 .663-.663l-.367-.367a2.328 2.328 0 0 0 .343-.822h.547a.469.469 0 0 0 0-.937zm-2.844.938a.469.469 0 1 1 .469-.469.469.469 0 0 1-.469.468z" transform="translate(-291.594 -291.594)"/>
        <path id="Path_471" data-name="Path 471" class="cls-1" d="m242.14 5.547.938 1.624a.47.47 0 0 0 .64.172l.691-.4a3.249 3.249 0 0 0 .447.259V8a.468.468 0 0 0 .469.469h1.875a.468.468 0 0 0 .468-.469v-.8a3.627 3.627 0 0 0 .48-.259l.722.4a.47.47 0 0 0 .64-.172l.938-1.624a.469.469 0 0 0-.172-.64l-.682-.394c.008-.087.012-.174.012-.263s0-.177-.012-.263l.682-.394a.469.469 0 0 0 .172-.64l-.937-1.624a.47.47 0 0 0-.64-.172l-.722.4a3.627 3.627 0 0 0-.48-.259V.469A.468.468 0 0 0 247.2 0h-1.875a.468.468 0 0 0-.469.469V1.3a3.249 3.249 0 0 0-.447.259l-.691-.4a.469.469 0 0 0-.64.172l-.937 1.624a.469.469 0 0 0 .172.64l.682.394a2.86 2.86 0 0 0 0 .526l-.682.394a.469.469 0 0 0-.173.638zm4.122-2.7a1.406 1.406 0 1 1-1.406 1.406 1.408 1.408 0 0 1 1.406-1.406z" transform="translate(-234.512)"/>
    </g>
</svg>
