<svg xmlns="http://www.w3.org/2000/svg" width="19" height="20" viewBox="0 0 19 20">
    <g fill="none" fill-rule="evenodd">
        <g fill="#000" fill-rule="nonzero">
            <g>
                <path d="M9.5 0C4.262 0 0 4.262 0 9.5S4.262 19 9.5 19 19 14.738 19 9.5 14.738 0 9.5 0zm0 17.643c-4.49 0-8.143-3.653-8.143-8.143S5.01 1.357 9.5 1.357 17.643 5.01 17.643 9.5 13.99 17.643 9.5 17.643z" transform="translate(-128 -660) translate(128 660.5)"/>
                <path d="M9.5 4.976c-.375 0-.679.304-.679.679v7.69c0 .375.304.679.679.679.375 0 .679-.304.679-.679v-7.69c0-.375-.304-.679-.679-.679z" transform="translate(-128 -660) translate(128 660.5)"/>
                <path d="M13.345 8.821h-7.69c-.375 0-.679.304-.679.679 0 .375.304.679.679.679h7.69c.375 0 .679-.304.679-.679 0-.375-.304-.679-.679-.679z" transform="translate(-128 -660) translate(128 660.5)"/>
            </g>
        </g>
    </g>
</svg>
