<svg xmlns="http://www.w3.org/2000/svg" width="66" height="48" viewBox="0 0 66 48">
    <g fill="none" fill-rule="evenodd">
        <g fill="#999" fill-rule="nonzero">
            <g>
                <path d="M28 21c3.314 0 6-2.686 6-6s-2.686-6-6-6-6 2.686-6 6c.004 3.312 2.688 5.996 6 6zm0-9.777c1.528 0 2.905.92 3.49 2.332.584 1.411.26 3.036-.82 4.116-1.08 1.08-2.704 1.403-4.115.818-1.412-.584-2.332-1.961-2.332-3.489.002-2.085 1.692-3.775 3.777-3.777zM58.891 34.535H54.04V30.03c0-.569-.497-1.03-1.11-1.03-.612 0-1.108.461-1.108 1.03v4.505h-4.713c-.613 0-1.109.46-1.109 1.03 0 .568.496 1.03 1.109 1.03h4.713v4.375c0 .569.496 1.03 1.109 1.03.612 0 1.109-.461 1.109-1.03v-4.376h4.851c.613 0 1.109-.461 1.109-1.03 0-.568-.496-1.03-1.109-1.03z" transform="translate(-186 -698) translate(186 698)"/>
                <path d="M61.58 26.232V6.287C61.58 2.8 58.694 0 55.19 0H6.323C4.646-.005 3.035.656 1.848 1.836.661 3.016-.004 4.618 0 6.286V38.05c0 3.487 2.819 6.346 6.324 6.346h38.522c3.546 3.521 8.874 4.573 13.503 2.666 4.629-1.908 7.648-6.4 7.651-11.384 0-3.786-1.771-7.184-4.42-9.445zM6.324 2.108h48.865c2.337 0 4.272 1.854 4.272 4.179v18.519c-1.797-.957-3.804-1.456-5.843-1.452-.462 0-.925.026-1.385.077l-8.875-6.251c-.42-.295-.991-.25-1.358.108L30.04 28.982l-13.902-6.74c-.312-.154-.68-.14-.98.036L2.119 29.809V6.287c-.005-1.11.437-2.177 1.227-2.962.79-.785 1.862-1.223 2.978-1.217zm-4.205 35.94v-5.802l13.613-7.863 12.71 6.177-11.99 11.727H6.324c-2.337-.016-4.22-1.913-4.205-4.238zm17.356 4.239L42.85 19.42l6.607 4.65c-4.936 1.754-8.232 6.402-8.238 11.616 0 2.423.707 4.625 1.927 6.601H19.475zM53.6 45.88c-4.151 0-7.893-2.488-9.482-6.303-1.588-3.815-.71-8.206 2.225-11.126 2.936-2.92 7.35-3.793 11.185-2.213 3.835 1.58 6.336 5.304 6.336 9.433-.007 5.636-4.598 10.203-10.264 10.209z" transform="translate(-186 -698) translate(186 698)"/>
            </g>
        </g>
    </g>
</svg>
