<svg xmlns="http://www.w3.org/2000/svg" width="98" height="87" viewBox="0 0 98 87">
    <g fill="none" fill-rule="evenodd">
        <path fill="#B5B5B5" fill-rule="nonzero" d="M87.226 47.637l-.01-.016-9.233-11.503c-.103-.13-.22-.24-.345-.34a2.152 2.152 0 0 0-1.65-.778H15.012a2.15 2.15 0 0 0-1.65.778c-.124.1-.242.21-.346.34L3.784 47.62l-.01.016c-.47.398-.774.985-.774 1.648v35.548C3 86.03 3.97 87 5.165 87h80.67C87.03 87 88 86.03 88 84.833V49.285c0-.663-.304-1.25-.774-1.648zm-9.072-4.386l3.104 3.867h-3.104V43.25zm-4.33-3.917v7.784H57.608c-.462 0-.911.148-1.284.422l-10.824 7.972-10.826-7.973a2.172 2.172 0 0 0-1.284-.421H17.177v-7.784h56.646zm-60.977 7.784H9.742l3.105-3.867v3.867zM83.67 82.666H7.33V51.452h25.35l11.538 8.497c.763.56 1.803.562 2.567-.001l11.534-8.496h25.35v31.214z"/>
        <path stroke="#DFDFDF" stroke-linecap="square" stroke-width="2" d="M16.5 19.5l-15-17M81.5 19.5l15-17M45.5 15.5v-14"/>
    </g>
</svg>
