<svg xmlns="http://www.w3.org/2000/svg" width="18" height="18" viewBox="0 0 18 18">
    <defs>
        <filter id="nki0h15h7a" color-interpolation-filters="auto">
            <feColorMatrix in="SourceGraphic" values="0 0 0 0 1.000000 0 0 0 0 1.000000 0 0 0 0 1.000000 0 0 0 1.000000 0"/>
        </filter>
    </defs>
    <g fill="none" fill-rule="evenodd">
        <g filter="url(#nki0h15h7a)" transform="translate(-128.000000, -764.000000)">
            <g fill="#030104" fill-rule="nonzero">
                <path d="M13.48 3.799c.7 0 1.267-.555 1.267-1.246V1.249C14.747.557 14.181 0 13.481 0c-.7 0-1.266.556-1.266 1.249v1.304c0 .69.566 1.246 1.266 1.246z" transform="translate(128.000000, 764.000000)"/>
                <path d="M17.98 2.16h-2.55v.634c0 1.048-.863 1.902-1.927 1.902-1.066 0-1.928-.854-1.928-1.902V2.16H6.43v.634c0 1.048-.865 1.902-1.929 1.902s-1.928-.853-1.928-1.902V2.16L0 2.128V18h16.715L18 17.996 17.98 2.16zm-1.266 14.576H1.287V6.596h15.428v10.14h-.001z" transform="translate(128.000000, 764.000000)"/>
                <path d="M4.481 3.799c.7 0 1.267-.555 1.267-1.246V1.249C5.748.556 5.181 0 4.481 0S3.216.556 3.216 1.249v1.304c0 .69.565 1.246 1.265 1.246zM6.434 7.957H8.46V9.719999999999999H6.434zM9.71 7.957H11.738000000000001V9.719999999999999H9.71zM12.748 7.957H14.774V9.719999999999999H12.748zM6.434 10.884H8.46V12.646H6.434zM9.71 10.884H11.738000000000001V12.646H9.71zM12.748 10.884H14.774V12.646H12.748zM6.434 13.87H8.46V15.632H6.434zM3.216 10.884H5.241V12.646H3.216zM3.216 13.87H5.241V15.632H3.216zM9.71 13.87H11.738000000000001V15.632H9.71zM12.748 13.87H14.774V15.632H12.748z" transform="translate(128.000000, 764.000000)"/>
            </g>
        </g>
    </g>
</svg>
