<svg xmlns="http://www.w3.org/2000/svg" width="79.999" height="80">
    <defs>
        <style>
            .cls-2{fill:#223948}.cls-3{fill:#fbfbfb}
        </style>
    </defs>
    <g id="Group_2038" data-name="Group 2038" transform="translate(-504 -432.004)">
        <path id="Path_667" data-name="Path 667" d="M149.359 271.733c-2.131 0-4.757.752-6.243-.227-1.3-.852-1.65-3.629-1.81-5.605-.324-4-3.593-4.676-6.211-6.174-.718-.411-1.212.073-1.737.352-1.947 1.035-3.9 2.068-5.8 3.185a1.818 1.818 0 0 1-2.651-.26c-2.394-2.517-4.874-4.954-7.363-7.379a1.44 1.44 0 0 1-.315-2.056c1.021-1.767 1.946-3.59 2.891-5.4 1.249-2.393-.721-7.171-3.309-7.942-2.038-.606-4.1-1.116-6.156-1.674-1.124-.306-1.866-.713-1.792-2.215.163-3.316.1-6.647.024-9.969-.026-1.14.292-1.749 1.436-1.99a20.655 20.655 0 0 1 3.418-.9c4.185-.117 5.821-2.966 7.277-6.24a1.851 1.851 0 0 0-.28-1.917 138.266 138.266 0 0 0-3.211-5.8 1.694 1.694 0 0 1 .314-2.459c2.455-2.342 4.837-4.763 7.191-7.206a1.691 1.691 0 0 1 2.431-.308c1.9 1.126 3.882 2.1 5.774 3.235.918.55 1.653.265 2.613.113 5.364-.851 5.434-5.4 6.492-9.154.418-1.481 1.014-1.766 2.363-1.733 3.321.082 6.647.064 9.969 0 1.04-.019 1.592.247 1.807 1.331a25.69 25.69 0 0 1 .92 3.174c.238 3.989 2.842 5.548 6.206 6.557a2.472 2.472 0 0 0 2-.3 24.119 24.119 0 0 0 4.34-2.349c2.081-1.646 3.507-1.423 5.184.647a60.437 60.437 0 0 0 5.838 5.853c.9.84 1.137 1.541.4 2.622-.658.966-.9 2.277-1.7 3.078-2.809 2.842-1.619 5.671-.258 8.569a2.04 2.04 0 0 0 1.512 1.284c2.061.5 4.052 1.287 6.113 1.789 1.263.307 1.862.764 1.814 2.2-.11 3.32-.03 6.646-.038 9.97 0 .759.184 1.54-.925 1.86-4.447 1.284-8.777 3.082-13.61 1.726-1.365-.383-1.4-.913-1.1-1.938a24.54 24.54 0 0 0-25.937-31.2c-17.314 1.552-27.632 19.951-19.973 35.156 5.566 11.049 15.692 15.691 28.006 13.287 1.211-.237 1.3.258 1.766 1.141 2.624 4.963.715 9.623-.68 14.353-.258.874-.736 1.047-1.545 1.026-1.819-.047-3.64-.015-5.459-.015z" transform="translate(395.14 239.995)" style="fill:#bcbcbc"/>
        <path id="Path_668" data-name="Path 668" class="cls-2" d="M189.759 277.69a35.673 35.673 0 0 0-3.731-4.161 2.3 2.3 0 0 0-2.569-.555c-4.317.952-8.488.763-12.175-2.016a12.764 12.764 0 0 1-5.153-13.313c.992-5.128 4.262-8.6 9.385-10.213a13.334 13.334 0 0 1 16.474 16.9 1.571 1.571 0 0 0 .378 1.9c1.4 1.266 2.427 2.9 4.03 3.957 1.491.82 1.528 1.837.419 3.021-1.453 1.551-3 3-4.6 4.4-.734.654-1.61 1.071-2.458.08z" transform="translate(365.23 211.221)"/>
        <path id="Path_669" data-name="Path 669" class="cls-2" d="M226.4 299.032a4.976 4.976 0 0 1 4.719-.491c2.7.864 5.43 1.64 8.187 2.284a4.441 4.441 0 0 1 3.557 3.348c.906 3.247 1.792 6.5 2.578 9.778.163.678.437 1.7-.4 2.15-.925.494-1.373-.483-1.9-1-2.529-2.464-5.085-4.9-7.532-7.448-1.025-1.066-1.682-1.354-2.818-.077a74.207 74.207 0 0 1-5.68 5.625c-1.2 1.082-1.05 1.847.023 2.876 2.621 2.513 5.177 5.093 7.736 7.669.422.425 1.186.792.971 1.493-.231.754-1.1.6-1.646.531A38.567 38.567 0 0 1 222 322.491a2.656 2.656 0 0 1-1.373-1.8c-.794-3.038-1.8-6.02-2.6-9.057a5.9 5.9 0 0 1 .887-5.409 6.559 6.559 0 0 1 3.9-3.843c1.358.182 2.652.46 2.974 2.107a1.906 1.906 0 0 1-.827 1.07c-.525.443-1.322.581-1.538 1.374.514 1.1.716 2.6 2.554 1.864a2.736 2.736 0 0 1 .409-.49 18.592 18.592 0 0 1 1.95-1.106c.96-.4 1.807-.831.587-1.9-1.008-.583-1.761-1.578-2.981-1.817-.882-.33-1.929-.483-1.881-1.789.128-1.459 1.262-2.036 2.339-2.663z" transform="translate(337.984 184.28)"/>
        <path id="Path_697" data-name="Path 697" class="cls-3" d="M175.69 269.626c.078-1.172.04-2.063-1.544-2.288-1.169-.166-1.456-1.136-.393-2 1.158-.944 1.237-1.8.033-2.771-1.122-.9-.734-1.731.433-1.981 1.6-.341 1.754-1.106 1.432-2.531-.291-1.288.165-2.154 1.775-1.45 1.133.5 1.74-.054 2.044-1.165.414-1.512 1.221-2.017 2.366-.633.807.974 1.592.983 2.361.137 1.268-1.4 1.983-1.039 2.454.612.308 1.078.948 1.6 2.084 1.055 1.553-.745 2 .191 1.792 1.4-.249 1.432-.383 2.32 1.552 2.473a1.04 1.04 0 0 1 .388 2.008c-1.5.929-1.168 1.81-.217 2.746 1.19 1.171.93 1.862-.617 2.141a1.378 1.378 0 0 0-1.218 1.869c.421 1.822.341 2.842-1.968 1.923-.929-.37-1.595.118-1.738 1.288-.235 1.909-1.19 2.032-2.411.709-.869-.942-1.588-1.137-2.46.009-1.092 1.435-2.06.967-2.327-.531-.252-1.411-.87-1.8-2.069-1.354-1.852.685-1.897-.367-1.752-1.666z" transform="translate(361.423 207.465)"/>
        <path id="Path_698" data-name="Path 698" class="cls-2" d="M228.13 306.293q.9-.793 1.79-1.587c-.054 1.527 1 1.647 2.129 1.681.7.883.779 2.694 2.675 1.787 1.276.213 1.045 1.193.923 2-.17 1.11-1.145.784-1.867.878a2.747 2.747 0 0 1-2.841-2.86c-.246-1.658-1.539-1.764-2.809-1.899z" transform="translate(332.534 180.848)"/>
        <path id="Path_699" data-name="Path 699" class="cls-3" d="M231.847 318.361c.048.823-.334 1.713-1.113 1.115-1.143-.876-2.783-1.605-2.6-3.536 2.31-.84 2.775 1.153 3.713 2.421z" transform="translate(332.54 175.058)"/>
        <path id="Path_700" data-name="Path 700" class="cls-3" d="m232.823 312.037 2.841 2.86c-.267.943-.972 1-1.769.877-1.1-.826-2.514-1.449-2.1-3.252.216-.43.614-.475 1.028-.485z" transform="translate(330.649 177.001)"/>
        <path id="Path_701" data-name="Path 701" class="cls-3" d="M238.864 310.031c-.057.588.832 1.193.2 1.683-.855.657-1.16-.438-1.624-.811-.815-.654-1.827-1.312-1.246-2.659 1.137.222 1.682 1.337 2.67 1.787z" transform="translate(328.393 178.992)"/>
        <path id="Path_702" data-name="Path 702" class="cls-2" d="M229.918 313.058c.155 1.435 1.937 1.821 2.1 3.252-.051.214-.1.428-.156.643-1.514-.385-1.854-2.569-3.715-2.421-.028-1.232 1.195-.966 1.771-1.474z" transform="translate(332.525 176.465)"/>
    </g>
</svg>
