<svg xmlns="http://www.w3.org/2000/svg" width="13.333" height="16">
    <path data-name="1608662_database_icon" d="M134.667 6.857a18.3 18.3 0 0 0 3.845-.384 7.455 7.455 0 0 0 2.821-1.134v1.518q0 .616-.894 1.143a7.913 7.913 0 0 1-2.431.835 17.013 17.013 0 0 1-3.342.308 17.013 17.013 0 0 1-3.342-.308 7.913 7.913 0 0 1-2.43-.835Q128 7.473 128 6.857V5.339a7.455 7.455 0 0 0 2.821 1.134 18.3 18.3 0 0 0 3.846.384zm0 6.857a18.3 18.3 0 0 0 3.845-.384 7.455 7.455 0 0 0 2.821-1.134v1.518q0 .616-.894 1.143a7.913 7.913 0 0 1-2.431.835 17.013 17.013 0 0 1-3.342.308 17.013 17.013 0 0 1-3.342-.308 7.913 7.913 0 0 1-2.431-.835Q128 14.33 128 13.714V12.2a7.455 7.455 0 0 0 2.821 1.134 18.3 18.3 0 0 0 3.846.38zm0-3.429a18.3 18.3 0 0 0 3.845-.384 7.455 7.455 0 0 0 2.821-1.134v1.518q0 .616-.894 1.143a7.913 7.913 0 0 1-2.431.835 17.013 17.013 0 0 1-3.342.308 17.013 17.013 0 0 1-3.342-.308 7.913 7.913 0 0 1-2.431-.835Q128 10.9 128 10.286V8.768a7.455 7.455 0 0 0 2.821 1.132 18.3 18.3 0 0 0 3.846.386zm0-10.286a17.013 17.013 0 0 1 3.342.308 7.913 7.913 0 0 1 2.431.835q.894.527.894 1.143v1.144q0 .616-.894 1.143a7.913 7.913 0 0 1-2.431.835 17.013 17.013 0 0 1-3.342.308 17.013 17.013 0 0 1-3.342-.308 7.913 7.913 0 0 1-2.431-.835Q128 4.045 128 3.429V2.286q0-.616.894-1.143a7.913 7.913 0 0 1 2.431-.835A17.013 17.013 0 0 1 134.667 0z" transform="translate(-128)" style="fill:#6b777e"/>
</svg>
