<svg xmlns="http://www.w3.org/2000/svg" width="14" height="18" viewBox="0 0 14 18">
    <g fill="#000" fill-rule="nonzero">
        <path d="M9.296 6.188a.4.4 0 0 0-.4.4v7.56a.4.4 0 0 0 .8 0v-7.56a.4.4 0 0 0-.4-.4zM4.576 6.188a.4.4 0 0 0-.4.4v7.56a.4.4 0 0 0 .8 0v-7.56a.4.4 0 0 0-.4-.4z"/>
        <path d="M1.136 5.085v9.855c0 .583.214 1.13.587 1.522a1.97 1.97 0 0 0 1.429.618h7.568a1.97 1.97 0 0 0 1.43-.618c.372-.392.586-.94.586-1.522V5.085a1.528 1.528 0 0 0-.392-3.005h-2.048v-.5A1.572 1.572 0 0 0 8.712 0H5.16a1.572 1.572 0 0 0-1.584 1.58v.5H1.528a1.528 1.528 0 0 0-.392 3.005zM10.72 16.28H3.152c-.684 0-1.216-.588-1.216-1.34V5.12h10v9.82c0 .753-.532 1.34-1.216 1.34zM4.376 1.58A.77.77 0 0 1 5.16.8h3.552a.77.77 0 0 1 .784.78v.5h-5.12v-.5zm-2.848 1.3h10.816a.72.72 0 1 1 0 1.44H1.528a.72.72 0 1 1 0-1.44z"/>
        <path d="M6.936 6.188a.4.4 0 0 0-.4.4v7.56a.4.4 0 0 0 .8 0v-7.56a.4.4 0 0 0-.4-.4z"/>
    </g>
</svg>
