<svg width="27" height="24" viewBox="0 0 27 24" xmlns="http://www.w3.org/2000/svg">
    <path d="M26.462 20.727v-4.363c0-.603-.494-1.091-1.103-1.091s-1.103.488-1.103 1.09v4.364c0 .603-.493 1.091-1.102 1.091H3.308a1.097 1.097 0 0 1-1.103-1.09v-4.364c0-.603-.494-1.091-1.102-1.091-.61 0-1.103.488-1.103 1.09v4.364C0 22.535 1.48 24 3.308 24h19.846c1.827 0 3.308-1.465 3.308-3.273zm-7.035-5.694-5.513 4.363c-.4.314-.966.314-1.367 0l-5.513-4.363a1.083 1.083 0 0 1-.106-1.472 1.11 1.11 0 0 1 1.474-.23l3.726 2.945V1.091c0-.603.494-1.091 1.103-1.091s1.102.488 1.102 1.09v15.186l3.727-2.945c.303-.283.74-.373 1.132-.233a1.087 1.087 0 0 1 .235 1.934z" fill="#000" fill-rule="nonzero"/>
</svg>
