<svg xmlns="http://www.w3.org/2000/svg" width="10" height="10" viewBox="0 0 10 10">
    <g fill="none" fill-rule="evenodd">
        <g fill="#000" fill-rule="nonzero">
            <g>
                <path d="M9.623 0H6.897c-.208 0-.377.169-.377.377s.169.377.377.377h2.35v2.349c0 .208.168.377.376.377S10 3.31 10 3.103V.377C10 .169 9.831 0 9.623 0z" transform="translate(-1261.000000, -334.000000) translate(1261.000000, 334.000000)"/>
                <path d="M9.89.11c-.148-.147-.386-.147-.533 0L3.98 5.487c-.147.147-.147.386 0 .533.073.074.17.11.266.11.097 0 .193-.036.267-.11L9.89.643c.147-.147.147-.385 0-.533z" transform="translate(-1261.000000, -334.000000) translate(1261.000000, 334.000000)"/>
                <path d="M8.342 4.686c-.208 0-.377.169-.377.377v4.183H.754v-7.21h4.183c.208 0 .377-.17.377-.378s-.169-.377-.377-.377H.377c-.208 0-.377.17-.377.377v7.965c0 .208.169.377.377.377h7.965c.208 0 .377-.169.377-.377v-4.56c0-.208-.17-.377-.377-.377z" transform="translate(-1261.000000, -334.000000) translate(1261.000000, 334.000000)"/>
            </g>
        </g>
    </g>
</svg>
