<svg width="9" height="9" viewBox="0 0 9 9" xmlns="http://www.w3.org/2000/svg">
    <g fill-rule="nonzero" fill="none">
        <path d="M8.736 8.497h-.28V3.852A.258.258 0 0 0 8.19 3.6H6.434a.258.258 0 0 0-.264.252v4.645h-.527V5.193a.258.258 0 0 0-.264-.251H3.62a.258.258 0 0 0-.264.251v3.304H2.83V6.535a.258.258 0 0 0-.264-.252H.81a.258.258 0 0 0-.264.252v1.962H.264A.258.258 0 0 0 0 8.748C0 8.888.118 9 .264 9h8.472A.258.258 0 0 0 9 8.748a.258.258 0 0 0-.264-.251z" fill="#727D84"/>
        <circle fill="#239323" cx="1.8" cy="3.6" r="1"/>
        <circle fill="#239323" cx="4.5" cy="1.8" r="1"/>
        <path d="M1.108 5.4h1.384c.115 0 .208-.084.208-.188v-.25a.651.651 0 0 0-.197-.462 1.017 1.017 0 0 1-.703.274c-.277 0-.526-.105-.703-.274a.651.651 0 0 0-.197.462v.25c0 .104.093.188.208.188zM3.808 3.6h1.384c.115 0 .208-.084.208-.188v-.25a.651.651 0 0 0-.197-.462 1.017 1.017 0 0 1-.703.274c-.277 0-.526-.105-.703-.274a.651.651 0 0 0-.197.462v.25c0 .104.093.188.208.188zM6.508 2.7h1.384c.115 0 .208-.084.208-.188v-.25a.651.651 0 0 0-.197-.462 1.017 1.017 0 0 1-.703.274c-.277 0-.526-.105-.703-.274a.651.651 0 0 0-.197.462v.25c0 .104.093.188.208.188z" fill="#239323"/>
        <circle fill="#239323" cx="7.2" cy=".9" r="1"/>
    </g>
</svg>
