<svg xmlns="http://www.w3.org/2000/svg" width="15.999" height="16">
    <path data-name="Icon ionic-ios-person" d="M20.492 20.1c-.3-1.325-2.012-1.971-2.6-2.179a19.415 19.415 0 0 0-2.171-.417 2.206 2.206 0 0 1-1-.462 8.776 8.776 0 0 1-.067-2.054 6.18 6.18 0 0 0 .475-.9 11.662 11.662 0 0 0 .35-1.579s.342 0 .462-.6a5.9 5.9 0 0 0 .308-1.4c-.025-.479-.288-.467-.288-.467a7.305 7.305 0 0 0 .277-2.142A3.433 3.433 0 0 0 12.5 4.5a3.418 3.418 0 0 0-3.733 3.4 7.62 7.62 0 0 0 .279 2.138s-.262-.012-.288.467a5.9 5.9 0 0 0 .308 1.4c.117.6.462.6.462.6a11.663 11.663 0 0 0 .35 1.579 6.18 6.18 0 0 0 .475.9 8.776 8.776 0 0 1-.067 2.054 2.206 2.206 0 0 1-1 .462 19.415 19.415 0 0 0-2.171.417c-.592.208-2.3.854-2.6 2.179a.333.333 0 0 0 .329.4h15.323a.332.332 0 0 0 .325-.396z" transform="translate(-4.501 -4.5)" style="fill:#223948"/>
</svg>
