<svg xmlns="http://www.w3.org/2000/svg" width="15" height="13" viewBox="0 0 15 13">
    <path data-name="Icon awesome-file-export" d="M10 3.1a.6.6 0 0 0-.182-.429L7.269.178A.633.633 0 0 0 6.826 0h-.159v3.25H10zm4.87 4.725-2.491-2.452a.419.419 0 0 0-.714.287v1.652H10v1.626h1.667v1.655a.419.419 0 0 0 .714.287l2.492-2.45a.425.425 0 0 0-.002-.61zM5 8.531v-.812a.413.413 0 0 1 .417-.406H10v-3.25H6.459a.619.619 0 0 1-.625-.609V0H.625A.616.616 0 0 0 0 .609v11.782A.616.616 0 0 0 .625 13h8.751a.616.616 0 0 0 .624-.609V8.938H5.417A.413.413 0 0 1 5 8.531z" style="fill:#3585ed"/>
</svg>
