<svg width="20" height="20" viewBox="0 0 20 20" xmlns="http://www.w3.org/2000/svg">
    <defs>
        <filter color-interpolation-filters="auto" id="qc5076xuxa">
            <feColorMatrix in="SourceGraphic" values="0 0 0 0 0.207843 0 0 0 0 0.521569 0 0 0 0 0.929412 0 0 0 1.000000 0"/>
        </filter>
    </defs>
    <g transform="translate(-1080 -426)" filter="url(#qc5076xuxa)" fill="none" fill-rule="evenodd">
        <path d="M1080 426h20v20h-20z"/>
        <path d="m1090.625 431 4.375 4.375 2.058-2.058a.625.625 0 0 0 0-.884l-3.491-3.491a.625.625 0 0 0-.884 0l-2.058 2.058z" fill="#FFF" fill-rule="nonzero" opacity=".2"/>
        <path stroke="#FFF" stroke-width="1.5" stroke-linecap="round" stroke-linejoin="round" d="m1090.625 431 4.375 4.375M1087.5 442.875h-3.75a.625.625 0 0 1-.625-.625v-3.491c0-.166.066-.325.183-.442l9.375-9.375a.625.625 0 0 1 .884 0l3.491 3.491a.625.625 0 0 1 0 .884l-9.558 9.558z"/>
    </g>
</svg>
