<svg id="_2205223_adjust_customize_panel_refine_tune_icon_1_" data-name="2205223_adjust_customize_panel_refine_tune_icon (1)" xmlns="http://www.w3.org/2000/svg" width="16" height="16">
    <defs>
        <style>
            .cls-1{fill:#6b777e}
        </style>
    </defs>
    <path id="Path_472" data-name="Path 472" class="cls-1" d="M7.5 0a2.5 2.5 0 0 0-2.45 2H0v1h5.05a2.5 2.5 0 0 0 4.9 0H16V2H9.95A2.5 2.5 0 0 0 7.5 0z"/>
    <path id="Path_473" data-name="Path 473" class="cls-1" d="M12.5 6a2.5 2.5 0 0 0-2.45 2H0v1h10.05a2.5 2.5 0 0 0 4.9 0H16V8h-1.05a2.5 2.5 0 0 0-2.45-2z"/>
    <path id="Path_474" data-name="Path 474" class="cls-1" d="M5.5 11a2.5 2.5 0 0 0-2.45 2H0v1h3.05a2.5 2.5 0 0 0 4.9 0H16v-1H7.95a2.5 2.5 0 0 0-2.45-2z"/>
</svg>
