<svg xmlns="http://www.w3.org/2000/svg" width="14" height="16">
    <defs>
        <style>
            .cls-1{fill:#6b777e}
        </style>
    </defs>
    <g id="_2205218_folder_document_file_organize_icon" data-name="2205218_folder_document_file_organize_icon" transform="translate(-1)">
        <path id="Path_475" data-name="Path 475" class="cls-1" d="M5 0H1v16h4zM4 14H2v-1h2zm0-2H2v-1h2zm0-2H2V9h2zM3 3a1 1 0 1 1 1-1 1 1 0 0 1-1 1z"/>
        <path id="Path_476" data-name="Path 476" class="cls-1" d="M6 16h4V0H6zM8 1a1 1 0 1 1-1 1 1 1 0 0 1 1-1zM7 9h2v1H7zm0 2h2v1H7zm0 2h2v1H7z"/>
        <path id="Path_477" data-name="Path 477" class="cls-1" d="M15 0h-4v16h4zm-1 14h-2v-1h2zm0-2h-2v-1h2zm0-2h-2V9h2zm-1-7a1 1 0 1 1 1-1 1 1 0 0 1-1 1z"/>
    </g>
</svg>
