<svg xmlns="http://www.w3.org/2000/svg" width="16" height="16">
    <defs>
        <clipPath id="a">
            <path d="M7.068 15.947a.444.444 0 0 1-.392-.467 1.774 1.774 0 0 0-1.083-1.736 1.84 1.84 0 0 0-1.994.448.445.445 0 0 1-.609.048 7.951 7.951 0 0 1-1.265-1.28.444.444 0 0 1 .048-.6 1.78 1.78 0 0 0 .448-1.978 1.756 1.756 0 0 0-1.646-1.1.529.529 0 0 1-.525-.394 7.984 7.984 0 0 1 0-1.819.435.435 0 0 1 .462-.393A1.85 1.85 0 0 0 2.257 5.6a1.775 1.775 0 0 0-.448-2 .444.444 0 0 1-.047-.608 7.96 7.96 0 0 1 1.294-1.28.445.445 0 0 1 .6.051 1.85 1.85 0 0 0 1.98.451A1.781 1.781 0 0 0 6.735.507a.445.445 0 0 1 .4-.458 7.973 7.973 0 0 1 1.8 0 .443.443 0 0 1 .389.471A1.777 1.777 0 0 0 10.4 2.257a1.844 1.844 0 0 0 2-.448.444.444 0 0 1 .608-.049 7.938 7.938 0 0 1 1.268 1.28.446.446 0 0 1-.049.6 1.766 1.766 0 0 0 1.209 3.074.52.52 0 0 1 .514.394 7.99 7.99 0 0 1 0 1.819.445.445 0 0 1-.468.393h-.1a1.766 1.766 0 0 0-1.188 3.08.444.444 0 0 1 .047.608 7.931 7.931 0 0 1-1.294 1.28.446.446 0 0 1-.6-.05 1.847 1.847 0 0 0-1.982-.451 1.779 1.779 0 0 0-1.094 1.706.445.445 0 0 1-.4.458 7.958 7.958 0 0 1-1.8 0z" style="fill:#223948"/>
        </clipPath>
    </defs>
    <g data-name="Mask Group 6" style="clip-path:url(#a)">
        <path data-name="repairing-service" d="M15.663 6.817a.529.529 0 0 1 .522.4 8.1 8.1 0 0 1 0 1.846.452.452 0 0 1-.475.4h-.1a1.817 1.817 0 0 0-1.661 1.1 1.8 1.8 0 0 0 .455 2.025.451.451 0 0 1 .048.617 8.078 8.078 0 0 1-1.313 1.3.453.453 0 0 1-.613-.051 1.874 1.874 0 0 0-2.01-.457A1.8 1.8 0 0 0 9.4 15.722a.452.452 0 0 1-.4.465 8.08 8.08 0 0 1-1.826 0 .451.451 0 0 1-.4-.474 1.8 1.8 0 0 0-1.1-1.762 1.868 1.868 0 0 0-2.024.455.451.451 0 0 1-.618.049 8.064 8.064 0 0 1-1.284-1.3.451.451 0 0 1 .049-.611 1.806 1.806 0 0 0 .454-2.008A1.781 1.781 0 0 0 .583 9.419a.537.537 0 0 1-.532-.4 8.137 8.137 0 0 1 0-1.846.442.442 0 0 1 .469-.4 1.876 1.876 0 0 0 1.766-1.1 1.8 1.8 0 0 0-.454-2.026.452.452 0 0 1-.048-.617A8.07 8.07 0 0 1 3.1 1.737a.452.452 0 0 1 .613.051 1.876 1.876 0 0 0 2.01.458A1.806 1.806 0 0 0 6.834.514a.452.452 0 0 1 .4-.465 8.1 8.1 0 0 1 1.826 0 .45.45 0 0 1 .4.474 1.8 1.8 0 0 0 1.1 1.762 1.871 1.871 0 0 0 2.025-.455.452.452 0 0 1 .617-.05 8.037 8.037 0 0 1 1.286 1.3.451.451 0 0 1-.05.612 1.792 1.792 0 0 0 1.227 3.12zM3.438 8.118a4.679 4.679 0 0 0 7.2 3.944L8.565 9.99a2.87 2.87 0 0 1-3.89-3.39.321.321 0 0 1 .3-.244.33.33 0 0 1 .236.105s.972.965 1.324 1.317a.216.216 0 0 0 .156.066H6.727a6.38 6.38 0 0 0 1.006-.156l.006-.007.016-.016.011-.011.01-.01a6.467 6.467 0 0 0 .154-.991v-.022a.21.21 0 0 0-.03-.151c-.339-.338-1.35-1.358-1.35-1.358a.317.317 0 0 1-.09-.31.325.325 0 0 1 .225-.226 2.88 2.88 0 0 1 .757-.1 2.871 2.871 0 0 1 2.642 3.989l2.049 2.049a4.68 4.68 0 1 0-8.7-2.4z" style="fill-rule:evenodd;fill:#223948"/>
    </g>
</svg>
