<svg xmlns="http://www.w3.org/2000/svg" width="13" height="13">
    <defs>
        <style>
            .cls-1{fill:#6b777e}
        </style>
    </defs>
    <g id="Group_1920" data-name="Group 1920" transform="translate(19766 3018)">
        <g id="Group_1891" data-name="Group 1891" transform="translate(-19763.998 -3015.998)">
            <g id="Group_1890" data-name="Group 1890">
                <circle id="Ellipse_37" data-name="Ellipse 37" class="cls-1" cx="4.5" cy="4.5" r="4.5" transform="translate(-.002 -.002)"/>
            </g>
        </g>
        <g id="Group_1915" data-name="Group 1915" transform="translate(-19766 -3018)">
            <g id="Group_1914" data-name="Group 1914">
                <path id="Path_497" data-name="Path 497" class="cls-1" d="M31.5 17.5h-.65a5.434 5.434 0 0 0-.925-2.01l.525-.525a.5.5 0 0 0 0-.71l-.7-.7a.5.5 0 0 0-.71 0l-.57.57a5.483 5.483 0 0 0-1.965-.775v-.85A.5.5 0 0 0 26 12h-1a.5.5 0 0 0-.5.5v.845a5.483 5.483 0 0 0-1.965.775l-.57-.57a.5.5 0 0 0-.71 0l-.7.7a.5.5 0 0 0 0 .71l.525.525a5.435 5.435 0 0 0-.925 2.01H19.5a.5.5 0 0 0-.5.5v1a.5.5 0 0 0 .5.5h.555a5.454 5.454 0 0 0 .815 2.215l-.32.32a.5.5 0 0 0 0 .71l.7.7a.5.5 0 0 0 .71 0l.275-.275a5.472 5.472 0 0 0 2.26.98v.355a.5.5 0 0 0 .5.5h1a.5.5 0 0 0 .5-.5v-.345a5.472 5.472 0 0 0 2.26-.98l.275.275a.5.5 0 0 0 .71 0l.7-.7a.5.5 0 0 0 0-.71l-.32-.32a5.454 5.454 0 0 0 .815-2.215h.565A.5.5 0 0 0 32 19v-1a.5.5 0 0 0-.5-.5zm-2.25 1.25A3.75 3.75 0 1 1 25.5 15a3.751 3.751 0 0 1 3.75 3.75z" transform="translate(-19 -12)"/>
            </g>
        </g>
        <g id="Group_1919" data-name="Group 1919" transform="translate(-19763.75 -3015.5)">
            <g id="Group_1918" data-name="Group 1918">
                <path id="Path_499" data-name="Path 499" d="M27.75 17A4.25 4.25 0 1 0 32 21.25 4.255 4.255 0 0 0 27.75 17zm3.207 3.75h-1.221a7.46 7.46 0 0 0-.478-2.377 3.254 3.254 0 0 1 1.699 2.377zM27.75 24.5c-.275 0-.88-.941-.979-2.75h1.959c-.1 1.809-.706 2.75-.98 2.75zm-.979-3.75c.1-1.809.7-2.75.979-2.75s.88.941.979 2.75zm-.528-2.377a7.473 7.473 0 0 0-.478 2.377h-1.223a3.256 3.256 0 0 1 1.7-2.377zm-1.7 3.377h1.222a7.457 7.457 0 0 0 .478 2.376 3.254 3.254 0 0 1-1.701-2.376zm4.715 2.376a7.473 7.473 0 0 0 .478-2.376h1.222a3.256 3.256 0 0 1-1.7 2.376z" transform="translate(-23.5 -17)" style="fill:#f0f0f0"/>
            </g>
        </g>
    </g>
</svg>
