<svg xmlns="http://www.w3.org/2000/svg" width="18" height="18" viewBox="0 0 18 18">
    <g fill="#000" fill-rule="nonzero">
        <path d="M9 0C4.037 0 0 4.037 0 9s4.037 9 9 9 9-4.037 9-9-4.037-9-9-9zm0 17.4C4.368 17.4.6 13.632.6 9 .6 4.368 4.368.6 9 .6c4.632 0 8.4 3.768 8.4 8.4 0 4.632-3.768 8.4-8.4 8.4z"/>
        <path d="M9.143 1.714a.291.291 0 0 0-.286.297v6.824H4.571a.291.291 0 0 0-.285.297c0 .164.128.297.285.297h4.572a.291.291 0 0 0 .286-.297V2.01a.291.291 0 0 0-.286-.297z"/>
    </g>
</svg>
