<svg xmlns="http://www.w3.org/2000/svg" width="48" height="38.4">
    <defs>
        <style>
            .cls-1{fill:#d4d4d4}
        </style>
    </defs>
    <g id="picture_1_" data-name="picture (1)" transform="translate(0 -72)">
        <g id="Group_16" data-name="Group 16" transform="translate(0 72)">
            <g id="Group_15" data-name="Group 15">
                <path id="Path_21" data-name="Path 21" class="cls-1" d="M44 72H4a4.32 4.32 0 0 0-4 4.571v29.257a4.32 4.32 0 0 0 4 4.572h40a3.254 3.254 0 0 0 .67-.067 4.428 4.428 0 0 0 3.33-4.5V76.571A4.32 4.32 0 0 0 44 72zM4 108.571a2.552 2.552 0 0 1-2.39-2.5l15.95-11.92 16.221 14.42zm42.4-2.743a2.656 2.656 0 0 1-2.008 2.7 1.911 1.911 0 0 1-.392.039h-7.614l-10.6-9.427 9.478-8.662L46.4 98.117zm0-9.843-10.788-7.4a.72.72 0 0 0-.912.069l-10.214 9.338-6.4-5.685a.72.72 0 0 0-.928-.044L1.6 103.892V76.571A2.589 2.589 0 0 1 4 73.829h40a2.589 2.589 0 0 1 2.4 2.743z" transform="translate(0 -72)"/>
                <path id="Path_22" data-name="Path 22" class="cls-1" d="M196.8 120a4.8 4.8 0 1 0 4.8 4.8 4.8 4.8 0 0 0-4.8-4.8zm0 8a3.2 3.2 0 1 1 3.2-3.2 3.2 3.2 0 0 1-3.2 3.2z" transform="translate(-172.8 -115.2)"/>
            </g>
        </g>
    </g>
</svg>
