<svg xmlns="http://www.w3.org/2000/svg" width="19" height="25" viewBox="0 0 19 25">
    <defs>
        <filter id="0f6knpjj2a" color-interpolation-filters="auto">
            <feColorMatrix in="SourceGraphic" values="0 0 0 0 1.000000 0 0 0 0 1.000000 0 0 0 0 1.000000 0 0 0 1.000000 0"/>
        </filter>
    </defs>
    <g fill="none" fill-rule="evenodd">
        <g filter="url(#0f6knpjj2a)" transform="translate(-14.000000, -419.000000)">
            <g fill="#000" fill-rule="nonzero">
                <path d="M18.064 0H.936C.42 0 0 .329 0 .732v23.536c0 .403.42.732.936.732h17.128c.516 0 .936-.329.936-.732V.732C19 .33 18.58 0 18.064 0zM6.518 20.73c0 .404-.324.732-.723.732H2.53c-.4 0-.723-.328-.723-.732v-3.295c0-.404.324-.732.723-.732h3.265c.4 0 .723.328.723.732v3.295zm0-6.583c0 .405-.324.733-.723.733H2.53c-.4 0-.723-.328-.723-.733v-3.294c0-.405.324-.733.723-.733h3.265c.4 0 .723.328.723.733v3.294zm0-6.582c0 .404-.324.732-.723.732H2.53c-.4 0-.723-.328-.723-.732V4.27c0-.404.324-.732.723-.732h3.265c.4 0 .723.328.723.732v3.295zm9.968 12.325H9.374c-.4 0-.724-.328-.724-.732 0-.405.324-.733.724-.733h7.112c.4 0 .724.328.724.733 0 .404-.324.732-.724.732zm0-6.688H9.374c-.4 0-.724-.328-.724-.733 0-.404.324-.732.724-.732h7.112c.4 0 .724.328.724.732 0 .405-.324.733-.724.733zm0-6.552H9.374c-.4 0-.724-.328-.724-.733 0-.404.324-.732.724-.732h7.112c.4 0 .724.328.724.732 0 .405-.324.733-.724.733z" transform="translate(14.000000, 419.000000)"/>
                <path d="M3.254 11.585L5.072 11.585 5.072 13.415 3.254 13.415zM3.254 5.003L5.072 5.003 5.072 6.832 3.254 6.832zM3.254 18.168L5.072 18.168 5.072 19.997 3.254 19.997z" transform="translate(14.000000, 419.000000)"/>
            </g>
        </g>
    </g>
</svg>
