<svg xmlns="http://www.w3.org/2000/svg" width="14" height="25" viewBox="0 0 14 25">
    <defs>
        <filter id="03g093eb8a" color-interpolation-filters="auto">
            <feColorMatrix in="SourceGraphic" values="0 0 0 0 1.000000 0 0 0 0 1.000000 0 0 0 0 1.000000 0 0 0 1.000000 0"/>
        </filter>
    </defs>
    <g fill="none" fill-rule="evenodd">
        <g filter="url(#03g093eb8a)" transform="translate(-17.000000, -189.000000)">
            <g>
                <path fill="#000" fill-rule="nonzero" d="M6.376 4.876c1.296 0 2.346-1.091 2.346-2.438C8.722 1.091 7.672 0 6.376 0 5.081 0 4.03 1.091 4.03 2.438c0 1.347 1.05 2.438 2.346 2.438zM12.614 16.137h-.152v-1.399c.281-.3.376-.755.199-1.158L9.316 5.963c-.183-.42-.6-.637-1.017-.59H4.454c-.419-.047-.834.17-1.018.59L.09 13.58c-.23.524-.008 1.143.496 1.382.135.064.277.094.415.094.381 0 .746-.226.914-.61l1.616-3.68-.002 12.983c0 .691.538 1.251 1.204 1.251.665 0 1.203-.56 1.203-1.251v-7.457h.878v7.457c0 .691.538 1.251 1.204 1.251.665 0 1.204-.56 1.204-1.251L9.22 10.765l1.617 3.68c.09.21.242.366.421.471v1.221h-.152c-.266 0-.481.224-.481.5v5.23c0 .276.215.5.481.5h1.508c.266 0 .481-.224.481-.5v-5.23c0-.276-.215-.5-.481-.5zm-5.407-5.095l-.642 1.272c-.037.073-.11.119-.19.119-.078 0-.152-.046-.188-.12l-.642-1.27c-.038-.075-.056-.156-.055-.24.006-.547.06-2.706.447-3.664l-.297-.31c-.084-.086-.084-.226 0-.313l.585-.608c.083-.087.218-.087.302 0l.585.608c.04.042.063.098.063.157s-.023.115-.063.157l-.298.31c.389.957.442 3.116.448 3.664 0 .082-.018.165-.055.238z" transform="translate(17.000000, 189.000000)"/>
            </g>
        </g>
    </g>
</svg>
