<svg xmlns="http://www.w3.org/2000/svg" width="26" height="15" viewBox="0 0 26 15">
    <defs>
        <filter id="zjudf77rwa" color-interpolation-filters="auto">
            <feColorMatrix in="SourceGraphic" values="0 0 0 0 1.000000 0 0 0 0 1.000000 0 0 0 0 1.000000 0 0 0 1.000000 0"/>
        </filter>
    </defs>
    <g fill="none" fill-rule="evenodd">
        <g filter="url(#zjudf77rwa)" transform="translate(-652.000000, -88.000000)">
            <g fill="#000" fill-rule="nonzero">
                <path d="M6.214 1.179C5.357.32 1.714.107.536 0 .429 0 .32 0 .214.107.107.214 0 .43 0 .536v9.643c0 .321.214.535.536.535H3.75c.214 0 .429-.107.536-.321 0-.322 1.928-6 2.143-8.786 0-.107 0-.321-.215-.428zM17.679 3.75c-1.072-.321-2.036-.75-2.893-1.071-1.929-.858-2.786-.429-4.5 1.285-.75.75-1.286 1.822-1.179 2.25 0 .107 0 .107.214.215.536.214 1.286.321 2.036-.858.107-.107.214-.214.429-.214.321 0 .428-.107.75-.214.214-.107.428-.214.75-.322h.214c.107 0 .321.108.429.108.535.535 1.5 1.285 2.464 2.142 1.5 1.179 3 2.465 3.75 3.429h.107c-.75-2.143-2.036-5.786-2.571-6.75zM25.179 1.071c-4.179 0-6.536 1.072-6.643 1.072l-.322.321c0 .107 0 .322.107.429.643 1.071 2.786 6.964 3.108 8.464.107.214.321.429.535.429h3.215c.321 0 .535-.215.535-.536V1.607c0-.321-.214-.536-.535-.536z" transform="translate(652.000000, 88.000000)"/>
                <path d="M19.393 11.571c-.429-.964-2.25-2.357-3.857-3.642-.857-.75-1.715-1.393-2.357-1.929-.108.107-.322.107-.322.214-.321.107-.428.215-.857.215-.857 1.071-1.929 1.5-3.107 1.071-.536-.107-.857-.536-.964-.964-.215-1.072.75-2.572 1.5-3.322H7.286C6.857 5.357 6.107 8.143 5.57 9.643c.429.428.858.964 1.18 1.178 2.035 1.715 4.392 3.429 4.82 3.75.322.215.965.429 1.286.429h.322l-1.715-1.714c-.214-.215-.214-.536 0-.75.215-.215.536-.215.75 0l2.143 2.143c.214.214.429.107.643.107.321-.107.429-.322.536-.643l-2.465-2.464c-.214-.215-.214-.536 0-.75.215-.215.536-.215.75 0l2.679 2.678c.107.107.536.107.857 0 .107-.107.322-.214.429-.428l-3-3c-.215-.215-.215-.536 0-.75.214-.215.535-.215.75 0l3.107 3.107c.214.107.428 0 .643-.107.107-.108.321-.429.107-.858z" transform="translate(652.000000, 88.000000)"/>
            </g>
        </g>
    </g>
</svg>
