<svg xmlns="http://www.w3.org/2000/svg" width="21" height="21" viewBox="0 0 21 21">
    <defs>
        <filter id="zpbgqvxl9a" color-interpolation-filters="auto">
            <feColorMatrix in="SourceGraphic" values="0 0 0 0 1.000000 0 0 0 0 1.000000 0 0 0 0 1.000000 0 0 0 1.000000 0"/>
        </filter>
    </defs>
    <g fill="none" fill-rule="evenodd">
        <g filter="url(#zpbgqvxl9a)" transform="translate(-510.000000, -85.000000)">
            <g fill="#000" fill-rule="nonzero">
                <path d="M1.887 12.387H.615c-.34 0-.615.275-.615.615v7.383c0 .34.275.615.615.615h1.272c1.017 0 1.845-.828 1.845-1.846v-4.922c0-1.017-.828-1.845-1.845-1.845zM14.232 0c-3.728 0-6.767 3.04-6.767 6.768 0 1.624.578 3.113 1.538 4.282.775.221 1.501.615 2.116 1.156.116.087.181.086.308.099h2.19c.85 0 1.6.418 2.03 1.082C18.7 12.736 21 10.016 21 6.767 21 3.04 17.96 0 14.232 0zm.628 9.733h-.012v.726c0 .344-.271.615-.616.615-.344 0-.615-.27-.615-.615v-.726c-.406-.135-.787-.394-1.12-.8-.221-.258-.184-.64.074-.861.259-.222.652-.185.862.074.332.393.701.541 1.009.43.246-.086.406-.32.406-.578 0-.345-.271-.615-.616-.615-1.02 0-1.845-.825-1.845-1.846 0-.738.443-1.415 1.132-1.698.024-.012.061-.012.098-.025v-.738c0-.344.27-.615.615-.615s.616.27.616.615v.738c.32.111.627.271.91.542.246.234.246.627.013.873-.234.247-.628.247-.874.013-.295-.283-.628-.394-.898-.27-.234.098-.382.319-.382.565 0 .345.27.615.615.615 1.022 0 1.846.825 1.846 1.846 0 .775-.492 1.464-1.218 1.735z" transform="translate(510.000000, 85.000000)"/>
                <path d="M20.815 13.58c-.073-.123-.172-.221-.283-.307-.453-.397-1.216-.36-1.66.123l-2.794 3.224-.086.098c-.344.381-.837.59-1.354.59H9.823c-.344 0-.615-.27-.615-.615 0-.344.27-.615.615-.615h3.794c.677 0 1.23-.554 1.23-1.23v-.013c-.012-.676-.553-1.218-1.23-1.218H11.35c-.369 0-.764-.135-1.083-.406-1.5-1.317-3.691-1.403-5.303-.283v7.567c1.218.333 2.473.505 3.74.505h5.53c1.353 0 2.633-.64 3.445-1.723l2.953-3.937c.43-.566.463-1.341.184-1.76z" transform="translate(510.000000, 85.000000)"/>
            </g>
        </g>
    </g>
</svg>
