<svg xmlns="http://www.w3.org/2000/svg" width="18" height="18" viewBox="0 0 18 18">
    <defs>
        <filter id="dwghbm7g1a" color-interpolation-filters="auto">
            <feColorMatrix in="SourceGraphic" values="0 0 0 0 1.000000 0 0 0 0 1.000000 0 0 0 0 1.000000 0 0 0 1.000000 0"/>
        </filter>
    </defs>
    <g fill="none" fill-rule="evenodd">
        <g filter="url(#dwghbm7g1a)" transform="translate(-379.000000, -87.000000)">
            <g fill="#000" fill-rule="nonzero">
                <path d="M4.505 6.872c-.654 0-1.205.448-1.361 1.054h2.723c-.156-.606-.707-1.054-1.362-1.054zM3.099 9.617c0 .173.14.313.314.313h2.185c.173 0 .314-.14.314-.313V8.98H3.099v.636z" transform="translate(379.000000, 87.000000)"/>
                <path d="M0 4.703v12.77c0 .29.236.527.527.527h16.946c.29 0 .527-.236.527-.527V4.703H0zm6.345 11.344l-3.433.825c-.382.092-.728-.253-.636-.636l.824-3.434c.073-.302.392-.478.688-.374 1.378.485 2.447 1.554 2.931 2.931.104.296-.07.615-.374.688zm.908-7.066h-.287v.636c0 .754-.613 1.368-1.368 1.368H3.413c-.755 0-1.369-.614-1.369-1.368V8.98h-.286c-.291 0-.528-.236-.528-.527 0-.292.237-.528.528-.528h.312c.171-1.19 1.198-2.109 2.435-2.109 1.238 0 2.265.918 2.436 2.11h.312c.291 0 .527.235.527.527 0 .29-.236.527-.527.527zm8.736 7.25h-4.978c-.292 0-.528-.237-.528-.528 0-.291.236-.527.528-.527h4.978c.292 0 .528.236.528.527 0 .291-.236.527-.528.527zm-5.506-2.637c0-.292.236-.528.528-.528h1.833c.29 0 .527.236.527.528 0 .29-.236.527-.527.527H11.01c-.292 0-.528-.236-.528-.527zm5.506.527h-1.002c-.291 0-.528-.236-.528-.527 0-.292.237-.528.528-.528h1.002c.292 0 .528.236.528.528 0 .29-.236.527-.528.527zm0-4.484h-4.978c-.292 0-.528-.236-.528-.527 0-.291.236-.528.528-.528h4.978c.292 0 .528.237.528.528 0 .29-.236.527-.528.527zm0-2.11h-4.978c-.292 0-.528-.236-.528-.527 0-.29.236-.527.528-.527h4.978c.292 0 .528.236.528.527 0 .291-.236.528-.528.528z" transform="translate(379.000000, 87.000000)"/>
                <path d="M3.979 13.662l-.477 1.983 1.984-.476c-.346-.64-.868-1.162-1.507-1.507zM16.035 0H1.965C.88 0 0 .881 0 1.965v1.684h18V1.965C18 .88 17.119 0 16.035 0zm-.672 1.297c.291 0 .528.236.528.527 0 .291-.237.528-.528.528-.29 0-.527-.237-.527-.528 0-.29.236-.527.527-.527zm-2.11 0c.292 0 .528.236.528.527 0 .291-.236.528-.527.528-.291 0-.527-.237-.527-.528 0-.29.236-.527.527-.527zm-10.616 0h4.289c.29 0 .527.236.527.527 0 .291-.236.528-.527.528h-4.29c-.29 0-.527-.237-.527-.528 0-.29.237-.527.528-.527z" transform="translate(379.000000, 87.000000)"/>
            </g>
        </g>
    </g>
</svg>
