<svg xmlns="http://www.w3.org/2000/svg" width="25" height="25" viewBox="0 0 25 25">
    <defs>
        <filter id="n9f53qqtha" color-interpolation-filters="auto">
            <feColorMatrix in="SourceGraphic" values="0 0 0 0 1.000000 0 0 0 0 1.000000 0 0 0 0 1.000000 0 0 0 1.000000 0"/>
        </filter>
    </defs>
    <g fill="none" fill-rule="evenodd">
        <g filter="url(#n9f53qqtha)" transform="translate(-11.000000, -349.000000)">
            <g>
                <path fill="#000" fill-rule="nonzero" d="M24.443 10.38l-2.924-.717c-.162-.513-.367-1.01-.616-1.494l1.494-2.49c.176-.293.132-.66-.102-.894l-2.08-2.08c-.235-.234-.6-.278-.894-.102l-2.49 1.494c-.483-.25-.981-.454-1.494-.616L14.634.557C14.546.234 14.253 0 13.916 0h-2.93c-.337 0-.63.234-.717.557L9.565 3.48c-.512.162-1.01.367-1.494.616l-2.49-1.494c-.293-.176-.66-.132-.894.102l-2.08 2.08c-.234.235-.278.6-.102.894l1.494 2.49c-.249.483-.454.981-.615 1.494l-2.827.718c-.323.073-.557.366-.557.703v2.93c0 .337.234.63.557.703l2.827.718c.16.512.366 1.01.615 1.494l-1.494 2.49c-.176.293-.132.66.102.893l2.08 2.08c.235.235.601.279.894.103l2.49-1.494c.484.249.982.454 1.494.615l.704 2.827c.087.323.38.557.717.557h2.93c.337 0 .63-.234.718-.557l.703-2.827c.513-.16 1.01-.366 1.494-.615l2.49 1.494c.293.176.66.132.894-.102l2.08-2.08c.234-.235.278-.601.102-.894l-1.494-2.49c.25-.484.454-.982.616-1.494l2.924-.718c.323-.073.557-.366.557-.703v-2.93c0-.337-.234-.63-.557-.703zm-11.992 5.83c-2.021 0-3.662-1.64-3.662-3.661 0-2.022 1.64-3.662 3.662-3.662 2.022 0 3.662 1.64 3.662 3.662 0 2.021-1.64 3.662-3.662 3.662z" transform="translate(11.000000, 349.000000)"/>
            </g>
        </g>
    </g>
</svg>
