<svg xmlns="http://www.w3.org/2000/svg" width="19" height="19" viewBox="0 0 19 19">
    <defs>
        <filter id="ccku686h3a" color-interpolation-filters="auto">
            <feColorMatrix in="SourceGraphic" values="0 0 0 0 1.000000 0 0 0 0 1.000000 0 0 0 0 1.000000 0 0 0 1.000000 0"/>
        </filter>
    </defs>
    <g fill="none" fill-rule="evenodd">
        <g filter="url(#ccku686h3a)" transform="translate(-242.000000, -88.000000)">
            <g fill="#000" fill-rule="nonzero">
                <path d="M17.186 17.172h-.383V7.676c-.472 0-.918-.154-1.289-.415-.25.177-.538.308-.856.371-.146.03-.294.044-.441.044-.098 0-.193-.01-.288-.023v7.064c0 .403-.325.73-.726.73h-2.61v-2.001l.92 1.544c.11.182.302.283.499.283.101 0 .204-.026.298-.083.274-.165.364-.524.199-.8l-1.85-3.104c-.114-.192-.322-.287-.53-.275-.014-.002-2.142-.002-2.155-.001-.211-.015-.422.081-.539.276L5.586 14.39c-.165.276-.075.635.2.8.093.057.196.083.297.083.197 0 .39-.1.498-.283l.926-1.554v2.01H4.892c-.4 0-.726-.326-.726-.73V7.654c-.094.012-.19.023-.287.023-.146 0-.295-.014-.443-.044-.318-.064-.605-.194-.855-.37-.371.26-.817.414-1.288.414v9.496H.909c-.502 0-.909.41-.909.914 0 .505.407.914.91.914h16.276c.502 0 .91-.409.91-.914 0-.505-.408-.914-.91-.914z" transform="translate(242.000000, 88.000000)"/>
                <path d="M9.047 7.732c-.667 0-1.209.622-1.209 1.39 0 .768.542 1.391 1.21 1.391.667 0 1.209-.623 1.209-1.39 0-.769-.542-1.391-1.21-1.391zM.923 6.647c.123.037.248.054.37.054.557 0 1.07-.364 1.238-.927l.068-.229c.061.548.46 1.018 1.026 1.131.085.017.17.025.254.025.604 0 1.144-.428 1.266-1.046l.032-.159c.044.62.523 1.135 1.157 1.199.044.004.087.006.13.006.656 0 1.218-.5 1.285-1.17l.01-.097c.017.703.586 1.267 1.289 1.267.702 0 1.271-.564 1.289-1.267l.01.096c.066.671.628 1.171 1.284 1.171.043 0 .086-.002.13-.006.635-.064 1.113-.58 1.157-1.199l.032.16c.122.618.662 1.045 1.266 1.045.084 0 .169-.008.254-.025.566-.113.965-.583 1.026-1.131l.068.229c.167.563.681.927 1.238.927.122 0 .247-.017.37-.054.684-.206 1.073-.93.869-1.617l-1.167-3.926C16.68.449 16.081 0 15.401 0H2.695c-.68 0-1.28.449-1.474 1.104L.054 5.03C-.15 5.717.24 6.44.923 6.647z" transform="translate(242.000000, 88.000000)"/>
            </g>
        </g>
    </g>
</svg>
