<svg xmlns="http://www.w3.org/2000/svg" width="27" height="25" viewBox="0 0 27 25">
    <defs>
        <filter id="6uqw80lgca" color-interpolation-filters="auto">
            <feColorMatrix in="SourceGraphic" values="0 0 0 0 1.000000 0 0 0 0 1.000000 0 0 0 0 1.000000 0 0 0 1.000000 0"/>
        </filter>
    </defs>
    <g fill="none" fill-rule="evenodd">
        <g filter="url(#6uqw80lgca)" transform="translate(-10.000000, -269.000000)">
            <g fill="#000" fill-rule="nonzero">
                <path d="M1.75 16.704L6.482 16.666 6.423 24.28 1.69 24.318z" transform="translate(11.000000, 269.000000) translate(4.086232, 20.491949) rotate(-34.977932) translate(-4.086232, -20.491949)"/>
                <path d="M25.986 15.712c.03-.166.013-.337-.047-.493-.177-.497-.717-.754-1.206-.575l-4.689 1.738c-.242.81-.976 1.363-1.808 1.364-.112 0-.224-.01-.334-.033l-5.085-.915.16-.938 5.09.914c.477.089.943-.205 1.078-.68.04-.13.047-.268.023-.402-.02-.147-.073-.288-.155-.411-.145-.209-.365-.351-.612-.398l-4.727-.847c-1.39-.243-2.817-.153-4.167.263l-.084.024c-.894.277-1.738.697-2.5 1.245l-1.479 1.048 2.971 4.318c1.112-.776 2.48-1.076 3.809-.833l.843.144c.896.162 1.818.082 2.674-.234l9.637-3.567c.317-.116.549-.395.608-.732zM24.856 1.915V.479c0-.265-.211-.479-.471-.479h-5.179v1.915h5.65zM16.518 3.011c.185-.187.483-.187.668 0l1.078 1.101V0H15.44v4.112l1.078-1.1zM8.848.479v1.436h5.65V0H9.319c-.26 0-.47.214-.47.479z" transform="translate(11.000000, 269.000000)"/>
                <path d="M14.79 5.706c-.177-.072-.293-.246-.292-.44V2.872h-5.65v10.642c.104-.038.207-.081.316-.11l.084-.029c1.486-.457 3.057-.552 4.586-.277l4.732.847c.321.057.622.201.87.417h3.31l1.667-.618c.143-.05.292-.083.443-.096V2.872h-5.65v2.394c0 .194-.115.368-.292.44-.056.027-.117.04-.179.039-.125 0-.245-.05-.334-.14l-1.549-1.579-1.549 1.58c-.135.136-.338.175-.513.1z" transform="translate(11.000000, 269.000000)"/>
            </g>
        </g>
    </g>
</svg>
