<svg xmlns="http://www.w3.org/2000/svg" width="26.07" height="25" viewBox="0 0 26.07 25">
  <g id="Marketplace" transform="translate(-0.93)">
    <g id="marketplace-vendor-product" transform="translate(-10 -269)">
      <g id="Group_9" data-name="Group 9" transform="translate(11 269)">
        <path id="Path" d="M1.75,16.7l4.732-.037L6.423,24.28l-4.732.037Z" transform="matrix(0.819, -0.573, 0.573, 0.819, -11.009, 6.044)" fill="#3585ed"/>
        <path id="Path-2" data-name="Path" d="M25.986,15.712a.923.923,0,0,0-.047-.493.937.937,0,0,0-1.205-.574l-4.689,1.738a1.9,1.9,0,0,1-1.808,1.364,1.59,1.59,0,0,1-.334-.034L12.817,16.8l.16-.938,5.09.914a.945.945,0,0,0,1.078-.68.861.861,0,0,0,.024-.4.973.973,0,0,0-.155-.412.963.963,0,0,0-.612-.4l-4.727-.847a8.916,8.916,0,0,0-4.167.263l-.085.024a8.7,8.7,0,0,0-2.5,1.245L5.444,16.616l2.971,4.318a5.057,5.057,0,0,1,3.809-.833l.843.144a5.092,5.092,0,0,0,2.674-.235l9.638-3.566a.953.953,0,0,0,.607-.732Z" fill="#3585ed"/>
        <path id="Path-3" data-name="Path" d="M24.856,1.915V.479A.475.475,0,0,0,24.385,0H19.206V1.915Z" fill="#3585ed"/>
        <path id="Path-4" data-name="Path" d="M16.518,3.011a.469.469,0,0,1,.668,0l1.078,1.1V0H15.439V4.112Z" fill="#3585ed"/>
        <path id="Path-5" data-name="Path" d="M8.848.479V1.915H14.5V0H9.319A.475.475,0,0,0,8.848.479Z" fill="#3585ed"/>
        <path id="Path-6" data-name="Path" d="M14.79,5.706a.473.473,0,0,1-.292-.44V2.872H8.848V13.514c.1-.038.207-.081.315-.11l.085-.029a9.728,9.728,0,0,1,4.586-.278l4.732.847a1.811,1.811,0,0,1,.871.417h3.31l1.667-.618a1.786,1.786,0,0,1,.443-.1V2.872h-5.65V5.266a.473.473,0,0,1-.292.44.389.389,0,0,1-.179.038.47.47,0,0,1-.334-.139l-1.549-1.58L15.3,5.606a.465.465,0,0,1-.513.1Z" fill="#3585ed"/>
      </g>
    </g>
  </g>
</svg>
