<svg xmlns="http://www.w3.org/2000/svg" width="19" height="19" viewBox="0 0 19 19">
    <defs>
        <filter id="gplj9fha0a" color-interpolation-filters="auto">
            <feColorMatrix in="SourceGraphic" values="0 0 0 0 1.000000 0 0 0 0 1.000000 0 0 0 0 1.000000 0 0 0 1.000000 0"/>
        </filter>
    </defs>
    <g fill="none" fill-rule="evenodd">
        <g filter="url(#gplj9fha0a)" transform="translate(-936.000000, -86.000000)">
            <g>
                <path fill="#000" fill-rule="nonzero" d="M18.577 7.89l-2.223-.546c-.122-.39-.278-.768-.467-1.136l1.135-1.892c.134-.223.1-.501-.078-.68l-1.58-1.58c-.179-.178-.457-.212-.68-.078l-1.892 1.135c-.368-.189-.746-.345-1.136-.467L11.122.423C11.055.178 10.832 0 10.576 0H8.35c-.256 0-.48.178-.546.423L7.27 2.646c-.39.122-.768.278-1.136.467L4.242 1.978c-.223-.134-.501-.1-.68.078l-1.58 1.58c-.178.179-.212.457-.078.68l1.135 1.892c-.189.368-.345.746-.467 1.136l-2.149.545C.178 7.945 0 8.168 0 8.424v2.226c0 .256.178.48.423.535l2.149.545c.122.39.278.768.467 1.136l-1.135 1.892c-.134.223-.1.501.078.68l1.58 1.58c.179.178.457.212.68.078l1.892-1.135c.368.189.746.345 1.136.467l.534 2.149c.067.245.29.423.546.423h2.226c.256 0 .479-.178.546-.423l.534-2.149c.39-.122.768-.278 1.136-.467l1.892 1.135c.223.134.501.1.68-.078l1.58-1.58c.178-.179.212-.457.078-.68l-1.135-1.892c.189-.368.345-.746.467-1.136l2.223-.545c.245-.056.423-.279.423-.535V8.424c0-.256-.178-.479-.423-.535zm-9.114 4.43c-1.536 0-2.783-1.247-2.783-2.783 0-1.536 1.247-2.783 2.783-2.783 1.536 0 2.783 1.247 2.783 2.783 0 1.536-1.247 2.783-2.783 2.783z" transform="translate(936.000000, 86.000000)"/>
            </g>
        </g>
    </g>
</svg>
