<svg xmlns="http://www.w3.org/2000/svg" width="18" height="18" viewBox="0 0 18 18">
    <defs>
        <filter id="j2hwuke1ta" color-interpolation-filters="auto">
            <feColorMatrix in="SourceGraphic" values="0 0 0 0 1.000000 0 0 0 0 1.000000 0 0 0 0 1.000000 0 0 0 1.000000 0"/>
        </filter>
    </defs>
    <g fill="none" fill-rule="evenodd">
        <g filter="url(#j2hwuke1ta)" transform="translate(-806.000000, -87.000000)">
            <g fill="#000" fill-rule="nonzero">
                <path d="M17.473 16.945H1.055V.527C1.055.236.819 0 .527 0 .236 0 0 .236 0 .527v16.946c0 .291.236.527.527.527h16.946c.291 0 .527-.236.527-.527 0-.292-.236-.528-.527-.528z" transform="translate(806.000000, 87.000000)"/>
                <path d="M2.637 15.89H4.78c.292 0 .528-.235.528-.527v-3.199c0-.291-.236-.527-.528-.527H2.637c-.292 0-.528.236-.528.527v3.2c0 .29.236.527.528.527zM6.89 9.527c-.29 0-.527.236-.527.528v5.308c0 .292.236.528.528.528H9c.291 0 .527-.236.527-.528v-5.308c0-.292-.236-.528-.527-.528H6.89zM11.11 7.418c-.292 0-.528.236-.528.527v7.418c0 .292.236.528.527.528h2.11c.291 0 .527-.236.527-.528V7.945c0-.291-.236-.527-.527-.527h-2.11zM17.473 5.309h-2.145c-.291 0-.527.235-.527.527v9.527c0 .292.236.528.527.528h2.145c.291 0 .527-.236.527-.528V5.836c0-.292-.236-.527-.527-.527zM2.172 9.25c.14.258.461.351.714.214l12.28-6.593-.31.62c-.13.26-.024.577.236.707.263.13.578.023.708-.236l1.055-2.109c.081-.163.073-.357-.024-.513-.096-.155-.265-.25-.448-.25h-2.637c-.291 0-.527.236-.527.527 0 .292.236.528.527.528h.545L2.387 8.535c-.256.139-.353.459-.215.715z" transform="translate(806.000000, 87.000000)"/>
            </g>
        </g>
    </g>
</svg>
