<svg xmlns="http://www.w3.org/2000/svg" width="23" height="17" viewBox="0 0 23 17">
    <defs>
        <filter id="k4srzoozpa" color-interpolation-filters="auto">
            <feColorMatrix in="SourceGraphic" values="0 0 0 0 1.000000 0 0 0 0 1.000000 0 0 0 0 1.000000 0 0 0 1.000000 0"/>
        </filter>
    </defs>
    <g fill="none" fill-rule="evenodd">
        <g filter="url(#k4srzoozpa)" transform="translate(-83.000000, -87.000000)">
            <g>
                <path fill="#000" fill-rule="nonzero" d="M15.18.596C7.245-1.93 0 3.926 0 11.506c0 1.034.115 2.986.46 4.135 0 .23.23.459.46.459h21.045c.23 0 .46-.23.575-.46.23-1.148.46-3.1.46-4.134 0-4.938-3.105-9.417-7.82-10.91zM11.5 2.32c.69 0 1.15.46 1.15 1.148 0 .69-.46 1.149-1.15 1.149s-1.15-.46-1.15-1.149c0-.689.46-1.148 1.15-1.148zM3.45 12.655c-.69 0-1.15-.46-1.15-1.149 0-.689.46-1.148 1.15-1.148s1.15.46 1.15 1.148c0 .69-.46 1.149-1.15 1.149zm3.22-5.972c-.46.46-1.15.46-1.61 0-.46-.46-.46-1.263-.115-1.723.46-.46 1.15-.46 1.61 0 .46.46.46 1.263.115 1.723zm4.83 7.12c-1.265 0-2.415-1.148-2.07-2.297.345-1.148 2.07-4.593 2.07-4.593s1.725 3.445 2.07 4.593c.345 1.149-.805 2.297-2.07 2.297zm6.555-7.12c-.46.46-1.15.46-1.61 0-.46-.46-.46-1.149 0-1.608.46-.46 1.15-.46 1.61 0 .345.345.345 1.148 0 1.608zm1.495 5.972c-.69 0-1.15-.46-1.15-1.149 0-.689.46-1.148 1.15-1.148s1.15.46 1.15 1.148c0 .69-.46 1.149-1.15 1.149z" transform="translate(83.000000, 87.000000)"/>
            </g>
        </g>
    </g>
</svg>
