<svg xmlns="http://www.w3.org/2000/svg" width="19" height="25" viewBox="0 0 19 25">
    <defs>
        <filter id="fpn9jcup9a" color-interpolation-filters="auto">
            <feColorMatrix in="SourceGraphic" values="0 0 0 0 1.000000 0 0 0 0 1.000000 0 0 0 0 1.000000 0 0 0 1.000000 0"/>
        </filter>
    </defs>
    <g fill="none" fill-rule="evenodd">
        <g filter="url(#fpn9jcup9a)" transform="translate(-15.000000, -483.000000)">
            <g fill="#000" fill-rule="nonzero">
                <path d="M13.281 1.563h-1.697C11.262.652 10.394 0 9.375 0c-1.019 0-1.888.653-2.21 1.563H5.468c-.432 0-.782.35-.782.78V5.47c0 .431.35.781.782.781h7.812c.431 0 .781-.35.781-.781V2.344c0-.431-.35-.781-.78-.781z" transform="translate(15.000000, 483.000000)"/>
                <path d="M17.188 3.125h-1.563v2.344c0 1.292-1.052 2.343-2.344 2.343H5.47c-1.292 0-2.344-1.051-2.344-2.343V3.125H1.562C.703 3.125 0 3.827 0 4.688v18.75C0 24.314.686 25 1.563 25h15.624c.877 0 1.563-.686 1.563-1.563V4.688c0-.876-.686-1.562-1.563-1.562zM9.146 16.959l-3.125 3.125c-.153.152-.353.229-.553.229-.2 0-.4-.077-.553-.229l-1.563-1.562c-.305-.305-.305-.8 0-1.105.305-.305.8-.305 1.105 0l1.01 1.01 2.573-2.572c.304-.305.8-.305 1.104 0 .305.304.307.798.002 1.104zm0-6.25l-3.125 3.125c-.153.152-.353.229-.553.229-.2 0-.4-.077-.553-.229l-1.563-1.562c-.305-.305-.305-.8 0-1.105.305-.304.8-.304 1.105 0l1.01 1.01 2.573-2.572c.304-.305.8-.305 1.104 0 .305.304.307.798.002 1.104zm5.697 8.041h-3.125c-.431 0-.781-.35-.781-.781 0-.431.35-.782.78-.782h3.126c.431 0 .781.35.781.782 0 .431-.35.781-.781.781zm0-6.25h-3.125c-.431 0-.781-.35-.781-.781 0-.431.35-.781.78-.781h3.126c.431 0 .781.35.781.78 0 .432-.35.782-.781.782z" transform="translate(15.000000, 483.000000)"/>
            </g>
        </g>
    </g>
</svg>
