<svg width="18" height="20" viewBox="0 0 18 20" xmlns="http://www.w3.org/2000/svg">
    <defs>
        <filter color-interpolation-filters="auto" id="lx3zyrdcfa">
            <feColorMatrix in="SourceGraphic" values="0 0 0 0 0.534143 0 0 0 0 0.715191 0 0 0 0 0.829185 0 0 0 1.000000 0"/>
        </filter>
    </defs>
    <g transform="translate(-189 -4374)" filter="url(#lx3zyrdcfa)" fill="none" fill-rule="evenodd">
        <path d="M205.5 4375.538h-2.25v-.769a.76.76 0 0 0-.75-.769.76.76 0 0 0-.75.77v.768h-7.5v-.769a.76.76 0 0 0-.75-.769.76.76 0 0 0-.75.77v.768h-2.25c-.828.001-1.5.69-1.5 1.539v15.385c0 .849.672 1.537 1.5 1.538h15c.828 0 1.5-.69 1.5-1.538v-15.385c0-.85-.672-1.538-1.5-1.539zm0 4.616h-15v-3.077h2.25v.77c0 .424.336.768.75.768a.76.76 0 0 0 .75-.769v-.77h7.5v.77c0 .425.336.77.75.77a.76.76 0 0 0 .75-.77v-.77h2.25v3.078z" fill="#FFF" fill-rule="nonzero"/>
    </g>
</svg>
