<svg xmlns="http://www.w3.org/2000/svg" width="14" height="16" viewBox="0 0 14 16">
  <g id="_2205218_folder_document_file_organize_icon" data-name="2205218_folder_document_file_organize_icon" transform="translate(-1)">
    <path id="Path_475" data-name="Path 475" d="M5,0H1V16H5ZM4,14H2V13H4Zm0-2H2V11H4Zm0-2H2V9H4ZM3,3A1,1,0,1,1,4,2,1,1,0,0,1,3,3Z" fill="#239323"/>
    <path id="Path_476" data-name="Path 476" d="M6,16h4V0H6ZM8,1A1,1,0,1,1,7,2,1,1,0,0,1,8,1ZM7,9H9v1H7Zm0,2H9v1H7Zm0,2H9v1H7Z" fill="#239323"/>
    <path id="Path_477" data-name="Path 477" d="M15,0H11V16h4ZM14,14H12V13h2Zm0-2H12V11h2Zm0-2H12V9h2ZM13,3a1,1,0,1,1,1-1A1,1,0,0,1,13,3Z" fill="#239323"/>
  </g>
</svg>
