<svg id="Group_1837" data-name="Group 1837" xmlns="http://www.w3.org/2000/svg" width="16" height="16" viewBox="0 0 16 16">
  <path id="Path_463" data-name="Path 463" d="M15.644,6.644l-1.872-.459a6.037,6.037,0,0,0-.394-.956l.956-1.594a.466.466,0,0,0-.066-.572l-1.33-1.332a.466.466,0,0,0-.572-.066l-1.594.956a6.037,6.037,0,0,0-.956-.394L9.366.356A.481.481,0,0,0,8.906,0H7.031a.481.481,0,0,0-.459.356l-.45,1.872a6.038,6.038,0,0,0-.956.394L3.572,1.666A.466.466,0,0,0,3,1.731L1.669,3.063a.466.466,0,0,0-.066.572l.956,1.594a6.038,6.038,0,0,0-.394.956L.356,6.644A.462.462,0,0,0,0,7.094V8.969a.462.462,0,0,0,.356.45l1.809.459a6.038,6.038,0,0,0,.394.956L1.6,12.428A.466.466,0,0,0,1.669,13L3,14.331a.466.466,0,0,0,.572.066l1.594-.956a6.038,6.038,0,0,0,.956.394l.45,1.809A.481.481,0,0,0,7.031,16H8.906a.481.481,0,0,0,.459-.356l.45-1.809a6.037,6.037,0,0,0,.956-.394l1.594.956a.466.466,0,0,0,.572-.066L14.269,13a.466.466,0,0,0,.066-.572l-.956-1.594a6.037,6.037,0,0,0,.394-.956l1.872-.459A.462.462,0,0,0,16,8.969V7.094a.462.462,0,0,0-.356-.45ZM7.969,10.375a2.344,2.344,0,1,1,2.344-2.344A2.344,2.344,0,0,1,7.969,10.375Z" fill="#239323"/>
</svg>
