<svg xmlns="http://www.w3.org/2000/svg" width="15.999" height="16.001" viewBox="0 0 15.999 16.001">
  <g id="process_1_" data-name="process (1)" transform="translate(0.001)">
    <path id="Path_468" data-name="Path 468" d="M6.794,242.126l-.691.4a3.251,3.251,0,0,0-.447-.259v-.8A.468.468,0,0,0,5.188,241H3.313a.468.468,0,0,0-.469.469v.8a4.006,4.006,0,0,0-.512.259l-.691-.4A.469.469,0,0,0,1,242.3l-.938,1.624a.469.469,0,0,0,.172.64l.682.394a2.86,2.86,0,0,0,0,.526l-.682.394a.469.469,0,0,0-.172.64L1,248.14a.47.47,0,0,0,.64.172l.691-.4a4,4,0,0,0,.512.259V249a.469.469,0,0,0,.469.469H5.188A.468.468,0,0,0,5.656,249v-.829a3.25,3.25,0,0,0,.447-.259l.691.4a.47.47,0,0,0,.64-.172l.938-1.624a.469.469,0,0,0-.172-.64l-.682-.394c.008-.087.012-.174.012-.263a1.908,1.908,0,0,0-.012-.263l.682-.394a.469.469,0,0,0,.172-.64L7.435,242.3a.47.47,0,0,0-.641-.174Zm-2.544,4.5a1.406,1.406,0,1,1,1.406-1.406,1.406,1.406,0,0,1-1.406,1.406Z" transform="translate(0 -233.469)" fill="#239323"/>
    <path id="Path_469" data-name="Path 469" d="M.469,2.844a.469.469,0,1,0,0,.938H.985a2.388,2.388,0,0,0,.374.822L.993,4.97a.469.469,0,0,0,.663.663l.367-.367a2.328,2.328,0,0,0,.822.343v.516a.469.469,0,0,0,.938,0V5.609A2.328,2.328,0,0,0,4.6,5.266l.367.367A.469.469,0,0,0,5.63,4.97L5.266,4.6a2.328,2.328,0,0,0,.343-.822h.516a.469.469,0,1,0,0-.938H5.609a2.328,2.328,0,0,0-.343-.822l.367-.367a.507.507,0,0,0,0-.694.469.469,0,0,0-.663,0l-.367.4a2.328,2.328,0,0,0-.822-.343V.469a.469.469,0,1,0-.938,0v.547a2.328,2.328,0,0,0-.822.343l-.367-.4a.469.469,0,0,0-.663,0,.507.507,0,0,0,0,.694l.367.367a2.388,2.388,0,0,0-.374.822Zm2.844,0a.469.469,0,1,1-.469.469A.469.469,0,0,1,3.313,2.844Z" fill="#239323"/>
    <path id="Path_470" data-name="Path 470" d="M307.125,303.813h-.547a2.327,2.327,0,0,0-.343-.822l.367-.367a.469.469,0,0,0-.663-.663l-.367.367a2.327,2.327,0,0,0-.822-.343v-.516a.469.469,0,0,0-.937,0v.516a2.327,2.327,0,0,0-.822.343l-.367-.367a.469.469,0,0,0-.663.663l.367.367a2.327,2.327,0,0,0-.343.822h-.516a.469.469,0,0,0,0,.938h.516a2.328,2.328,0,0,0,.343.822l-.367.367a.469.469,0,0,0,.663.663l.367-.367a2.327,2.327,0,0,0,.822.343v.547a.469.469,0,1,0,.938,0v-.547a2.327,2.327,0,0,0,.822-.343l.367.367a.469.469,0,0,0,.663-.663l-.367-.367a2.327,2.327,0,0,0,.343-.822h.547a.469.469,0,0,0,0-.937Zm-2.844.938a.469.469,0,1,1,.469-.469.469.469,0,0,1-.469.469Z" transform="translate(-291.594 -291.594)" fill="#239323"/>
    <path id="Path_471" data-name="Path 471" d="M242.14,5.547l.938,1.624a.47.47,0,0,0,.64.172l.691-.4a3.252,3.252,0,0,0,.447.259V8a.468.468,0,0,0,.469.469H247.2A.468.468,0,0,0,247.668,8V7.2a3.627,3.627,0,0,0,.48-.259l.722.4a.47.47,0,0,0,.64-.172l.938-1.624a.469.469,0,0,0-.172-.64l-.682-.394c.008-.087.012-.174.012-.263a1.909,1.909,0,0,0-.012-.263l.682-.394a.469.469,0,0,0,.172-.64l-.937-1.624a.47.47,0,0,0-.64-.172l-.722.4a3.626,3.626,0,0,0-.48-.259V.469A.468.468,0,0,0,247.2,0h-1.875a.468.468,0,0,0-.469.469V1.3a3.251,3.251,0,0,0-.447.259l-.691-.4a.469.469,0,0,0-.64.172l-.937,1.624a.469.469,0,0,0,.172.64l.682.394a2.861,2.861,0,0,0,0,.526l-.682.394a.469.469,0,0,0-.173.638Zm4.122-2.7a1.406,1.406,0,1,1-1.406,1.406,1.406,1.406,0,0,1,1.406-1.406Z" transform="translate(-234.512)" fill="#239323"/>
  </g>
</svg>
