<svg xmlns="http://www.w3.org/2000/svg" width="17" height="17" viewBox="0 0 17 17">
    <g fill="none" fill-rule="evenodd">
        <g fill="#B1A58A" fill-rule="nonzero">
            <g>
                <path d="M16.742 15.484l-4.191-4.208c1.077-1.236 1.668-2.792 1.668-4.412 0-3.785-3.19-6.864-7.11-6.864C3.19 0 0 3.08 0 6.864s3.19 6.863 7.11 6.863c1.471 0 2.873-.428 4.072-1.242l4.223 4.24c.176.177.414.275.668.275.241 0 .47-.089.643-.25.368-.342.38-.91.026-1.266zM7.109 1.791c2.898 0 5.255 2.275 5.255 5.073 0 2.797-2.357 5.073-5.255 5.073-2.897 0-5.254-2.276-5.254-5.073 0-2.798 2.357-5.073 5.254-5.073z" transform="translate(-232 -82) translate(232 82)"/>
            </g>
        </g>
    </g>
</svg>
