<?xml version="1.0" encoding="UTF-8"?>
<svg width="92px" height="44.9658513px" viewBox="0 0 92 44.9658513" version="1.1" xmlns="http://www.w3.org/2000/svg" xmlns:xlink="http://www.w3.org/1999/xlink">
    <title>Admin spurt logo-1</title>
    <g id="4.8.2" stroke="none" stroke-width="1" fill="none" fill-rule="evenodd">
        <g id="Admin-spurt-logo-1">
            <g id="Group-2" transform="translate(0.000000, 2.000000)" fill="#FFFFFF">
                <polygon id="Polygon" points="18.6047594 0 37.2095187 10.7414628 37.2095187 32.2243885 18.6047594 42.9658513 2.32373612e-14 32.2243885 1.13604877e-14 10.7414628"></polygon>
                <polygon id="Path-8" points="0 32.3198504 0.00854717094 10.9119622 18.6412688 42.9658513"></polygon>
                <polygon id="Path-9" points="0 10.7339147 37.1928479 32.2274965 18.6529241 0"></polygon>
                <polygon id="Path-10" points="18.7077592 0.0633822676 37.2075001 10.8098402 30.3818626 20.6688354"></polygon>
            </g>
            <g id="Group" transform="translate(1.591328, 14.957955)">
                <circle id="Oval" fill="#008200" cx="10.5709634" cy="21.9375908" r="1.7049941"></circle>
                <circle id="Oval-Copy" fill="#028400" cx="24.8929139" cy="21.9375908" r="1.7049941"></circle>
                <line x1="0.113666273" y1="0.34099882" x2="4.20565211" y2="0.34099882" id="Line" stroke="#008200" stroke-width="0.68199764" stroke-linecap="square"></line>
                <line x1="4.20565211" y1="0.34099882" x2="8.07030541" y2="19.2096002" id="Line-2" stroke="#027600" stroke-width="0.68199764" stroke-linecap="square"></line>
                <line x1="7.38830777" y1="14.6629493" x2="27.6323955" y2="14.6629493" id="Line-3" stroke="#028400" stroke-width="0.68199764" stroke-linecap="square"></line>
                <line x1="8.29763795" y1="19.2096002" x2="28.5417257" y2="19.2096002" id="Line-3" stroke="#028400" stroke-width="0.68199764" stroke-linecap="square"></line>
                <line x1="19.4336905" y1="16.3679434" x2="27.4050629" y2="16.3679434" id="Line-3" stroke="#028400" stroke-width="0.575" stroke-linecap="square"></line>
                <line x1="13.1773898" y1="17.7319386" x2="26.2684002" y2="17.7319386" id="Line-3-Copy" stroke="#028400" stroke-width="0.575" stroke-linecap="square"></line>
                <path d="M9.15559098,13.2343915 C9.29744649,13.2343915 9.43180003,13.2112036 9.55865159,13.1648278 C9.68550315,13.1184519 9.79666876,13.0420682 9.89214843,12.9356766 L9.89214843,12.9356766 L9.63026134,12.6737895 C9.56751756,12.7447172 9.49931779,12.798595 9.42566205,12.8354229 C9.3520063,12.8722508 9.26334661,12.8906647 9.15968297,12.8906647 C9.0642033,12.8906647 8.9782716,12.8736148 8.90188786,12.8395149 C8.82550413,12.805415 8.76003235,12.7583572 8.70547254,12.6983414 C8.65091273,12.6383256 8.60862888,12.5680798 8.57862098,12.4876041 C8.54861308,12.4071284 8.53360914,12.3218787 8.53360914,12.231855 C8.53360914,12.1418313 8.54656709,12.0552176 8.572483,11.9720139 C8.59839891,11.8888102 8.63659078,11.8151544 8.6870586,11.7510467 C8.73752643,11.6869389 8.80027021,11.6364711 8.87528995,11.5996432 C8.95030969,11.5628153 9.03828739,11.5444014 9.13922304,11.5444014 C9.24288668,11.5444014 9.33222837,11.5628153 9.40724811,11.5996432 C9.48226785,11.6364711 9.55387761,11.6903489 9.62207737,11.7612766 L9.62207737,11.7612766 L9.90033241,11.5075735 C9.80485274,11.4039099 9.69232313,11.3268441 9.56274357,11.2763763 C9.43316402,11.2259085 9.29744649,11.2006746 9.15559098,11.2006746 C9.00282351,11.2006746 8.86437799,11.2259085 8.74025442,11.2763763 C8.61613085,11.3268441 8.50973922,11.3970899 8.42107953,11.4871136 C8.33241983,11.5771373 8.26353807,11.6848929 8.21443424,11.8103805 C8.16533041,11.935868 8.1407785,12.0736316 8.1407785,12.223671 C8.1407785,12.3737105 8.16533041,12.510792 8.21443424,12.6349156 C8.26353807,12.7590392 8.33310183,12.8654308 8.42312552,12.9540905 C8.51314921,13.0427502 8.62022284,13.111632 8.74434641,13.1607358 C8.86846998,13.2098396 9.0055515,13.2343915 9.15559098,13.2343915 Z M11.1442961,13.2343915 C11.2888796,13.2343915 11.4239151,13.2077936 11.5494027,13.1545978 C11.6748903,13.101402 11.7840099,13.0291102 11.8767616,12.9377226 C11.9695132,12.8463349 12.042487,12.7385793 12.0956828,12.6144557 C12.1488786,12.4903321 12.1754765,12.3573426 12.1754765,12.2154871 C12.1754765,12.0736316 12.1488786,11.941324 12.0956828,11.8185644 C12.042487,11.6958049 11.9695132,11.5880492 11.8767616,11.4952976 C11.7840099,11.4025459 11.6748903,11.3295721 11.5494027,11.2763763 C11.4239151,11.2231805 11.2888796,11.1965826 11.1442961,11.1965826 C10.9997126,11.1965826 10.8646771,11.2231805 10.7391895,11.2763763 C10.6137019,11.3295721 10.5045823,11.4025459 10.4118306,11.4952976 C10.319079,11.5880492 10.2461052,11.6958049 10.1929094,11.8185644 C10.1397136,11.941324 10.1131157,12.0736316 10.1131157,12.2154871 C10.1131157,12.3573426 10.1397136,12.4903321 10.1929094,12.6144557 C10.2461052,12.7385793 10.319079,12.8463349 10.4118306,12.9377226 C10.5045823,13.0291102 10.6137019,13.101402 10.7391895,13.1545978 C10.8646771,13.2077936 10.9997126,13.2343915 11.1442961,13.2343915 Z M11.1442961,12.8906647 C11.0460884,12.8906647 10.9574287,12.8736148 10.878317,12.8395149 C10.7992053,12.805415 10.7323695,12.7590392 10.6778097,12.7003874 C10.6232499,12.6417356 10.5809661,12.5708078 10.5509582,12.4876041 C10.5209503,12.4044004 10.5059463,12.3136947 10.5059463,12.2154871 C10.5059463,12.1172794 10.5209503,12.0265737 10.5509582,11.94337 C10.5809661,11.8601663 10.6232499,11.7892385 10.6778097,11.7305867 C10.7323695,11.6719349 10.7992053,11.6255591 10.878317,11.5914592 C10.9574287,11.5573593 11.0460884,11.5403094 11.1442961,11.5403094 C11.2425038,11.5403094 11.3311635,11.5573593 11.4102752,11.5914592 C11.4893869,11.6255591 11.5562227,11.6719349 11.6107825,11.7305867 C11.6653423,11.7892385 11.7076262,11.8601663 11.737634,11.94337 C11.7676419,12.0265737 11.7826459,12.1172794 11.7826459,12.2154871 C11.7826459,12.3136947 11.7676419,12.4044004 11.737634,12.4876041 C11.7076262,12.5708078 11.6653423,12.6417356 11.6107825,12.7003874 C11.5562227,12.7590392 11.4893869,12.805415 11.4102752,12.8395149 C11.3311635,12.8736148 11.2425038,12.8906647 11.1442961,12.8906647 Z M13.0061497,13.1852877 L13.0061497,12.1786592 C13.0061497,12.0695396 13.0197896,11.9747419 13.0470695,11.8942662 C13.0743494,11.8137905 13.1111773,11.7476367 13.1575531,11.6958049 C13.203929,11.643973 13.2578068,11.6050992 13.3191866,11.5791833 C13.3805664,11.5532674 13.4439921,11.5403094 13.5094639,11.5403094 C13.5994876,11.5403094 13.6710974,11.5559953 13.7242932,11.5873672 C13.777489,11.6187391 13.8184088,11.662387 13.8470527,11.7183108 C13.8756966,11.7742346 13.8947926,11.8403884 13.9043406,11.9167721 C13.9138885,11.9931558 13.9186625,12.0777235 13.9186625,12.1704752 L13.9186625,12.1704752 L13.9186625,13.1852877 L14.2869412,13.1852877 L14.2869412,12.1254634 C14.2869412,11.9536 14.3251331,11.8131085 14.4015168,11.7039888 C14.4779006,11.5948692 14.6047521,11.5403094 14.7820715,11.5403094 C14.8720952,11.5403094 14.944387,11.5559953 14.9989468,11.5873672 C15.0535066,11.6187391 15.0957904,11.660341 15.1257983,11.7121728 C15.1558062,11.7640046 15.1755842,11.8240204 15.1851321,11.8922202 C15.1946801,11.9604199 15.1994541,12.0313477 15.1994541,12.1050034 L15.1994541,12.1050034 L15.1994541,13.1852877 L15.5677328,13.1852877 L15.5677328,12.0558996 C15.5677328,11.94678 15.5575028,11.8410704 15.5370429,11.7387707 C15.516583,11.6364711 15.4790731,11.5450834 15.4245133,11.4646077 C15.3699535,11.3841319 15.2949337,11.3193422 15.1994541,11.2702383 C15.1039744,11.2211345 14.9812148,11.1965826 14.8311753,11.1965826 C14.7138717,11.1965826 14.5979321,11.2265905 14.4833565,11.2866063 C14.3687809,11.3466221 14.2801212,11.4366458 14.2173775,11.5566773 C14.1546337,11.4366458 14.074158,11.3466221 13.9759503,11.2866063 C13.8777426,11.2265905 13.7563471,11.1965826 13.6117636,11.1965826 C13.5244679,11.1965826 13.4446741,11.2095405 13.3723824,11.2354565 C13.3000906,11.2613724 13.2373469,11.2927443 13.184151,11.3295721 C13.1309552,11.3664 13.0873074,11.4052739 13.0532075,11.4461937 C13.0191076,11.4871136 12.9979657,11.5212135 12.9897817,11.5484934 L12.9897817,11.5484934 L12.9815977,11.5484934 L12.9815977,11.2456864 L12.6378709,11.2456864 L12.6378709,13.1852877 L13.0061497,13.1852877 Z M16.4925216,13.1852877 L16.4925216,12.1786592 C16.4925216,12.0695396 16.5061615,11.9747419 16.5334415,11.8942662 C16.5607214,11.8137905 16.5975492,11.7476367 16.6439251,11.6958049 C16.6903009,11.643973 16.7441787,11.6050992 16.8055585,11.5791833 C16.8669383,11.5532674 16.9303641,11.5403094 16.9958359,11.5403094 C17.0858595,11.5403094 17.1574693,11.5559953 17.2106651,11.5873672 C17.2638609,11.6187391 17.3047808,11.662387 17.3334247,11.7183108 C17.3620686,11.7742346 17.3811645,11.8403884 17.3907125,11.9167721 C17.4002605,11.9931558 17.4050344,12.0777235 17.4050344,12.1704752 L17.4050344,12.1704752 L17.4050344,13.1852877 L17.7733132,13.1852877 L17.7733132,12.1254634 C17.7733132,11.9536 17.811505,11.8131085 17.8878888,11.7039888 C17.9642725,11.5948692 18.0911241,11.5403094 18.2684434,11.5403094 C18.3584671,11.5403094 18.4307589,11.5559953 18.4853187,11.5873672 C18.5398785,11.6187391 18.5821624,11.660341 18.6121703,11.7121728 C18.6421782,11.7640046 18.6619561,11.8240204 18.6715041,11.8922202 C18.681052,11.9604199 18.685826,12.0313477 18.685826,12.1050034 L18.685826,12.1050034 L18.685826,13.1852877 L19.0541047,13.1852877 L19.0541047,12.0558996 C19.0541047,11.94678 19.0438748,11.8410704 19.0234148,11.7387707 C19.0029549,11.6364711 18.965445,11.5450834 18.9108852,11.4646077 C18.8563254,11.3841319 18.7813057,11.3193422 18.685826,11.2702383 C18.5903463,11.2211345 18.4675868,11.1965826 18.3175473,11.1965826 C18.2002437,11.1965826 18.0843041,11.2265905 17.9697285,11.2866063 C17.8551529,11.3466221 17.7664932,11.4366458 17.7037494,11.5566773 C17.6410056,11.4366458 17.5605299,11.3466221 17.4623222,11.2866063 C17.3641146,11.2265905 17.242719,11.1965826 17.0981355,11.1965826 C17.0108398,11.1965826 16.9310461,11.2095405 16.8587543,11.2354565 C16.7864626,11.2613724 16.7237188,11.2927443 16.670523,11.3295721 C16.6173272,11.3664 16.5736793,11.4052739 16.5395794,11.4461937 C16.5054795,11.4871136 16.4843376,11.5212135 16.4761537,11.5484934 L16.4761537,11.5484934 L16.4679697,11.5484934 L16.4679697,11.2456864 L16.1242429,11.2456864 L16.1242429,13.1852877 L16.4925216,13.1852877 Z M20.4944837,13.2343915 C20.8627625,13.2343915 21.1492015,13.102084 21.3538008,12.8374689 L21.3538008,12.8374689 L21.0755457,12.6246856 C21.004618,12.7119813 20.9268702,12.7822271 20.8423025,12.8354229 C20.7577348,12.8886187 20.6581632,12.9152166 20.5435876,12.9152166 C20.4590199,12.9152166 20.3771802,12.9015767 20.2980684,12.8742968 C20.2189567,12.8470169 20.1493929,12.808825 20.0893771,12.7597212 C20.0293614,12.7106173 19.9809395,12.6512836 19.9441116,12.5817198 C19.9072838,12.512156 19.8888698,12.4350903 19.8888698,12.3505226 L19.8888698,12.3505226 L21.4438245,12.3505226 L21.4438245,12.219579 C21.4438245,12.0940915 21.4267745,11.9706499 21.3926746,11.8492543 C21.3585748,11.7278587 21.3033329,11.6187391 21.2269492,11.5218955 C21.1505655,11.4250518 21.0530398,11.3466221 20.9343722,11.2866063 C20.8157046,11.2265905 20.6704391,11.1965826 20.4985757,11.1965826 C20.3539922,11.1965826 20.2203207,11.2224985 20.0975611,11.2743303 C19.9748015,11.3261621 19.8690919,11.3977719 19.7804322,11.4891596 C19.6917725,11.5805473 19.6222088,11.6883029 19.5717409,11.8124265 C19.5212731,11.93655 19.4960392,12.0709036 19.4960392,12.2154871 C19.4960392,12.3600706 19.5192271,12.4944241 19.565603,12.6185477 C19.6119788,12.7426712 19.6781326,12.8504269 19.7640643,12.9418145 C19.849996,13.0332022 19.9550236,13.104812 20.0791472,13.1566438 C20.2032708,13.2084756 20.3417163,13.2343915 20.4944837,13.2343915 Z M21.0509938,12.0558996 L19.8888698,12.0558996 C19.8888698,11.9904278 19.9031918,11.9242741 19.9318357,11.8574383 C19.9604796,11.7906025 20.0007175,11.7299047 20.0525493,11.6753449 C20.1043811,11.6207851 20.1678069,11.5764553 20.2428266,11.5423554 C20.3178464,11.5082555 20.4003681,11.4912056 20.4903918,11.4912056 C20.5831434,11.4912056 20.6643012,11.5055275 20.7338649,11.5341714 C20.8034287,11.5628153 20.8613985,11.6023712 20.9077743,11.652839 C20.9541502,11.7033068 20.988932,11.7626406 21.01212,11.8308404 C21.0353079,11.8990402 21.0482658,11.9740599 21.0509938,12.0558996 L21.0509938,12.0558996 Z M22.2540377,13.1852877 L22.2540377,12.2113951 C22.2540377,11.9986118 22.3017775,11.8417524 22.3972572,11.7408167 C22.4927368,11.6398811 22.6305004,11.5894132 22.8105477,11.5894132 C22.8405556,11.5894132 22.8705635,11.5921412 22.9005714,11.5975972 C22.9305793,11.6030532 22.9605872,11.6098732 22.9905951,11.6180571 L22.9905951,11.6180571 L23.0069631,11.2211345 C22.9578592,11.2047666 22.9032994,11.1965826 22.8432836,11.1965826 C22.7832678,11.1965826 22.723252,11.2054486 22.6632362,11.2231805 C22.6032204,11.2409124 22.5479786,11.2647824 22.4975108,11.2947902 C22.447043,11.3247981 22.4013491,11.360944 22.3604293,11.4032279 C22.3195094,11.4455117 22.2867735,11.4925696 22.2622216,11.5444014 L22.2622216,11.5444014 L22.2540377,11.5444014 L22.2540377,11.2456864 L21.8857589,11.2456864 L21.8857589,13.1852877 L22.2540377,13.1852877 Z M24.2468348,13.2343915 C24.3886903,13.2343915 24.5230438,13.2112036 24.6498954,13.1648278 C24.7767469,13.1184519 24.8879125,13.0420682 24.9833922,12.9356766 L24.9833922,12.9356766 L24.7215051,12.6737895 C24.6587613,12.7447172 24.5905616,12.798595 24.5169058,12.8354229 C24.4432501,12.8722508 24.3545904,12.8906647 24.2509267,12.8906647 C24.1554471,12.8906647 24.0695154,12.8736148 23.9931316,12.8395149 C23.9167479,12.805415 23.8512761,12.7583572 23.7967163,12.6983414 C23.7421565,12.6383256 23.6998727,12.5680798 23.6698648,12.4876041 C23.6398569,12.4071284 23.6248529,12.3218787 23.6248529,12.231855 C23.6248529,12.1418313 23.6378109,12.0552176 23.6637268,11.9720139 C23.6896427,11.8888102 23.7278346,11.8151544 23.7783024,11.7510467 C23.8287702,11.6869389 23.891514,11.6364711 23.9665337,11.5996432 C24.0415535,11.5628153 24.1295312,11.5444014 24.2304668,11.5444014 C24.3341305,11.5444014 24.4234721,11.5628153 24.4984919,11.5996432 C24.5735116,11.6364711 24.6451214,11.6903489 24.7133211,11.7612766 L24.7133211,11.7612766 L24.9915762,11.5075735 C24.8960965,11.4039099 24.7835669,11.3268441 24.6539874,11.2763763 C24.5244078,11.2259085 24.3886903,11.2006746 24.2468348,11.2006746 C24.0940673,11.2006746 23.9556218,11.2259085 23.8314982,11.2763763 C23.7073746,11.3268441 23.600983,11.3970899 23.5123233,11.4871136 C23.4236636,11.5771373 23.3547818,11.6848929 23.305678,11.8103805 C23.2565742,11.935868 23.2320223,12.0736316 23.2320223,12.223671 C23.2320223,12.3737105 23.2565742,12.510792 23.305678,12.6349156 C23.3547818,12.7590392 23.4243456,12.8654308 23.5143693,12.9540905 C23.604393,13.0427502 23.7114666,13.111632 23.8355902,13.1607358 C23.9597138,13.2098396 24.0967953,13.2343915 24.2468348,13.2343915 Z M26.1823441,13.2343915 C26.5506228,13.2343915 26.8370618,13.102084 27.0416611,12.8374689 L27.0416611,12.8374689 L26.7634061,12.6246856 C26.6924783,12.7119813 26.6147306,12.7822271 26.5301629,12.8354229 C26.4455952,12.8886187 26.3460235,12.9152166 26.2314479,12.9152166 C26.1468802,12.9152166 26.0650405,12.9015767 25.9859287,12.8742968 C25.906817,12.8470169 25.8372533,12.808825 25.7772375,12.7597212 C25.7172217,12.7106173 25.6687998,12.6512836 25.631972,12.5817198 C25.5951441,12.512156 25.5767302,12.4350903 25.5767302,12.3505226 L25.5767302,12.3505226 L27.1316848,12.3505226 L27.1316848,12.219579 C27.1316848,12.0940915 27.1146348,11.9706499 27.080535,11.8492543 C27.0464351,11.7278587 26.9911933,11.6187391 26.9148095,11.5218955 C26.8384258,11.4250518 26.7409001,11.3466221 26.6222325,11.2866063 C26.503565,11.2265905 26.3582995,11.1965826 26.186436,11.1965826 C26.0418525,11.1965826 25.908181,11.2224985 25.7854214,11.2743303 C25.6626619,11.3261621 25.5569522,11.3977719 25.4682925,11.4891596 C25.3796328,11.5805473 25.3100691,11.6883029 25.2596013,11.8124265 C25.2091334,11.93655 25.1838995,12.0709036 25.1838995,12.2154871 C25.1838995,12.3600706 25.2070874,12.4944241 25.2534633,12.6185477 C25.2998391,12.7426712 25.3659929,12.8504269 25.4519246,12.9418145 C25.5378563,13.0332022 25.6428839,13.104812 25.7670075,13.1566438 C25.8911311,13.2084756 26.0295766,13.2343915 26.1823441,13.2343915 Z M26.7388541,12.0558996 L25.5767302,12.0558996 C25.5767302,11.9904278 25.5910521,11.9242741 25.619696,11.8574383 C25.6483399,11.7906025 25.6885778,11.7299047 25.7404096,11.6753449 C25.7922414,11.6207851 25.8556672,11.5764553 25.9306869,11.5423554 C26.0057067,11.5082555 26.0882284,11.4912056 26.1782521,11.4912056 C26.2710038,11.4912056 26.3521615,11.5055275 26.4217252,11.5341714 C26.491289,11.5628153 26.5492588,11.6023712 26.5956346,11.652839 C26.6420105,11.7033068 26.6767924,11.7626406 26.6999803,11.8308404 C26.7231682,11.8990402 26.7361261,11.9740599 26.7388541,12.0558996 L26.7388541,12.0558996 Z" id="commerce" fill="#008200" fill-rule="nonzero"></path>
                <line x1="27.848237" y1="14.4356167" x2="31.9402228" y2="1.47766155" id="Line-4" stroke="#008200" stroke-width="0.75" stroke-linecap="square"></line>
                <path d="M8.88415592,8.33128317 C9.16786694,8.33128317 9.44339399,8.2930913 9.71073706,8.21670757 C9.97808014,8.14032383 10.2154153,8.02302024 10.4227426,7.86479678 C10.6300699,7.70657333 10.7951133,7.50606602 10.9178729,7.26327487 C11.0406325,7.02048371 11.1020122,6.7326807 11.1020122,6.39986585 C11.1020122,6.11069885 11.0447244,5.86927169 10.9301488,5.67558436 C10.8155732,5.48189703 10.6709897,5.31958159 10.4963983,5.18863804 C10.3218069,5.0576945 10.1281196,4.95266686 9.91533635,4.87355513 C9.70255309,4.79444341 9.4979538,4.72215166 9.30153848,4.65667989 C9.16513895,4.61303204 9.04237938,4.57074818 8.93325975,4.52982832 C8.82414013,4.48890847 8.73002446,4.44389662 8.65091273,4.39479279 C8.571801,4.34568896 8.51178521,4.28840116 8.47086535,4.22292939 C8.42994549,4.15745761 8.40948557,4.0756179 8.40948557,3.97741024 C8.40948557,3.86283463 8.43540148,3.76871896 8.4872333,3.69506321 C8.53906512,3.62140747 8.6031729,3.56139168 8.67955663,3.51501584 C8.75594037,3.46864 8.84187207,3.43726811 8.93735174,3.42090016 C9.03283141,3.40453222 9.12694708,3.39634825 9.21969876,3.39634825 C9.39974614,3.39634825 9.58661349,3.44136009 9.78030082,3.53138378 C9.97398815,3.62140747 10.1308476,3.74280305 10.2508792,3.89557052 L10.2508792,3.89557052 L11.1429321,2.95441378 C10.886501,2.71980659 10.587786,2.5424872 10.2467872,2.42245562 C9.90578839,2.30242403 9.57160954,2.24240824 9.24425068,2.24240824 C8.97145162,2.24240824 8.70138056,2.27650812 8.43403748,2.34470789 C8.16669441,2.41290765 7.92663124,2.52066328 7.71384797,2.66797477 C7.50106471,2.81528626 7.3292013,3.00351761 7.19825776,3.23266881 C7.06731421,3.46182002 7.00184244,3.73734707 7.00184244,4.05924995 C7.00184244,4.32113705 7.04412629,4.54346828 7.128694,4.72624364 C7.2132617,4.90901901 7.32510932,5.06451447 7.46423684,5.19273003 C7.60336435,5.32094559 7.76158781,5.42597322 7.93890719,5.50781294 C8.11622658,5.58965266 8.29763795,5.66058041 8.48314131,5.7205962 C8.67410065,5.780612 8.84460006,5.8365358 8.99463954,5.88836762 C9.14467902,5.94019944 9.27016659,5.99748725 9.37110224,6.06023103 C9.47203789,6.12297481 9.54978562,6.19253857 9.60434543,6.26892231 C9.65890524,6.34530604 9.68618515,6.43805772 9.68618515,6.54717734 C9.68618515,6.66175295 9.66436122,6.75996061 9.62071337,6.84180032 C9.57706552,6.92364004 9.51841373,6.98911181 9.44475798,7.03821564 C9.37110224,7.08731947 9.28517053,7.12278335 9.18696287,7.14460728 C9.08875521,7.1664312 8.98781956,7.17734316 8.88415592,7.17734316 C8.65500472,7.17734316 8.42448951,7.11869137 8.19261032,7.00138777 C7.96073112,6.88408418 7.77386376,6.73813668 7.63200826,6.56354529 L7.63200826,6.56354529 L6.71540343,7.49651806 C6.97183454,7.76386113 7.29373743,7.96982442 7.68111209,8.11440792 C8.06848675,8.25899142 8.46950136,8.33128317 8.88415592,8.33128317 Z M13.4771827,10.1481249 L13.4771827,7.73385324 L13.4935506,7.73385324 C13.6190382,7.90844463 13.7936296,8.04620816 14.0173248,8.14714381 C14.2410201,8.24807946 14.4783552,8.29854728 14.7293304,8.29854728 C15.0348653,8.29854728 15.3076644,8.23853149 15.5477275,8.11849991 C15.7877907,7.99846832 15.991026,7.83888087 16.1574334,7.63973756 C16.3238408,7.44059425 16.4506924,7.21007905 16.5379881,6.94819196 C16.6252838,6.68630486 16.6689317,6.41350581 16.6689317,6.12979479 C16.6689317,5.84608377 16.6239198,5.57464871 16.5338961,5.31548961 C16.4438724,5.0563305 16.3156569,4.82854329 16.1492495,4.63212797 C15.982842,4.43571265 15.7796067,4.28021719 15.5395436,4.16564158 C15.2994804,4.05106598 15.0321373,3.99377818 14.7375143,3.99377818 C14.4374354,3.99377818 14.1769123,4.05515797 13.955945,4.17791754 C13.7349778,4.30067712 13.5617504,4.44389662 13.4362628,4.60757606 L13.4362628,4.60757606 L13.4117109,4.60757606 L13.4117109,4.10835378 L12.1350113,4.10835378 L12.1350113,10.1481249 L13.4771827,10.1481249 Z M14.4101555,7.18552713 C14.257388,7.18552713 14.1209885,7.15551924 14.0009569,7.09550345 C13.8809253,7.03548765 13.7786257,6.95637593 13.6940579,6.85816827 C13.6094902,6.75996061 13.5440185,6.64811299 13.4976426,6.52262543 C13.4512668,6.39713786 13.4280789,6.26892231 13.4280789,6.13797876 C13.4280789,6.00703521 13.4512668,5.87881966 13.4976426,5.75333209 C13.5440185,5.62784452 13.6094902,5.51599691 13.6940579,5.41778925 C13.7786257,5.31958159 13.8809253,5.24046987 14.0009569,5.18045407 C14.1209885,5.12043828 14.257388,5.09043038 14.4101555,5.09043038 C14.5683789,5.09043038 14.7075064,5.12043828 14.827538,5.18045407 C14.9475696,5.24046987 15.0471413,5.3182176 15.126253,5.41369727 C15.2053647,5.50917694 15.2653805,5.61966055 15.3063004,5.74514812 C15.3472202,5.87063568 15.3676802,5.99885124 15.3676802,6.12979479 C15.3676802,6.26073833 15.3472202,6.39031789 15.3063004,6.51853344 C15.2653805,6.646749 15.2053647,6.75996061 15.126253,6.85816827 C15.0471413,6.95637593 14.9475696,7.03548765 14.827538,7.09550345 C14.7075064,7.15551924 14.5683789,7.18552713 14.4101555,7.18552713 Z M19.1341258,8.29854728 C19.2759813,8.29854728 19.4110168,8.27945135 19.5392324,8.24125948 C19.6674479,8.20306761 19.7847515,8.15396378 19.8911432,8.09394799 C19.9975348,8.0339322 20.0902865,7.96300444 20.1693982,7.88116473 C20.2485099,7.79932501 20.3126177,7.71202931 20.3617215,7.61927763 L20.3617215,7.61927763 L20.3780895,7.61927763 L20.3780895,8.18397168 L21.671157,8.18397168 L21.671157,4.10835378 L20.3289857,4.10835378 L20.3289857,6.30984216 C20.3289857,6.54444935 20.2676059,6.74904864 20.1448463,6.92364004 C20.0220867,7.09823144 19.8434033,7.18552713 19.6087961,7.18552713 C19.4833086,7.18552713 19.3823729,7.16233921 19.3059892,7.11596337 C19.2296055,7.06958754 19.1682257,7.00547976 19.1218498,6.92364004 C19.075474,6.84180032 19.0441021,6.74904864 19.0277342,6.645385 C19.0113662,6.54172136 19.0031822,6.43260174 19.0031822,6.31802614 L19.0031822,6.31802614 L19.0031822,4.10835378 L17.6528269,4.10835378 L17.6528269,6.62901706 C17.6528269,6.83634434 17.6787428,7.03957964 17.7305746,7.23872295 C17.7824065,7.43786626 17.8669742,7.61518565 17.9842778,7.77068111 C18.1015814,7.92617657 18.2543488,8.05302813 18.4425802,8.15123579 C18.6308115,8.24944345 18.8613267,8.29854728 19.1341258,8.29854728 Z M24.2427428,8.18397168 L24.2427428,6.08887493 C24.2427428,6.00703521 24.2591107,5.91155554 24.2918466,5.80243592 C24.3245825,5.6933163 24.3777783,5.59238065 24.4514341,5.49962897 C24.5250898,5.40687729 24.6232975,5.32776556 24.746057,5.26229379 C24.8688166,5.19682202 25.0202201,5.16408613 25.2002675,5.16408613 C25.2548273,5.16408613 25.3107511,5.16681412 25.3680389,5.1722701 C25.4253267,5.17772608 25.4839785,5.18863804 25.5439943,5.20500599 L25.5439943,5.20500599 L25.6012821,4.02651407 C25.5685462,4.0156021 25.5262623,4.00741813 25.4744305,4.00196215 C25.4225987,3.99650617 25.3694029,3.99377818 25.3148431,3.99377818 C25.0638679,3.99377818 24.8429007,4.05924995 24.6519414,4.1901935 C24.460982,4.32113705 24.3136705,4.49027246 24.2100069,4.69759974 L24.2100069,4.69759974 L24.193639,4.69759974 L24.193639,4.10835378 L22.9005714,4.10835378 L22.9005714,8.18397168 L24.2427428,8.18397168 Z M27.9191647,8.28217934 C28.0610202,8.28217934 28.2028757,8.26990338 28.3447313,8.24535147 C28.4865868,8.22079955 28.6038904,8.19215565 28.696642,8.15941976 L28.696642,8.15941976 L28.6802741,7.17734316 C28.6311703,7.19916709 28.5697905,7.21553503 28.4961347,7.22644699 C28.422479,7.23735895 28.3529152,7.24281494 28.2874435,7.24281494 C28.0964841,7.24281494 27.9641766,7.1950751 27.8905208,7.09959543 C27.8168651,7.00411576 27.7800372,6.86089626 27.7800372,6.66993692 L27.7800372,6.66993692 L27.7800372,5.1149823 L28.7375619,5.1149823 L28.7375619,4.10835378 L27.7800372,4.10835378 L27.7800372,3.03625349 L26.4624178,3.03625349 L26.4624178,4.10835378 L25.815884,4.10835378 L25.815884,5.1149823 L26.4706017,5.1149823 L26.4706017,6.83361635 C26.4706017,7.0518556 26.4951537,7.24963491 26.5442575,7.4269543 C26.5933613,7.60427369 26.673837,7.75704116 26.7856847,7.88525671 C26.8975323,8.01347227 27.0462077,8.11167993 27.2317111,8.17987969 C27.4172145,8.24807946 27.6463657,8.28217934 27.9191647,8.28217934 Z" id="Spurt" fill="#008200" fill-rule="nonzero"></path>
            </g>
            <g id="Group-14" transform="translate(41.000000, 0.000000)">
                <rect id="Rectangle" fill="#FFFFFF" x="0" y="0" width="51" height="18" rx="9"></rect>
                <text id="V4.8.2" font-family="Montserrat-SemiBold, Montserrat" font-size="13" font-weight="500" fill="#027600">
                    <tspan x="7" y="14">V4.8.2</tspan>
                </text>
            </g>
        </g>
    </g>
</svg>