<svg width="24" height="24" viewBox="0 0 24 24" xmlns="http://www.w3.org/2000/svg">
    <defs>
        <filter color-interpolation-filters="auto" id="clqjbih94a">
            <feColorMatrix in="SourceGraphic" values="0 0 0 0 1.000000 0 0 0 0 1.000000 0 0 0 0 1.000000 0 0 0 1.000000 0"/>
        </filter>
    </defs>
    <g transform="translate(-675 -8)" filter="url(#clqjbih94a)" fill="none" fill-rule="evenodd">
        <path d="M675 8h24v24h-24z"/>
        <path d="M679.5 21.086V27.5c0 .414.336.75.75.75h13.5a.75.75 0 0 0 .75-.75v-6.413M680.066 11.75h13.868a.75.75 0 0 1 .721.544L696 17h-18l1.345-4.706a.75.75 0 0 1 .72-.544z" stroke="#FFF" stroke-width="1.5" stroke-linecap="round" stroke-linejoin="round"/>
        <path d="M684 17v1.5a3 3 0 0 1-6 0V17M690 17v1.5a3 3 0 0 1-6 0V17M696 17v1.5a3 3 0 0 1-6 0V17" stroke="#FFF" stroke-width="1.5" stroke-linecap="round" stroke-linejoin="round"/>
    </g>
</svg>
