<svg width="24" height="24" viewBox="0 0 24 24" xmlns="http://www.w3.org/2000/svg">
    <defs>
        <filter color-interpolation-filters="auto" id="8ddgnetvna">
            <feColorMatrix in="SourceGraphic" values="0 0 0 0 1.000000 0 0 0 0 1.000000 0 0 0 0 1.000000 0 0 0 1.000000 0"/>
        </filter>
    </defs>
    <g transform="translate(-831 -8)" filter="url(#8ddgnetvna)" fill="none" fill-rule="evenodd">
        <path d="M831 8h24v24h-24z"/>
        <path d="M846.75 29h-10.5a.75.75 0 0 1-.75-.75v-13.5a.75.75 0 0 1 .75-.75h7.5l3.75 3.75v10.5a.75.75 0 0 1-.75.75z" stroke="#FFF" stroke-width="1.5" stroke-linecap="round" stroke-linejoin="round"/>
        <path d="M838.5 14v-2.25a.75.75 0 0 1 .75-.75h7.5l3.75 3.75v10.5a.75.75 0 0 1-.75.75h-2.25M839.25 22.253h4.5M839.25 25.253h4.5" stroke="#FFF" stroke-width="1.5" stroke-linecap="round" stroke-linejoin="round"/>
    </g>
</svg>
