<svg xmlns="http://www.w3.org/2000/svg" width="16" height="16" viewBox="0 0 16 16">
    <path data-name="Rectangle 1428" style="fill:none" d="M0 0h16v16H0z"/>
    <path data-name="Path 3798" d="m53.111 50.76-2.423 2.425a.628.628 0 0 1-.432.174.643.643 0 0 1-.235-.045.606.606 0 0 1-.371-.561v-1.819h-9.086a.606.606 0 0 1 0-1.212h9.086V47.9a.606.606 0 0 1 .371-.561.636.636 0 0 1 .666.129l2.424 2.432a.614.614 0 0 1 0 .86zm-10.555-4.849a.628.628 0 0 0 .432.174.643.643 0 0 0 .235-.045.606.606 0 0 0 .371-.561v-1.818h9.086a.606.606 0 0 0 0-1.212h-9.087V40.63a.606.606 0 0 0-.371-.561.636.636 0 0 0-.666.129l-2.423 2.425a.614.614 0 0 0 0 .864z" transform="translate(-38.622 -38.692)" style="fill:#fff"/>
</svg>
