<svg xmlns="http://www.w3.org/2000/svg" width="189.851" height="132.788" viewBox="0 0 189.851 132.788">
  <g id="Group_200" data-name="Group 200" transform="translate(-514.416 -369)">
    <g id="visualization-of-data" transform="translate(569.34 369.862)">
      <g id="Group_199" data-name="Group 199">
        <path id="Path_36" data-name="Path 36" d="M127.383,27.143H108.208a7.555,7.555,0,0,0-7.532,7.539V53.85a7.562,7.562,0,0,0,7.532,7.539h19.175a7.567,7.567,0,0,0,7.544-7.539V34.681A7.561,7.561,0,0,0,127.383,27.143Z" fill="#e0d8c6"/>
        <path id="Path_28" data-name="Path 28" d="M41.389,63.376H51.18a3.876,3.876,0,0,0,3.86-3.854V49.728a3.875,3.875,0,0,0-3.86-3.854H41.389a3.859,3.859,0,0,0-3.852,3.854v9.794A3.865,3.865,0,0,0,41.389,63.376Z" fill="#e0d8c6"/>
        <path id="Path_29" data-name="Path 29" d="M71.612,51.965H83.419a4.65,4.65,0,0,0,4.64-4.64v-11.8a4.646,4.646,0,0,0-4.64-4.637H71.612a4.65,4.65,0,0,0-4.64,4.637v11.8A4.655,4.655,0,0,0,71.612,51.965Z" fill="#e0d8c6"/>
        <path id="Path_30" data-name="Path 30" d="M80.387,91.605H68.577a4.651,4.651,0,0,0-4.64,4.641v11.807a4.658,4.658,0,0,0,4.64,4.634h11.81a4.661,4.661,0,0,0,4.64-4.634V96.246A4.664,4.664,0,0,0,80.387,91.605Z" fill="#e0d8c6"/>
        <path id="Path_31" data-name="Path 31" d="M100.821,81.308v-14.3a5.631,5.631,0,0,0-5.614-5.623H80.91a5.64,5.64,0,0,0-5.62,5.623v14.3a5.642,5.642,0,0,0,5.62,5.621h14.3A5.636,5.636,0,0,0,100.821,81.308Z" fill="#e0d8c6"/>
        <path id="Path_32" data-name="Path 32" d="M97.339,20.009h6.649a2.631,2.631,0,0,0,2.618-2.612V10.75a2.627,2.627,0,0,0-2.618-2.612H97.339a2.629,2.629,0,0,0-2.612,2.612V17.4A2.629,2.629,0,0,0,97.339,20.009Z" fill="#e0d8c6"/>
        <path id="Path_33" data-name="Path 33" d="M121.123,70.284h-6.649a2.622,2.622,0,0,0-2.612,2.619v6.646a2.625,2.625,0,0,0,2.612,2.619h6.649a2.616,2.616,0,0,0,2.606-2.619V72.9A2.617,2.617,0,0,0,121.123,70.284Z" fill="#e0d8c6"/>
        <path id="Path_35" data-name="Path 35" d="M106.789,91.605h-5.626a2.222,2.222,0,0,0-2.205,2.211v5.607a2.218,2.218,0,0,0,2.205,2.217h5.613a2.223,2.223,0,0,0,2.211-2.217V93.816A2.212,2.212,0,0,0,106.789,91.605Z" fill="#e0d8c6"/>
      </g>
    </g>
    <g id="data" transform="translate(514.416 368.953)">
      <path id="Path_37" data-name="Path 37" d="M0,77.441v26.39c0,6.612,16.266,13.98,39.61,13.98s39.61-7.368,39.61-13.98V77.441c-7.123,6.081-21.8,10.08-39.61,10.08S7.123,83.522,0,77.441Zm0,0" transform="translate(0 -54.853)" fill="#e0d8c6"/>
      <path id="Path_38" data-name="Path 38" d="M0,197.441V221.5c0,6.612,16.266,13.98,39.61,13.98s39.61-7.368,39.61-13.98v-24.06c-7.123,6.081-21.8,10.08-39.61,10.08S7.123,203.522,0,197.441Zm0,0" transform="translate(0 -139.903)" fill="#e0d8c6"/>
      <path id="Path_39" data-name="Path 39" d="M0,309.441v26.39c0,6.612,16.266,13.98,39.61,13.98s39.61-7.368,39.61-13.98v-26.39c-7.123,6.081-21.8,10.08-39.61,10.08S7.123,315.522,0,309.441Zm0,0" transform="translate(0 -219.283)" fill="#e0d8c6"/>
      <path id="Path_40" data-name="Path 40" d="M79.22,14.031C79.22,6.309,61.485.051,39.61.051S0,6.309,0,14.031s17.734,13.98,39.61,13.98,39.61-6.26,39.61-13.98Zm0,0" transform="translate(0 -0.003)" fill="#e0d8c6"/>
      <path id="Path_41" data-name="Path 41" d="M306.64,32.668V11.7a2.33,2.33,0,0,1,2.33-2.33h14.409a6.99,6.99,0,1,0,0-4.66H308.97a6.99,6.99,0,0,0-6.99,6.99v20.97A2.33,2.33,0,0,1,299.65,35H288v4.66h11.65a6.99,6.99,0,0,0,6.99-6.99Zm20.97-27.96h4.66v4.66h-4.66Zm0,0" transform="translate(-204.12 0)" fill="#e0d8c6"/>
      <path id="Path_43" data-name="Path 43" d="M329.94,362.691a6.965,6.965,0,0,0-6.561,4.66H308.97a2.33,2.33,0,0,1-2.33-2.33v-13.98a6.99,6.99,0,0,0-6.99-6.99H288v4.66h11.65a2.33,2.33,0,0,1,2.33,2.33v13.98a6.99,6.99,0,0,0,6.99,6.99h14.409a6.978,6.978,0,1,0,6.561-9.32Zm2.33,9.32h-4.66v-4.66h4.66Zm0,0" transform="translate(-204.12 -243.813)" fill="#e0d8c6"/>
    </g>
  </g>
</svg>
