<svg xmlns="http://www.w3.org/2000/svg" width="16" height="16" viewBox="0 0 16 16">
    <path data-name="Rectangle 1427" style="fill:none" d="M0 0h16v16H0z"/>
    <g data-name="Path 3797" style="fill:none">
        <path d="M29.084 33.242a3.724 3.724 0 0 0-2.7-1.255 3.784 3.784 0 0 0-2.76 1.11l-.6.6-.47-.467a3.882 3.882 0 0 0-5.307-.271 3.793 3.793 0 0 0-.144 5.488l5.213 5.242a.993.993 0 0 0 1.418 0l5.081-5.11a3.942 3.942 0 0 0 .269-5.337z" style="stroke:none" transform="translate(-14.999 -29.985)"/>
        <path d="M26.304 32.985c-.743 0-1.442.291-1.972.82l-1.306 1.3-1.182-1.172a3.041 3.041 0 0 0-2.147-.897c-.677 0-1.308.235-1.78.664A2.799 2.799 0 0 0 17 35.697c-.02.761.276 1.506.812 2.044l5.213 5.242 5.082-5.111c.535-.535.85-1.25.888-2.012.038-.745-.195-1.437-.655-1.95l-.004-.005a2.732 2.732 0 0 0-2.032-.92m0-1 .083.001c1.033.025 2.01.48 2.697 1.256 1.318 1.47 1.199 3.867-.27 5.336l-5.08 5.11a.995.995 0 0 1-1.418 0l-5.213-5.242a3.79 3.79 0 0 1 .145-5.488c1.461-1.331 3.845-1.205 5.306.271l.47.467.603-.6a3.784 3.784 0 0 1 2.677-1.11z" style="fill:#fff;stroke:none" transform="translate(-14.999 -29.985)"/>
    </g>
</svg>
