<svg xmlns="http://www.w3.org/2000/svg" width="19" height="19" viewBox="0 0 19 19">
    <defs>
        <filter id="szgkrgppra" color-interpolation-filters="auto">
            <feColorMatrix in="SourceGraphic" values="0 0 0 0 0.211765 0 0 0 0 0.521569 0 0 0 0 0.929412 0 0 0 1.000000 0"/>
        </filter>
    </defs>
    <g fill="none" fill-rule="evenodd">
        <g filter="url(#szgkrgppra)" transform="translate(-275.000000, -88.000000)">
            <g fill="#000" fill-rule="nonzero">
                <path d="M18.997 10.708c-.013-.142-.066-.279-.153-.404L14.959 4.69c-.161-.233-.427-.372-.71-.372h-2.59c-.24 0-.432.193-.432.432v.864c0 .238.193.431.431.431h2.138l2.989 4.319H14.68c-.952 0-1.726.774-1.726 1.727 0 .476-.387.864-.864.864H6.91c-.477 0-.864-.388-.864-.864 0-.953-.775-1.727-1.726-1.727H2.215l2.989-4.319h2.137c.24 0 .432-.193.432-.431V4.75c0-.239-.193-.432-.432-.432h-2.59c-.283 0-.549.14-.71.372L.156 10.304c-.087.125-.14.27-.153.412-.006.028 0 6.557 0 6.557C.003 18.225.777 19 1.729 19h15.542c.952 0 1.726-.775 1.726-1.727 0 0 .006-6.537 0-6.565z" transform="translate(275.000000, 88.000000)"/>
                <path d="M6.605 7.289l-.61.61c-.17.169-.17.442 0 .61l2.895 2.897c.168.169.39.253.61.253.22 0 .442-.084.61-.253l2.896-2.896c.168-.169.168-.442 0-.61l-.61-.611c-.17-.169-.442-.169-.611 0L10.363 8.71V.43c0-.238-.193-.431-.431-.431h-.864c-.238 0-.431.193-.431.432V8.71L7.215 7.289c-.169-.169-.442-.169-.61 0z" transform="translate(275.000000, 88.000000)"/>
            </g>
        </g>
    </g>
</svg>
