<svg xmlns="http://www.w3.org/2000/svg" width="19" height="19" viewBox="0 0 19 19">
    <defs>
        <filter id="xwsfl7j1fa" color-interpolation-filters="auto">
            <feColorMatrix in="SourceGraphic" values="0 0 0 0 1.000000 0 0 0 0 1.000000 0 0 0 0 1.000000 0 0 0 1.000000 0"/>
        </filter>
    </defs>
    <g fill="none" fill-rule="evenodd">
        <g filter="url(#xwsfl7j1fa)" transform="translate(-152.000000, -88.000000)">
            <g>
                <path fill="#000" fill-rule="nonzero" d="M12.84 0H6.16c-.92 0-1.67.75-1.67 1.67v3.414c0 .92.75 1.67 1.67 1.67h6.68c.92 0 1.67-.75 1.67-1.67V1.67c0-.92-.75-1.67-1.67-1.67zM17.887 13.434h-1.114v-.557c0-.92-.749-1.67-1.67-1.67h-5.046V10.09h1.67c.307 0 .556-.245.556-.553 0-.308-.249-.557-.556-.557h-.557V7.867H7.83V8.98h-.557c-.307 0-.556.25-.556.557 0 .308.249.553.556.553h1.67v1.117H3.896c-.92 0-1.67.75-1.67 1.67v.557H1.114c-.615 0-1.113.498-1.113 1.113v1.113c0 .615.498 1.113 1.113 1.113h1.114v1.114H1.67c-.308 0-.557.249-.557.556 0 .308.25.557.557.557h2.226c.308 0 .557-.249.557-.557 0-.307-.249-.556-.557-.556H3.34v-1.114h1.113c.615 0 1.113-.498 1.113-1.113v-1.113c0-.615-.498-1.113-1.113-1.113H3.34v-.557c0-.307.25-.557.556-.557h5.047v1.114H7.83c-.615 0-1.113.498-1.113 1.113v1.113c0 .615.498 1.113 1.113 1.113h1.113v1.114h-.556c-.308 0-.557.249-.557.556 0 .308.249.557.557.557h2.226c.308 0 .557-.249.557-.557 0-.307-.249-.556-.557-.556h-.556v-1.114h1.113c.615 0 1.113-.498 1.113-1.113v-1.113c0-.615-.498-1.113-1.113-1.113h-1.113V12.32h5.047c.307 0 .556.25.556.557v.557h-1.113c-.615 0-1.113.498-1.113 1.113v1.113c0 .615.498 1.113 1.113 1.113h1.113v1.114h-.556c-.308 0-.557.249-.557.556 0 .308.249.557.557.557h2.226c.308 0 .557-.249.557-.557 0-.307-.25-.556-.557-.556h-.557v-1.114h1.114c.615 0 1.113-.498 1.113-1.113v-1.113c0-.615-.498-1.113-1.113-1.113z" transform="translate(152.000000, 88.000000)"/>
            </g>
        </g>
    </g>
</svg>
