<svg xmlns="http://www.w3.org/2000/svg" width="16" height="19" viewBox="0 0 16 19">
    <defs>
        <filter id="32liwpzvfa" color-interpolation-filters="auto">
            <feColorMatrix in="SourceGraphic" values="0 0 0 0 0.211765 0 0 0 0 0.521569 0 0 0 0 0.929412 0 0 0 1.000000 0"/>
        </filter>
    </defs>
    <g fill="none" fill-rule="evenodd">
        <g filter="url(#32liwpzvfa)" transform="translate(-18.000000, -87.000000)">
            <g fill="#000" fill-rule="nonzero">
                <path d="M11.536 11.207c-2.12 0-3.846 1.748-3.846 3.897C7.69 17.213 9.373 19 11.536 19c2.12 0 3.845-1.748 3.845-3.896 0-2.149-1.725-3.897-3.845-3.897zm1.487 3.455l-1.648 1.67c-.215.217-.562.217-.777 0l-.824-.835c-.215-.217-.215-.57 0-.787.215-.217.562-.217.777 0l.435.441 1.26-1.276c.215-.217.562-.217.777 0 .214.217.214.57 0 .787z" transform="translate(18.000000, 87.000000)"/>
                <path d="M11.536 0H.549C.246 0 0 .249 0 .557v15.66c0 .307.246.556.55.556h6.335l-.007-.016c-.184-.479-.286-1.05-.286-1.653 0-2.763 2.218-5.01 4.944-5.01.188 0 .366.035.549.056V.557c0-.308-.246-.557-.55-.557zm-8.79 11.207c-.303 0-.549-.25-.549-.557 0-.307.246-.556.55-.556.303 0 .549.249.549.556 0 .308-.246.557-.55.557zm0-2.227c-.303 0-.549-.249-.549-.556 0-.308.246-.557.55-.557.303 0 .549.25.549.557 0 .307-.246.556-.55.556zm0-2.226c-.303 0-.549-.25-.549-.557 0-.307.246-.556.55-.556.303 0 .549.249.549.556 0 .308-.246.557-.55.557zm0-2.227c-.303 0-.549-.249-.549-.556 0-.308.246-.557.55-.557.303 0 .549.25.549.557 0 .307-.246.556-.55.556zm4.395 6.68H4.944c-.304 0-.55-.249-.55-.557 0-.307.246-.556.55-.556H7.14c.304 0 .55.249.55.556 0 .308-.246.557-.55.557zM9.338 8.98H4.944c-.304 0-.55-.248-.55-.556 0-.308.246-.557.55-.557h4.394c.304 0 .55.25.55.557 0 .308-.246.556-.55.556zm0-2.226H4.944c-.304 0-.55-.25-.55-.557 0-.307.246-.556.55-.556h4.394c.304 0 .55.249.55.556 0 .308-.246.557-.55.557zm0-2.227H4.944c-.304 0-.55-.249-.55-.556 0-.308.246-.557.55-.557h4.394c.304 0 .55.249.55.557 0 .307-.246.556-.55.556z" transform="translate(18.000000, 87.000000)"/>
            </g>
        </g>
    </g>
</svg>
