<svg xmlns="http://www.w3.org/2000/svg" width="20" height="19" viewBox="0 0 20 19">
    <defs>
        <filter id="mbam6qcxta" color-interpolation-filters="auto">
            <feColorMatrix in="SourceGraphic" values="0 0 0 0 0.211765 0 0 0 0 0.521569 0 0 0 0 0.929412 0 0 0 1.000000 0"/>
        </filter>
    </defs>
    <g fill="none" fill-rule="evenodd">
        <g filter="url(#mbam6qcxta)" transform="translate(-391.000000, -88.000000)">
            <g fill="#000" fill-rule="nonzero" transform="translate(391.000000, 88.000000)">
                <path d="M17.815 15.26c-.527.479-1.227.771-1.994.771-.647 0-1.262-.205-1.78-.593-.074-.056-.145-.116-.214-.179-.708.58-1.16 1.459-1.16 2.442v.742c0 .308.249.557.556.557h5.196c.307 0 .556-.25.556-.557v-.742c0-.983-.452-1.862-1.16-2.441zM15.821 14.918c1.023 0 1.855-.832 1.855-1.855 0-1.024-.832-1.856-1.855-1.856-.153 0-.302.019-.444.054-.266.883-.725 1.682-1.33 2.348.235.757.941 1.309 1.774 1.309z"/>
                <path d="M5.149 15.26c-.528.479-1.228.771-1.995.771-.646 0-1.262-.205-1.779-.593-.075-.056-.146-.116-.215-.179C.453 15.84 0 16.718 0 17.701v.742c0 .308.25.557.557.557h5.195c.307 0 .557-.25.557-.557v-.742c0-.983-.453-1.862-1.16-2.441z" transform="translate(3.154294, 17.129687) scale(-1, 1) translate(-3.154294, -17.129687)"/>
                <path d="M3.154 14.918c1.023 0 1.856-.832 1.856-1.855 0-1.024-.833-1.856-1.856-1.856-.153 0-.301.019-.444.054-.265.883-.725 1.682-1.329 2.348.234.757.94 1.309 1.773 1.309z" transform="translate(3.195448, 13.062500) scale(-1, 1) translate(-3.195448, -13.062500)"/>
                <path d="M17.853 4.053c-.528.479-1.228.771-1.995.771-.767 0-1.467-.292-1.994-.771-.22.181-.417.391-.582.625.998.782 1.748 1.867 2.111 3.115h3.063c.307 0 .556-.25.556-.557v-.742c0-.983-.452-1.862-1.16-2.441zM1.172 4.053C.465 4.63.012 5.51.012 6.494v.742c0 .308.25.557.557.557h3.063c.363-1.248 1.113-2.333 2.111-3.115-.165-.234-.361-.444-.582-.625-.528.479-1.227.771-1.994.771-.767 0-1.467-.292-1.995-.771zM3.167 3.71c-1.023 0-1.856-.831-1.856-1.855C1.311.832 2.144 0 3.167 0 4.19 0 5.022.832 5.022 1.855c0 1.024-.832 1.856-1.855 1.856zM15.858 3.71c-1.023 0-1.855-.831-1.855-1.855C14.003.832 14.835 0 15.858 0c1.023 0 1.856.832 1.856 1.855 0 1.024-.833 1.856-1.856 1.856zM7.476 14.077c.623.278 1.312.433 2.036.433.725 0 1.414-.155 2.037-.433v-.95c-.045-1.099-.938-1.957-2.037-1.957-1.098 0-1.99.858-2.036 1.956v.95z"/>
                <circle cx="9.512" cy="8.943" r="1.113"/>
                <path d="M9.512 4.49c-2.762 0-5.01 2.248-5.01 5.01 0 1.57.727 2.974 1.86 3.893v-.277l.001-.02c.03-.819.37-1.583.959-2.153.181-.175.38-.326.592-.452-.388-.4-.628-.946-.628-1.548 0-1.227.999-2.226 2.226-2.226 1.228 0 2.227.999 2.227 2.226 0 .602-.24 1.147-.629 1.548.213.126.412.277.593.452.588.57.929 1.334.958 2.152V13.393c1.135-.92 1.861-2.323 1.861-3.893 0-2.762-2.247-5.01-5.01-5.01z"/>
            </g>
        </g>
    </g>
</svg>
