<svg xmlns="http://www.w3.org/2000/svg" width="19.714" height="18" viewBox="0 0 19.714 18">
  <g id="cms-files-group-on" transform="translate(0)">
    <g id="Group_29" data-name="Group 29" transform="translate(-128 -89)">
      <g id="Group_28" data-name="Group 28">
        <path id="Path_90" data-name="Path 90" d="M17.918,0a.633.633,0,1,0,0,1.265.523.523,0,0,1,.524.521V16.213a.523.523,0,0,1-.524.521.633.633,0,1,0,0,1.265,1.793,1.793,0,0,0,1.8-1.786V1.786A1.793,1.793,0,0,0,17.918,0ZM14.97,0a.633.633,0,1,0,0,1.265.523.523,0,0,1,.524.521V16.213a.523.523,0,0,1-.524.521.633.633,0,1,0,0,1.265,1.793,1.793,0,0,0,1.8-1.786V1.786A1.792,1.792,0,0,0,14.971,0ZM13.82,1.786V16.213A1.793,1.793,0,0,1,12.023,18H6.072a.635.635,0,0,1-.636-.634c0-.564,0-1.689,0-3.978a.8.8,0,0,0-.8-.793c-2.3,0-3.434,0-4,0A.635.635,0,0,1,0,11.961V1.786A1.791,1.791,0,0,1,1.8,0H12.023A1.793,1.793,0,0,1,13.82,1.786ZM4.826,13.832v3.535a.637.637,0,0,1-1.086.447C-.1,14,.063,14.217.012,13.954A.634.634,0,0,1,.636,13.2H4.19a.634.634,0,0,1,.636.632Z" transform="translate(128 89)" fill="#fff"/>
      </g>
    </g>
  </g>
</svg>
