<svg id="cms-files-on_1_" data-name="cms-files-on (1)" xmlns="http://www.w3.org/2000/svg" width="17.19" height="19.001" viewBox="0 0 17.19 19.001">
  <g id="Group_34" data-name="Group 34" transform="translate(-24 -88)">
    <g id="Group_33" data-name="Group 33">
      <path id="Path_1" data-name="Path 1" d="M13.513.63l3.044,3H14.87a1.353,1.353,0,0,1-1.357-1.34ZM10.563,19H1.357A1.351,1.351,0,0,1,0,17.66V4.505A1.352,1.352,0,0,1,1.357,3.166H7.342v2.29A2.247,2.247,0,0,0,9.6,7.688h2.32v9.974A1.355,1.355,0,0,1,10.564,19Zm.728-12.2H9.6a1.352,1.352,0,0,1-1.357-1.34V3.8Zm4.542,9.04H12.825v-8.6a.456.456,0,0,0-.131-.317l-4.57-4.5,0-.005a.449.449,0,0,0-.325-.134H5.27V1.34A1.353,1.353,0,0,1,6.627,0h5.985V2.29a2.247,2.247,0,0,0,2.262,2.232H17.19v9.973a1.351,1.351,0,0,1-1.357,1.34Z" transform="translate(24 88)" fill="#b282e7"/>
    </g>
  </g>
</svg>
