<svg width="20" height="20" viewBox="0 0 20 20" xmlns="http://www.w3.org/2000/svg">
    <g fill="none" fill-rule="evenodd">
        <path d="M0 0h20v20H0z"/>
        <path d="M16.875 3.75H13.75v-.625a1.877 1.877 0 0 0-1.875-1.875h-3.75A1.877 1.877 0 0 0 6.25 3.125v.625H3.125a.625.625 0 0 0 0 1.25h.625v11.25c0 .69.56 1.25 1.25 1.25h10c.69 0 1.249-.56 1.25-1.25V5h.625a.625.625 0 1 0 0-1.25zM8.75 13.125a.625.625 0 1 1-1.25 0v-5a.625.625 0 1 1 1.25 0v5zm3.75 0a.625.625 0 1 1-1.25 0v-5a.625.625 0 1 1 1.25 0v5zm0-9.375h-5v-.625c0-.345.28-.625.625-.625h3.75c.345 0 .625.28.625.625v.625z" fill="#FFF" fill-rule="nonzero"/>
    </g>
</svg>
