<svg width="11" height="12" viewBox="0 0 11 12" xmlns="http://www.w3.org/2000/svg">
    <path d="M10.542 1.846H8.25v-.461C8.25.62 7.634 0 6.875 0h-2.75C3.366 0 2.751.62 2.75 1.385v.461H.458A.46.46 0 0 0 0 2.308a.46.46 0 0 0 .458.461h.459v8.308c0 .51.41.922.916.923h7.334a.92.92 0 0 0 .916-.923V2.769h.459A.46.46 0 0 0 11 2.308a.46.46 0 0 0-.458-.462zM4.584 8.77a.46.46 0 0 1-.459.462.46.46 0 0 1-.458-.462V5.077a.46.46 0 0 1 .458-.462.46.46 0 0 1 .459.462v3.692zm2.75 0a.46.46 0 0 1-.459.462.46.46 0 0 1-.458-.462V5.077a.46.46 0 0 1 .458-.462.46.46 0 0 1 .459.462v3.692zm0-6.923H3.667v-.461a.46.46 0 0 1 .458-.462h2.75a.46.46 0 0 1 .459.462v.461z" fill="#404040" fill-rule="nonzero"/>
</svg>
