<svg width="23" height="23" viewBox="0 0 23 23" xmlns="http://www.w3.org/2000/svg">
    <g fill="none" fill-rule="evenodd">
        <path d="M0 0h23v23H0z"/>
        <path d="M11.5 2.156a9.344 9.344 0 1 0 9.344 9.344A9.355 9.355 0 0 0 11.5 2.156zm3.383 11.71a.719.719 0 1 1-1.016 1.017L11.5 12.516l-2.367 2.367a.719.719 0 0 1-1.016-1.016l2.367-2.367-2.367-2.367a.719.719 0 0 1 1.016-1.016l2.367 2.367 2.367-2.367a.719.719 0 0 1 1.016 1.016L12.516 11.5l2.367 2.367z" fill="#D7D7D7" fill-rule="nonzero"/>
    </g>
</svg>
