<svg xmlns="http://www.w3.org/2000/svg" width="12" height="18" viewBox="0 0 12 18">
    <g fill="none" fill-rule="evenodd">
        <g fill="#FFF" fill-rule="nonzero">
            <g>
                <path d="M11.433 8.812c-.066-.276-.269-.499-.538-.588L6.881 6.886l2.85-5.702c.18-.359.073-.795-.253-1.03-.325-.234-.773-.198-1.057.086L.24 8.42c-.2.201-.283.491-.218.767.065.276.268.499.537.588l4.015 1.338-2.851 5.702c-.18.359-.072.795.253 1.03.328.236.775.196 1.057-.086l8.182-8.181c.2-.201.283-.491.218-.767zM5.44 13.038l1.018-2.036c.106-.212.115-.46.024-.679-.09-.219-.272-.388-.497-.463L2.333 8.642l3.68-3.68-1.018 2.036c-.106.212-.114.46-.024.679.091.219.272.388.497.463l3.654 1.218-3.681 3.68z" transform="translate(-310 -578) translate(310 578)"/>
            </g>
        </g>
    </g>
</svg>
