<svg width="16" height="16" viewBox="0 0 16 16" xmlns="http://www.w3.org/2000/svg">
    <defs>
        <filter color-interpolation-filters="auto" id="a">
            <feColorMatrix in="SourceGraphic" values="0 0 0 0 0.419608 0 0 0 0 0.466667 0 0 0 0 0.494118 0 0 0 1.000000 0"/>
        </filter>
    </defs>
    <g transform="translate(-592 -428)" filter="url(#a)" fill="none" fill-rule="evenodd">
        <g transform="translate(592 428)" fill="#000" fill-rule="nonzero">
            <path d="M15.531 15.06h-.5V6.388a.47.47 0 0 0-.469-.47h-3.124a.47.47 0 0 0-.47.47v8.674h-.937V8.892a.47.47 0 0 0-.469-.47H6.438a.47.47 0 0 0-.47.47v6.169h-.937v-3.664a.47.47 0 0 0-.468-.47H1.438a.47.47 0 0 0-.47.47v3.664h-.5a.47.47 0 0 0 0 .939h15.063a.47.47 0 0 0 0-.94z"/>
            <circle cx="2.959" cy="6.247" r="1.205"/>
            <circle cx="8" cy="3.836" r="1.205"/>
            <path d="M1.551 10.082h3.035a.456.456 0 0 0 .455-.457v-.61c0-.432-.164-.827-.432-1.125a2.113 2.113 0 0 1-3.081 0 1.675 1.675 0 0 0-.432 1.125v.61c0 .252.204.457.455.457zM6.373 7.452h3.035a.456.456 0 0 0 .455-.457v-.61c0-.432-.164-.827-.432-1.125a2.113 2.113 0 0 1-3.081 0 1.675 1.675 0 0 0-.432 1.125v.61c0 .252.204.457.455.457zM11.633 5.041h3.035a.456.456 0 0 0 .455-.457v-.61c0-.432-.163-.827-.432-1.125a2.113 2.113 0 0 1-3.08 0 1.675 1.675 0 0 0-.433 1.125v.61c0 .252.204.457.455.457z"/>
            <circle cx="13.041" cy="1.205" r="1.205"/>
        </g>
    </g>
</svg>
