<svg id="Marketplace" xmlns="http://www.w3.org/2000/svg" width="30" height="21" viewBox="0 0 30 21">
  <g id="marketplace-dashboard" transform="translate(-79 -84)">
    <g id="Group_1" data-name="Group 1" transform="translate(79 84)">
      <path id="Shape" d="M19.8.778A14.972,14.972,0,0,0,0,15.008,22.85,22.85,0,0,0,.6,20.4a.645.645,0,0,0,.6.6H28.65a1,1,0,0,0,.75-.6,34.88,34.88,0,0,0,.6-5.393A14.844,14.844,0,0,0,19.8.778ZM15,3.025a1.416,1.416,0,0,1,1.5,1.5A1.416,1.416,0,0,1,15,6.02a1.416,1.416,0,0,1-1.5-1.5A1.416,1.416,0,0,1,15,3.025ZM4.5,16.506a1.416,1.416,0,0,1-1.5-1.5,1.416,1.416,0,0,1,1.5-1.5,1.416,1.416,0,0,1,1.5,1.5A1.416,1.416,0,0,1,4.5,16.506ZM8.7,8.717a1.451,1.451,0,0,1-2.1,0A1.809,1.809,0,0,1,6.45,6.47a1.451,1.451,0,0,1,2.1,0A1.809,1.809,0,0,1,8.7,8.717ZM15,18c-1.65,0-3.15-1.5-2.7-3S15,9.016,15,9.016s2.25,4.494,2.7,5.992S16.65,18,15,18Zm8.55-9.287a1.484,1.484,0,0,1-2.1-2.1,1.451,1.451,0,0,1,2.1,0A1.794,1.794,0,0,1,23.55,8.717Zm1.95,7.789a1.416,1.416,0,0,1-1.5-1.5,1.5,1.5,0,0,1,3,0A1.416,1.416,0,0,1,25.5,16.506Z" fill="#3585ed"/>
    </g>
  </g>
</svg>
