<svg id="Marketplace" xmlns="http://www.w3.org/2000/svg" width="19" height="25" viewBox="0 0 19 25">
  <g id="marketplace-sale-order" transform="translate(-14 -403)">
    <g id="Group_4" data-name="Group 4" transform="translate(14 403)">
      <path id="Shape" d="M18.064,0H.936A.854.854,0,0,0,0,.732V24.268A.855.855,0,0,0,.936,25H18.064A.855.855,0,0,0,19,24.268V.732A.854.854,0,0,0,18.064,0ZM6.518,20.73a.728.728,0,0,1-.723.732H2.53a.728.728,0,0,1-.723-.732V17.435A.728.728,0,0,1,2.53,16.7H5.795a.728.728,0,0,1,.723.732Zm0-6.583a.728.728,0,0,1-.723.732H2.53a.728.728,0,0,1-.723-.732V10.853a.728.728,0,0,1,.723-.732H5.795a.728.728,0,0,1,.723.732Zm0-6.582a.728.728,0,0,1-.723.732H2.53a.728.728,0,0,1-.723-.732V4.27a.728.728,0,0,1,.723-.732H5.795a.728.728,0,0,1,.723.732ZM16.486,19.89H9.374a.732.732,0,0,1,0-1.465h7.113a.732.732,0,0,1,0,1.465Zm0-6.689H9.374a.732.732,0,0,1,0-1.465h7.113a.732.732,0,0,1,0,1.465Zm0-6.552H9.374a.732.732,0,0,1,0-1.465h7.113a.732.732,0,0,1,0,1.465Z" fill="#3585ed"/>
      <path id="Path" d="M3.254,11.585H5.072v1.829H3.254Z" fill="#3585ed"/>
      <path id="Path-2" data-name="Path" d="M3.254,5H5.072v1.83H3.254Z" fill="#3585ed"/>
      <path id="Path-3" data-name="Path" d="M3.254,18.168H5.072V20H3.254Z" fill="#3585ed"/>
    </g>
  </g>
</svg>
