<svg id="Marketplace" xmlns="http://www.w3.org/2000/svg" width="26" height="15" viewBox="0 0 26 15">
  <g id="marketplace-settlement">
    <g id="Group_7" data-name="Group 7">
      <path id="Path" d="M6.287,1.192C5.419.325,1.734.108.542,0A.4.4,0,0,0,.217.108.822.822,0,0,0,0,.542V10.3a.512.512,0,0,0,.542.542H3.794a.6.6,0,0,0,.542-.325c0-.325,1.951-6.07,2.168-8.888A.433.433,0,0,0,6.287,1.192Z" fill="#3585ed"/>
      <path id="Path-2" data-name="Path" d="M21.416,4.667c-1.084-.325-2.059-.759-2.927-1.084-1.951-.867-2.818-.434-4.552,1.3A3.546,3.546,0,0,0,12.745,7.16c0,.108,0,.108.217.217.542.217,1.3.325,2.059-.867a.563.563,0,0,1,.434-.217,2.009,2.009,0,0,0,.759-.217,5.288,5.288,0,0,1,.759-.325h.217c.108,0,.325.108.434.108.542.542,1.518,1.3,2.493,2.168A24.823,24.823,0,0,1,23.909,11.5h.108C23.259,9.328,21.958,5.643,21.416,4.667Z" transform="translate(-3.54 -0.876)" fill="#3585ed"/>
      <path id="Path-3" data-name="Path" d="M32.545,1.5a19.008,19.008,0,0,0-6.72,1.084l-.325.325a.652.652,0,0,0,.108.434,61.051,61.051,0,0,1,3.143,8.563.72.72,0,0,0,.542.434h3.252a.512.512,0,0,0,.542-.542V2.042A.512.512,0,0,0,32.545,1.5Z" transform="translate(-7.087 -0.416)" fill="#3585ed"/>
      <path id="Path-4" data-name="Path" d="M21.769,12.954c-.433-.976-2.274-2.385-3.9-3.685C17,8.51,16.138,7.86,15.488,7.318c-.108.108-.325.108-.325.217a2.039,2.039,0,0,1-.866.217,2.674,2.674,0,0,1-3.14,1.084,1.281,1.281,0,0,1-.975-.976c-.217-1.084.758-2.6,1.516-3.36H9.533A55.3,55.3,0,0,1,7.8,11,12.242,12.242,0,0,0,8.991,12.2c2.057,1.734,4.44,3.468,4.873,3.794a3.076,3.076,0,0,0,1.3.434h.325l-1.733-1.734a.536.536,0,0,1,.758-.759L16.679,16.1c.217.217.433.108.65.108.325-.108.433-.325.541-.65L15.38,13.063a.536.536,0,0,1,.758-.759l2.707,2.71a1.158,1.158,0,0,0,.866,0c.108-.108.325-.217.433-.434l-3.032-3.035a.536.536,0,0,1,.758-.759l3.14,3.143a.715.715,0,0,0,.65-.108A.736.736,0,0,0,21.769,12.954Z" transform="translate(-2.164 -1.423)" fill="#3585ed"/>
    </g>
  </g>
</svg>
