<svg id="settle-history-on" xmlns="http://www.w3.org/2000/svg" width="17.857" height="25" viewBox="0 0 17.857 25">
  <g id="Group_37" data-name="Group 37" transform="translate(-16 -557)">
    <g id="Group_36" data-name="Group 36">
      <path id="Path_5" data-name="Path 5" d="M5.208.431.436,5.147H5.208ZM8.929,9.559a4.412,4.412,0,1,0,4.464,4.412A4.444,4.444,0,0,0,8.929,9.559ZM11.9,14.706H8.185V11.029H9.673v2.206H11.9V14.7Z" transform="translate(16 557)" fill="#3585ed"/>
      <path id="Path_6" data-name="Path 6" d="M6.7,0V6.618H0V25H17.857V0H6.7ZM8.93,19.853a5.883,5.883,0,1,1,5.952-5.882A5.924,5.924,0,0,1,8.93,19.853Z" transform="translate(16 557)" fill="#3585ed"/>
    </g>
  </g>
</svg>
