<svg xmlns="http://www.w3.org/2000/svg" width="19" height="19" viewBox="0 0 19 19">
    <defs>
        <filter id="6odqppba1a" color-interpolation-filters="auto">
            <feColorMatrix in="SourceGraphic" values="0 0 0 0 0.058824 0 0 0 0 0.682353 0 0 0 0 0.380392 0 0 0 1.000000 0"/>
        </filter>
    </defs>
    <g fill="none" fill-rule="evenodd">
        <g filter="url(#6odqppba1a)" transform="translate(-156.000000, -83.000000)">
            <g>
                <path fill="#000" fill-rule="nonzero" d="M3.538 7.672c.964 0 1.749-.785 1.749-1.75 0-.964-.785-1.748-1.75-1.748-.964 0-1.748.784-1.748 1.749 0 .964.784 1.749 1.749 1.749zM15.462 7.672c.965 0 1.75-.785 1.75-1.75 0-.964-.785-1.748-1.75-1.748-.964 0-1.749.784-1.749 1.749 0 .964.785 1.749 1.75 1.749zM6.817 0c-.964 0-1.75.785-1.75 1.75 0 .964.786 1.748 1.75 1.748s1.75-.784 1.75-1.749C8.566.785 7.78 0 6.816 0zM13.932 1.75c0-.965-.785-1.75-1.749-1.75-.964 0-1.75.785-1.75 1.75 0 .964.786 1.748 1.75 1.748s1.75-.784 1.75-1.749zM5.838 13.162c-.444-.444-1.163-.445-1.608 0l-.01.01c-.43.44-.441 1.148.026 1.615l.372.372c.212.212.231.557.03.779-.216.236-.583.243-.806.02L2.244 14.36c-.104-.105-.163-.246-.163-.394v-3.9c0-.456-.28-1.495-1.416-1.717C.321 8.282 0 8.544 0 8.895v6.207c0 .148.059.29.163.394l3.341 3.341c.104.104.246.163.394.163h3.217c.308 0 .557-.25.557-.557v-3.217c0-.148-.059-.29-.163-.394l-1.67-1.67zM18.335 8.349c-1.135.222-1.416 1.261-1.416 1.717v3.9c0 .148-.059.29-.163.394l-1.598 1.597c-.223.224-.59.217-.805-.02-.202-.221-.183-.566.03-.778l.371-.372c.467-.467.456-1.175.026-1.615l-.01-.01c-.445-.445-1.164-.444-1.608 0l-1.67 1.67c-.105.105-.164.246-.164.394v3.217c0 .308.25.557.557.557h3.217c.148 0 .29-.059.394-.163l3.341-3.341c.104-.104.163-.246.163-.394V8.895c0-.35-.32-.613-.665-.546z" transform="translate(156.000000, 83.000000)"/>
            </g>
        </g>
    </g>
</svg>
