<svg xmlns="http://www.w3.org/2000/svg" width="21" height="18" viewBox="0 0 21 18">
    <defs>
        <filter id="nv38x431ja" color-interpolation-filters="auto">
            <feColorMatrix in="SourceGraphic" values="0 0 0 0 0.054902 0 0 0 0 0.682353 0 0 0 0 0.380392 0 0 0 1.000000 0"/>
        </filter>
    </defs>
    <g fill="none" fill-rule="evenodd">
        <g filter="url(#nv38x431ja)" transform="translate(-20.000000, -84.000000)">
            <g fill="#000" fill-rule="nonzero" transform="translate(20.000000, 84.000000)">
                <path d="M10.5 0c-.838 0-1.52.685-1.52 1.527 0 .842.682 1.527 1.52 1.527s1.52-.685 1.52-1.527C12.02.685 11.338 0 10.5 0zM17.91 9.724c-.838 0-1.52.685-1.52 1.527 0 .842.682 1.527 1.52 1.527s1.52-.685 1.52-1.527c0-.842-.682-1.527-1.52-1.527zM14.205 4.862c-.838 0-1.52.685-1.52 1.527 0 .842.682 1.527 1.52 1.527s1.52-.685 1.52-1.527c0-.842-.682-1.527-1.52-1.527zM10.5 12.778c.838 0 1.52-.685 1.52-1.527 0-.842-.682-1.527-1.52-1.527s-1.52.685-1.52 1.527c0 .842.682 1.527 1.52 1.527zM9.491 8.682c.313-.124.653-.193 1.009-.193.356 0 .696.069 1.009.193.22-.148.46-.276.713-.382-.474-.497-.767-1.17-.767-1.911 0-.673.241-1.29.641-1.77-.485-.223-1.041-.33-1.596-.33-.555 0-1.111.107-1.596.33.4.48.641 1.097.641 1.77 0 .74-.292 1.414-.767 1.91.253.107.492.235.713.383zM5.275 6.389c0 .842.682 1.527 1.52 1.527s1.52-.685 1.52-1.527c0-.842-.682-1.527-1.52-1.527s-1.52.685-1.52 1.527zM14.897 13.78c.303-.251.65-.458 1.03-.618-.474-.497-.767-1.17-.767-1.91 0-.674.241-1.291.64-1.771-.484-.222-1.04-.33-1.595-.33-.555 0-1.11.108-1.595.33.4.48.64 1.097.64 1.77 0 .741-.292 1.414-.767 1.91.38.16.727.368 1.03.62.27.226.502.485.692.77.19-.285.421-.544.692-.77zM13.59 16.658c0-1.827-1.552-2.645-3.09-2.645-1.538 0-3.09.818-3.09 2.645v.982h6.18v-.982z"/>
                <ellipse cx="3.09" cy="11.251" rx="1.52" ry="1.527"/>
                <path d="M21 16.658c0-1.827-1.552-2.645-3.09-2.645-1.538 0-3.09.818-3.09 2.645v.982H21v-.982zM7.487 13.78c.303-.251.65-.458 1.03-.618-.475-.497-.767-1.17-.767-1.91 0-.674.241-1.291.64-1.771-.484-.222-1.04-.33-1.595-.33-.555 0-1.111.108-1.596.33.4.48.641 1.097.641 1.77 0 .741-.292 1.414-.767 1.91.38.16.727.368 1.03.62.27.226.502.485.692.77.19-.285.421-.544.692-.77zM0 17.64h6.18v-.982c0-1.827-1.552-2.645-3.09-2.645-1.538 0-3.09.818-3.09 2.645v.982z"/>
            </g>
        </g>
    </g>
</svg>
