<svg xmlns="http://www.w3.org/2000/svg" width="18" height="21" viewBox="0 0 18 21">
    <defs>
        <filter id="4874ss35ca" color-interpolation-filters="auto">
            <feColorMatrix in="SourceGraphic" values="0 0 0 0 1.000000 0 0 0 0 1.000000 0 0 0 0 1.000000 0 0 0 1.000000 0"/>
        </filter>
    </defs>
    <g fill="none" fill-rule="evenodd">
        <g filter="url(#4874ss35ca)" transform="translate(-306.000000, -82.000000)">
            <g>
                <path fill="#000" fill-rule="nonzero" d="M6.135 2.937C6.135 1.315 7.418 0 9 0c1.582 0 2.865 1.315 2.865 2.937 0 1.622-1.283 2.937-2.865 2.937-1.582 0-2.865-1.315-2.865-2.937zm4.242 4.938c.03-.64.244-1.232.59-1.721-.243-.052-.494-.08-.751-.08H7.785c-.256 0-.507.028-.748.08.368.522.588 1.16.591 1.852.447-.253.96-.396 1.505-.396.442 0 .862.094 1.244.265zm.485.263c.833.535 1.416 1.44 1.522 2.49.34.163.717.257 1.116.257 1.458 0 2.64-1.212 2.64-2.706s-1.182-2.706-2.64-2.706c-1.444 0-2.616 1.19-2.638 2.665zm-1.73 5.54c1.459 0 2.64-1.211 2.64-2.705 0-1.495-1.181-2.706-2.64-2.706-1.457 0-2.64 1.211-2.64 2.706 0 1.494 1.183 2.706 2.64 2.706zm1.12.185h-2.24c-1.863 0-3.38 1.554-3.38 3.465v2.808l.007.044.189.06c1.779.57 3.324.76 4.596.76 2.484 0 3.924-.726 4.013-.772l.176-.092h.019v-2.808c0-1.91-1.516-3.465-3.38-3.465zm4.368-2.793h-2.223c-.024.911-.403 1.732-1.004 2.323 1.657.505 2.87 2.079 2.87 3.939v.866c2.194-.083 3.458-.72 3.542-.763l.176-.092H18v-2.809c0-1.91-1.516-3.464-3.38-3.464zM4.5 10.885c.517 0 .998-.154 1.405-.418.13-.865.581-1.62 1.228-2.135.002-.051.007-.101.007-.152 0-1.495-1.182-2.706-2.64-2.706-1.458 0-2.64 1.211-2.64 2.706 0 1.494 1.182 2.705 2.64 2.705zm2.371 2.508c-.597-.588-.976-1.405-1.003-2.31-.083-.006-.164-.013-.248-.013H3.38C1.516 11.07 0 12.624 0 14.534v2.808l.007.044.189.06c1.427.458 2.7.668 3.806.734v-.848c0-1.86 1.212-3.434 2.87-3.94z" transform="translate(306.000000, 82.000000)"/>
            </g>
        </g>
    </g>
</svg>
