<svg xmlns="http://www.w3.org/2000/svg" xmlns:xlink="http://www.w3.org/1999/xlink" width="66" height="66" viewBox="0 0 66 66">
  <defs>
    <clipPath id="clip-path">
      <rect id="Rectangle_2399" data-name="Rectangle 2399" width="66" height="66" transform="translate(110.642 190.642)" fill="#fcb813" stroke="#707070" stroke-width="1"/>
    </clipPath>
  </defs>
  <g id="Mask_Group_126" data-name="Mask Group 126" transform="translate(-110.642 -190.642)" clip-path="url(#clip-path)">
    <path id="folder-svgrepo-com" d="M2,16.555c0-4.744,0-7.117.922-8.93a8.472,8.472,0,0,1,3.7-3.7C8.439,3,10.811,3,15.555,3H20.4c3.186,0,4.775,0,6.219.441a10.167,10.167,0,0,1,3.5,1.871c1.169.959,2.05,2.284,3.816,4.931l1.949,2.925H56.222c4.744,0,7.117,0,8.93.922a8.472,8.472,0,0,1,3.7,3.7c.925,1.813.925,4.185.925,8.93V43.666c0,4.744,0,7.117-.925,8.93a8.472,8.472,0,0,1-3.7,3.7c-1.813.925-4.185.925-8.93.925H15.555c-4.744,0-7.117,0-8.93-.925a8.472,8.472,0,0,1-3.7-3.7C2,50.783,2,48.411,2,43.666Z" transform="translate(107.754 193.531)" fill="#fcb813"/>
  </g>
</svg>
