<svg xmlns="http://www.w3.org/2000/svg" width="20" height="20" viewBox="0 0 20 20">
    <path data-name="Path 7" d="M138.394 133.609a4.785 4.785 0 1 0 4.785 4.785 4.791 4.791 0 0 0-4.785-4.785zm0 8.374a3.589 3.589 0 1 1 3.589-3.589 3.593 3.593 0 0 1-3.589 3.589zm0 0" transform="translate(-128.394 -128.394)" style="fill:#525252"/>
    <path data-name="Path 8" d="m19.529 7.723-1.537-.334A8.366 8.366 0 0 0 17.5 6.2l.851-1.324a.6.6 0 0 0-.08-.746l-2.397-2.399a.6.6 0 0 0-.746-.08L13.8 2.5a8.366 8.366 0 0 0-1.193-.495L12.277.47a.6.6 0 0 0-.584-.47H8.307a.6.6 0 0 0-.584.47l-.334 1.538A8.366 8.366 0 0 0 6.2 2.5l-1.328-.849a.6.6 0 0 0-.746.08L1.731 4.126a.6.6 0 0 0-.08.746L2.5 6.2a8.366 8.366 0 0 0-.495 1.193l-1.535.33a.6.6 0 0 0-.47.584v3.387a.6.6 0 0 0 .471.584l1.537.334A8.366 8.366 0 0 0 2.5 13.8l-.851 1.324a.6.6 0 0 0 .08.746l2.395 2.395a.6.6 0 0 0 .746.08L6.2 17.5a8.366 8.366 0 0 0 1.193.495l.334 1.537a.6.6 0 0 0 .58.468h3.387a.6.6 0 0 0 .584-.471l.334-1.537A8.366 8.366 0 0 0 13.8 17.5l1.324.851a.6.6 0 0 0 .746-.08l2.395-2.395a.6.6 0 0 0 .08-.746L17.5 13.8a8.366 8.366 0 0 0 .495-1.193l1.537-.334a.6.6 0 0 0 .468-.58V8.307a.6.6 0 0 0-.471-.584zm-.729 3.488-1.409.306a.6.6 0 0 0-.449.423 7.17 7.17 0 0 1-.662 1.6.6.6 0 0 0 .018.617l.78 1.214-1.713 1.714-1.214-.78a.6.6 0 0 0-.617-.018 7.175 7.175 0 0 1-1.6.662.6.6 0 0 0-.423.449l-.3 1.402H8.788l-.306-1.4a.6.6 0 0 0-.423-.449 7.17 7.17 0 0 1-1.6-.662.6.6 0 0 0-.617.018l-1.214.78-1.711-1.718.78-1.214a.6.6 0 0 0 .018-.617 7.178 7.178 0 0 1-.662-1.6.6.6 0 0 0-.449-.423L1.2 11.211V8.788l1.4-.306a.6.6 0 0 0 .449-.423 7.17 7.17 0 0 1 .662-1.6.6.6 0 0 0-.011-.614l-.78-1.214 1.711-1.714 1.214.78a.6.6 0 0 0 .617.018 7.175 7.175 0 0 1 1.6-.662.6.6 0 0 0 .42-.453l.306-1.4h2.423l.307 1.4a.6.6 0 0 0 .423.449 7.17 7.17 0 0 1 1.6.662.6.6 0 0 0 .617-.018l1.214-.78 1.713 1.714-.785 1.218a.6.6 0 0 0-.018.617 7.171 7.171 0 0 1 .662 1.6.6.6 0 0 0 .449.423l1.41.306zm0 0" style="fill:#525252"/>
</svg>
