<svg id="Capa_1" enable-background="new 0 0 512 512" height="512" viewBox="0 0 512 512" width="512" xmlns="http://www.w3.org/2000/svg"><g><path d="m404.6 0h-297.2c-19.3 0-35 15.7-35 35v442c0 19.3 15.7 35 35 35h297.2c19.3 0 35-15.7 35-35v-442c0-19.3-15.7-35-35-35zm5 477c0 2.76-2.24 5-5 5h-297.2c-2.76 0-5-2.24-5-5v-442c0-2.76 2.24-5 5-5h297.2c2.76 0 5 2.24 5 5z"/><path d="m159.667 141.358h74c8.284 0 15-6.716 15-15s-6.716-15-15-15h-74c-8.284 0-15 6.716-15 15s6.715 15 15 15z"/><path d="m159.667 230.024h74c8.284 0 15-6.716 15-15s-6.716-15-15-15h-74c-8.284 0-15 6.716-15 15s6.715 15 15 15z"/><path d="m159.667 318.691h123.167c8.284 0 15-6.716 15-15s-6.716-15-15-15h-123.167c-8.284 0-15 6.716-15 15s6.715 15 15 15z"/><path d="m352.333 377.358h-192.666c-8.284 0-15 6.716-15 15s6.716 15 15 15h192.667c8.284 0 15-6.716 15-15s-6.716-15-15.001-15z"/><path d="m339.124 174.889c-9.868-3.488-20.746-7.675-26.613-12.276-1.869-1.465-1.285-10.388 4.998-12.28 9.93-2.991 14.439 1.22 21.738 4.759 5.995 2.906 13.189 1.546 17.705-3.351 6.796-7.368 4.668-19.193-4.271-23.726-5.864-2.974-11.771-5.659-15.163-6.649 0-10.537-6.924-16.36-14.275-16.706-8.614-.406-15.725 6.458-15.725 14.983v2.422c-12.969 4.451-22.586 15.739-25.239 29.817-2.547 13.514 1.943 26.671 11.718 34.338 9.256 7.26 22.354 12.439 35.129 16.956 7.926 2.802 8.731 8.497 8.011 12.782-1.03 6.126-6.186 12.747-15.071 12.806-10.083.062-12.82-.336-20.123-5.072-6.75-4.377-15.906-3.046-20.657 3.446-5.116 6.991-3.276 16.748 3.881 21.43 8.41 5.501 15.018 8.134 22.352 9.32v.174c0 8.077 6.207 15.027 14.275 15.407 7.706.363 15.725-4.736 15.725-17.364 16.331-5.88 26.757-20.621 29.204-35.173 3.443-20.489-7.648-38.991-27.599-46.043z"/></g></svg>