<svg xmlns="http://www.w3.org/2000/svg" xmlns:xlink="http://www.w3.org/1999/xlink" width="16" height="16" viewBox="0 0 16 16">
  <defs>
    <clipPath id="clip-path">
      <rect id="Rectangle_80" data-name="Rectangle 80" width="16" height="16" transform="translate(32.177 504.177)" fill="#273843"/>
    </clipPath>
  </defs>
  <g id="Mask_Group_21" data-name="Mask Group 21" transform="translate(-32.177 -504.177)" clip-path="url(#clip-path)">
    <path id="broadcast-fill" d="M11.461,9.912A2.666,2.666,0,1,1,8.8,7.247a2.666,2.666,0,0,1,2.666,2.666Zm2.666,0a5.314,5.314,0,0,0-1.358-3.554.533.533,0,1,0-.794.711,4.265,4.265,0,0,1,0,5.687.533.533,0,1,0,.794.711A5.318,5.318,0,0,0,14.127,9.912ZM5.615,7.069a.533.533,0,1,0-.794-.711,5.328,5.328,0,0,0,0,7.109.533.533,0,1,0,.794-.711,4.262,4.262,0,0,1,0-5.687ZM16.164,6.8a7.963,7.963,0,0,0-1.657-2.489.533.533,0,1,0-.761.746,6.925,6.925,0,0,1,0,9.7.534.534,0,0,0,.761.749A8.006,8.006,0,0,0,16.164,6.8ZM2.408,12.61A6.925,6.925,0,0,1,3.844,5.062a.533.533,0,1,0-.761-.748,7.989,7.989,0,0,0,0,11.2.533.533,0,1,0,.761-.746A6.905,6.905,0,0,1,2.408,12.61Z" transform="translate(31.385 502.265)" fill="#273843"/>
  </g>
</svg>
