<svg data-name="Group 2660" xmlns="http://www.w3.org/2000/svg" width="11" height="16" viewBox="0 0 11 16">
    <g data-name="Group 2659">
        <path d="M59 25.886a.552.552 0 1 0-1.1 0 4.417 4.417 0 1 1-8.8 0 .552.552 0 1 0-1.1 0 5.838 5.838 0 0 0 4.95 5.97v1.83a.552.552 0 1 0 1.1 0v-1.83a5.838 5.838 0 0 0 4.95-5.97z" transform="translate(-48 -18.285)" style="fill:#fff"/>
        <path data-name="Path 5215" d="M8 4.067A2.827 2.827 0 0 1 10.5 1 2.827 2.827 0 0 1 13 4.067v5.367a2.827 2.827 0 0 1-2.5 3.066A2.827 2.827 0 0 1 8 9.434z" transform="translate(-5 -1)" style="fill:#fff"/>
    </g>
</svg>
