<svg width="18" height="18" viewBox="0 0 18 18" xmlns="http://www.w3.org/2000/svg">
    <defs>
        <filter color-interpolation-filters="auto" id="62ax33vc8a">
            <feColorMatrix in="SourceGraphic" values="0 0 0 0 1.000000 0 0 0 0 1.000000 0 0 0 0 1.000000 0 0 0 1.000000 0"/>
        </filter>
    </defs>
    <g transform="translate(-1225 -11)" filter="url(#62ax33vc8a)" fill="none" fill-rule="evenodd">
        <g fill="#000" fill-rule="nonzero">
            <path d="m1239.897 22.386-8.283-8.245a.375.375 0 0 0-.529 0l-1.478 1.479a.375.375 0 0 0 0 .53l.484.485-2.332 2.331c-1.507 1.507-1.582 3.891-.262 5.508l-2.387 2.388a.375.375 0 0 0 0 .53l1.498 1.499a.373.373 0 0 0 .53 0l2.388-2.388c.756.616 1.67.943 2.594.943a4.11 4.11 0 0 0 2.914-1.205l2.331-2.331.485.484c.144.145.38.146.526.004l1.518-1.479a.376.376 0 0 0 .003-.533zM1238.08 11.419a1.432 1.432 0 0 0-2.024 0l-3.05 3.05 2.033 2.024 3.045-3.046c.27-.27.42-.63.42-1.012 0-.383-.15-.742-.424-1.016zM1242.576 15.915a1.432 1.432 0 0 0-2.024 0l-3.04 3.04 2.034 2.024 3.034-3.034c.27-.27.42-.63.42-1.013 0-.383-.15-.743-.424-1.017z"/>
        </g>
    </g>
</svg>
