<svg xmlns="http://www.w3.org/2000/svg" width="16" height="16" viewBox="0 0 16 16">
  <g id="Group_83" data-name="Group 83" transform="translate(-273 -339)">
    <g id="Group_1891" data-name="Group 1891" transform="translate(276.5 342.5)">
      <g id="Group_1890" data-name="Group 1890">
        <circle id="Ellipse_37" data-name="Ellipse 37" cx="4.5" cy="4.5" r="4.5" fill="#239323"/>
      </g>
    </g>
    <g id="Group_1915" data-name="Group 1915" transform="translate(273 339)">
      <g id="Group_1914" data-name="Group 1914" transform="translate(0 0)">
        <path id="Path_497" data-name="Path 497" d="M34.385,18.769h-.8A6.688,6.688,0,0,0,32.446,16.3l.646-.646a.615.615,0,0,0,0-.874l-.862-.862a.615.615,0,0,0-.874,0l-.7.7a6.748,6.748,0,0,0-2.418-.954V12.615A.615.615,0,0,0,27.615,12H26.385a.615.615,0,0,0-.615.615v1.04a6.748,6.748,0,0,0-2.418.954l-.7-.7a.615.615,0,0,0-.874,0l-.862.862a.615.615,0,0,0,0,.874l.646.646a6.689,6.689,0,0,0-1.138,2.474h-.806a.615.615,0,0,0-.615.615v1.231a.615.615,0,0,0,.615.615H20.3a6.713,6.713,0,0,0,1,2.726l-.394.394a.615.615,0,0,0,0,.874l.862.862a.615.615,0,0,0,.874,0l.338-.338a6.735,6.735,0,0,0,2.782,1.206v.437a.615.615,0,0,0,.615.615h1.231a.615.615,0,0,0,.615-.615V26.96a6.735,6.735,0,0,0,2.782-1.206l.338.338a.615.615,0,0,0,.874,0l.862-.862a.615.615,0,0,0,0-.874l-.394-.394a6.713,6.713,0,0,0,1-2.726h.7A.615.615,0,0,0,35,20.615V19.385A.615.615,0,0,0,34.385,18.769Zm-2.769,1.538A4.615,4.615,0,1,1,27,15.692a4.615,4.615,0,0,1,4.615,4.615Z" transform="translate(-19 -12)" fill="#6b777e"/>
      </g>
    </g>
    <g id="Group_1919" data-name="Group 1919" transform="translate(276.75 343.167)">
      <g id="Group_1918" data-name="Group 1918">
        <path id="Path_499" data-name="Path 499" d="M27.75,17A4.25,4.25,0,1,0,32,21.25,4.25,4.25,0,0,0,27.75,17Zm3.207,3.75H29.736a7.46,7.46,0,0,0-.478-2.377,3.254,3.254,0,0,1,1.7,2.377ZM27.75,24.5c-.275,0-.88-.941-.979-2.75H28.73C28.63,23.559,28.024,24.5,27.75,24.5Zm-.979-3.75c.1-1.809.7-2.75.979-2.75s.88.941.979,2.75Zm-.528-2.377a7.473,7.473,0,0,0-.478,2.377H24.542a3.256,3.256,0,0,1,1.7-2.377Zm-1.7,3.377h1.222a7.457,7.457,0,0,0,.478,2.376,3.254,3.254,0,0,1-1.7-2.376Zm4.715,2.376a7.473,7.473,0,0,0,.478-2.376h1.222a3.256,3.256,0,0,1-1.7,2.376Z" transform="translate(-23.5 -17)" fill="#f0f0f0"/>
      </g>
    </g>
  </g>
</svg>
