<svg width="28" height="28" viewBox="0 0 28 28" xmlns="http://www.w3.org/2000/svg">
    <g fill="none" fill-rule="evenodd">
        <path d="M0 0h28v28H0z"/>
        <path d="m26.869 8.494-3.3 3.299c-.658 7.643-7.104 13.582-14.819 13.582-1.589 0-2.898-.252-3.891-.749-.802-.4-1.13-.83-1.212-.953a.875.875 0 0 1 .42-1.305c.029-.01 2.61-1.001 4.277-2.888a11.985 11.985 0 0 1-2.705-2.664C4.14 14.78 2.554 11.248 3.514 5.968a.875.875 0 0 1 1.48-.462c.038.039 3.68 3.628 8.13 4.788l.001-.67a5.285 5.285 0 0 1 5.317-5.249A5.263 5.263 0 0 1 22.922 7h3.328a.875.875 0 0 1 .619 1.494z" fill="#27AAE1" fill-rule="nonzero"/>
    </g>
</svg>
