<svg width="16" height="16" viewBox="0 0 16 16" fill="none" xmlns="http://www.w3.org/2000/svg">
<g id="Group 2208">
<path id="Vector" d="M15.2729 8.7272C15.08 8.7272 14.895 8.80383 14.7586 8.94022C14.6222 9.07661 14.5456 9.2616 14.5456 9.45448V12.5185C14.545 13.0559 14.3313 13.5711 13.9513 13.9511C13.5713 14.3311 13.0561 14.5449 12.5187 14.5454H3.48149C2.94409 14.5449 2.42887 14.3311 2.04887 13.9511C1.66887 13.5711 1.45514 13.0559 1.45456 12.5185V9.45448C1.45456 9.2616 1.37794 9.07661 1.24154 8.94022C1.10515 8.80383 0.920166 8.7272 0.72728 8.7272C0.534393 8.7272 0.349407 8.80383 0.213015 8.94022C0.0766239 9.07661 0 9.2616 0 9.45448V12.5185C0.000962617 13.4416 0.36807 14.3265 1.02077 14.9792C1.67346 15.6319 2.55844 15.999 3.48149 16H12.5187C13.4417 15.999 14.3267 15.6319 14.9794 14.9792C15.6321 14.3265 15.9992 13.4416 16.0002 12.5185V9.45448C16.0002 9.2616 15.9235 9.07661 15.7871 8.94022C15.6507 8.80383 15.4658 8.7272 15.2729 8.7272Z" fill="#078E05"/>
<path id="Vector_2" d="M4.1505 5.60499L7.27271 2.48278V11.6363C7.27271 11.8292 7.34933 12.0142 7.48573 12.1506C7.62212 12.287 7.8071 12.3636 7.99999 12.3636C8.19288 12.3636 8.37786 12.287 8.51425 12.1506C8.65065 12.0142 8.72727 11.8292 8.72727 11.6363V2.48278L11.8495 5.60499C11.9866 5.73747 12.1704 5.81077 12.3611 5.80912C12.5517 5.80746 12.7342 5.73097 12.869 5.59613C13.0038 5.46129 13.0803 5.27888 13.082 5.08819C13.0836 4.8975 13.0103 4.71378 12.8779 4.57662L8.51418 0.212938C8.37779 0.0765938 8.19284 0 7.99999 0C7.80714 0 7.62219 0.0765938 7.4858 0.212938L3.12213 4.57662C2.98965 4.71378 2.91634 4.8975 2.918 5.08819C2.91965 5.27888 2.99614 5.46129 3.13098 5.59613C3.26583 5.73097 3.44824 5.80746 3.63893 5.80912C3.82962 5.81077 4.01333 5.73747 4.1505 5.60499Z" fill="#078E05"/>
</g>
</svg>
