<svg width="32" height="32" viewBox="0 0 32 32" xmlns="http://www.w3.org/2000/svg">
    <g fill="none" fill-rule="evenodd">
        <path d="M0 0h32v32H0z"/>
        <path d="M29.291 8.725a2.995 2.995 0 0 0-1.813-2.044C23.195 5.035 16.372 5.05 16 5.051c-.372-.003-7.194-.016-11.478 1.63a2.996 2.996 0 0 0-1.813 2.044C2.385 9.965 2 12.235 2 16c0 3.764.385 6.034.709 7.275.24.933.915 1.694 1.813 2.044 4.1 1.575 10.527 1.63 11.396 1.63h.164c.87 0 7.296-.055 11.396-1.63a2.996 2.996 0 0 0 1.813-2.044c.324-1.24.709-3.51.709-7.275 0-3.764-.385-6.034-.709-7.275zm-9.014 7.691-6 4A.5.5 0 0 1 13.5 20v-8a.5.5 0 0 1 .777-.416l6 4a.5.5 0 0 1 0 .832z" fill="#D62628" fill-rule="nonzero"/>
    </g>
</svg>
