<?xml version="1.0" encoding="UTF-8"?>
<svg width="196px" height="52px" viewBox="0 0 196 52" version="1.1" xmlns="http://www.w3.org/2000/svg" xmlns:xlink="http://www.w3.org/1999/xlink">
    <title>Black SptC logo@2x</title>
    <defs>
        <filter color-interpolation-filters="auto" id="filter-1">
            <feColorMatrix in="SourceGraphic" type="matrix" values="0 0 0 0 0.000000 0 0 0 0 0.000000 0 0 0 0 0.000000 0 0 0 1.000000 0"></feColorMatrix>
        </filter>
    </defs>
    <g id="Logo-with-R" stroke="none" stroke-width="1" fill="none" fill-rule="evenodd">
        <g filter="url(#filter-1)" id="Black-SptC-logo">
            <g transform="translate(1.000000, 1.000000)">
                <g id="Group-3" transform="translate(0.000000, 0.000000)">
                    <g id="Group-2" stroke="#FFFFFF" stroke-width="0.5">
                        <polygon id="Polygon" points="21.6062433 0 43.2124866 12.5 43.2124866 37.5 21.6062433 50 2.69862174e-14 37.5 1.31932618e-14 12.5"></polygon>
                    </g>
                    <g id="Group" transform="translate(1.848055, 15.079365)">
                        <ellipse id="Oval" fill="#FFFFFF" cx="12.2763645" cy="25.5291005" rx="1.98005879" ry="1.98412698"></ellipse>
                        <ellipse id="Oval-Copy" fill="#FFFFFF" cx="28.9088583" cy="25.5291005" rx="1.98005879" ry="1.98412698"></ellipse>
                        <line x1="0.132003919" y1="0.396825397" x2="4.88414501" y2="0.396825397" id="Line" stroke="#FFFFFF" stroke-width="0.626102293" stroke-linecap="square"></line>
                        <line x1="4.88414501" y1="0.396825397" x2="9.37227827" y2="22.3544974" id="Line-2" stroke="#FFFFFF" stroke-width="0.626102293" stroke-linecap="square"></line>
                        <line x1="8.58025475" y1="17.0634921" x2="32.0902973" y2="17.0634921" id="Line-3" stroke="#FFFFFF" stroke-width="0.626102293" stroke-linecap="square"></line>
                        <line x1="9.63628611" y1="22.3544974" x2="33.1463287" y2="22.3544974" id="Line-3" stroke="#FFFFFF" stroke-width="0.793650794" stroke-linecap="square"></line>
                        <line x1="22.5689049" y1="19.047619" x2="31.8262895" y2="19.047619" id="Line-3" stroke="#FFFFFF" stroke-width="0.5" stroke-linecap="square"></line>
                        <line x1="15.3032826" y1="20.6349206" x2="30.5062503" y2="20.6349206" id="Line-3-Copy" stroke="#FFFFFF" stroke-width="0.5" stroke-linecap="square"></line>
                        <path d="M10.6326517,15.4010582 C10.7973926,15.4010582 10.9534212,15.3740741 11.1007376,15.3201058 C11.248054,15.2661376 11.3771538,15.1772487 11.4880371,15.0534392 L11.4880371,15.0534392 L11.1839001,14.7486772 C11.1110339,14.8312169 11.0318315,14.8939153 10.946293,14.9367725 C10.8607545,14.9796296 10.7577914,15.0010582 10.6374038,15.0010582 C10.5265205,15.0010582 10.4267256,14.9812169 10.3380189,14.9415344 C10.2493123,14.9018519 10.1732781,14.8470899 10.1099162,14.7772487 C10.0465543,14.7074074 9.99744883,14.6256614 9.9625998,14.5320106 C9.92775076,14.4383598 9.91032624,14.3391534 9.91032624,14.2343915 C9.91032624,14.1296296 9.92537469,14.028836 9.95547159,13.9320106 C9.98556848,13.8351852 10.0299218,13.7494709 10.0885315,13.6748677 C10.1471413,13.6002646 10.2200074,13.5415344 10.30713,13.4986772 C10.3942526,13.4558201 10.4964236,13.4343915 10.6136431,13.4343915 C10.7340307,13.4343915 10.8377858,13.4558201 10.9249084,13.4986772 C11.012031,13.5415344 11.0951934,13.6042328 11.1743958,13.6867725 L11.1743958,13.6867725 L11.4975414,13.3915344 C11.3866581,13.2708995 11.2559742,13.1812169 11.1054897,13.1224868 C10.9550053,13.0637566 10.7973926,13.0343915 10.6326517,13.0343915 C10.4552384,13.0343915 10.2944576,13.0637566 10.1503094,13.1224868 C10.0061611,13.1812169 9.88260542,13.262963 9.77964236,13.3677249 C9.67667931,13.4724868 9.59668493,13.5978836 9.53965924,13.7439153 C9.48263355,13.8899471 9.4541207,14.0502646 9.4541207,14.2248677 C9.4541207,14.3994709 9.48263355,14.5589947 9.53965924,14.7034392 C9.59668493,14.8478836 9.67747133,14.9716931 9.78201844,15.0748677 C9.88656554,15.1780423 10.0109132,15.2582011 10.1550615,15.3153439 C10.2992098,15.3724868 10.4584065,15.4010582 10.6326517,15.4010582 Z M12.9421923,15.4010582 C13.1101012,15.4010582 13.2669219,15.3701058 13.4126542,15.3082011 C13.5583866,15.2462963 13.6851103,15.1621693 13.7928255,15.0558201 C13.9005407,14.9494709 13.9852872,14.8240741 14.0470651,14.6796296 C14.1088429,14.5351852 14.1397318,14.3804233 14.1397318,14.2153439 C14.1397318,14.0502646 14.1088429,13.8962963 14.0470651,13.7534392 C13.9852872,13.610582 13.9005407,13.4851852 13.7928255,13.3772487 C13.6851103,13.2693122 13.5583866,13.1843915 13.4126542,13.1224868 C13.2669219,13.060582 13.1101012,13.0296296 12.9421923,13.0296296 C12.7742833,13.0296296 12.6174626,13.060582 12.4717303,13.1224868 C12.325998,13.1843915 12.1992742,13.2693122 12.091559,13.3772487 C11.9838438,13.4851852 11.8990973,13.610582 11.8373195,13.7534392 C11.7755416,13.8962963 11.7446527,14.0502646 11.7446527,14.2153439 C11.7446527,14.3804233 11.7755416,14.5351852 11.8373195,14.6796296 C11.8990973,14.8240741 11.9838438,14.9494709 12.091559,15.0558201 C12.1992742,15.1621693 12.325998,15.2462963 12.4717303,15.3082011 C12.6174626,15.3701058 12.7742833,15.4010582 12.9421923,15.4010582 Z M12.9421923,15.0010582 C12.8281409,15.0010582 12.7251778,14.9812169 12.6333031,14.9415344 C12.5414284,14.9018519 12.4638101,14.8478836 12.4004482,14.7796296 C12.3370863,14.7113757 12.2879808,14.628836 12.2531318,14.5320106 C12.2182828,14.4351852 12.2008583,14.3296296 12.2008583,14.2153439 C12.2008583,14.1010582 12.2182828,13.9955026 12.2531318,13.8986772 C12.2879808,13.8018519 12.3370863,13.7193122 12.4004482,13.6510582 C12.4638101,13.5828042 12.5414284,13.528836 12.6333031,13.4891534 C12.7251778,13.4494709 12.8281409,13.4296296 12.9421923,13.4296296 C13.0562436,13.4296296 13.1592067,13.4494709 13.2510814,13.4891534 C13.3429562,13.528836 13.4205745,13.5828042 13.4839363,13.6510582 C13.5472982,13.7193122 13.5964037,13.8018519 13.6312527,13.8986772 C13.6661018,13.9955026 13.6835263,14.1010582 13.6835263,14.2153439 C13.6835263,14.3296296 13.6661018,14.4351852 13.6312527,14.5320106 C13.5964037,14.628836 13.5472982,14.7113757 13.4839363,14.7796296 C13.4205745,14.8478836 13.3429562,14.9018519 13.2510814,14.9415344 C13.1592067,14.9812169 13.0562436,15.0010582 12.9421923,15.0010582 Z M15.1044165,15.3439153 L15.1044165,14.1724868 C15.1044165,14.0455026 15.1202569,13.9351852 15.1519379,13.8415344 C15.1836188,13.7478836 15.2263881,13.6708995 15.2802457,13.610582 C15.3341033,13.5502646 15.3966731,13.5050265 15.4679553,13.4748677 C15.5392374,13.444709 15.6128956,13.4296296 15.6889298,13.4296296 C15.7934769,13.4296296 15.8766394,13.4478836 15.9384172,13.4843915 C16.0001951,13.5208995 16.0477165,13.5716931 16.0809815,13.6367725 C16.1142464,13.7018519 16.1364231,13.778836 16.1475114,13.8677249 C16.1585998,13.9566138 16.1641439,14.0550265 16.1641439,14.162963 L16.1641439,14.162963 L16.1641439,15.3439153 L16.5918366,15.3439153 L16.5918366,14.110582 C16.5918366,13.910582 16.6361899,13.7470899 16.7248966,13.6201058 C16.8136032,13.4931217 16.9609196,13.4296296 17.1668457,13.4296296 C17.2713928,13.4296296 17.3553473,13.4478836 17.4187092,13.4843915 C17.4820711,13.5208995 17.5311765,13.5693122 17.5660255,13.6296296 C17.6008746,13.6899471 17.6238433,13.7597884 17.6349316,13.8391534 C17.6460199,13.9185185 17.6515641,14.0010582 17.6515641,14.0867725 L17.6515641,14.0867725 L17.6515641,15.3439153 L18.0792568,15.3439153 L18.0792568,14.0296296 C18.0792568,13.9026455 18.0673764,13.7796296 18.0436157,13.660582 C18.019855,13.5415344 17.9762937,13.4351852 17.9129318,13.3415344 C17.84957,13.2478836 17.7624474,13.1724868 17.6515641,13.1153439 C17.5406808,13.0582011 17.3981166,13.0296296 17.2238714,13.0296296 C17.0876433,13.0296296 16.9529993,13.0645503 16.8199394,13.1343915 C16.6868794,13.2042328 16.5839164,13.3089947 16.5110502,13.4486772 C16.4381841,13.3089947 16.3447253,13.2042328 16.2306739,13.1343915 C16.1166225,13.0645503 15.9756423,13.0296296 15.8077333,13.0296296 C15.7063543,13.0296296 15.6136876,13.044709 15.5297331,13.0748677 C15.4457786,13.1050265 15.3729124,13.1415344 15.3111346,13.1843915 C15.2493568,13.2272487 15.1986673,13.2724868 15.1590661,13.3201058 C15.1194649,13.3677249 15.0949122,13.4074074 15.0854079,13.4391534 L15.0854079,13.4391534 L15.0759036,13.4391534 L15.0759036,13.0867725 L14.6767238,13.0867725 L14.6767238,15.3439153 L15.1044165,15.3439153 Z M19.1532407,15.3439153 L19.1532407,14.1724868 C19.1532407,14.0455026 19.1690811,13.9351852 19.2007621,13.8415344 C19.232443,13.7478836 19.2752123,13.6708995 19.3290699,13.610582 C19.3829275,13.5502646 19.4454974,13.5050265 19.5167795,13.4748677 C19.5880616,13.444709 19.6617198,13.4296296 19.737754,13.4296296 C19.8423011,13.4296296 19.9254636,13.4478836 19.9872414,13.4843915 C20.0490193,13.5208995 20.0965407,13.5716931 20.1298057,13.6367725 C20.1630707,13.7018519 20.1852473,13.778836 20.1963356,13.8677249 C20.207424,13.9566138 20.2129681,14.0550265 20.2129681,14.162963 L20.2129681,14.162963 L20.2129681,15.3439153 L20.6406608,15.3439153 L20.6406608,14.110582 C20.6406608,13.910582 20.6850142,13.7470899 20.7737208,13.6201058 C20.8624274,13.4931217 21.0097438,13.4296296 21.2156699,13.4296296 C21.320217,13.4296296 21.4041715,13.4478836 21.4675334,13.4843915 C21.5308953,13.5208995 21.5800007,13.5693122 21.6148498,13.6296296 C21.6496988,13.6899471 21.6726675,13.7597884 21.6837558,13.8391534 C21.6948441,13.9185185 21.7003883,14.0010582 21.7003883,14.0867725 L21.7003883,14.0867725 L21.7003883,15.3439153 L22.128081,15.3439153 L22.128081,14.0296296 C22.128081,13.9026455 22.1162006,13.7796296 22.0924399,13.660582 C22.0686792,13.5415344 22.0251179,13.4351852 21.9617561,13.3415344 C21.8983942,13.2478836 21.8112716,13.1724868 21.7003883,13.1153439 C21.589505,13.0582011 21.4469408,13.0296296 21.2726956,13.0296296 C21.1364676,13.0296296 21.0018236,13.0645503 20.8687636,13.1343915 C20.7357037,13.2042328 20.6327406,13.3089947 20.5598744,13.4486772 C20.4870083,13.3089947 20.3935495,13.2042328 20.2794981,13.1343915 C20.1654467,13.0645503 20.0244665,13.0296296 19.8565576,13.0296296 C19.7551785,13.0296296 19.6625118,13.044709 19.5785573,13.0748677 C19.4946028,13.1050265 19.4217366,13.1415344 19.3599588,13.1843915 C19.298181,13.2272487 19.2474915,13.2724868 19.2078903,13.3201058 C19.1682891,13.3677249 19.1437364,13.4074074 19.1342321,13.4391534 L19.1342321,13.4391534 L19.1247278,13.4391534 L19.1247278,13.0867725 L18.725548,13.0867725 L18.725548,15.3439153 L19.1532407,15.3439153 Z M23.8008347,15.4010582 C24.2285274,15.4010582 24.5611772,15.2470899 24.7987843,14.9391534 L24.7987843,14.9391534 L24.4756387,14.6915344 C24.3932683,14.7931217 24.3029776,14.8748677 24.2047667,14.9367725 C24.1065557,14.9986772 23.9909203,15.0296296 23.8578604,15.0296296 C23.7596494,15.0296296 23.6646066,15.0137566 23.5727319,14.9820106 C23.4808572,14.9502646 23.4000708,14.9058201 23.3303727,14.8486772 C23.2606746,14.7915344 23.204441,14.7224868 23.1616717,14.6415344 C23.1189024,14.560582 23.0975178,14.4708995 23.0975178,14.3724868 L23.0975178,14.3724868 L24.9033314,14.3724868 L24.9033314,14.2201058 C24.9033314,14.0740741 24.8835308,13.9304233 24.8439296,13.7891534 C24.8043285,13.6478836 24.7401746,13.5208995 24.6514679,13.4082011 C24.5627613,13.2955026 24.4495019,13.2042328 24.3116898,13.1343915 C24.1738777,13.0645503 24.0051767,13.0296296 23.8055868,13.0296296 C23.6376778,13.0296296 23.4824412,13.0597884 23.339877,13.1201058 C23.1973127,13.1804233 23.0745491,13.2637566 22.971586,13.3701058 C22.868623,13.476455 22.7878366,13.6018519 22.7292268,13.7462963 C22.6706171,13.8907407 22.6413122,14.0470899 22.6413122,14.2153439 C22.6413122,14.3835979 22.668241,14.5399471 22.7220986,14.6843915 C22.7759562,14.828836 22.8527825,14.9542328 22.9525775,15.060582 C23.0523724,15.1669312 23.1743441,15.2502646 23.3184923,15.310582 C23.4626406,15.3708995 23.6234214,15.4010582 23.8008347,15.4010582 Z M24.4471259,14.0296296 L23.0975178,14.0296296 C23.0975178,13.9534392 23.1141503,13.876455 23.1474153,13.7986772 C23.1806803,13.7208995 23.2274096,13.6502646 23.2876034,13.5867725 C23.3477972,13.5232804 23.4214554,13.4716931 23.508578,13.4320106 C23.5957006,13.392328 23.6915354,13.3724868 23.7960825,13.3724868 C23.9037977,13.3724868 23.9980485,13.3891534 24.0788349,13.4224868 C24.1596213,13.4558201 24.2269433,13.5018519 24.2808009,13.560582 C24.3346585,13.6193122 24.3750517,13.6883598 24.4019805,13.7677249 C24.4289093,13.8470899 24.4439578,13.9343915 24.4471259,14.0296296 L24.4471259,14.0296296 Z M25.8442553,15.3439153 L25.8442553,14.210582 C25.8442553,13.962963 25.899697,13.7804233 26.0105803,13.662963 C26.1214636,13.5455026 26.2814523,13.4867725 26.4905465,13.4867725 C26.5253956,13.4867725 26.5602446,13.4899471 26.5950936,13.4962963 C26.6299427,13.5026455 26.6647917,13.510582 26.6996407,13.5201058 L26.6996407,13.5201058 L26.7186493,13.0582011 C26.6616236,13.0391534 26.5982617,13.0296296 26.5285637,13.0296296 C26.4588656,13.0296296 26.3891675,13.0399471 26.3194694,13.060582 C26.2497714,13.0812169 26.1856175,13.1089947 26.1270077,13.1439153 C26.068398,13.178836 26.0153324,13.2208995 25.967811,13.2701058 C25.9202896,13.3193122 25.8822725,13.3740741 25.8537596,13.4343915 L25.8537596,13.4343915 L25.8442553,13.4343915 L25.8442553,13.0867725 L25.4165626,13.0867725 L25.4165626,15.3439153 L25.8442553,15.3439153 Z M28.158548,15.4010582 C28.3232889,15.4010582 28.4793176,15.3740741 28.6266339,15.3201058 C28.7739503,15.2661376 28.9030502,15.1772487 29.0139334,15.0534392 L29.0139334,15.0534392 L28.7097964,14.7486772 C28.6369303,14.8312169 28.5577279,14.8939153 28.4721894,14.9367725 C28.3866508,14.9796296 28.2836878,15.0010582 28.1633002,15.0010582 C28.0524169,15.0010582 27.9526219,14.9812169 27.8639153,14.9415344 C27.7752087,14.9018519 27.6991744,14.8470899 27.6358125,14.7772487 C27.5724506,14.7074074 27.5233452,14.6256614 27.4884962,14.5320106 C27.4536471,14.4383598 27.4362226,14.3391534 27.4362226,14.2343915 C27.4362226,14.1296296 27.451271,14.028836 27.4813679,13.9320106 C27.5114648,13.8351852 27.5558182,13.7494709 27.6144279,13.6748677 C27.6730376,13.6002646 27.7459038,13.5415344 27.8330264,13.4986772 C27.920149,13.4558201 28.02232,13.4343915 28.1395395,13.4343915 C28.2599271,13.4343915 28.3636821,13.4558201 28.4508047,13.4986772 C28.5379273,13.5415344 28.6210898,13.6042328 28.7002921,13.6867725 L28.7002921,13.6867725 L29.0234377,13.3915344 C28.9125544,13.2708995 28.7818706,13.1812169 28.6313861,13.1224868 C28.4809016,13.0637566 28.3232889,13.0343915 28.158548,13.0343915 C27.9811348,13.0343915 27.820354,13.0637566 27.6762057,13.1224868 C27.5320574,13.1812169 27.4085018,13.262963 27.3055387,13.3677249 C27.2025757,13.4724868 27.1225813,13.5978836 27.0655556,13.7439153 C27.0085299,13.8899471 26.9800171,14.0502646 26.9800171,14.2248677 C26.9800171,14.3994709 27.0085299,14.5589947 27.0655556,14.7034392 C27.1225813,14.8478836 27.2033677,14.9716931 27.3079148,15.0748677 C27.4124619,15.1780423 27.5368096,15.2582011 27.6809579,15.3153439 C27.8251061,15.3724868 27.9843029,15.4010582 28.158548,15.4010582 Z M30.4063108,15.4010582 C30.8340035,15.4010582 31.1666534,15.2470899 31.4042604,14.9391534 L31.4042604,14.9391534 L31.0811148,14.6915344 C30.9987444,14.7931217 30.9084537,14.8748677 30.8102428,14.9367725 C30.7120319,14.9986772 30.5963964,15.0296296 30.4633365,15.0296296 C30.3651256,15.0296296 30.2700827,15.0137566 30.178208,14.9820106 C30.0863333,14.9502646 30.0055469,14.9058201 29.9358488,14.8486772 C29.8661507,14.7915344 29.8099171,14.7224868 29.7671478,14.6415344 C29.7243785,14.560582 29.7029939,14.4708995 29.7029939,14.3724868 L29.7029939,14.3724868 L31.5088075,14.3724868 L31.5088075,14.2201058 C31.5088075,14.0740741 31.4890069,13.9304233 31.4494058,13.7891534 C31.4098046,13.6478836 31.3456507,13.5208995 31.256944,13.4082011 C31.1682374,13.2955026 31.054978,13.2042328 30.917166,13.1343915 C30.7793539,13.0645503 30.6106529,13.0296296 30.4110629,13.0296296 C30.2431539,13.0296296 30.0879173,13.0597884 29.9453531,13.1201058 C29.8027889,13.1804233 29.6800252,13.2637566 29.5770622,13.3701058 C29.4740991,13.476455 29.3933127,13.6018519 29.334703,13.7462963 C29.2760932,13.8907407 29.2467884,14.0470899 29.2467884,14.2153439 C29.2467884,14.3835979 29.2737172,14.5399471 29.3275748,14.6843915 C29.3814324,14.828836 29.4582586,14.9542328 29.5580536,15.060582 C29.6578486,15.1669312 29.7798202,15.2502646 29.9239685,15.310582 C30.0681167,15.3708995 30.2288975,15.4010582 30.4063108,15.4010582 Z M31.052602,14.0296296 L29.7029939,14.0296296 C29.7029939,13.9534392 29.7196264,13.876455 29.7528914,13.7986772 C29.7861564,13.7208995 29.8328858,13.6502646 29.8930795,13.5867725 C29.9532733,13.5232804 30.0269315,13.4716931 30.1140541,13.4320106 C30.2011767,13.392328 30.2970115,13.3724868 30.4015586,13.3724868 C30.5092738,13.3724868 30.6035246,13.3891534 30.684311,13.4224868 C30.7650974,13.4558201 30.8324194,13.5018519 30.886277,13.560582 C30.9401346,13.6193122 30.9805278,13.6883598 31.0074566,13.7677249 C31.0343854,13.8470899 31.0494339,13.9343915 31.052602,14.0296296 L31.052602,14.0296296 Z" id="commerce" fill="#FFFFFF" fill-rule="nonzero"></path>
                        <line x1="32.3409602" y1="16.7989418" x2="37.0931013" y2="1.71957672" id="Line-4" stroke="#FFFFFF" stroke-width="0.793650794" stroke-linecap="square"></line>
                        <path d="M10.3174263,9.6952381 C10.6469081,9.6952381 10.9668856,9.65079365 11.2773588,9.56190476 C11.5878321,9.47301587 11.8634562,9.33650794 12.1042314,9.15238095 C12.3450065,8.96825397 12.5366762,8.73492063 12.6792405,8.45238095 C12.8218047,8.16984127 12.8930868,7.83492063 12.8930868,7.44761905 C12.8930868,7.11111111 12.8265568,6.83015873 12.6934969,6.6047619 C12.5604369,6.37936508 12.3925279,6.19047619 12.1897699,6.03809524 C11.9870119,5.88571429 11.7620772,5.76349206 11.5149659,5.67142857 C11.2678546,5.57936508 11.0302475,5.4952381 10.8021447,5.41904762 C10.64374,5.36825397 10.5011758,5.31904762 10.374452,5.27142857 C10.2477283,5.22380952 10.138429,5.17142857 10.0465543,5.11428571 C9.95467956,5.05714286 9.88498149,4.99047619 9.83746008,4.91428571 C9.78993867,4.83809524 9.76617796,4.74285714 9.76617796,4.62857143 C9.76617796,4.4952381 9.79627486,4.38571429 9.85646865,4.3 C9.91666243,4.21428571 9.99111264,4.14444444 10.0798193,4.09047619 C10.1685259,4.03650794 10.2683209,4 10.3792042,3.98095238 C10.4900875,3.96190476 10.5993867,3.95238095 10.7071019,3.95238095 C10.9161961,3.95238095 11.1332106,4.0047619 11.3581452,4.10952381 C11.5830799,4.21428571 11.7652453,4.35555556 11.9046415,4.53333333 L11.9046415,4.53333333 L12.9406082,3.43809524 C12.6428074,3.16507937 12.2959011,2.95873016 11.8998893,2.81904762 C11.5038776,2.67936508 11.115786,2.60952381 10.7356147,2.60952381 C10.4188053,2.60952381 10.105164,2.64920635 9.79469081,2.72857143 C9.48421759,2.80793651 9.20542532,2.93333333 8.95831398,3.1047619 C8.71120264,3.27619048 8.51161272,3.4952381 8.3595442,3.76190476 C8.20747569,4.02857143 8.13144143,4.34920635 8.13144143,4.72380952 C8.13144143,5.02857143 8.18054689,5.28730159 8.2787578,5.5 C8.37696872,5.71269841 8.50686057,5.89365079 8.66843337,6.04285714 C8.83000617,6.19206349 9.01375562,6.31428571 9.21968174,6.40952381 C9.42560785,6.5047619 9.63628611,6.58730159 9.8517165,6.65714286 C10.0734831,6.72698413 10.271489,6.79206349 10.4457341,6.85238095 C10.6199793,6.91269841 10.7657116,6.97936508 10.8829311,7.05238095 C11.0001506,7.12539683 11.0904413,7.20634921 11.1538032,7.2952381 C11.217165,7.38412698 11.248846,7.49206349 11.248846,7.61904762 C11.248846,7.75238095 11.2235012,7.86666667 11.1728117,7.96190476 C11.1221222,8.05714286 11.0540082,8.13333333 10.9684697,8.19047619 C10.8829311,8.24761905 10.7831362,8.28888889 10.6690848,8.31428571 C10.5550334,8.33968254 10.4378139,8.35238095 10.3174263,8.35238095 C10.0513064,8.35238095 9.78360248,8.28412698 9.51431449,8.14761905 C9.24502649,8.01111111 9.02801205,7.84126984 8.86327116,7.63809524 L8.86327116,7.63809524 L7.79879155,8.72380952 C8.09659239,9.03492063 8.47042749,9.27460317 8.92029685,9.44285714 C9.37016621,9.61111111 9.83587603,9.6952381 10.3174263,9.6952381 Z M15.6514407,11.8095238 L15.6514407,9 L15.6704493,9 C15.8161816,9.2031746 16.0189396,9.36349206 16.2787233,9.48095238 C16.538507,9.5984127 16.8141312,9.65714286 17.1055959,9.65714286 C17.4604224,9.65714286 17.7772318,9.58730159 18.0560241,9.44761905 C18.3348164,9.30793651 18.5708394,9.12222222 18.7640931,8.89047619 C18.9573469,8.65873016 19.1046632,8.39047619 19.2060422,8.08571429 C19.3074213,7.78095238 19.3581108,7.46349206 19.3581108,7.13333333 C19.3581108,6.8031746 19.3058372,6.48730159 19.2012901,6.18571429 C19.096743,5.88412698 18.9478426,5.61904762 18.7545888,5.39047619 C18.5613351,5.16190476 18.3253121,4.98095238 18.0465198,4.84761905 C17.7677275,4.71428571 17.4572543,4.64761905 17.1151002,4.64761905 C16.7666098,4.64761905 16.4640568,4.71904762 16.2074412,4.86190476 C15.9508256,5.0047619 15.7496516,5.17142857 15.6039193,5.36190476 L15.6039193,5.36190476 L15.5754064,5.36190476 L15.5754064,4.78095238 L14.0927384,4.78095238 L14.0927384,11.8095238 L15.6514407,11.8095238 Z M16.7349289,8.36190476 C16.5575156,8.36190476 16.3991109,8.32698413 16.2597148,8.25714286 C16.1203186,8.18730159 16.0015151,8.0952381 15.9033042,7.98095238 C15.8050933,7.86666667 15.729059,7.73650794 15.6752014,7.59047619 C15.6213438,7.44444444 15.594415,7.2952381 15.594415,7.14285714 C15.594415,6.99047619 15.6213438,6.84126984 15.6752014,6.6952381 C15.729059,6.54920635 15.8050933,6.41904762 15.9033042,6.3047619 C16.0015151,6.19047619 16.1203186,6.0984127 16.2597148,6.02857143 C16.3991109,5.95873016 16.5575156,5.92380952 16.7349289,5.92380952 C16.9186783,5.92380952 17.0802511,5.95873016 17.2196473,6.02857143 C17.3590434,6.0984127 17.4746788,6.18888889 17.5665536,6.3 C17.6584283,6.41111111 17.7281264,6.53968254 17.7756478,6.68571429 C17.8231692,6.83174603 17.8469299,6.98095238 17.8469299,7.13333333 C17.8469299,7.28571429 17.8231692,7.43650794 17.7756478,7.58571429 C17.7281264,7.73492063 17.6584283,7.86666667 17.5665536,7.98095238 C17.4746788,8.0952381 17.3590434,8.18730159 17.2196473,8.25714286 C17.0802511,8.32698413 16.9186783,8.36190476 16.7349289,8.36190476 Z M22.2210118,9.65714286 C22.3857527,9.65714286 22.5425733,9.63492063 22.6914737,9.59047619 C22.8403742,9.54603175 22.9766022,9.48888889 23.1001579,9.41904762 C23.2237135,9.34920635 23.3314287,9.26666667 23.4233035,9.17142857 C23.5151782,9.07619048 23.5896284,8.97460317 23.6466541,8.86666667 L23.6466541,8.86666667 L23.6656627,8.86666667 L23.6656627,9.52380952 L25.1673392,9.52380952 L25.1673392,4.78095238 L23.608637,4.78095238 L23.608637,7.34285714 C23.608637,7.61587302 23.5373548,7.85396825 23.3947906,8.05714286 C23.2522264,8.26031746 23.0447162,8.36190476 22.7722601,8.36190476 C22.6265278,8.36190476 22.5093083,8.33492063 22.4206017,8.28095238 C22.3318951,8.22698413 22.2606129,8.15238095 22.2067553,8.05714286 C22.1528977,7.96190476 22.1164647,7.85396825 22.0974561,7.73333333 C22.0784475,7.61269841 22.0689432,7.48571429 22.0689432,7.35238095 L22.0689432,7.35238095 L22.0689432,4.78095238 L20.5007367,4.78095238 L20.5007367,7.71428571 C20.5007367,7.95555556 20.5308336,8.19206349 20.5910274,8.42380952 C20.6512212,8.65555556 20.7494321,8.86190476 20.8856601,9.04285714 C21.0218882,9.22380952 21.1993014,9.37142857 21.4178999,9.48571429 C21.6364984,9.6 21.9042024,9.65714286 22.2210118,9.65714286 Z M28.1537959,9.52380952 L28.1537959,7.08571429 C28.1537959,6.99047619 28.1728045,6.87936508 28.2108216,6.75238095 C28.2488387,6.62539683 28.3106166,6.50793651 28.3961551,6.4 C28.4816937,6.29206349 28.595745,6.2 28.7383093,6.12380952 C28.8808735,6.04761905 29.0567027,6.00952381 29.2657969,6.00952381 C29.3291588,6.00952381 29.3941047,6.01269841 29.4606347,6.01904762 C29.5271647,6.02539683 29.5952787,6.03809524 29.6649768,6.05714286 L29.6649768,6.05714286 L29.7315068,4.68571429 C29.6934896,4.67301587 29.6443842,4.66349206 29.5841904,4.65714286 C29.5239966,4.65079365 29.4622188,4.64761905 29.3988569,4.64761905 C29.1073922,4.64761905 28.8507766,4.72380952 28.62901,4.87619048 C28.4072434,5.02857143 28.2361664,5.22539683 28.1157788,5.46666667 L28.1157788,5.46666667 L28.0967702,5.46666667 L28.0967702,4.78095238 L26.5950936,4.78095238 L26.5950936,9.52380952 L28.1537959,9.52380952 Z M32.4233307,9.63809524 C32.5880716,9.63809524 32.7528125,9.62380952 32.9175534,9.5952381 C33.0822942,9.56666667 33.2185223,9.53333333 33.3262375,9.4952381 L33.3262375,9.4952381 L33.3072289,8.35238095 C33.2502032,8.37777778 33.1789211,8.3968254 33.0933826,8.40952381 C33.007844,8.42222222 32.9270576,8.42857143 32.8510234,8.42857143 C32.6292568,8.42857143 32.4756042,8.37301587 32.3900657,8.26190476 C32.3045272,8.15079365 32.2617579,7.98412698 32.2617579,7.76190476 L32.2617579,7.76190476 L32.2617579,5.95238095 L33.3737589,5.95238095 L33.3737589,4.78095238 L32.2617579,4.78095238 L32.2617579,3.53333333 L30.7315685,3.53333333 L30.7315685,4.78095238 L29.9807302,4.78095238 L29.9807302,5.95238095 L30.7410727,5.95238095 L30.7410727,7.95238095 C30.7410727,8.20634921 30.7695856,8.43650794 30.8266113,8.64285714 C30.883637,8.84920635 30.9770957,9.02698413 31.1069876,9.17619048 C31.2368795,9.32539683 31.4095406,9.43968254 31.624971,9.51904762 C31.8404014,9.5984127 32.1065213,9.63809524 32.4233307,9.63809524 Z" id="Spurt" fill="#FFFFFF" fill-rule="nonzero"></path>
                    </g>
                </g>
                <text id="®" font-family="AvenirNext-DemiBold, Avenir Next" font-size="10.6725146" font-weight="500" fill="#FFFFFF">
                    <tspan x="45.375" y="16.8853616">®</tspan>
                </text>
                <path d="M56.8769981,30.9878307 C57.5464866,30.9878307 58.1837882,30.8977072 58.7889028,30.7174603 C59.3940175,30.5372134 59.9218834,30.266843 60.3725007,29.9063492 C60.823118,29.5458554 61.1836118,29.0920194 61.4539822,28.5448413 C61.7243526,27.9976631 61.8595377,27.3571429 61.8595377,26.6232804 C61.8595377,25.9537919 61.7340086,25.393739 61.4829504,24.9431217 C61.2318922,24.4925044 60.9100228,24.1191358 60.517342,23.8230159 C60.1246612,23.5268959 59.6933561,23.2887125 59.2234266,23.1084656 C58.7534972,22.9282187 58.2996612,22.767284 57.8619187,22.6256614 C57.4756753,22.5097884 57.1216189,22.3939153 56.7997494,22.2780423 C56.4778799,22.1621693 56.2042908,22.0269841 55.9789822,21.8724868 C55.7536736,21.7179894 55.5766453,21.5313051 55.4478975,21.3124339 C55.3191497,21.0935626 55.2547758,20.8296296 55.2547758,20.5206349 C55.2547758,20.1858907 55.3288058,19.8994268 55.4768658,19.6612434 C55.6249258,19.42306 55.8148288,19.2299383 56.0465748,19.0818783 C56.2783208,18.9338183 56.5358164,18.8243827 56.8190616,18.7535714 C57.1023067,18.6827601 57.3855519,18.6473545 57.668797,18.6473545 C58.1451639,18.6473545 58.618312,18.7600088 59.0882415,18.9853175 C59.5581709,19.2106261 59.9218834,19.4906526 60.179379,19.8253968 L60.179379,19.8253968 L61.7629769,18.0873016 C61.2351109,17.59806 60.6139028,17.2311287 59.8993526,16.9865079 C59.1848023,16.7418871 58.4799081,16.6195767 57.78467,16.6195767 C57.1666806,16.6195767 56.5583473,16.7000441 55.95967,16.8609788 C55.3609928,17.0219136 54.8266894,17.2665344 54.35676,17.5948413 C53.8868305,17.9231481 53.5070245,18.3383598 53.217342,18.8404762 C52.9276594,19.3425926 52.7828182,19.9412698 52.7828182,20.6365079 C52.7828182,21.2802469 52.8858164,21.817769 53.0918129,22.2490741 C53.2978094,22.6803792 53.564961,23.0440917 53.8932679,23.3402116 C54.2215748,23.6363316 54.5917247,23.874515 55.0037176,24.0547619 C55.4157106,24.2350088 55.8277035,24.3895062 56.2396965,24.518254 C56.6645642,24.6598765 57.0701198,24.7950617 57.4563631,24.9238095 C57.8426065,25.0525573 58.1773508,25.203836 58.460596,25.3776455 C58.7438411,25.551455 58.9691497,25.7574515 59.1365219,25.9956349 C59.303894,26.2338183 59.3875801,26.533157 59.3875801,26.8936508 C59.3875801,27.2670194 59.3135501,27.5792328 59.1654901,27.830291 C59.0174302,28.0813492 58.8243085,28.2905644 58.5861251,28.4579365 C58.3479416,28.6253086 58.08079,28.7444004 57.78467,28.8152116 C57.4885501,28.8860229 57.1988676,28.9214286 56.9156224,28.9214286 C56.3748817,28.9214286 55.8244848,28.7862434 55.2644319,28.515873 C54.704379,28.2455026 54.2569804,27.8785714 53.9222362,27.4150794 L53.9222362,27.4150794 L52.1841409,29.0373016 C52.7248817,29.6810406 53.4201198,30.1670635 54.2698552,30.4953704 C55.1195907,30.8236772 55.9886383,30.9878307 56.8769981,30.9878307 Z M66.4944584,35.2751323 L66.4944584,29.4042328 L66.5330827,29.4042328 C66.8292027,29.8677249 67.2508517,30.2346561 67.7980298,30.5050265 C68.3452079,30.7753968 68.9471039,30.910582 69.6037176,30.910582 C70.3118305,30.910582 70.9459134,30.7786155 71.5059663,30.5146825 C72.0660192,30.2507496 72.5423861,29.8966931 72.9350668,29.4525132 C73.3277476,29.0083333 73.6303049,28.4869048 73.8427388,27.8882275 C74.0551727,27.2895503 74.1613896,26.64903 74.1613896,25.9666667 C74.1613896,25.2843034 74.051954,24.6470018 73.8330827,24.0547619 C73.6142115,23.462522 73.3052168,22.9475309 72.9060986,22.5097884 C72.5069804,22.0720459 72.0306136,21.7276455 71.4769981,21.4765873 C70.9233825,21.2255291 70.3182679,21.1 69.6616542,21.1 C69.2367864,21.1 68.8537617,21.1482804 68.5125801,21.2448413 C68.1713984,21.3414021 67.8656224,21.4637125 67.595252,21.6117725 C67.3248817,21.7598325 67.0963543,21.9272046 66.90967,22.1138889 C66.7229857,22.3005732 66.5717071,22.4840388 66.455834,22.6642857 L66.455834,22.6642857 L66.3978975,22.6642857 L66.3978975,21.3703704 L64.1769981,21.3703704 L64.1769981,35.2751323 L66.4944584,35.2751323 Z M69.1402256,28.9793651 C68.7153579,28.9793651 68.3355519,28.8924603 68.0008076,28.7186508 C67.6660633,28.5448413 67.3795995,28.3163139 67.1414161,28.0330688 C66.9032326,27.7498236 66.7229857,27.4311728 66.6006753,27.0771164 C66.4783649,26.72306 66.4172097,26.3657848 66.4172097,26.005291 C66.4172097,25.6447972 66.4783649,25.2843034 66.6006753,24.9238095 C66.7229857,24.5633157 66.9032326,24.2414462 67.1414161,23.9582011 C67.3795995,23.6749559 67.6660633,23.4432099 68.0008076,23.262963 C68.3355519,23.082716 68.7153579,22.9925926 69.1402256,22.9925926 C69.5908429,22.9925926 69.9835236,23.0794974 70.3182679,23.2533069 C70.6530122,23.4271164 70.9298199,23.6556437 71.1486912,23.9388889 C71.3675624,24.222134 71.5317159,24.5407848 71.6411515,24.8948413 C71.7505871,25.2488977 71.8053049,25.6061728 71.8053049,25.9666667 C71.8053049,26.3271605 71.7505871,26.6876543 71.6411515,27.0481481 C71.5317159,27.408642 71.3675624,27.7305115 71.1486912,28.0137566 C70.9298199,28.2970018 70.6530122,28.5287478 70.3182679,28.7089947 C69.9835236,28.8892416 69.5908429,28.9793651 69.1402256,28.9793651 Z M79.7426065,30.910582 C80.4378446,30.910582 81.0397406,30.7335538 81.5482944,30.3794974 C82.0568482,30.0254409 82.4141233,29.6166667 82.6201198,29.1531746 L82.6201198,29.1531746 L82.6587441,29.1531746 L82.6587441,30.6402116 L84.8603314,30.6402116 L84.8603314,21.3703704 L82.5428711,21.3703704 L82.5428711,26.4687831 C82.5428711,26.7777778 82.4978094,27.0835538 82.4076859,27.3861111 C82.3175624,27.6886684 82.185596,27.9558201 82.0117864,28.1875661 C81.8379769,28.4193122 81.6126683,28.6092152 81.3358605,28.7572751 C81.0590527,28.9053351 80.7404019,28.9793651 80.3799081,28.9793651 C80.0065395,28.9793651 79.7072009,28.9021164 79.4818922,28.747619 C79.2565836,28.5931217 79.0795554,28.3967813 78.9508076,28.1585979 C78.8220598,27.9204145 78.7383737,27.6532628 78.6997494,27.3571429 C78.6611251,27.0610229 78.6418129,26.7777778 78.6418129,26.5074074 L78.6418129,26.5074074 L78.6418129,21.3703704 L76.3243526,21.3703704 L76.3243526,27.1640212 C76.3243526,27.640388 76.3887265,28.1038801 76.5174743,28.5544974 C76.6462221,29.0051146 76.8489998,29.4042328 77.1258076,29.7518519 C77.4026154,30.0994709 77.7566718,30.3794974 78.1879769,30.5919312 C78.619282,30.8043651 79.1374919,30.910582 79.7426065,30.910582 Z M89.9587441,30.6402116 L89.9587441,25.6769841 C89.9587441,25.509612 89.990931,25.2843034 90.0553049,25.0010582 C90.1196788,24.7178131 90.2419892,24.4410053 90.4222362,24.1706349 C90.6024831,23.9002646 90.8535413,23.6685185 91.1754108,23.4753968 C91.4972803,23.2822751 91.922148,23.1857143 92.4500139,23.1857143 C92.5530122,23.1857143 92.6592291,23.1921517 92.7686647,23.2050265 C92.8781004,23.2179012 93.0100668,23.2436508 93.1645642,23.2822751 L93.1645642,23.2822751 L93.1645642,21.1579365 C93.0873155,21.1321869 92.9971921,21.1160935 92.8941938,21.1096561 C92.7911956,21.1032187 92.6946348,21.1 92.6045113,21.1 C91.9865219,21.1 91.4457811,21.2673721 90.9822891,21.6021164 C90.518797,21.9368607 90.1583032,22.3746032 89.9008076,22.9153439 L89.9008076,22.9153439 L89.8621833,22.9153439 L89.8621833,21.3703704 L87.6412838,21.3703704 L87.6412838,30.6402116 L89.9587441,30.6402116 Z M97.9732944,30.8333333 C98.23079,30.8333333 98.5011603,30.8108025 98.7844055,30.7657407 C99.0676506,30.720679 99.3122714,30.6595238 99.5182679,30.5822751 L99.5182679,30.5822751 L99.4410192,28.7669312 C99.2993967,28.8313051 99.1384619,28.8795855 98.958215,28.9117725 C98.7779681,28.9439594 98.610596,28.9600529 98.4560986,28.9600529 C97.9411074,28.9600529 97.6095818,28.8248677 97.4615219,28.5544974 C97.3134619,28.284127 97.2394319,27.9429453 97.2394319,27.5309524 L97.2394319,27.5309524 L97.2394319,23.2243386 L99.5568922,23.2243386 L99.5568922,21.3703704 L97.2394319,21.3703704 L97.2394319,18.6859788 L94.960596,18.6859788 L94.960596,21.3703704 L93.3383737,21.3703704 L93.3383737,23.2243386 L94.960596,23.2243386 L94.960596,27.5502646 C94.960596,28.0008818 95.002439,28.4225309 95.0861251,28.8152116 C95.1698111,29.2078924 95.3243085,29.5555115 95.5496171,29.8580688 C95.7749258,30.1606261 96.0807018,30.3988095 96.4669452,30.572619 C96.8531885,30.7464286 97.3553049,30.8333333 97.9732944,30.8333333 Z M105.736786,30.8912698 C106.470649,30.8912698 107.127263,30.7657407 107.706628,30.5146825 C108.285993,30.2636243 108.768797,29.9127866 109.15504,29.4621693 L109.15504,29.4621693 L107.938374,28.3613757 C107.693753,28.6703704 107.38154,28.9149912 107.001734,29.0952381 C106.621928,29.275485 106.200278,29.3656085 105.736786,29.3656085 C105.26042,29.3656085 104.835552,29.275485 104.462183,29.0952381 C104.088815,28.9149912 103.773383,28.6735891 103.515887,28.3710317 C103.258391,28.0684744 103.062051,27.7176367 102.926866,27.3185185 C102.791681,26.9194004 102.724088,26.50097 102.724088,26.0632275 C102.724088,25.625485 102.791681,25.2070547 102.926866,24.8079365 C103.062051,24.4088183 103.258391,24.0579806 103.515887,23.7554233 C103.773383,23.452866 104.085596,23.2114638 104.452527,23.0312169 C104.819458,22.85097 105.241107,22.7608466 105.717474,22.7608466 C106.155217,22.7608466 106.56721,22.8606261 106.953453,23.0601852 C107.339696,23.2597443 107.629379,23.5075838 107.822501,23.8037037 L107.822501,23.8037037 L109.135728,22.7415344 C108.76236,22.2522928 108.257025,21.8789242 107.619723,21.6214286 C106.982421,21.363933 106.341901,21.2351852 105.698162,21.2351852 C105.002924,21.2351852 104.355966,21.3510582 103.757289,21.5828042 C103.158612,21.8145503 102.640402,22.1428571 102.202659,22.5677249 C101.764917,22.9925926 101.423735,23.5011464 101.179114,24.0933862 C100.934494,24.6856261 100.812183,25.3422399 100.812183,26.0632275 C100.812183,26.7970899 100.937712,27.4601411 101.188771,28.052381 C101.439829,28.6446208 101.784229,29.1499559 102.221972,29.5683862 C102.659714,29.9868166 103.177924,30.3119048 103.776601,30.5436508 C104.375278,30.7753968 105.028674,30.8912698 105.736786,30.8912698 Z M115.276998,30.8912698 C115.972236,30.8912698 116.622413,30.7721781 117.227527,30.5339947 C117.832642,30.2958113 118.357289,29.961067 118.801469,29.5297619 C119.245649,29.0984568 119.593268,28.5866843 119.844326,27.9944444 C120.095384,27.4022046 120.220913,26.7520282 120.220913,26.0439153 C120.220913,25.3358025 120.095384,24.6888448 119.844326,24.1030423 C119.593268,23.5172399 119.245649,23.0119048 118.801469,22.587037 C118.357289,22.1621693 117.832642,21.8306437 117.227527,21.5924603 C116.622413,21.3542769 115.972236,21.2351852 115.276998,21.2351852 C114.58176,21.2351852 113.931584,21.3542769 113.326469,21.5924603 C112.721354,21.8306437 112.199926,22.1621693 111.762183,22.587037 C111.324441,23.0119048 110.98004,23.5172399 110.728982,24.1030423 C110.477924,24.6888448 110.352395,25.3358025 110.352395,26.0439153 C110.352395,26.7520282 110.477924,27.4022046 110.728982,27.9944444 C110.98004,28.5866843 111.324441,29.0984568 111.762183,29.5297619 C112.199926,29.961067 112.721354,30.2958113 113.326469,30.5339947 C113.931584,30.7721781 114.58176,30.8912698 115.276998,30.8912698 Z M115.276998,29.3656085 C114.787756,29.3656085 114.353233,29.275485 113.973427,29.0952381 C113.593621,28.9149912 113.27497,28.6703704 113.017474,28.3613757 C112.759979,28.052381 112.563638,27.6983245 112.428453,27.2992063 C112.293268,26.9000882 112.225675,26.4816578 112.225675,26.0439153 C112.225675,25.6061728 112.293268,25.1877425 112.428453,24.7886243 C112.563638,24.3895062 112.759979,24.0386684 113.017474,23.7361111 C113.27497,23.4335538 113.593621,23.1921517 113.973427,23.0119048 C114.353233,22.8316578 114.787756,22.7415344 115.276998,22.7415344 C115.76624,22.7415344 116.200763,22.8316578 116.580569,23.0119048 C116.960375,23.1921517 117.279026,23.4335538 117.536522,23.7361111 C117.794017,24.0386684 117.990358,24.3895062 118.125543,24.7886243 C118.260728,25.1877425 118.328321,25.6061728 118.328321,26.0439153 C118.328321,26.4816578 118.260728,26.9000882 118.125543,27.2992063 C117.990358,27.6983245 117.794017,28.052381 117.536522,28.3613757 C117.279026,28.6703704 116.960375,28.9149912 116.580569,29.0952381 C116.200763,29.275485 115.76624,29.3656085 115.276998,29.3656085 Z M124.546839,30.6402116 L124.546839,25.773545 C124.546839,24.8594356 124.768929,24.1287919 125.213109,23.5816138 C125.657289,23.0344356 126.214123,22.7608466 126.883612,22.7608466 C127.244106,22.7608466 127.546663,22.8220018 127.791284,22.9443122 C128.035905,23.0666226 128.235464,23.2339947 128.389961,23.4464286 C128.544458,23.6588624 128.653894,23.9131393 128.718268,24.2092593 C128.782642,24.5053792 128.814829,24.8336861 128.814829,25.1941799 L128.814829,25.1941799 L128.814829,30.6402116 L130.630173,30.6402116 L130.630173,25.6962963 C130.630173,25.3358025 130.672016,24.981746 130.755702,24.634127 C130.839388,24.2865079 130.974573,23.9742945 131.161257,23.6974868 C131.347942,23.420679 131.589344,23.1953704 131.885464,23.0215608 C132.181584,22.8477513 132.53564,22.7608466 132.947633,22.7608466 C133.346751,22.7608466 133.675058,22.8380952 133.932554,22.9925926 C134.190049,23.1470899 134.396046,23.3530864 134.550543,23.610582 C134.70504,23.8680776 134.814476,24.1641975 134.87885,24.4989418 C134.943224,24.8336861 134.975411,25.1877425 134.975411,25.5611111 L134.975411,25.5611111 L134.975411,30.6402116 L136.790755,30.6402116 L136.790755,24.9624339 C136.790755,24.4474427 136.723162,23.9646384 136.587977,23.5140212 C136.452792,23.0634039 136.243577,22.6707231 135.960331,22.3359788 C135.677086,22.0012346 135.32303,21.7340829 134.898162,21.5345238 C134.473294,21.3349647 133.964741,21.2351852 133.372501,21.2351852 C132.715887,21.2351852 132.110772,21.3929012 131.557157,21.7083333 C131.003541,22.0237654 130.572236,22.4776014 130.263241,23.0698413 C129.979996,22.4132275 129.590534,21.9432981 129.094855,21.6600529 C128.599176,21.3768078 128.042342,21.2351852 127.424353,21.2351852 C126.729114,21.2351852 126.127219,21.405776 125.618665,21.7469577 C125.110111,22.0881393 124.739961,22.503351 124.508215,22.9925926 L124.508215,22.9925926 L124.450278,22.9925926 C124.450278,22.7994709 124.443841,22.5580688 124.430966,22.2683862 C124.418092,21.9787037 124.398779,21.7179894 124.37303,21.4862434 L124.37303,21.4862434 L122.654247,21.4862434 C122.679996,21.7823633 122.699308,22.123545 122.712183,22.5097884 C122.725058,22.8960317 122.731495,23.2114638 122.731495,23.4560847 L122.731495,30.6402116 L124.546839,30.6402116 Z M141.676734,30.6402116 L141.676734,25.773545 C141.676734,24.8594356 141.898823,24.1287919 142.343003,23.5816138 C142.787183,23.0344356 143.344017,22.7608466 144.013506,22.7608466 C144.374,22.7608466 144.676557,22.8220018 144.921178,22.9443122 C145.165799,23.0666226 145.365358,23.2339947 145.519855,23.4464286 C145.674353,23.6588624 145.783788,23.9131393 145.848162,24.2092593 C145.912536,24.5053792 145.944723,24.8336861 145.944723,25.1941799 L145.944723,25.1941799 L145.944723,30.6402116 L147.760067,30.6402116 L147.760067,25.6962963 C147.760067,25.3358025 147.80191,24.981746 147.885596,24.634127 C147.969282,24.2865079 148.104467,23.9742945 148.291152,23.6974868 C148.477836,23.420679 148.719238,23.1953704 149.015358,23.0215608 C149.311478,22.8477513 149.665534,22.7608466 150.077527,22.7608466 C150.476645,22.7608466 150.804952,22.8380952 151.062448,22.9925926 C151.319943,23.1470899 151.52594,23.3530864 151.680437,23.610582 C151.834935,23.8680776 151.94437,24.1641975 152.008744,24.4989418 C152.073118,24.8336861 152.105305,25.1877425 152.105305,25.5611111 L152.105305,25.5611111 L152.105305,30.6402116 L153.920649,30.6402116 L153.920649,24.9624339 C153.920649,24.4474427 153.853056,23.9646384 153.717871,23.5140212 C153.582686,23.0634039 153.373471,22.6707231 153.090226,22.3359788 C152.80698,22.0012346 152.452924,21.7340829 152.028056,21.5345238 C151.603189,21.3349647 151.094635,21.2351852 150.502395,21.2351852 C149.845781,21.2351852 149.240666,21.3929012 148.687051,21.7083333 C148.133435,22.0237654 147.70213,22.4776014 147.393136,23.0698413 C147.10989,22.4132275 146.720428,21.9432981 146.224749,21.6600529 C145.72907,21.3768078 145.172236,21.2351852 144.554247,21.2351852 C143.859009,21.2351852 143.257113,21.405776 142.748559,21.7469577 C142.240005,22.0881393 141.869855,22.503351 141.638109,22.9925926 L141.638109,22.9925926 L141.580173,22.9925926 C141.580173,22.7994709 141.573735,22.5580688 141.560861,22.2683862 C141.547986,21.9787037 141.528674,21.7179894 141.502924,21.4862434 L141.502924,21.4862434 L139.784141,21.4862434 C139.80989,21.7823633 139.829203,22.123545 139.842077,22.5097884 C139.854952,22.8960317 139.86139,23.2114638 139.86139,23.4560847 L139.86139,23.4560847 L139.86139,30.6402116 L141.676734,30.6402116 Z M161.220649,30.8912698 C162.03176,30.8912698 162.768841,30.7399912 163.431892,30.4374339 C164.094943,30.1348765 164.67109,29.6617284 165.160331,29.0179894 L165.160331,29.0179894 L163.885728,27.9944444 C163.628233,28.3806878 163.274176,28.7089947 162.823559,28.9793651 C162.372942,29.2497354 161.838638,29.3849206 161.220649,29.3849206 C160.821531,29.3849206 160.444943,29.3141093 160.090887,29.1724868 C159.736831,29.0308642 159.424617,28.8345238 159.154247,28.5834656 C158.883876,28.3324074 158.668224,28.0362875 158.507289,27.6951058 C158.346354,27.3539242 158.25945,26.9902116 158.246575,26.6039683 L158.246575,26.6039683 L165.50795,26.6039683 C165.520825,26.50097 165.527263,26.3979718 165.527263,26.2949735 L165.527263,26.2949735 L165.527263,25.9859788 C165.527263,25.2521164 165.424264,24.592284 165.218268,24.0064815 C165.012271,23.420679 164.71937,22.9217813 164.339564,22.5097884 C163.959758,22.0977954 163.496266,21.7823633 162.949088,21.5634921 C162.40191,21.3446208 161.793577,21.2351852 161.124088,21.2351852 C160.454599,21.2351852 159.830173,21.3542769 159.250808,21.5924603 C158.671443,21.8306437 158.169326,22.1621693 157.744458,22.587037 C157.319591,23.0119048 156.988065,23.5236772 156.749882,24.1223545 C156.511698,24.7210317 156.392607,25.3744268 156.392607,26.0825397 C156.392607,26.8035273 156.514917,27.4601411 156.759538,28.052381 C157.004159,28.6446208 157.338903,29.1499559 157.763771,29.5683862 C158.188638,29.9868166 158.697192,30.3119048 159.289432,30.5436508 C159.881672,30.7753968 160.525411,30.8912698 161.220649,30.8912698 Z M163.692607,25.2521164 L158.246575,25.2521164 C158.272324,24.8916226 158.365666,24.5536596 158.526601,24.2382275 C158.687536,23.9227954 158.893532,23.6492063 159.144591,23.4174603 C159.395649,23.1857143 159.691769,23.0022487 160.03295,22.8670635 C160.374132,22.7318783 160.737845,22.6642857 161.124088,22.6642857 C161.548956,22.6642857 161.919106,22.7318783 162.234538,22.8670635 C162.54997,23.0022487 162.813903,23.1857143 163.026337,23.4174603 C163.238771,23.6492063 163.399705,23.9227954 163.509141,24.2382275 C163.618577,24.5536596 163.679732,24.8916226 163.692607,25.2521164 L163.692607,25.2521164 Z M169.872501,30.6402116 L169.872501,25.8314815 C169.872501,25.4452381 169.924,25.0750882 170.026998,24.7210317 C170.129996,24.3669753 170.287712,24.0547619 170.500146,23.7843915 C170.71258,23.5140212 170.979732,23.2983686 171.301601,23.1374339 C171.623471,22.9764991 172.003277,22.8960317 172.441019,22.8960317 C172.737139,22.8960317 173.013947,22.9282187 173.271443,22.9925926 L173.271443,22.9925926 L173.348691,21.3124339 C173.155569,21.2609347 172.917386,21.2351852 172.634141,21.2351852 C172.016152,21.2351852 171.459317,21.3993386 170.963638,21.7276455 C170.467959,22.0559524 170.091372,22.4904762 169.833876,23.0312169 L169.833876,23.0312169 L169.77594,23.0312169 C169.77594,22.8380952 169.769502,22.5902557 169.756628,22.2876984 C169.743753,21.9851411 169.724441,21.7179894 169.698691,21.4862434 L169.698691,21.4862434 L167.979908,21.4862434 C168.005658,21.7823633 168.02497,22.123545 168.037845,22.5097884 C168.050719,22.8960317 168.057157,23.2114638 168.057157,23.4560847 L168.057157,23.4560847 L168.057157,30.6402116 L169.872501,30.6402116 Z M179.374088,30.8912698 C180.10795,30.8912698 180.764564,30.7657407 181.343929,30.5146825 C181.923294,30.2636243 182.406099,29.9127866 182.792342,29.4621693 L182.792342,29.4621693 L181.575675,28.3613757 C181.331055,28.6703704 181.018841,28.9149912 180.639035,29.0952381 C180.259229,29.275485 179.83758,29.3656085 179.374088,29.3656085 C178.897721,29.3656085 178.472853,29.275485 178.099485,29.0952381 C177.726116,28.9149912 177.410684,28.6735891 177.153189,28.3710317 C176.895693,28.0684744 176.699353,27.7176367 176.564167,27.3185185 C176.428982,26.9194004 176.36139,26.50097 176.36139,26.0632275 C176.36139,25.625485 176.428982,25.2070547 176.564167,24.8079365 C176.699353,24.4088183 176.895693,24.0579806 177.153189,23.7554233 C177.410684,23.452866 177.722898,23.2114638 178.089829,23.0312169 C178.45676,22.85097 178.878409,22.7608466 179.354776,22.7608466 C179.792518,22.7608466 180.204511,22.8606261 180.590755,23.0601852 C180.976998,23.2597443 181.266681,23.5075838 181.459802,23.8037037 L181.459802,23.8037037 L182.77303,22.7415344 C182.399661,22.2522928 181.894326,21.8789242 181.257025,21.6214286 C180.619723,21.363933 179.979203,21.2351852 179.335464,21.2351852 C178.640226,21.2351852 177.993268,21.3510582 177.394591,21.5828042 C176.795913,21.8145503 176.277704,22.1428571 175.839961,22.5677249 C175.402219,22.9925926 175.061037,23.5011464 174.816416,24.0933862 C174.571795,24.6856261 174.449485,25.3422399 174.449485,26.0632275 C174.449485,26.7970899 174.575014,27.4601411 174.826072,28.052381 C175.07713,28.6446208 175.421531,29.1499559 175.859273,29.5683862 C176.297016,29.9868166 176.815226,30.3119048 177.413903,30.5436508 C178.01258,30.7753968 178.665975,30.8912698 179.374088,30.8912698 Z M188.817739,30.8912698 C189.62885,30.8912698 190.365931,30.7399912 191.028982,30.4374339 C191.692033,30.1348765 192.26818,29.6617284 192.757421,29.0179894 L192.757421,29.0179894 L191.482818,27.9944444 C191.225323,28.3806878 190.871266,28.7089947 190.420649,28.9793651 C189.970032,29.2497354 189.435728,29.3849206 188.817739,29.3849206 C188.418621,29.3849206 188.042033,29.3141093 187.687977,29.1724868 C187.33392,29.0308642 187.021707,28.8345238 186.751337,28.5834656 C186.480966,28.3324074 186.265314,28.0362875 186.104379,27.6951058 C185.943444,27.3539242 185.85654,26.9902116 185.843665,26.6039683 L185.843665,26.6039683 L193.10504,26.6039683 C193.117915,26.50097 193.124353,26.3979718 193.124353,26.2949735 L193.124353,26.2949735 L193.124353,25.9859788 C193.124353,25.2521164 193.021354,24.592284 192.815358,24.0064815 C192.609361,23.420679 192.31646,22.9217813 191.936654,22.5097884 C191.556848,22.0977954 191.093356,21.7823633 190.546178,21.5634921 C189.999,21.3446208 189.390666,21.2351852 188.721178,21.2351852 C188.051689,21.2351852 187.427263,21.3542769 186.847898,21.5924603 C186.268532,21.8306437 185.766416,22.1621693 185.341548,22.587037 C184.916681,23.0119048 184.585155,23.5236772 184.346972,24.1223545 C184.108788,24.7210317 183.989696,25.3744268 183.989696,26.0825397 C183.989696,26.8035273 184.112007,27.4601411 184.356628,28.052381 C184.601249,28.6446208 184.935993,29.1499559 185.360861,29.5683862 C185.785728,29.9868166 186.294282,30.3119048 186.886522,30.5436508 C187.478762,30.7753968 188.122501,30.8912698 188.817739,30.8912698 Z M191.289696,25.2521164 L185.843665,25.2521164 C185.869414,24.8916226 185.962756,24.5536596 186.123691,24.2382275 C186.284626,23.9227954 186.490622,23.6492063 186.741681,23.4174603 C186.992739,23.1857143 187.288859,23.0022487 187.63004,22.8670635 C187.971222,22.7318783 188.334935,22.6642857 188.721178,22.6642857 C189.146046,22.6642857 189.516196,22.7318783 189.831628,22.8670635 C190.14706,23.0022487 190.410993,23.1857143 190.623427,23.4174603 C190.835861,23.6492063 190.996795,23.9227954 191.106231,24.2382275 C191.215666,24.5536596 191.276822,24.8916226 191.289696,25.2521164 L191.289696,25.2521164 Z" id="Spurtcommerce" fill="#FFFFFF" fill-rule="nonzero"></path>
            </g>
        </g>
    </g>
</svg>