<svg xmlns="http://www.w3.org/2000/svg" width="18.022" height="15.537" viewBox="0 0 18.022 15.537">
  <path id="Path" d="M17.741,2.45a1.26,1.26,0,0,0-.986-.472H3.018L2.9,1.1A1.274,1.274,0,0,0,1.64,0H.563a.565.565,0,0,0,0,1.13H1.64a.142.142,0,0,1,.139.122L3.3,12.181a1.274,1.274,0,0,0,1.255,1.1h.611a1.69,1.69,0,1,0,3.185,0h3.01a1.69,1.69,0,1,0,3.185,0H15.77a.565.565,0,0,0,0-1.13H4.555a.142.142,0,0,1-.139-.122l-.14-1.008H15.367a1.275,1.275,0,0,0,1.239-1l1.388-6.5a1.268,1.268,0,0,0-.253-1.065Z" fill="#2874f0"/>
</svg>
