<svg xmlns="http://www.w3.org/2000/svg" width="91" height="32" viewBox="0 0 91 32">
    <g data-name="Group 2678">
        <g data-name="Group 2676">
            <path data-name="Path 5653" d="M13.109 18.445q-5.748 0-11.5-.007c-.3 0-.414.05-.4.383.031.673.005 1.349.01 2.024a1.83 1.83 0 0 0 1.768 1.877c.428.031.679.264.674.622s-.3.608-.731.6a3.051 3.051 0 0 1-2.931-3.066c-.01-2.966 0-5.932 0-8.9V8.159a3.049 3.049 0 0 1 3.149-3.157h19.973a3.049 3.049 0 0 1 3.154 3.152c0 .687.013 1.375-.006 2.062-.007.243.066.291.3.29 1.668-.01 3.335 0 5-.011a.924.924 0 0 1 .812.392q2.015 2.614 4.051 5.212a1.066 1.066 0 0 1 .237.7c-.008 2.113 0 4.226 0 6.339 0 .6-.2.8-.8.806-.433 0-.867.02-1.3-.007-.3-.018-.417.064-.508.373a3.459 3.459 0 0 1-2.89 2.6 3.52 3.52 0 0 1-3.689-1.607 2.717 2.717 0 0 1-.448-1c-.057-.276-.162-.37-.471-.369-3.653.016-7.307.01-10.96.01-.815 0-1.63.016-2.444-.009-.294-.009-.4.074-.477.361a3.661 3.661 0 1 1-.019-1.991c.1.367.251.424.583.423q5.709-.016 11.419 0c.306 0 .4-.054.4-.384a91.425 91.425 0 0 1 0-3.513c.005-.308-.057-.4-.385-.4-3.856.019-7.714.014-11.571.014z"/>
            <path data-name="Path 5654" d="M643.746 489.417c0-1.719.006-3.437-.007-5.156 0-.267.062-.335.331-.333 1.527.014 3.055.011 4.583 0a.528.528 0 0 1 .476.231q1.805 2.342 3.631 4.669a.674.674 0 0 1 .156.448 732.816 732.816 0 0 0 0 5.346c0 .243-.051.337-.309.315a3.486 3.486 0 0 1-.87-.028c-.285-.106-.215-.494-.325-.749a3.7 3.7 0 0 0-3.532-2.262 3.664 3.664 0 0 0-3.382 2.676.471.471 0 0 1-.658.356c-.182-.064-.09-.216-.091-.323-.005-1.728-.003-3.459-.003-5.19z" transform="translate(-617.466 -472.212)" style="fill:#fefefe"/>
            <path data-name="Path 5655" d="M524 439.514v-2.863c0-.549.214-.773.759-.761a13.75 13.75 0 0 1 2.285.064 3 3 0 0 1 2.433 2.684 7.9 7.9 0 0 1-.041 2.093 3.027 3.027 0 0 1-2.921 2.485c-.611.013-1.222.009-1.832 0a.614.614 0 0 1-.681-.687c-.01-1.004-.002-2.01-.002-3.015z" transform="translate(-506.882 -427.829)" style="fill:#fefefe"/>
            <path data-name="Path 5656" d="M441.461 439.545a10.189 10.189 0 0 1-.065 1.654 2.426 2.426 0 0 1-2.316 1.911 4.57 4.57 0 0 1-1.328-.083 2.448 2.448 0 0 1-1.788-2.3q-.02-1.278 0-2.557a2.492 2.492 0 0 1 2.394-2.4c2.208-.151 3.281 1.239 3.105 3.03-.02.215-.002.433-.002.745z" transform="translate(-425.57 -427.724)" style="fill:#fefefe"/>
            <path data-name="Path 5657" d="M351.757 436.012c.331 0 .662-.007.993 0a.61.61 0 1 1 0 1.217c-.585.01-1.171 0-1.757 0a1.827 1.827 0 0 0-1.875 1.884c0 .395-.007.789 0 1.184a1.827 1.827 0 0 0 1.826 1.818c.585.01 1.171 0 1.757 0a.619.619 0 0 1 .692.6.608.608 0 0 1-.675.616 14.274 14.274 0 0 1-2.362-.064 3.017 3.017 0 0 1-2.454-2.907 9.189 9.189 0 0 1 .053-1.866 3.042 3.042 0 0 1 2.958-2.491c.287.005.564.009.844.009z" transform="translate(-344.23 -427.955)" style="fill:#fefefe"/>
            <path data-name="Path 5658" d="M30.858 17.834h-2.632c-.5 0-.721-.226-.723-.722q-.006-1.717 0-3.434c0-.5.224-.728.714-.731h2.251a.755.755 0 0 1 .626.3q1.462 1.76 2.929 3.516a.621.621 0 0 1 .134.734.659.659 0 0 1-.666.346c-.878-.013-1.755-.009-2.633-.009z"/>
            <path data-name="Path 5659" d="M21.391 11.778a5.125 5.125 0 0 1-.051.967 1.827 1.827 0 0 1-1.759 1.42c-.344.007-.688-.006-1.031 0-.163.005-.218-.039-.218-.211.006-1.489 0-2.979 0-4.468 0-.092-.042-.221.13-.213a8.283 8.283 0 0 1 1.484.049 1.814 1.814 0 0 1 1.44 1.781c.008.209.005.412.005.675z"/>
            <path data-name="Path 5660" d="M14.669 11.739c0 .394.006.787 0 1.181a1.223 1.223 0 0 1-1.257 1.246c-.19 0-.381.006-.571 0a1.22 1.22 0 0 1-1.223-1.242q-.013-1.2 0-2.4a1.214 1.214 0 0 1 1.256-1.245h.533a1.223 1.223 0 0 1 1.263 1.279c.003.393-.001.787-.001 1.181z"/>
        </g>
        <text data-name="Cash on Delivery" transform="translate(43 12)" style="fill:#0c0c0c;font-size:13px;font-family:Roboto-Medium,Roboto;font-weight:500"><tspan x="0" y="0">Cash on</tspan><tspan x="0" y="17">Delivery</tspan></text>
    </g>
</svg>
