<svg xmlns="http://www.w3.org/2000/svg" xmlns:xlink="http://www.w3.org/1999/xlink" width="24" height="24" viewBox="0 0 24 24">
  <defs>
    <clipPath id="clip-path">
      <rect id="Rectangle_1938" data-name="Rectangle 1938" width="24" height="24" transform="translate(1145 20)" fill="#fff" stroke="#707070" stroke-width="1"/>
    </clipPath>
  </defs>
  <g id="Mask_Group_6" data-name="Mask Group 6" transform="translate(44 -1145) rotate(90)" clip-path="url(#clip-path)">
    <path id="arrow-down-arrow-up" d="M26.5,9.269a.921.921,0,0,1-1.3,0L21.849,5.922v15a.923.923,0,1,1-1.846,0v-15L16.654,9.269a.923.923,0,0,1-1.3-1.3L20.273,3.04a.924.924,0,0,1,1.3,0L26.5,7.964a.922.922,0,0,1,0,1.3Zm-13.614,11L9.54,23.62v-15a.923.923,0,1,0-1.846,0v15L4.345,20.273a.923.923,0,0,0-1.3,1.3L7.964,26.5a.924.924,0,0,0,1.3,0l4.924-4.924a.923.923,0,0,0-1.3-1.3Z" transform="translate(1142.218 17.229)" fill="#fff"/>
  </g>
</svg>
