<svg xmlns="http://www.w3.org/2000/svg" xmlns:xlink="http://www.w3.org/1999/xlink" width="824.011" height="470.378" viewBox="0 0 824.011 470.378">
  <defs>
    <clipPath id="clip-path">
      <rect id="Rectangle_1181" data-name="Rectangle 1181" width="237.33" height="156.699" rx="14.22" fill="none"/>
    </clipPath>
    <radialGradient id="radial-gradient" cx="0.109" cy="0.359" r="0.627" gradientTransform="translate(0.159) scale(0.683 1)" gradientUnits="objectBoundingBox">
      <stop offset="0" stop-color="#fff"/>
      <stop offset="1" stop-color="#fff" stop-opacity="0"/>
    </radialGradient>
    <linearGradient id="linear-gradient" x1="0.5" x2="0.5" y2="1" gradientUnits="objectBoundingBox">
      <stop offset="0" stop-color="#ffd71d"/>
      <stop offset="1" stop-color="#feb200"/>
    </linearGradient>
    <linearGradient id="linear-gradient-2" x1="-0.694" y1="0.5" x2="0.308" y2="0.5" gradientUnits="objectBoundingBox">
      <stop offset="0" stop-color="#343a44"/>
      <stop offset="0.3" stop-color="#232d3e"/>
      <stop offset="0.64" stop-color="#182439"/>
      <stop offset="1" stop-color="#142138"/>
    </linearGradient>
    <linearGradient id="linear-gradient-3" x1="0.15" y1="0.499" x2="1.15" y2="0.499" xlink:href="#linear-gradient-2"/>
  </defs>
  <g id="Group_1303" data-name="Group 1303" transform="translate(-493.881 -339.334)">
    <path id="Path_2545" data-name="Path 2545" d="M83.919,290.836c-44.995,28.3-68.552,92.051-32.17,177.025H768.388c12.166-30.781,19.434-71.228,21.729-95.3,4.986-52.511-12.868-107.069-44.337-135.876-79.636-72.91-145.834,28.368-187.714-14.418-24.172-24.713-21.934-94.04-40.783-126.24C475.55,24.977,396.966-10.059,319.479,2.516,267.934,10.881,221.418,38.167,193.05,84.4c-38.853,63.229-10.558,108.517-27.784,152.224C146.213,285.265,113.984,271.987,83.919,290.836Z" transform="translate(475.931 339.336)" fill="#afb3bd"/>
    <path id="Path_2546" data-name="Path 2546" d="M111.848,132.873c-.1.409,6.536-3.729,6.536-3.729l2.808-4.387s2.749-1.769,4.723-2.72,5.586-6.844,5.586-6.844l-1.462-1.8a23.907,23.907,0,0,1-2.749,2.925,3.539,3.539,0,0,1-2.062,0,36.453,36.453,0,0,1,1.594-4.387,40.489,40.489,0,0,1,4.46-6.829l-1.272-1.331a34.521,34.521,0,0,0-2.734,2.925c-.731.965-2.12,2.925-2.12,2.925a40.577,40.577,0,0,1,2.34-4.884c.907-1.331,1.872-3.129,1.872-3.129L127.9,100.6a33.172,33.172,0,0,0-2.574,3.685c-.877,1.579-2.5,4.182-2.5,4.182a51.071,51.071,0,0,1,1.842-5.162,16.8,16.8,0,0,0,.834-1.74l-1.725-.6a14.112,14.112,0,0,0-2.033,3.656,21.088,21.088,0,0,1-1.316,3.012,19.933,19.933,0,0,1,1.082-4.387,3.832,3.832,0,0,0,.585-1.462l-1.462-.263s-2.691,4.957-4.094,8.028-2.53,7.224-3.319,9.461a86.578,86.578,0,0,0-1.842,9.9Z" transform="translate(511.743 385.844)" fill="#f5c5b3"/>
    <path id="Path_2547" data-name="Path 2547" d="M155.525,154.68l-34.071-5.849a113.459,113.459,0,0,1-.366-17.46c.6-10.236,1.842-13.029,1.842-13.029l-9.139-1.272s-1.8,8.028-3.1,13.8c-2.925,12.8-5.484,24.786-3.29,27.447,3.173,3.875,31.527,11.7,41.222,19.01C154.457,181.732,154.121,167.709,155.525,154.68Z" transform="translate(509.523 393.458)" fill="#42b2fc"/>
    <path id="Path_2548" data-name="Path 2548" d="M173.626,212.317,171.9,224.1l3.553,8.072,2.6-3.524.6-6.58,3.846.585,1.886-2.369-.161-4.943L183.6,201.92Z" transform="translate(539.721 432.683)" fill="#fec4ad"/>
    <path id="Path_2549" data-name="Path 2549" d="M175,147.78c-2.617-.965-11.187-.336-11.187-.336s-.8,9.154,2.676,16.217,12.093,32.785,13.161,35.212S177.4,237.55,177.4,237.55l12.5-2.574s6.039-28,6-35.095-6.712-33.764-11.45-42.26S181.378,150.134,175,147.78Z" transform="translate(535.947 407.406)" fill="#42b2fc"/>
    <path id="Path_2550" data-name="Path 2550" d="M163.856,129.7s-2.749,12.079-.585,14.886c1.258,1.638,6.61,7.5,6.61,7.5s-17.723,9.359-22.943,9.359-3.378-10.441-3.378-10.441,5.674-4.5,6.522-6.77a50.667,50.667,0,0,0,1.316-8.774Z" transform="translate(526.474 399.297)" fill="#fec4ad"/>
    <path id="Path_2551" data-name="Path 2551" d="M158.856,131.355s-.19-4.387,3.48-4.285c2.354,0,2.544,2.223.7,5-.76,1.17-.848,3.817-1.8,4.679s-2.135-.57-2.5-1.3A8.774,8.774,0,0,1,158.856,131.355Z" transform="translate(533.55 398.08)" fill="#f5c5b3"/>
    <path id="Path_2552" data-name="Path 2552" d="M146.9,131.355s.2-4.387-3.48-4.285c-2.354,0-2.53,2.223-.7,5,.775,1.17.848,3.817,1.813,4.679s2.135-.57,2.486-1.3a8.773,8.773,0,0,0-.117-4.094Z" transform="translate(525.661 398.08)" fill="#f5c5b3"/>
    <path id="Path_2553" data-name="Path 2553" d="M169.922,126.113a42.614,42.614,0,0,1-.746,4.475c-.088.512-.19,1.1-.278,1.769-.76,5.279-1.725,12.459-2.15,13.526-.687,1.769-4.46,4.65-6.244,5.7a10.763,10.763,0,0,1-8.086-.219c-1.784-1.053-5.849-3.714-6.522-5.484-.424-1.1-1.462-8.481-2.193-13.848-.088-.614-.175-1.141-.263-1.609a42.713,42.713,0,0,1-.717-4.314c-.278-4.46,4.738-10.953,13.6-10.953C166.793,115.16,170.2,121.653,169.922,126.113Z" transform="translate(526.228 392.575)" fill="#f5c5b3"/>
    <path id="Path_2554" data-name="Path 2554" d="M145.75,119.994a21.159,21.159,0,0,1,16.217.585l3.129-1.989a25.619,25.619,0,0,0-11.1-2.34C147.446,116.309,145.75,119.994,145.75,119.994Z" transform="translate(527.633 393.078)" fill="#e8d4e5"/>
    <path id="Path_2555" data-name="Path 2555" d="M168.946,126.1c-.088.512-.19,1.1-.278,1.769-.76,5.279-1.725,12.459-2.15,13.526-.687,1.769-4.46,4.65-6.244,5.7a10.763,10.763,0,0,1-8.086-.219c-1.784-1.053-5.849-3.714-6.522-5.484-.424-1.1-1.462-8.481-2.193-13.848-.088-.614-.175-1.141-.263-1.608l.731-1.067s1.3,7.648,3.3,10.017,2.369,2.486,2.369,2.486l4.094-1.009h.322a9.564,9.564,0,0,1,4.767,0l.249.073.307.088,3.085.892s.731-.1,2.72-2.486,2.925-10.017,2.925-10.017Z" transform="translate(526.458 397.064)" fill="#7b2b1a"/>
    <path id="Path_2556" data-name="Path 2556" d="M163.045,122.434c0,.146-.76,5.352-1.053,6.185-.453,1.258-.79,2.164-.79,2.164l-.541-1.155a17.3,17.3,0,0,1-1.579-6.887l-.1-4.475,1.462-1.316C163.4,117.389,163.718,119.085,163.045,122.434Z" transform="translate(533.749 393.402)" fill="#7b2b1a"/>
    <path id="Path_2557" data-name="Path 2557" d="M147.632,118.393h0L146.915,123a17.224,17.224,0,0,1-2.135,6.054v.1l-.8,1.462s-.249-.819-.585-1.974c-.234-.848-.848-5.206-.994-5.849a3.584,3.584,0,0,0-.117-.57c-.629-3.261,0-4.635,2.925-5.074Z" transform="translate(525.926 393.495)" fill="#7b2b1a"/>
    <path id="Path_2558" data-name="Path 2558" d="M167.827,119.015l-1.462,1.316-2.837,1.024a22.285,22.285,0,0,0-9.973-1.8c-5.674.439-6.449,2.076-6.536,2.179h0l-.585-.132-2.793-.6-.57-.132a18.605,18.605,0,0,1,1.111-3.159c2.237-3.363,8.306-5.542,13.833-4.986h.556a13.307,13.307,0,0,1,7.516,3.1Z" transform="translate(526.394 391.411)" fill="#7b2b1a"/>
    <path id="Path_2559" data-name="Path 2559" d="M176.167,312.84v11.055H154.92s.79-3.992,10.865-5.849l1.462-5.206Z" transform="translate(531.872 483.961)" fill="#133a50"/>
    <path id="Path_2560" data-name="Path 2560" d="M154.072,312.84v11.055H132.81s.8-3.992,10.879-5.849l1.462-5.206Z" transform="translate(521.65 483.961)" fill="#133a50"/>
    <path id="Path_2561" data-name="Path 2561" d="M179.362,200.29s2.925,35.607,3.071,64.648S184.26,367.4,184.26,367.4h-11.7s-12.093-70.512-16.48-89.2-15.822-77.575-15.822-77.575Z" transform="translate(525.094 431.93)" fill="#133a50"/>
    <path id="Path_2562" data-name="Path 2562" d="M158.413,238.483s-2.208,44.249-2.647,52.964,0,75.864,0,75.864-10.982.307-10.982,0-10.368-71.506-11.7-92.972-.556-46.925-2.34-49.893,4.811-24.055,4.811-24.055l15.559,4.138Z" transform="translate(520.555 431.976)" fill="#133a50"/>
    <path id="Path_2563" data-name="Path 2563" d="M152.3,141.742s-4.869,11.055,2.471,12.283c11.7,1.93,15.208-12.985,15.208-12.985l12.854,6.624s-.249,80.017,4.811,104.451c2.925,14.184-45.872,7.428-53.037-5.162-6.2-10.894,11.7-101.439,11.7-101.439Z" transform="translate(521.876 404.539)" fill="#fff"/>
    <path id="Path_2564" data-name="Path 2564" d="M164.522,142c-.351.483-17.547,50.946-11.7,98.441,1.375,11.07,21.569,1.916,26.321,1.916,0,0,2.3-35.446,2.851-48.621s-5.718-17.547-5.162-23.967,7.575-17.957,7.575-17.957Z" transform="translate(530.341 404.983)" fill="#42b2fc"/>
    <path id="Path_2565" data-name="Path 2565" d="M145.709,245.309c1.974-33.019,2.778-102.126,2.778-102.126l-11.7-.863s-5.849,57.965-5.849,64.546c0,2.632.79,34.452-.98,40.418C133.879,247.868,145.475,249.287,145.709,245.309Z" transform="translate(520.332 405.131)" fill="#42b2fc"/>
    <path id="Path_2566" data-name="Path 2566" d="M238.768,129.7c-9.154,3.129-18.542,6.419-25.809,12.8s-11.947,16.714-8.876,25.883,15.793,14.506,23.163,8.247c2.647-2.237,4.284-6.1,2.925-9.271-2.808-6.259-12.6-3.334-17.2,1.784-5.44,6.054-8.905,14.345-7.56,22.373s8.364,15.252,16.509,15.252,19.756-12.3,12.78-16.509c-8.847-5.352-20.238,7.311-24.6,16.772s-1.623,22.081,7.311,27.359,29.787-1.462,24.318-10.236c-5.849-9.286-22.87,4.094-25.137,14.8s6.1,22.417,16.963,23.733,29.655-11.04,22.139-19.01c-10.85-11.464-28.953,17.752-23.733,32.668s26.818,20.838,38.926,10.7c2.267-1.9,4.314-4.621,3.89-7.56-.687-4.869-7.311-6.244-12.049-4.679-12.2,4.065-17.708,21.145-10.236,31.585s25.458,10.631,33.179.351a8.774,8.774,0,0,0,2.135-6.96c-.76-3.422-4.811-5.352-8.247-4.709a13.468,13.468,0,0,0-8.174,6.142c-6.96,10.309-4.621,25.795,5.089,33.633s25.327,6.712,33.881-2.31c2.237-2.354,4.08-5.513,3.48-8.7-.673-3.685-4.606-6.156-8.364-6.054a14.623,14.623,0,0,0-9.783,4.928c-10.909,11.347-6.244,33.3,8.35,39.2s43.532-10.368,33.282-22.329c-6.844-7.984-20.34,9.286-18.615,19.668s13.658,17.43,23.835,14.769,23.5-17.226,15.647-24.245c-5.557-4.943-14.623,5.513-16.275,12.751a17.065,17.065,0,0,0,8.774,18.7c7.18,3.539,15.983,1.462,22.9-2.632s12.649-9.827,19.3-14.287a60.451,60.451,0,0,1,46.135-8.642" transform="translate(554.156 399.297)" fill="none" stroke="#fff" stroke-miterlimit="10" stroke-width="2"/>
    <path id="Path_2567" data-name="Path 2567" d="M587.994,162.458c-14.813-9.446-146.843,101.849-142,189.791,0,0,25.707-34.715,48.109-51.633s24.581-34.627,24.537-52.16,33.472-10.236,37.245-29.743C562.55,184.29,601.33,170.969,587.994,162.458Z" transform="translate(666.371 414.18)" fill="#4fae86"/>
    <path id="Path_2568" data-name="Path 2568" d="M597.039,237.438c-21.32,12.912-15.047,30.138-27.623,40.2-9.154,7.311-24.406,3.495-32.024,13.453-8.569,11.23,1.185,26.672,1.9,40.213.994,18.688-15.676,32.7-32.609,38.385-19.682,6.595-45.141,4.533-55.9-15.032-12.707-23.089-3.2-57.892,19.1-68.728,5.425-2.632,12.3-3.349,16.729-8.671,7.458-9.008,2.676-21.934,6.127-33.4,3.378-11.157,14.4-19.01,24.566-22.475s20.472-4.182,30.445-8.218c13.526-5.5,25.371-17.547,36.63-25.707,10.046-7.311,45.331-20.881,51.034,2.925C640.63,212.126,614.952,226.588,597.039,237.438Z" transform="translate(666.013 421.132)" fill="#319188"/>
    <path id="Path_2569" data-name="Path 2569" d="M599.878,194.57s-87.1,43.719-156.578,184.568" transform="translate(665.367 429.285)" fill="none" stroke="#194459" stroke-miterlimit="10" stroke-width="1"/>
    <path id="Path_2570" data-name="Path 2570" d="M651.387,239.73s-112.1-1.243-205.247,105.607" transform="translate(666.5 450.162)" fill="none" stroke="#fff" stroke-miterlimit="10" stroke-width="1"/>
    <path id="Path_2571" data-name="Path 2571" d="M588.982,282.919c-10.689,4.27-13.585,22.285-25.093,24.566-8.364,1.667-17.3-5.747-25.473-1.9-9.227,4.387-7.6,17.328-11.362,26.16-5.206,12.2-20.677,15.661-33.706,13.731-15.12-2.223-31.381-11.845-32.39-27.783-1.185-18.82,16.085-37.815,34.261-37.42,4.387.088,9.212,1.886,13.819,0,7.779-3.29,8.657-13.073,14.55-19.215s15.529-7.311,23.4-6.259,14.93,4.036,22.783,4.709c10.7.936,22.358-2.925,32.375-4.387,8.949-1.331,45.507-.629,32.975,18.513C626.416,286.852,603.21,277.186,588.982,282.919Z" transform="translate(673.324 456.969)" fill="#4fae86"/>
    <path id="Path_2572" data-name="Path 2572" d="M617.5,261.85s-77.867,6.624-168.427,73.714" transform="translate(667.854 460.388)" fill="none" stroke="#194459" stroke-miterlimit="10" stroke-width="1"/>
    <path id="Path_2573" data-name="Path 2573" d="M390.73,338.052s17.723-31.015,20.6-34.218c18.235-20.18,42.406-20.4,67.031-15.31,7.121,1.462,25.97,11.391,32.814,10.017,5.337-1.068,11.7-21.32,28.778-20.253s18.089,21.32,18.089,21.32,10.7-23.528,27.784-21.364,17.065,18.059,4.27,29.845c0,0,27.184-8.16,53.564,4.475s13.789,29.246,13.789,29.246Z" transform="translate(640.884 467.902)" fill="#319188"/>
    <path id="Path_2574" data-name="Path 2574" d="M67.326,162.458c14.813-9.446,146.843,101.849,142,189.791,0,0-25.707-34.715-48.109-51.633s-24.6-34.627-24.552-52.16-33.457-10.236-37.23-29.743C92.755,184.29,53.99,170.969,67.326,162.458Z" transform="translate(490.097 414.18)" fill="#4fae86"/>
    <path id="Path_2575" data-name="Path 2575" d="M72.84,237.438c21.335,12.912,15.062,30.138,27.637,40.2,9.139,7.311,24.406,3.495,32.01,13.453,8.584,11.23-1.17,26.672-1.886,40.213-.994,18.688,15.676,32.7,32.609,38.385,19.668,6.595,45.126,4.533,55.9-15.032C231.82,331.566,222.3,296.763,200,285.928c-5.41-2.632-12.283-3.349-16.714-8.671-7.472-9.008-2.676-21.934-6.127-33.4-3.378-11.157-14.4-19.01-24.567-22.475s-20.472-4.182-30.445-8.218c-13.526-5.5-25.371-17.547-36.557-25.707-10.046-7.311-45.331-20.881-51.049,2.925C29.249,212.126,54.927,226.588,72.84,237.438Z" transform="translate(475.896 421.132)" fill="#319188"/>
    <path id="Path_2576" data-name="Path 2576" d="M59,194.57s87.182,43.869,156.743,185.2" transform="translate(487.529 429.285)" fill="none" stroke="#194459" stroke-miterlimit="10" stroke-width="1"/>
    <path id="Path_2577" data-name="Path 2577" d="M23,239.73s112.114-1.243,205.262,105.607" transform="translate(470.887 450.162)" fill="none" stroke="#fff" stroke-miterlimit="10" stroke-width="1"/>
    <path id="Path_2578" data-name="Path 2578" d="M76.446,282.919c10.689,4.27,13.585,22.285,25.093,24.566,8.364,1.667,17.3-5.747,25.473-1.9,9.212,4.387,7.589,17.328,11.362,26.16,5.206,12.2,20.662,15.661,33.633,13.731,15.135-2.223,31.381-11.845,32.4-27.783,1.184-18.82-16.085-37.815-34.261-37.42-4.387.088-9.212,1.886-13.819,0-7.794-3.29-8.671-13.073-14.623-19.215s-15.53-7.311-23.4-6.259-14.93,4.036-22.783,4.709c-10.7.936-22.358-2.925-32.39-4.387-8.949-1.331-45.492-.629-32.96,18.513C39.04,286.852,62.232,277.186,76.446,282.919Z" transform="translate(473.007 456.969)" fill="#4fae86"/>
    <path id="Path_2579" data-name="Path 2579" d="M45.26,261.85s77.867,6.624,168.412,73.714" transform="translate(481.177 460.388)" fill="none" stroke="#194459" stroke-miterlimit="10" stroke-width="1"/>
    <path id="Path_2580" data-name="Path 2580" d="M304.055,338.052s-17.723-31.015-20.618-34.218c-18.22-20.18-42.406-20.4-67.017-15.31-7.121,1.462-25.985,11.391-32.814,10.017-5.337-1.068-11.7-21.32-28.792-20.253s-18.089,21.32-18.089,21.32-10.689-23.528-27.784-21.364-17.05,18.059-4.255,29.845c0,0-27.184-8.16-53.578,4.475S37.333,341.81,37.333,341.81Z" transform="translate(476.119 467.902)" fill="#319188"/>
    <path id="Path_2581" data-name="Path 2581" d="M360.517,329.58H332.938a5.849,5.849,0,0,1-5.849-5.367l-1.8-21.773h42.845l-1.813,21.773A5.849,5.849,0,0,1,360.517,329.58Z" transform="translate(610.632 479.153)" fill="#21295b"/>
    <path id="Path_2582" data-name="Path 2582" d="M471.867,329.58H444.288a5.849,5.849,0,0,1-5.849-5.367l-1.8-21.773h42.933l-1.8,21.773A5.849,5.849,0,0,1,471.867,329.58Z" transform="translate(662.109 479.153)" fill="#21295b"/>
    <path id="Path_2583" data-name="Path 2583" d="M527.218,319.889H327.25L341.39,216.8a16.231,16.231,0,0,1,16.085-14.038h139.5A16.261,16.261,0,0,1,513.063,216.8Z" transform="translate(611.539 433.072)" fill="#ff3a46"/>
    <path id="Path_2584" data-name="Path 2584" d="M491.7,306.2h-146l10.382-103.559A15.047,15.047,0,0,1,371,189.09h95.341a15.062,15.062,0,0,1,14.989,13.558Z" transform="translate(620.067 426.752)" fill="#ff3a46"/>
    <path id="Path_2585" data-name="Path 2585" d="M330.452,266.85l-3.2,23.411H527.218L524,266.85Z" transform="translate(611.539 462.7)" fill="#cfcfcf"/>
    <path id="Path_2586" data-name="Path 2586" d="M555.7,326.917H312.45l4.5-52.847H551.2Z" transform="translate(604.696 466.038)" fill="#ff3a46"/>
    <circle id="Ellipse_898" data-name="Ellipse 898" cx="44.497" cy="44.497" r="44.497" transform="translate(977.189 667.224) rotate(-33.07)" fill="#cfcfcf"/>
    <circle id="Ellipse_899" data-name="Ellipse 899" cx="38.487" cy="38.487" r="38.487" transform="translate(999.397 642.699) rotate(-1.34)" fill="#fff"/>
    <path id="Path_2587" data-name="Path 2587" d="M404.586,257.956a4.972,4.972,0,0,1-3.539-1.462,3.423,3.423,0,0,1-.614-.76,4.125,4.125,0,0,1-.468-.863,6.729,6.729,0,0,1-.293-.921,5.731,5.731,0,0,1-.1-.994,5,5,0,0,1,5.981-4.884,4.3,4.3,0,0,1,.936.278,6.852,6.852,0,0,1,.863.453,6.439,6.439,0,0,1,.76.629,5.089,5.089,0,0,1,1.462,3.524,7.626,7.626,0,0,1-.088.994,6.747,6.747,0,0,1-.293.921,6.054,6.054,0,0,1-.453.863,4.576,4.576,0,0,1-.629.76,4.389,4.389,0,0,1-.76.614,3.785,3.785,0,0,1-.863.468,5.275,5.275,0,0,1-.936.278A4.387,4.387,0,0,1,404.586,257.956Z" transform="translate(644.971 453.973)" fill="#b3b3b3"/>
    <path id="Path_2588" data-name="Path 2588" d="M401.485,277.138h0a4.986,4.986,0,0,1-4.241-5.645h0a4.972,4.972,0,0,1,5.644-4.241h0a4.986,4.986,0,0,1,4.241,5.644h0a5,5,0,0,1-4.943,4.3h0a3.8,3.8,0,0,1-.7-.059ZM385.4,270.324h0a5.016,5.016,0,0,1-.863-7.034h0a5,5,0,0,1,7-.848h0a4.986,4.986,0,0,1,.863,7h0a4.957,4.957,0,0,1-3.948,1.93h0a5,5,0,0,1-3.027-1.053Zm-10.5-13.965a4.972,4.972,0,0,1,2.764-6.493h0a5,5,0,0,1,6.507,2.749h0a5.016,5.016,0,0,1-2.778,6.507h0a4.958,4.958,0,0,1-1.872.366h0a4.972,4.972,0,0,1-4.592-3.129Zm2.12-11.7a4.986,4.986,0,0,1-4.255-5.644h0a4.986,4.986,0,0,1,5.644-4.241h0a4.987,4.987,0,0,1,4.255,5.644h0a5,5,0,0,1-4.943,4.285h0a5.484,5.484,0,0,1-.673-.029Zm3.422-14.681a5,5,0,0,1-.877-7h0a4.987,4.987,0,0,1,7.019-.877h0a5,5,0,0,1,.863,7.019h0a4.986,4.986,0,0,1-3.934,1.916h0A4.943,4.943,0,0,1,380.443,229.979Zm40.33-4.972a4.986,4.986,0,0,1-.863-7h0a4.986,4.986,0,0,1,7-.877h0a5.016,5.016,0,0,1,.877,7.019h0a5.03,5.03,0,0,1-3.948,1.93h0a5.059,5.059,0,0,1-3.027-1.068Zm-30.006-6.039a4.986,4.986,0,0,1,2.749-6.507h0a5,5,0,0,1,6.507,2.764h0a5,5,0,0,1-2.764,6.507h0a5.177,5.177,0,0,1-1.872.351h0a4.957,4.957,0,0,1-4.577-3.115Zm18.673,1.243a5,5,0,0,1-4.241-5.644h0a4.986,4.986,0,0,1,5.644-4.241h0a4.986,4.986,0,0,1,4.255,5.644h0a5.016,5.016,0,0,1-4.943,4.284h0Z" transform="translate(632.557 436.546)" fill="#b3b3b3"/>
    <path id="Path_2589" data-name="Path 2589" d="M415.431,232.375a5.267,5.267,0,0,1-.965-.1,5.117,5.117,0,0,1-.95-.292,4.723,4.723,0,0,1-.848-.453,5.389,5.389,0,0,1-.775-.629,5.03,5.03,0,0,1-1.462-3.524,4.458,4.458,0,0,1,.1-.98,4.389,4.389,0,0,1,.293-.936,4.852,4.852,0,0,1,.453-.863,5.175,5.175,0,0,1,.614-.76,4.475,4.475,0,0,1,.833-.57,4.386,4.386,0,0,1,.848-.468,5.09,5.09,0,0,1,.95-.278,5.03,5.03,0,0,1,4.489,1.36,3.862,3.862,0,0,1,.629.76,4.051,4.051,0,0,1,.453.863,4.386,4.386,0,0,1,.293.936,4.471,4.471,0,0,1,.1.98,5.045,5.045,0,0,1-5,5Z" transform="translate(649.992 442.163)" fill="#b3b3b3"/>
    <path id="Path_2590" data-name="Path 2590" d="M356.847,129.373A21.32,21.32,0,0,1,361.132,107s36.192,23.4,76.639,16.831c0,0,4.387,12.2-8,23.5C429.771,147.388,386.473,155.592,356.847,129.373Z" transform="translate(624.538 388.803)" fill="#d6313b"/>
    <path id="Path_2591" data-name="Path 2591" d="M483.788,93.282c-26.043-21.934-75.381-25.049-137.821-15-53.7,8.642-108.37,28.924-126.62,57.57-8.32,13.044-2.676,49.279-2.676,49.279,49.469,3.1,67.587-39.482,67.587-39.482s-3.319-12.064,7.765-17.4c38.78-18.6,98.895-24.976,121.253-19.463a16.553,16.553,0,0,1,12.839,14.082s30.547,34.686,76.536,16.231C502.652,139.1,495.6,103.255,483.788,93.282Z" transform="translate(559.554 372.997)" fill="#ff3a46"/>
    <path id="Path_2592" data-name="Path 2592" d="M294.049,142.278a21.364,21.364,0,0,0-11.084-19.858s-26.994,33.633-67.485,40.038c0,0-.38,12.985,14.974,19.8C230.454,182.184,274.147,176.393,294.049,142.278Z" transform="translate(559.868 395.931)" fill="#d6313b"/>
    <g id="Group_1302" data-name="Group 1302" transform="translate(627.481 651.712)" clip-path="url(#clip-path)">
      <rect id="Rectangle_1180" data-name="Rectangle 1180" width="237.33" height="156.699" rx="14.22" fill="#ffd71d"/>
      <path id="Path_2593" data-name="Path 2593" d="M351.69,234.414A20.794,20.794,0,0,0,330.9,213.62H135.154a20.794,20.794,0,0,0-20.794,20.794l107.683,87.255a17.357,17.357,0,0,0,21.832,0Z" transform="translate(-114.36 -213.62)" fill="#ffd71d"/>
      <path id="Path_2594" data-name="Path 2594" d="M128.208,354.165V239.039A20.808,20.808,0,0,1,149,218.231H343.823A20.692,20.692,0,0,0,330.9,213.61H135.154A20.794,20.794,0,0,0,114.36,234.4V349.515a20.794,20.794,0,0,0,20.794,20.809h.921a20.706,20.706,0,0,1-7.867-16.158Z" transform="translate(-114.36 -213.625)" opacity="0.7" fill="url(#radial-gradient)"/>
      <path id="Path_2595" data-name="Path 2595" d="M219.908,306.5,114.36,213.62H351.69L246.142,306.5a19.858,19.858,0,0,1-26.233,0Z" transform="translate(-114.36 -213.62)" fill="url(#linear-gradient)"/>
      <path id="Path_2596" data-name="Path 2596" d="M219.908,306.5,114.36,213.62H351.69L246.142,306.5a19.858,19.858,0,0,1-26.233,0Z" transform="translate(-114.36 -213.62)" fill="#fd0" opacity="0.7"/>
    </g>
    <path id="Path_2597" data-name="Path 2597" d="M328.942,175.608s6.756-19.492,7.224-21.642c2.793-12.663,3.553-40.125,3.378-45.974s-.716-10.967-.834-11.7-3.729-4.694-3.743-4.635a7.546,7.546,0,0,1-1.126.117v.731l-1.608-1.418h-1.316l-.132.614-1.857-.892h-1.8s1.155,3.7,1.813,5.952,0,2.442,0,2.442a4.84,4.84,0,0,1-2,.38,14.111,14.111,0,0,0-2.544-.117s5.44,7.092,5.7,7.75a12.9,12.9,0,0,1,2.193,10.236,263.207,263.207,0,0,1-7.779,28.383c.175-.395-7.311,21.042-7.311,21.042Z" transform="translate(606.892 381.318)" fill="#fec4ad"/>
    <path id="Path_2598" data-name="Path 2598" d="M328.027,179.93c2.091-16.407,10.5-35.563,10.5-35.563s-12.839-2.544-16.085-7.107c0,0-4.387,10.806-6.975,16.173-2.808,5.937-6.756,12.415-1.8,15.939S327.31,185.647,328.027,179.93Z" transform="translate(604.167 402.791)" fill="#42b2fc"/>
    <path id="Path_2599" data-name="Path 2599" d="M289.12,313.69v10.543h20.3s-.76-3.817-10.382-5.571l-1.462-4.972Z" transform="translate(593.911 484.353)" fill="#133a50"/>
    <path id="Path_2600" data-name="Path 2600" d="M310.2,313.69v10.543h20.267s-.76-3.817-10.368-5.571l-1.462-4.972Z" transform="translate(603.656 484.353)" fill="#133a50"/>
    <path id="Path_2601" data-name="Path 2601" d="M292.929,206.33S290.092,235.8,290,263.505s-1.755,102.229-1.755,102.229h11.187s11.537-71.755,15.734-89.565,15.12-69.517,15.12-69.517Z" transform="translate(593.509 434.722)" fill="#133a50"/>
    <path id="Path_2602" data-name="Path 2602" d="M306.3,139.48s-.731,5.644-1.316,8.511a23.224,23.224,0,0,1-1.535,5.264c-.965,1.945-6.917,7.852-6.917,7.852s18.556,9.8,24,9.8,3.553-10.938,3.553-10.938-5.952-4.694-6.844-7.077a53.928,53.928,0,0,1-1.375-9.242Z" transform="translate(597.336 403.818)" fill="#fec4ad"/>
    <path id="Path_2603" data-name="Path 2603" d="M308.08,238.44s2.106,46.706,2.515,55.011,0,72.383,0,72.383,10.485.278,10.485,0,9.885-72.72,11.172-93.206.57-44.717,2.223-47.641-4.577-18.4-4.577-18.4l-14.828-.541Z" transform="translate(602.676 434.592)" fill="#133a50"/>
    <path id="Path_2604" data-name="Path 2604" d="M305.164,151.5s-15.647-6.273-18.249-1.126c-1.945,3.9-.263,28.968.6,35.958.76,6.1,4.972,57.336,4.972,57.336s5.849,9.066,34.027,5.454c10.865-1.389,16.2-6.683,16.2-6.683s-3.042-61.138-3.89-67.265a132.065,132.065,0,0,0-3.729-15.705l-8.394-5.513s2.676,5.849-4.884,7.575C306.568,164.906,305.164,151.5,305.164,151.5Z" transform="translate(592.475 407.915)" fill="#42b2fc"/>
    <path id="Path_2605" data-name="Path 2605" d="M319.84,124.9c1.769.717,4.869,2.325,5.22,3.8a57.954,57.954,0,0,1,1.769,8.379c.161,2.6.541,7.531.526,10.6s-1.843,9.271-2.544,9.929a15.266,15.266,0,0,1-7.6,1.228c-1.74-.5-11.962-5.849-12.6-12.269,0,0-1.813.95-5.133-4.387-.877-1.462,2.12-11.874,2.53-13.746.98-4.518,12.152-.95,14.623-1.667a5.469,5.469,0,0,0,3.217-1.872Z" transform="translate(598.622 397.077)" fill="#fec4ad"/>
    <path id="Path_2606" data-name="Path 2606" d="M326.752,130.324s-7.838,4.9-10.894,5.162-7.531,4.387-7.458,5.747a2.808,2.808,0,0,1-1.287,2.193s-1.9-3.027-3.451-2.705c-3.085.614-1.272,4.387.395,5.264a26.026,26.026,0,0,0,3.3,1.345,16.329,16.329,0,0,1,.146,3.276,15.021,15.021,0,0,1-1.3,3.817s-3.612-7.6-6.858-10.455c-7.706-6.741-2.135-19.288,5.469-21.657,3.056-.951,11.479-1.579,15.573.263a11.172,11.172,0,0,1,6.361,7.75Z" transform="translate(596.931 395.455)" fill="#133a50"/>
    <path id="Path_2607" data-name="Path 2607" d="M307.443,136.371c.117.307.921.366,1.067.439s.175.19,1.594,2.34c1.038,1.594,2.778,2.106,6.039,1.024,2.486-.834,2.135-2.925,2.31-3.992s.395-1.184.79-1.258.614,0,1.126.921.746,3.217,3.349,2.822c1.8-.263,2.267-.76,2.5-2.179a14.444,14.444,0,0,0,.2-3.436c0-.936-.088-1.462-.556-1.55a7.735,7.735,0,0,0-2.135.234,8.407,8.407,0,0,0-3.509.907c-.848.614-.746.98-1.185,1.067s-.541-.307-1.535-.585a30.386,30.386,0,0,0-6.683.7c-1.55.278-3.67.863-3.626,1.462A4.048,4.048,0,0,0,307.443,136.371Zm13.395-2.3c.088-.76.146-.687,2.062-1.126s2.106-.351,2.5,0a4.08,4.08,0,0,1,.468,3.1,2.106,2.106,0,0,1-1.842,2.208c-1.7.307-2.091-.541-2.559-1.711a7.092,7.092,0,0,1-.629-2.471Zm-11.172,1.243c.263-.424,2.925-.775,4.811-1.009s2.6-.322,2.925.366a7.207,7.207,0,0,1,.234,2.5c0,1.258-.292,2.369-3.334,2.925a3.276,3.276,0,0,1-4.065-1.813,3.612,3.612,0,0,1-.57-2.968Zm-6.507,1.93,4.284-.877,1.462-2.106s-1.638.234-4.387.834a8.628,8.628,0,0,0-2.588,1.214,4.285,4.285,0,0,1,1.228.936Z" transform="translate(599.833 400.128)" fill="#21295b"/>
    <path id="Path_2608" data-name="Path 2608" d="M280.865,172.569s-3.7-23.47-3.743-25.663c-.2-12.97,6.376-30.4,7.706-36.089s2.237-4.782,2.5-5.527,9.7-2.193,9.7-2.193a25.359,25.359,0,0,1,3.115-1.111,22.021,22.021,0,0,0,3.085-.8l-1.418,2.661s-5.849,4.387-6.259,5.06a12.839,12.839,0,0,0-4.2,9.622c-.234,11.6-.2,24.172-.2,24.172-.088-.424,5.557,24.04,5.557,24.04Z" transform="translate(588.362 386.112)" fill="#fec4ad"/>
    <path id="Path_2609" data-name="Path 2609" d="M291.161,189.885C287.183,178.582,278,148.2,278,148.2s13.555-3.407,17.387-7.545c0,0,4.562,13.57,6.463,19.2,2.106,6.244,5.279,13.161,0,16.085S293.135,195.267,291.161,189.885Z" transform="translate(588.77 404.359)" fill="#42b2fc"/>
    <path id="Path_2610" data-name="Path 2610" d="M479.266,188.977c3.524,3.276,6.01,2.179,11.3,20.267,3.378,11.552,15.69,69.854,15.69,69.854l-7.311,3.188C488.99,254.5,489,254.5,477.38,231.837a100.242,100.242,0,0,1-7.984-21.773l-21.5-1.287c-13.424-5.527-8.774-25.137-8.774-25.137S475.742,185.7,479.266,188.977Z" transform="translate(662.897 424.233)" fill="url(#linear-gradient-2)"/>
    <path id="Path_2611" data-name="Path 2611" d="M412.073,179.342,431.463,167l18.747,14.623,23.4,7.545-.132.073c9.4,3.261,20.136,8.013,23.4,11.07,3.524,3.276,10.455,7.926,4.855,25.926-3.568,11.494-19.156,69.751-19.156,69.751l-7.9-1.462s2.808-33.75,5.615-59c1.375-12.239,1.828-15.661,1.828-15.661s-52.16,5.688-68.962-3.188C401.4,210.4,412.073,188.744,412.073,179.342Z" transform="translate(648.699 416.54)" fill="url(#linear-gradient-3)"/>
    <path id="Path_2612" data-name="Path 2612" d="M462.45,252.24s-.234,2.12-3.626,3.071a5.849,5.849,0,0,1-5.7-1.842l-.76,6.917,10.85,7.648h9.008l-4.869-5.41Z" transform="translate(669.375 455.946)" fill="#133a50"/>
    <path id="Path_2613" data-name="Path 2613" d="M486.321,245.67a3.729,3.729,0,0,1-1.345,4.913,5.747,5.747,0,0,1-6,0l1.389,6.829,25.619-8.013Z" transform="translate(681.681 452.908)" fill="#133a50"/>
    <path id="Path_2614" data-name="Path 2614" d="M467.241,137.618a54.786,54.786,0,0,1-4.27-5.089l-.98-4.46s-1.726-2.31-3.056-3.7-2.515-7.311-2.515-7.311l1.726-1.038a21.727,21.727,0,0,0,1.375,3.261,3.144,3.144,0,0,0,1.682.687,32.18,32.18,0,0,0,0-4.153,35.983,35.983,0,0,0-1.579-7.019l1.462-.7a31.366,31.366,0,0,1,1.389,3.217c.307,1.009.833,3.1.833,3.1a34.335,34.335,0,0,0-.439-4.738c-.336-1.375-.585-3.159-.585-3.159l1.462-.395a30.186,30.186,0,0,1,1.009,3.831c.249,1.579.775,4.226.775,4.226a43.085,43.085,0,0,0,0-4.826,15.162,15.162,0,0,1-.146-1.711h1.608a12.7,12.7,0,0,1,.57,3.641,16.77,16.77,0,0,0,.161,2.925,17.823,17.823,0,0,0,.439-3.948,3.494,3.494,0,0,1,0-1.331l1.243.2s.7,4.928.936,7.9-.146,6.741-.175,8.774-.073,3.743-.073,3.743Z" transform="translate(671.252 388.396)" fill="#fec4ad"/>
    <path id="Path_2615" data-name="Path 2615" d="M445.326,135.949a193.707,193.707,0,0,0,19.946,14.287s3.729-9.329,5.5-15.939c2.12-7.882,2.734-11.523,2.734-11.523l7.545-.614s-2.4,20.18-5.367,33.867c-2.925,13.307-6.507,10.938-9.695,10.236s-33.209-16.787-33.209-16.787L436,132.338S438.176,130.086,445.326,135.949Z" transform="translate(660.324 395.811)" fill="#fec4ad"/>
    <path id="Path_2616" data-name="Path 2616" d="M419.66,98.692c1.608-.921,9.359-1.565,14.213,1.462,9.286,5.718,4.84,21.379,4.255,24.991s2.749,10.1,2.691,14.418-1.082,5.849-4.3,10.046a7.953,7.953,0,0,0-1.2,3.319,30.709,30.709,0,0,1-4.314-12.722c-.76-7.414-2.34-5.688-6.054-13.833s-3.861-20.472-3.861-20.472Z" transform="translate(654.259 384.608)" fill="#471a16"/>
    <path id="Path_2617" data-name="Path 2617" d="M433.574,103.773l-7.735-5.308a11.26,11.26,0,0,0-10.426,4.986c-3.831,5.849-5.162,14.36-6.025,20.75s-3.1,18.381-2.924,23.148,5.937,5.4,5.937,5.4l19.4-8.379a57.6,57.6,0,0,1-.175-21.086A105.52,105.52,0,0,0,433.574,103.773Z" transform="translate(648.154 384.835)" fill="#471a16"/>
    <path id="Path_2618" data-name="Path 2618" d="M435.729,104.2c.409,2.413,2.281,9.5,2.471,14.053s-.366,12.049-3.378,14.111-8.671.424-12.81-1.3-5.133-4.606-5.952-7.311-.526-9.753.424-14.842a9.052,9.052,0,0,1,7.911-7.823C428.14,100.413,435.729,104.2,435.729,104.2Z" transform="translate(652.374 386.031)" fill="#fec4ad"/>
    <path id="Path_2619" data-name="Path 2619" d="M420.827,114.76s1.068,11.318-1.316,16.641c-1.638,3.67-8.291,5.22-8.291,5.22a37.492,37.492,0,0,0,6.419,19.99c6.683,9.812,27.535,13.453,27.535,13.453a90.83,90.83,0,0,0,6.229-17.387,20.282,20.282,0,0,0-3.67-16.275s-5.644-1.842-8.35-2.925c-6.58-2.471-5.849-12.927-5.849-12.927Z" transform="translate(650.357 392.39)" fill="#fec4ad"/>
    <path id="Path_2620" data-name="Path 2620" d="M436.955,134.8s-13.482-3.436-17.547-6.068l-13.365,7.984s-7.853,7.5,5.557,27.2c0,0,5.089,17.957-3.173,49.572,0,0,2.223,8.145,14.755,3.817,10.792-3.743,11.026-6.653,20.472-9.052,13.95-3.539,17.548-5.718,17.548-5.718-7.311-11.011-6.025-28.193-6.025-28.193s8.306-7.955,4.738-16.085c-5.133-11.7-6.858-28.325-6.858-28.325L445.9,128.12a54.844,54.844,0,0,1-5.718,6.1A3.085,3.085,0,0,1,436.955,134.8Z" transform="translate(646.907 398.566)" fill="#42b2fc"/>
    <path id="Path_2621" data-name="Path 2621" d="M432.329,127.6s-1.638,6.112-5.849,7.443c0,0,1.652,8.364,5.615,6.917,5.571-2.047,3.407-13.629,3.407-13.629Z" transform="translate(657.412 398.326)" fill="#fff"/>
    <path id="Path_2622" data-name="Path 2622" d="M413.36,128.436s2.647,12.78,9.71,13.819,9.446-6.727,9.446-6.727-14.974-4.387-16.436-8.979Z" transform="translate(651.346 397.84)" fill="#fff"/>
    <path id="Path_2623" data-name="Path 2623" d="M428.486,101.06c-1.3.088-2.266,6.244-2.4,9.695s-5.279,6.142-3.012,13.7,1.974,14.871,5.016,23.163-.746,11.318-2.4,14.184a110.074,110.074,0,0,1-8.774-10.719,8.613,8.613,0,0,0-9.329-4.182s9.958-19.331,9.622-24.537-1.258-13.161,2.925-17.928S428.486,101.06,428.486,101.06Z" transform="translate(648.678 385.97)" fill="#471a16"/>
    <path id="Path_2624" data-name="Path 2624" d="M420.227,112.378s-2.778-3.027-4.606-2.574-1.93,3.2-.541,5.454,6.536,3.51,6.536,3.51Z" transform="translate(651.703 390.078)" fill="#fec4ad"/>
    <path id="Path_2625" data-name="Path 2625" d="M424.17,111.111a35.726,35.726,0,0,0,7.853-.57c5.016-.541,7.136.746,7.136.746l-1.9-8.35s-5.849-3.246-10-3.217c-5.279,0-9.9,2.047-7.311,3.758S424.17,111.111,424.17,111.111Z" transform="translate(654.048 385.437)" fill="#471a16"/>
    <path id="Path_2626" data-name="Path 2626" d="M418.461,143.521c-.892,10.47-3.963,40.286-3.963,40.286,9.52,8.335,23,22.183,23,22.183s-3.846,7.575-5.484,6.288c-13.161-10.236-28.12-16.334-29.246-23.4-1.755-11.7-2.369-41.237,1.959-50.829C408.108,130.58,419.411,132.423,418.461,143.521Z" transform="translate(645.836 401.077)" fill="#fec4ad"/>
    <path id="Path_2627" data-name="Path 2627" d="M433.888,184.3c3.992,1.462,6.493,2.925,6.259,4.387-.161,1.024-3.568-.848-5.6-.775a11.363,11.363,0,0,0,4.84,4.752c2.632,1.287,4.109,3.1,2.705,4.621s-4.021,3.656-5.718,2.925-7.706-4.972-9.973-6.142-3.173-4.007-4.387-4.8,2.135-6.77,2.135-6.77c.629.161,3.919.863,3.919.863a20.127,20.127,0,0,0,3.261.278,7.749,7.749,0,0,1,2.559.658Z" transform="translate(655.224 423.706)" fill="#fec4ad"/>
  </g>
</svg>
