<svg xmlns="http://www.w3.org/2000/svg" width="26" height="26" viewBox="0 0 26 26">
    <g fill="none" fill-rule="evenodd">
        <g fill="#232220" fill-rule="nonzero">
            <g>
                <path d="M13.277 9.069c0-1.817-1.092-4.643-3.197-4.643-.662 0-1.37.327-1.778.832-.432.531-.557 1.21-.557 1.869 0 1.69.988 4.49 3.172 4.49.634 0 1.317-.301 1.725-.705.584-.583.635-1.389.635-1.843zM12.134 15.515c-.204-.026-.333-.026-.59-.026-.231 0-1.619.05-2.697.406-.565.2-2.209.807-2.209 2.598 0 1.793 1.773 3.081 4.521 3.081 2.467 0 3.777-1.163 3.777-2.726 0-1.291-.848-1.97-2.802-3.333z" transform="translate(-1166 -3221) translate(1166 3221)"/>
                <path d="M13 0C5.82 0 0 5.82 0 13s5.82 13 13 13 13-5.82 13-13S20.18 0 13 0zM9.971 22.594c-3.621 0-5.368-1.726-5.368-3.579 0-.9.449-2.176 1.922-3.052 1.548-.951 3.647-1.075 4.77-1.153-.35-.45-.748-.925-.748-1.7 0-.425.125-.676.248-.977-.275.026-.548.05-.798.05-2.646 0-4.145-1.978-4.145-3.93 0-1.15.524-2.426 1.598-3.352 1.424-1.176 3.37-1.496 4.72-1.496h4.92l-1.624 1.02h-1.547c.574.476 1.77 1.477 1.77 3.38 0 1.85-1.047 2.728-2.095 3.553-.325.325-.7.675-.7 1.227 0 .549.375.849.649 1.076l.9.699c1.099.925 2.098 1.776 2.097 3.505 0 2.353-2.274 4.73-6.569 4.73zm10.777-9.9v2.517h-1.236v-2.517h-2.498v-1.25h2.498V8.944h1.236v2.502h2.51v1.25h-2.51z" transform="translate(-1166 -3221) translate(1166 3221)"/>
            </g>
        </g>
    </g>
</svg>
