<svg xmlns="http://www.w3.org/2000/svg" xmlns:xlink="http://www.w3.org/1999/xlink" width="24" height="24" viewBox="0 0 24 24">
  <defs>
    <clipPath id="clip-path">
      <rect id="Rectangle_1937" data-name="Rectangle 1937" width="24" height="24" transform="translate(1192 20)" fill="#fff" stroke="#fff" stroke-width="1"/>
    </clipPath>
  </defs>
  <g id="Mask_Group_5" data-name="Mask Group 5" transform="translate(-1192 -20)" clip-path="url(#clip-path)">
    <path id="heart" d="M11.541,20.535a1.353,1.353,0,0,1-.892-.335c-.932-.815-1.831-1.582-2.625-2.257l0,0A48.81,48.81,0,0,1,2.289,12.56,8.591,8.591,0,0,1,0,6.937,7.214,7.214,0,0,1,1.831,2.01,6.207,6.207,0,0,1,6.448,0a5.806,5.806,0,0,1,3.627,1.252,7.42,7.42,0,0,1,1.466,1.531,7.42,7.42,0,0,1,1.466-1.531A5.806,5.806,0,0,1,16.634,0a6.207,6.207,0,0,1,4.617,2.01,7.214,7.214,0,0,1,1.831,4.927,8.59,8.59,0,0,1-2.289,5.623,48.805,48.805,0,0,1-5.73,5.379c-.795.677-1.695,1.444-2.629,2.262a1.354,1.354,0,0,1-.892.335ZM6.448,1.352A4.869,4.869,0,0,0,2.825,2.926,5.868,5.868,0,0,0,1.352,6.937,7.228,7.228,0,0,0,3.33,11.7,48.033,48.033,0,0,0,8.9,16.91l0,0c.8.679,1.7,1.448,2.638,2.269.945-.823,1.849-1.593,2.647-2.273A48.045,48.045,0,0,0,19.751,11.7,7.229,7.229,0,0,0,21.73,6.937a5.868,5.868,0,0,0-1.473-4.011,4.869,4.869,0,0,0-3.623-1.574,4.484,4.484,0,0,0-2.8.969,6.561,6.561,0,0,0-1.56,1.805.853.853,0,0,1-1.466,0,6.555,6.555,0,0,0-1.56-1.805,4.484,4.484,0,0,0-2.8-.969Zm0,0" transform="translate(1192.42 21.732)" fill="#fff" stroke="#fff" stroke-width="0.5"/>
  </g>
</svg>
