<svg xmlns="http://www.w3.org/2000/svg" width="18.662" height="15.999" viewBox="0 0 18.662 15.999">
  <g id="heart" transform="translate(0 -0.002)">
    <path id="Shape" d="M8.973,15.868l-.024-.02c-.8-.675-1.543-1.293-2.265-1.89a42.025,42.025,0,0,1-4.776-4.33A6.619,6.619,0,0,1,0,5.218,5.393,5.393,0,0,1,1.362,1.572,4.788,4.788,0,0,1,8.869,2.1a6.978,6.978,0,0,1,.465.731A6.978,6.978,0,0,1,9.8,2.1a4.788,4.788,0,0,1,7.5-.528,5.393,5.393,0,0,1,1.361,3.646,6.619,6.619,0,0,1-1.908,4.411,41.949,41.949,0,0,1-4.776,4.33c-.723.6-1.47,1.215-2.265,1.89l-.024.02a.558.558,0,0,1-.72,0Z" fill="#fff"/>
  </g>
</svg>
