<svg xmlns="http://www.w3.org/2000/svg" width="17" height="14" viewBox="0 0 17 14">
  <g id="heart" transform="translate(0.5 0.5)">
    <path id="Shape" d="M7.691,12.893l-.02-.017c-.682-.548-1.322-1.05-1.941-1.535A35.3,35.3,0,0,1,1.636,7.823,5.241,5.241,0,0,1,0,4.239,4.253,4.253,0,0,1,1.167,1.277,4.217,4.217,0,0,1,4.25,0,4.145,4.145,0,0,1,7.6,1.7,5.691,5.691,0,0,1,8,2.3,5.574,5.574,0,0,1,8.4,1.7,4.145,4.145,0,0,1,11.75,0,4.173,4.173,0,0,1,16,4.239a5.243,5.243,0,0,1-1.635,3.584,35.358,35.358,0,0,1-4.094,3.518c-.619.486-1.26.987-1.941,1.535l-.021.017a.5.5,0,0,1-.618,0Z" transform="translate(0)" fill="none" stroke="#c2c2c2" stroke-miterlimit="10" stroke-width="1"/>
  </g>
</svg>
