<svg xmlns="http://www.w3.org/2000/svg" width="12" height="11.143" viewBox="0 0 12 11.143">
    <path data-name="Icon ionic-ios-star" d="M13.795 7.232H9.854l-1.2-3.573a.434.434 0 0 0-.814 0l-1.2 3.573H2.679a.43.43 0 0 0-.429.429.315.315 0 0 0 .008.072.412.412 0 0 0 .179.3l3.238 2.282-1.242 3.616a.43.43 0 0 0 .147.482.414.414 0 0 0 .241.1.525.525 0 0 0 .268-.1l3.161-2.244 3.161 2.253a.5.5 0 0 0 .268.1.385.385 0 0 0 .238-.1.425.425 0 0 0 .147-.482l-1.243-3.613 3.212-2.3.078-.067a.41.41 0 0 0-.316-.715z" transform="translate(-2.25 -3.375)" style="fill:#fff"/>
</svg>
