<svg xmlns="http://www.w3.org/2000/svg" width="26" height="26" viewBox="0 0 26 26">
    <g fill="none" fill-rule="evenodd">
        <g fill="#232220" fill-rule="nonzero">
            <g>
                <path d="M12.967 0C5.805 0 0 5.805 0 12.967c0 7.161 5.805 12.967 12.967 12.967 7.161 0 12.967-5.806 12.967-12.967C25.934 5.805 20.128 0 12.967 0zm7.841 9.509c.006.153.01.306.01.46 0 5.54-4.216 11.269-11.27 11.269-2.155 0-4.255-.615-6.07-1.78-.038-.024-.054-.071-.039-.113.016-.042.058-.068.102-.063.305.036.616.054.925.054 1.678 0 3.266-.518 4.61-1.502-1.611-.136-2.995-1.226-3.493-2.78-.01-.033-.003-.068.02-.093.022-.026.057-.037.09-.03.446.084.9.09 1.337.018-1.66-.516-2.828-2.071-2.828-3.842v-.052c.002-.033.02-.064.049-.08.029-.018.065-.018.094-.002.433.24.912.395 1.404.454-.954-.76-1.515-1.913-1.515-3.147 0-.711.189-1.41.545-2.022.016-.028.044-.045.076-.047.031-.004.062.01.082.035 1.953 2.395 4.826 3.87 7.898 4.06-.051-.258-.077-.524-.077-.792 0-2.218 1.804-4.022 4.022-4.022 1.09 0 2.145.448 2.9 1.23.851-.173 1.662-.486 2.412-.93.034-.02.077-.017.108.008s.044.066.032.104c-.254.794-.75 1.487-1.414 1.987.626-.109 1.234-.293 1.812-.55.039-.017.084-.006.112.026.028.033.03.08.006.116-.526.788-1.179 1.47-1.94 2.026z" transform="translate(-1199 -3221) translate(1199 3221)"/>
            </g>
        </g>
    </g>
</svg>
