<svg xmlns="http://www.w3.org/2000/svg" width="19.984" height="22.6" viewBox="0 0 19.984 22.6">
  <g id="user" transform="translate(-30.5 0.5)">
    <g id="Group_2" data-name="Group 2" transform="translate(34.797)">
      <g id="Group_1" data-name="Group 1">
        <path id="Path_1" data-name="Path 1" d="M126.7,0a5.7,5.7,0,1,0,5.7,5.7A5.7,5.7,0,0,0,126.7,0Z" transform="translate(-121)" fill="#fefefe" stroke="#b1a58a" stroke-width="1"/>
      </g>
    </g>
    <g id="Group_4" data-name="Group 4" transform="translate(31 12.656)">
      <g id="Group_3" data-name="Group 3">
        <path id="Path_2" data-name="Path 2" d="M47.578,302.455A8.119,8.119,0,0,0,41.758,300H39.227a8.119,8.119,0,0,0-5.82,2.455A8.3,8.3,0,0,0,31,308.311a.633.633,0,0,0,.633.633H49.352a.633.633,0,0,0,.633-.633A8.3,8.3,0,0,0,47.578,302.455Z" transform="translate(-31 -300)" fill="#fefefe" stroke="#b1a58a" stroke-width="1"/>
      </g>
    </g>
  </g>
</svg>
