<svg data-name="003-whatsapp" xmlns="http://www.w3.org/2000/svg" width="20" height="20" viewBox="0 0 20 20">
    <path data-name="Path 5144" d="M10 0a10 10 0 1 0 10 10A10 10 0 0 0 10 0zm.212 15.822a5.983 5.983 0 0 1-2.86-.728l-3.173.832.849-3.1a5.985 5.985 0 1 1 5.186 3zm0 0" style="fill:#7ad06d"/>
    <path data-name="Path 5145" d="M139.075 124.469a4.981 4.981 0 0 0-5 4.945 4.893 4.893 0 0 0 .765 2.632l.119.187-.505 1.825 1.893-.491.183.107a5.037 5.037 0 0 0 2.546.689 4.981 4.981 0 0 0 5-4.945 4.887 4.887 0 0 0-1.464-3.5 5 5 0 0 0-3.536-1.45zm2.942 7.071a1.549 1.549 0 0 1-1.015.707 2.087 2.087 0 0 1-.947-.059 8.742 8.742 0 0 1-.857-.313 6.674 6.674 0 0 1-2.569-2.245 2.875 2.875 0 0 1-.614-1.538 1.659 1.659 0 0 1 .526-1.24.556.556 0 0 1 .4-.186c.1 0 .2 0 .288.005s.216-.035.338.255.426 1.029.464 1.1a.271.271 0 0 1 .013.261 4.238 4.238 0 0 1-.376.508c-.067.082-.154.155-.066.3a4.491 4.491 0 0 0 .837 1.03 4.12 4.12 0 0 0 1.209.738c.15.074.238.062.326-.037s.376-.434.476-.583.2-.124.338-.074.877.409 1.028.484.251.112.288.174a1.227 1.227 0 0 1-.086.713zm0 0" transform="translate(-128.863 -119.58)" style="fill:#7ad06d"/>
</svg>
