<?xml version="1.0" encoding="UTF-8"?>
<svg width="21px" height="21px" viewBox="0 0 21 21" version="1.1" xmlns="http://www.w3.org/2000/svg" xmlns:xlink="http://www.w3.org/1999/xlink">
    <title>community</title>
    <defs>
        <filter color-interpolation-filters="auto" id="filter-1">
            <feColorMatrix in="SourceGraphic" type="matrix" values="0 0 0 0 1.000000 0 0 0 0 1.000000 0 0 0 0 1.000000 0 0 0 1.000000 0"></feColorMatrix>
        </filter>
    </defs>
    <g id="Sales" stroke="none" stroke-width="1" fill="none" fill-rule="evenodd">
        <g id="community" transform="translate(-1600.000000, -25.000000)" filter="url(#filter-1)">
            <g transform="translate(1600.000000, 25.000000)">
                <circle id="Oval" fill="#000000" fill-rule="nonzero" cx="3.89648438" cy="2.05078125" r="2.05078125"></circle>
                <path d="M6.16284375,4.42017187 C5.57328516,4.9843418 4.77495703,5.33203125 3.89648438,5.33203125 C3.01801172,5.33203125 2.21968359,4.9843418 1.630125,4.42017187 C0.643822266,5.12785547 0,6.28404492 0,7.58789062 L0,8.81835938 C0,9.15813281 0.275460938,9.43359375 0.615234375,9.43359375 L1.12715039,9.43359375 C1.08711914,9.78776367 1.06640625,10.1443125 1.06640625,10.5 C1.06640625,10.9415332 1.09725,11.3798672 1.15770703,11.8129922 C1.44781055,11.374084 1.84033008,11.0088809 2.30109961,10.7513027 C2.29859766,10.6676719 2.296875,10.583918 2.296875,10.5 C2.296875,10.1441074 2.32066406,9.78714844 2.36668359,9.43359375 L7.17773438,9.43359375 C7.51750781,9.43359375 7.79296875,9.15813281 7.79296875,8.81835938 L7.79296875,7.58789062 C7.79296875,6.28404492 7.14914648,5.12785547 6.16284375,4.42017187 Z" id="Path" fill="#000000" fill-rule="nonzero"></path>
                <circle id="Oval" fill="#000000" fill-rule="nonzero" cx="17.1035156" cy="2.05078125" r="2.05078125"></circle>
                <path d="M19.369875,4.42017187 C18.7803164,4.9843418 17.9819883,5.33203125 17.1035156,5.33203125 C16.225043,5.33203125 15.4267148,4.9843418 14.8371563,4.42017187 C13.8508535,5.12785547 13.2070312,6.28404492 13.2070312,7.58789062 L13.2070312,8.81835938 C13.2070312,9.15813281 13.4824922,9.43359375 13.8222656,9.43359375 L18.6333164,9.43359375 C18.6793359,9.78714844 18.703125,10.1441074 18.703125,10.5 C18.703125,10.583918 18.7014023,10.6676719 18.6989004,10.7513438 C19.1597109,11.0088809 19.5522305,11.374125 19.842334,11.8130332 C19.90275,11.3798672 19.9335938,10.9415332 19.9335938,10.5 C19.9335938,10.1443125 19.9128809,9.78776367 19.8728496,9.43359375 L20.3847656,9.43359375 C20.7245391,9.43359375 21,9.15813281 21,8.81835938 L21,7.58789062 C21,6.28404492 20.3561777,5.12785547 19.369875,4.42017187 Z" id="Path" fill="#000000" fill-rule="nonzero"></path>
                <circle id="Oval" fill="#000000" fill-rule="nonzero" cx="17.1035156" cy="13.6171875" r="2.05078125"></circle>
                <path d="M19.369875,15.9865781 C18.7803164,16.550748 17.9819883,16.8984375 17.1035156,16.8984375 C16.225043,16.8984375 15.4267148,16.550748 14.8371563,15.9865781 C13.8508535,16.6942617 13.2070312,17.8504512 13.2070312,19.1542969 L13.2070312,20.3847656 C13.2070312,20.7245391 13.4824922,21 13.8222656,21 L20.3847656,21 C20.7245391,21 21,20.7245391 21,20.3847656 L21,19.1542969 C21,17.8504512 20.3561777,16.6942617 19.369875,15.9865781 L19.369875,15.9865781 Z" id="Path" fill="#000000" fill-rule="nonzero"></path>
                <circle id="Oval" fill="#000000" fill-rule="nonzero" cx="3.89648438" cy="13.6171875" r="2.05078125"></circle>
                <path d="M6.16284375,15.9865781 C5.57328516,16.550748 4.77495703,16.8984375 3.89648438,16.8984375 C3.01801172,16.8984375 2.21968359,16.550748 1.630125,15.9865781 C0.643822266,16.6942617 0,17.8504512 0,19.1542969 L0,20.3847656 C0,20.7245391 0.275460938,21 0.615234375,21 L7.17773438,21 C7.51750781,21 7.79296875,20.7245391 7.79296875,20.3847656 L7.79296875,19.1542969 C7.79296875,17.8504512 7.14914648,16.6942617 6.16284375,15.9865781 L6.16284375,15.9865781 Z" id="Path" fill="#000000" fill-rule="nonzero"></path>
                <path d="M10.5,2.296875 C11.7163184,2.296875 12.901875,2.56265625 13.986,3.07260352 C13.8802617,2.75075391 13.8222656,2.40753516 13.8222656,2.05078125 C13.8222656,1.92433008 13.8301816,1.79972461 13.844168,1.67692383 C12.78375,1.27476562 11.6538926,1.06640625 10.5,1.06640625 C9.34610742,1.06640625 8.21625,1.27476562 7.15583203,1.67692383 C7.16981836,1.79972461 7.17773437,1.92433008 7.17773437,2.05078125 C7.17773437,2.40753516 7.11973828,2.75075391 7.014,3.07260352 C8.098125,2.56265625 9.28368164,2.296875 10.5,2.296875 Z" id="Path" fill="#000000" fill-rule="nonzero"></path>
                <path d="M8.98869727,18.5638359 C9.01154297,18.7587832 9.0234375,18.9558633 9.0234375,19.1542969 L9.0234375,19.8182168 C9.50877539,19.8945469 10.0016191,19.9335938 10.5,19.9335938 C10.9983809,19.9335938 11.4912246,19.8945469 11.9765625,19.8182168 L11.9765625,19.1542969 C11.9765625,18.9558633 11.988457,18.7587832 12.0113027,18.5638359 C11.5162441,18.6561211 11.0115469,18.703125 10.5,18.703125 C9.98845312,18.703125 9.48375586,18.6561211 8.98869727,18.5638359 L8.98869727,18.5638359 Z" id="Path" fill="#000000" fill-rule="nonzero"></path>
            </g>
        </g>
    </g>
</svg>