<?xml version="1.0" encoding="UTF-8"?>
<svg width="23px" height="21px" viewBox="0 0 23 21" version="1.1" xmlns="http://www.w3.org/2000/svg" xmlns:xlink="http://www.w3.org/1999/xlink">
    <title>MainServices</title>
    <defs>
        <filter color-interpolation-filters="auto" id="filter-1">
            <feColorMatrix in="SourceGraphic" type="matrix" values="0 0 0 0 1.000000 0 0 0 0 1.000000 0 0 0 0 1.000000 0 0 0 1.000000 0"></feColorMatrix>
        </filter>
    </defs>
    <g id="Main" stroke="none" stroke-width="1" fill="none" fill-rule="evenodd">
        <g id="MainServices" transform="translate(-1263.000000, -33.000000)" filter="url(#filter-1)">
            <g transform="translate(1263.000000, 33.000000)">
                <polygon id="Path" fill="#000000" fill-rule="nonzero" points="14.1589889 1.35483871 13.7097702 2.70967742 9.29022981 2.70967742 8.84101106 1.35483871"></polygon>
                <polygon id="Path" fill="#000000" fill-rule="nonzero" points="23 14.9032258 23 21 0 21 0 14.9032258 6.97148894 14.9032258 8.31914519 18.9677419 14.6808548 18.9677419 16.0285111 14.9032258"></polygon>
                <polygon id="Path" fill="#000000" fill-rule="nonzero" points="23 7.4516129 23 13.5483871 15.0574264 13.5483871 14.6082077 14.9032258 8.39179231 14.9032258 7.94257356 13.5483871 0 13.5483871 0 7.4516129 6.97148894 7.4516129 8.31914519 11.516129 14.6808548 11.516129 16.0285111 7.4516129"></polygon>
                <polygon id="Path" fill="#000000" fill-rule="nonzero" points="23 -1.77635684e-15 23 6.09677419 15.0574264 6.09677419 14.6082077 7.4516129 8.39179231 7.4516129 7.94257356 6.09677419 0 6.09677419 0 -1.77635684e-15 6.97148894 -1.77635684e-15 8.31914519 4.06451613 14.6808548 4.06451613 16.0285111 -1.77635684e-15"></polygon>
                <polygon id="Path" fill="#000000" fill-rule="nonzero" points="14.1589889 8.80645161 13.7097702 10.1612903 9.29022981 10.1612903 8.84101106 8.80645161"></polygon>
                <polygon id="Path" fill="#000000" fill-rule="nonzero" points="8.84101106 8.80645161 9.29022981 10.1612903 13.7097702 10.1612903 14.1589889 8.80645161"></polygon>
                <polygon id="Path" fill="#000000" fill-rule="nonzero" points="14.1589889 16.2580645 13.7097702 17.6129032 9.29022981 17.6129032 8.84101106 16.2580645"></polygon>
                <polygon id="Path" fill="#000000" fill-rule="nonzero" points="8.84101106 16.2580645 9.29022981 17.6129032 13.7097702 17.6129032 14.1589889 16.2580645"></polygon>
            </g>
        </g>
    </g>
</svg>