<?xml version="1.0" encoding="UTF-8"?>
<svg width="20px" height="21px" viewBox="0 0 20 21" version="1.1" xmlns="http://www.w3.org/2000/svg" xmlns:xlink="http://www.w3.org/1999/xlink">
    <title>MainSales</title>
    <defs>
        <filter color-interpolation-filters="auto" id="filter-1">
            <feColorMatrix in="SourceGraphic" type="matrix" values="0 0 0 0 1.000000 0 0 0 0 1.000000 0 0 0 0 1.000000 0 0 0 1.000000 0"></feColorMatrix>
        </filter>
    </defs>
    <g id="Main" stroke="none" stroke-width="1" fill="none" fill-rule="evenodd">
        <g id="MainSales" transform="translate(-339.000000, -33.000000)" filter="url(#filter-1)">
            <g transform="translate(339.000000, 33.000000)">
                <path d="M8.22958167,11.2386914 L14.688745,11.2386914 L14.688745,6.66052734 C14.688745,6.51902344 14.5725432,6.40458984 14.4297809,6.40458984 L11.1624336,6.40458984 L11.1624336,8.36923828 C11.1624336,8.70884766 10.8835491,8.98447266 10.5399236,8.98447266 C10.1962981,8.98447266 9.91741368,8.70884766 9.91741368,8.36923828 L9.91741368,6.40458984 L4.77133134,6.40458984 L4.77133134,8.36923828 C4.77133134,8.70884766 4.49286189,8.98447266 4.14882138,8.98447266 C3.80519588,8.98447266 3.52631142,8.70884766 3.52631142,8.36923828 L3.52631142,6.40458984 L0.25937915,6.40458984 C0.116201859,6.40458984 0,6.51902344 0,6.66052734 L0,20.7440625 C0,20.8851563 0.116201859,21 0.25937915,21 L6.74883798,21 C6.73348274,20.9155078 6.72559761,20.8289648 6.72559761,20.7403711 L6.72559761,12.7250977 C6.72559761,11.9056055 7.40039841,11.2386914 8.22958167,11.2386914 Z" id="Path" fill="#000000" fill-rule="nonzero"></path>
                <path d="M4.77133134,6.40458984 C4.77133134,5.88344531 4.77133134,2.47147852 4.77133134,1.92199219 C4.77133134,1.54054688 5.08549137,1.23046875 5.47103254,1.23046875 L9.21771248,1.23046875 C9.60366866,1.23046875 9.91741368,1.54054688 9.91741368,1.92199219 L9.91741368,6.40458984 L11.1624336,6.40458984 C11.1624336,5.88344531 11.1624336,2.47147852 11.1624336,1.92199219 C11.1624336,0.862148438 10.2900896,0 9.21771248,0 L5.47103254,0 C4.39865538,0 3.52631142,0.862148438 3.52631142,1.92199219 L3.52631142,6.40458984 L4.77133134,6.40458984 Z" id="Path" fill="#000000" fill-rule="nonzero"></path>
                <path d="M19.7406208,12.4691602 L8.22958167,12.4691602 C8.08681939,12.4691602 7.97061753,12.5840039 7.97061753,12.7250977 L7.97061753,20.7403711 C7.97061753,20.8814648 8.08681939,20.9963086 8.22958167,20.9963086 L19.7406208,20.9963086 C19.8837981,20.9963086 20,20.8814648 20,20.7403711 L20,12.7250977 C20,12.5840039 19.8837981,12.4691602 19.7406208,12.4691602 Z M17.561006,16.624043 C17.561006,17.5768359 16.8554947,18.3700781 15.9337649,18.5201953 C15.8304283,18.5374219 15.7241866,18.5460352 15.6158699,18.5460352 L12.3543327,18.5460352 C11.2819555,18.5460352 10.4096116,17.6838867 10.4096116,16.624043 L10.4096116,14.6852344 C10.4096116,14.345625 10.688496,14.07 11.0321215,14.07 C11.375747,14.07 11.6546315,14.345625 11.6546315,14.6852344 L11.6546315,16.624043 C11.6546315,17.0050781 11.9683765,17.3155664 12.3543327,17.3155664 L15.6158699,17.3155664 C15.7304117,17.3155664 15.8383134,17.2884961 15.9337649,17.2396875 C16.1603586,17.1252539 16.3159861,16.8922852 16.3159861,16.624043 L16.3159861,14.6852344 C16.3159861,14.345625 16.5944555,14.07 16.938496,14.07 C17.2821215,14.07 17.561006,14.345625 17.561006,14.6852344 L17.561006,16.624043 Z" id="Shape" fill="#000000" fill-rule="nonzero"></path>
            </g>
        </g>
    </g>
</svg>