<?xml version="1.0" encoding="UTF-8"?>
<svg width="22px" height="21px" viewBox="0 0 22 21" version="1.1" xmlns="http://www.w3.org/2000/svg" xmlns:xlink="http://www.w3.org/1999/xlink">
    <title>MainCatelog</title>
    <defs>
        <filter color-interpolation-filters="auto" id="filter-1">
            <feColorMatrix in="SourceGraphic" type="matrix" values="0 0 0 0 1.000000 0 0 0 0 1.000000 0 0 0 0 1.000000 0 0 0 1.000000 0"></feColorMatrix>
        </filter>
    </defs>
    <g id="Main" stroke="none" stroke-width="1" fill="none" fill-rule="evenodd">
        <g id="MainCatelog" transform="translate(-516.000000, -33.000000)" filter="url(#filter-1)">
            <g transform="translate(516.000000, 33.000000)">
                <path d="M6.73267192,18.340606 C6.73267192,18.5744895 6.52689093,18.838096 6.27538675,18.9265796 L0.45733853,20.9707682 C0.205727645,21.0591991 0,20.9400967 0,20.7061604 L0,2.65944675 C0,2.4255632 0.205727645,2.16190403 0.45733853,2.07347308 L6.27538675,0.0292318105 C6.52689093,-0.0591464469 6.73267192,0.0599033345 6.73267192,0.29383958 L6.73267192,18.340606 Z" id="Path" fill="#000000" fill-rule="nonzero"></path>
                <path d="M14.3663093,20.7062131 C14.3663093,20.9400967 14.1605283,21.0591464 13.9089708,20.9708209 L8.09097589,18.9265796 C7.83941836,18.8381487 7.63369071,18.5744368 7.63369071,18.3407114 L7.63369071,0.29378688 C7.63369071,0.0599033345 7.83941836,-0.0591464469 8.09097589,0.0291791103 L13.9089708,2.07342038 C14.1605283,2.16185133 14.3663093,2.4255632 14.3663093,2.65939405 L14.3663093,20.7062131 Z" id="Path" fill="#000000" fill-rule="nonzero"></path>
                <path d="M22,18.340606 C22,18.5744895 21.7943791,18.838096 21.5427148,18.9265796 L15.7246133,20.9707682 C15.4730557,21.0591991 15.2673281,20.9400967 15.2673281,20.7061604 L15.2673281,2.65944675 C15.2673281,2.4255632 15.4730557,2.16190403 15.7246133,2.07347308 L21.5426615,0.0292318105 C21.7943257,-0.0591464469 22,0.0599033345 22,0.29383958 L22,18.340606 L22,18.340606 Z" id="Path" fill="#000000" fill-rule="nonzero"></path>
            </g>
        </g>
    </g>
</svg>