<?xml version="1.0" encoding="UTF-8"?>
<svg width="21px" height="21px" viewBox="0 0 21 21" version="1.1" xmlns="http://www.w3.org/2000/svg" xmlns:xlink="http://www.w3.org/1999/xlink">
    <title>MainCMS</title>
    <defs>
        <filter color-interpolation-filters="auto" id="filter-1">
            <feColorMatrix in="SourceGraphic" type="matrix" values="0 0 0 0 1.000000 0 0 0 0 1.000000 0 0 0 0 1.000000 0 0 0 1.000000 0"></feColorMatrix>
        </filter>
    </defs>
    <g id="Main" stroke="none" stroke-width="1" fill="none" fill-rule="evenodd">
        <g id="MainCMS" transform="translate(-1089.000000, -33.000000)" filter="url(#filter-1)">
            <g transform="translate(1089.000000, 33.000000)">
                <path d="M19.5517241,21 C20.3515848,21 21,20.3515848 21,19.5517241 L21,14.4827568 L15.0385345,14.4827568 C14.9175026,14.4827568 14.8044658,14.5431989 14.7372931,14.6438793 L13.5051724,16.4940517 C13.4379997,16.5947321 13.3249629,16.6551905 13.203931,16.6551724 L7.79715517,16.6551724 C7.6761233,16.6551905 7.56308649,16.5947321 7.49591379,16.4940517 L6.2637931,14.6438793 C6.19640722,14.542878 6.08288205,14.4823766 5.96146552,14.4827568 L0,14.4827568 L0,19.5517241 C0,20.3515848 0.64841519,21 1.44827586,21 L19.5517241,21 Z" id="Shape" fill="#000000" fill-rule="nonzero"></path>
                <path d="M0.724137931,10.5 C0.324702771,10.5011929 0.00119294483,10.8247028 0,11.2241379 L0,13.7586207 L0.724137931,13.7586207 L0.724137931,10.5 Z" id="Shape" fill="#000000" fill-rule="nonzero"></path>
                <path d="M20.2758621,13.7586207 L21,13.7586207 L21,11.2241379 C20.9988071,10.8247028 20.6752972,10.5011929 20.2758621,10.5 L20.2758621,13.7586207 Z" id="Shape" fill="#000000" fill-rule="nonzero"></path>
                <path d="M17.0172414,0 L3.98275862,0 C3.58282828,0 3.25862069,0.324207595 3.25862069,0.724137931 L3.25862069,1.44827586 C2.65946795,1.45006528 2.17420321,1.93533002 2.17241379,2.53448276 L2.17241379,3.62068966 C1.77619109,3.62950209 1.45708831,3.94860487 1.44827586,4.34482759 L1.44827586,13.7586207 L5.95965517,13.7586207 C6.32372207,13.7580278 6.66375776,13.9402869 6.86482759,14.2437931 L7.99086207,15.9310345 L13.0091379,15.9310345 L14.1351724,14.2437931 C14.3362422,13.9402869 14.6762779,13.7580278 15.0403448,13.7586207 L19.5517241,13.7586207 L19.5517241,4.34482759 C19.5429117,3.94860487 19.2238089,3.62950209 18.8275862,3.62068966 L18.8275862,2.53448276 C18.8257968,1.93533002 18.340532,1.45006528 17.7413793,1.44827586 L17.7413793,0.724137931 C17.7413793,0.324207595 17.4171717,0 17.0172414,0 Z M8.32758621,10.5 L3.62068966,10.5 C3.42072449,10.5 3.25862069,10.3378962 3.25862069,10.137931 C3.25862069,9.93796588 3.42072449,9.77586207 3.62068966,9.77586207 L8.32758621,9.77586207 C8.52755136,9.77586207 8.68965517,9.93796588 8.68965517,10.137931 C8.68965517,10.3378962 8.52755136,10.5 8.32758621,10.5 Z M12.3103448,8.68965517 L3.62068966,8.68965517 C3.42072449,8.68965517 3.25862069,8.52755136 3.25862069,8.32758621 C3.25862069,8.12762106 3.42072449,7.96551724 3.62068966,7.96551724 L12.3103448,7.96551724 C12.51031,7.96551724 12.6724138,8.12762106 12.6724138,8.32758621 C12.6724138,8.52755136 12.51031,8.68965517 12.3103448,8.68965517 Z M3.25862069,6.51724138 C3.25862069,6.31727623 3.42072449,6.15517241 3.62068966,6.15517241 L8.32758621,6.15517241 C8.52755136,6.15517241 8.68965517,6.31727623 8.68965517,6.51724138 C8.68965517,6.71720653 8.52755136,6.87931034 8.32758621,6.87931034 L3.62068966,6.87931034 C3.42072449,6.87931034 3.25862069,6.71720653 3.25862069,6.51724138 Z M18.1034483,2.53448276 L18.1034483,3.25862069 L2.89655172,3.25862069 L2.89655172,2.53448276 C2.89655172,2.33451759 3.05865552,2.17241379 3.25862069,2.17241379 L17.7413793,2.17241379 C17.9413445,2.17241379 18.1034483,2.33451759 18.1034483,2.53448276 Z" id="Shape" fill="#000000" fill-rule="nonzero"></path>
            </g>
        </g>
    </g>
</svg>