<?xml version="1.0" encoding="UTF-8"?>
<svg width="21px" height="21px" viewBox="0 0 21 21" version="1.1" xmlns="http://www.w3.org/2000/svg" xmlns:xlink="http://www.w3.org/1999/xlink">
    <title>MainCustomers</title>
    <defs>
        <filter color-interpolation-filters="auto" id="filter-1">
            <feColorMatrix in="SourceGraphic" type="matrix" values="0 0 0 0 1.000000 0 0 0 0 1.000000 0 0 0 0 1.000000 0 0 0 1.000000 0"></feColorMatrix>
        </filter>
    </defs>
    <g id="Main" stroke="none" stroke-width="1" fill="none" fill-rule="evenodd">
        <g id="MainCustomers" transform="translate(-703.000000, -33.000000)" filter="url(#filter-1)">
            <g transform="translate(703.000000, 33.000000)">
                <path d="M10.4714121,10.4763833 C12.2607187,10.4763833 13.5591504,9.59396758 14.2263926,7.92454688 C14.7384316,6.64329389 14.807502,5.13190616 14.807502,3.82241981 C14.807502,1.42894467 13.1865234,0 10.4714121,0 C7.75630078,0 6.13532227,1.42890363 6.13532227,3.82241981 C6.13532227,5.13190616 6.20439258,6.64329389 6.71643164,7.92454688 C7.38367383,9.59396758 8.68210547,10.4763833 10.4714121,10.4763833 Z" id="Path" fill="#000000" fill-rule="nonzero"></path>
                <path d="M12.0806602,11.6072362 L8.83730859,11.6072362 C5.73156445,11.6072362 3.20491992,14.1352301 3.20491992,17.2425415 L3.20491992,17.6276725 C3.20491992,19.487176 4.71691992,21 6.57550195,21 L14.3425078,21 C16.2010488,21 17.7130898,19.487176 17.7130898,17.6276725 L17.7130898,17.2425415 C17.7130898,14.1351891 15.1864043,11.6072362 12.0806602,11.6072362 Z" id="Path" fill="#000000" fill-rule="nonzero"></path>
                <path d="M16.120002,3.82246084 C16.120002,6.00595035 15.9025371,8.39987689 14.4534141,10.0695028 C14.8148027,10.2113672 15.219832,10.2840435 15.6653437,10.2840435 C17.0207051,10.2840435 18.0041367,9.61584023 18.5094082,8.3515765 C18.8851523,7.41142193 18.9358066,6.31516312 18.9358066,5.36676014 C18.9358066,3.70304357 17.8802285,2.57457082 15.9681621,2.4696806 C16.0686094,2.89478148 16.120002,3.34692565 16.120002,3.82246084 L16.120002,3.82246084 Z" id="Path" fill="#000000" fill-rule="nonzero"></path>
                <path d="M5.35233398,10.2840435 C5.77487695,10.2840435 6.16120313,10.2190821 6.50823633,10.0913754 C5.04036914,8.41957458 4.82282227,6.00361124 4.82282227,3.82246084 C4.82282227,3.34873128 4.8738457,2.89818754 4.9735957,2.47444087 C3.21058008,2.59738732 2.08183008,3.63090076 2.08183008,5.3667191 C2.08183008,6.31508105 2.13248438,7.41138089 2.50822852,8.3515765 C3.01354102,9.61584023 3.99697266,10.2840435 5.35233398,10.2840435 Z" id="Path" fill="#000000" fill-rule="nonzero"></path>
                <path d="M1.89241992,17.2425415 C1.89241992,14.7114288 3.25221094,12.4923603 5.27916211,11.277587 L4.19138672,11.277587 C1.8802793,11.277587 0,13.15884 0,15.4711853 L0,15.7447781 C0,16.9456809 0.822486328,17.9578962 1.93343555,18.2474113 C1.88470898,17.8802134 1.89241992,17.6559469 1.89241992,17.2425415 Z" id="Path" fill="#000000" fill-rule="nonzero"></path>
                <path d="M16.8086133,11.277587 L15.6394219,11.277587 C17.6660859,12.4924834 19.0255488,14.711675 19.0255488,17.2425415 C19.0255488,17.6520484 19.033834,17.8870665 18.9817031,18.2673962 C20.1352676,18.0082894 21,16.9760071 21,15.7447781 L21,15.4711853 C21,13.15884 19.1197207,11.277587 16.8086133,11.277587 Z" id="Path" fill="#000000" fill-rule="nonzero"></path>
            </g>
        </g>
    </g>
</svg>