<?xml version="1.0" encoding="UTF-8"?>
<svg width="30px" height="21px" viewBox="0 0 30 21" version="1.1" xmlns="http://www.w3.org/2000/svg" xmlns:xlink="http://www.w3.org/1999/xlink">
    <title>MainDashboard</title>
    <defs>
        <filter color-interpolation-filters="auto" id="filter-1">
            <feColorMatrix in="SourceGraphic" type="matrix" values="0 0 0 0 1.000000 0 0 0 0 1.000000 0 0 0 0 1.000000 0 0 0 1.000000 0"></feColorMatrix>
        </filter>
    </defs>
    <g id="Main" stroke="none" stroke-width="1" fill="none" fill-rule="evenodd">
        <g id="MainDashboard" transform="translate(-130.000000, -33.000000)" filter="url(#filter-1)">
            <g transform="translate(130.000000, 33.000000)">
                <path d="M19.8,0.777639832 C9.45,-2.5178559 0,5.12170239 0,15.0081896 C0,16.3563469 0.15,18.9028664 0.6,20.400819 C0.6,20.7004095 0.9,21 1.2,21 L28.65,21 C28.95,21 29.25,20.7004095 29.4,20.400819 C29.7,18.9028664 30,16.3563469 30,15.0081896 C30,8.56699338 25.95,2.72497822 19.8,0.777639832 Z M15,3.02456874 C15.9,3.02456874 16.5,3.62374978 16.5,4.52252134 C16.5,5.42129291 15.9,6.02047395 15,6.02047395 C14.1,6.02047395 13.5,5.42129291 13.5,4.52252134 C13.5,3.62374978 14.1,3.02456874 15,3.02456874 Z M4.5,16.5061422 C3.6,16.5061422 3,15.9069611 3,15.0081896 C3,14.109418 3.6,13.510237 4.5,13.510237 C5.4,13.510237 6,14.109418 6,15.0081896 C6,15.9069611 5.4,16.5061422 4.5,16.5061422 Z M8.7,8.71678864 C8.1,9.31596968 7.2,9.31596968 6.6,8.71678864 C6,8.1176076 6,7.06904077 6.45,6.46985973 C7.05,5.87067869 7.95,5.87067869 8.55,6.46985973 C9.15,7.06904077 9.15,8.1176076 8.7,8.71678864 Z M15,18.0040948 C13.35,18.0040948 11.85,16.5061422 12.3,15.0081896 C12.75,13.510237 15,9.01637916 15,9.01637916 C15,9.01637916 17.25,13.510237 17.7,15.0081896 C18.15,16.5061422 16.65,18.0040948 15,18.0040948 Z M23.55,8.71678864 C22.95,9.31596968 22.05,9.31596968 21.45,8.71678864 C20.85,8.1176076 20.85,7.21883603 21.45,6.61965499 C22.05,6.02047395 22.95,6.02047395 23.55,6.61965499 C24,7.06904077 24,8.1176076 23.55,8.71678864 Z M25.5,16.5061422 C24.6,16.5061422 24,15.9069611 24,15.0081896 C24,14.109418 24.6,13.510237 25.5,13.510237 C26.4,13.510237 27,14.109418 27,15.0081896 C27,15.9069611 26.4,16.5061422 25.5,16.5061422 Z" id="Shape" fill="#000000" fill-rule="nonzero"></path>
            </g>
        </g>
    </g>
</svg>