<?xml version="1.0" encoding="UTF-8"?>
<svg width="21px" height="21px" viewBox="0 0 21 21" version="1.1" xmlns="http://www.w3.org/2000/svg" xmlns:xlink="http://www.w3.org/1999/xlink">
    <title>MainMarketplace</title>
    <defs>
        <filter color-interpolation-filters="auto" id="filter-1">
            <feColorMatrix in="SourceGraphic" type="matrix" values="0 0 0 0 1.000000 0 0 0 0 1.000000 0 0 0 0 1.000000 0 0 0 1.000000 0"></feColorMatrix>
        </filter>
    </defs>
    <g id="Main" stroke="none" stroke-width="1" fill="none" fill-rule="evenodd">
        <g id="MainMarketplace" transform="translate(-881.000000, -33.000000)" filter="url(#filter-1)">
            <g transform="translate(881.000000, 33.000000)">
                <path d="M20.9962812,7 L0,7 L0,7.875 C0,8.84149831 0.783501688,9.625 1.75,9.625 L4.375,9.625 C5.34149831,9.625 6.125,8.84149831 6.125,7.875 C6.125,8.84149831 6.90850169,9.625 7.875,9.625 L13.125,9.625 C14.0914983,9.625 14.875,8.84149831 14.875,7.875 C14.875,8.84149831 15.6585017,9.625 16.625,9.625 L19.25,9.625 C20.2164983,9.625 21,8.84149831 21,7.875 L21,7 L20.9962812,7 Z" id="Path" fill="#000000" fill-rule="nonzero"></path>
                <path d="M20.7849688,6.125 L19.2163125,0.634375 C19.1088991,0.25884034 18.7655943,0 18.375,0 L14.3672813,0 L15.5922813,6.125 L20.7849688,6.125 Z" id="Path" fill="#000000" fill-rule="nonzero"></path>
                <path d="M6.63271875,0 L2.625,0 C2.23440567,0 1.89110094,0.25884034 1.7836875,0.634375 L0.21503125,6.125 L5.40771875,6.125 L6.63271875,0 Z" id="Path" fill="#000000" fill-rule="nonzero"></path>
                <polygon id="Path" fill="#000000" fill-rule="nonzero" points="12.5827188 0 8.41728125 0 7.19228125 6.125 13.8077188 6.125"></polygon>
                <path d="M16.625,10.5 C15.9789202,10.5005335 15.3555194,10.2618489 14.875,9.82996875 C14.3944806,10.2618489 13.7710798,10.5005335 13.125,10.5 L7.875,10.5 C7.22892022,10.5005335 6.60551941,10.2618489 6.125,9.82996875 C5.64448059,10.2618489 5.02107978,10.5005335 4.375,10.5 L1.75,10.5 C1.45172278,10.4993721 1.15576384,10.4475793 0.875,10.346875 L0.875,20.125 C0.875,20.6082492 1.26675084,21 1.75,21 L3.5,21 L3.5,13.125 C3.5,12.6417508 3.89175084,12.25 4.375,12.25 L8.75,12.25 C9.23324916,12.25 9.625,12.6417508 9.625,13.125 L9.625,21 L19.25,21 C19.7332492,21 20.125,20.6082492 20.125,20.125 L20.125,10.346875 C19.8442362,10.4475793 19.5482772,10.4993721 19.25,10.5 L16.625,10.5 Z M17.5,15.75 C17.5,16.2332492 17.1082492,16.625 16.625,16.625 L12.25,16.625 C11.7667508,16.625 11.375,16.2332492 11.375,15.75 L11.375,13.125 C11.375,12.6417508 11.7667508,12.25 12.25,12.25 L16.625,12.25 C17.1082492,12.25 17.5,12.6417508 17.5,13.125 L17.5,15.75 Z" id="Shape" fill="#000000" fill-rule="nonzero"></path>
            </g>
        </g>
    </g>
</svg>