<?xml version="1.0" encoding="UTF-8"?>
<svg width="28px" height="21px" viewBox="0 0 28 21" version="1.1" xmlns="http://www.w3.org/2000/svg" xmlns:xlink="http://www.w3.org/1999/xlink">
    <title>MainAuditlog</title>
    <defs>
        <filter color-interpolation-filters="auto" id="filter-1">
            <feColorMatrix in="SourceGraphic" type="matrix" values="0 0 0 0 1.000000 0 0 0 0 1.000000 0 0 0 0 1.000000 0 0 0 1.000000 0"></feColorMatrix>
        </filter>
    </defs>
    <g id="Main" stroke="none" stroke-width="1" fill="none" fill-rule="evenodd">
        <g id="MainAuditlog" transform="translate(-1443.000000, -33.000000)" filter="url(#filter-1)">
            <g transform="translate(1443.000000, 33.000000)">
                <path d="M20.2758621,20.9466727 C15.9371494,20.4702909 12.5517241,16.8234818 12.5517241,12.4090909 C12.5517241,7.67206364 16.4498391,3.81818182 21.2413793,3.81818182 L21.2413793,1.77635684e-15 L0,1.77635684e-15 L0,21 L20.2758621,21 L20.2758621,20.9466727 Z M3.86206897,1.90909091 L13.5172414,1.90909091 L13.5172414,3.81818182 L3.86206897,3.81818182 L3.86206897,1.90909091 Z M3.86206897,5.72727273 L9.33333333,5.72727273 L9.33333333,7.63636364 L3.86206897,7.63636364 L3.86206897,5.72727273 Z M3.86206897,9.54545455 L9.33333333,9.54545455 L9.33333333,11.4545455 L3.86206897,11.4545455 L3.86206897,9.54545455 Z M3.86206897,13.3636364 L9.33333333,13.3636364 L9.33333333,15.2727273 L3.86206897,15.2727273 L3.86206897,13.3636364 Z M12.5517241,19.0909091 L3.86206897,19.0909091 L3.86206897,17.1818182 L12.5517241,17.1818182 L12.5517241,19.0909091 Z" id="Shape" fill="#000000" fill-rule="nonzero"></path>
                <path d="M21.2413793,5.72727273 C17.5086897,5.72727273 14.4827586,8.71881818 14.4827586,12.4090909 C14.4827586,16.0993636 17.5086897,19.0909091 21.2413793,19.0909091 C24.974069,19.0909091 28,16.0993636 28,12.4090909 C28,8.71881818 24.974069,5.72727273 21.2413793,5.72727273 Z M19.9930299,15.3884818 L17.3793103,12.8044636 L18.7447448,11.4545455 L19.9930299,12.6887091 L23.1724138,9.54545455 L24.5378483,10.8953727 L19.9930299,15.3884818 Z" id="Shape" fill="#000000" fill-rule="nonzero"></path>
            </g>
        </g>
    </g>
</svg>