<?xml version="1.0" encoding="UTF-8"?>
<svg width="21px" height="21px" viewBox="0 0 21 21" version="1.1" xmlns="http://www.w3.org/2000/svg" xmlns:xlink="http://www.w3.org/1999/xlink">
    <title>marketplace-sales</title>
    <defs>
        <filter color-interpolation-filters="auto" id="filter-1">
            <feColorMatrix in="SourceGraphic" type="matrix" values="0 0 0 0 1.000000 0 0 0 0 1.000000 0 0 0 0 1.000000 0 0 0 1.000000 0"></feColorMatrix>
        </filter>
    </defs>
    <g id="Marketplace" stroke="none" stroke-width="1" fill="none" fill-rule="evenodd">
        <g id="marketplace-sales" transform="translate(-381.000000, -84.000000)" filter="url(#filter-1)">
            <g transform="translate(381.000000, 84.000000)">
                <path d="M5.25615234,8.01691406 C4.49326172,8.01691406 3.85013672,8.54027344 3.66761719,9.24738281 L6.84509766,9.24738281 C6.66257813,8.54027344 6.01945313,8.01691406 5.25615234,8.01691406 Z" id="Path" fill="#000000" fill-rule="nonzero"></path>
                <path d="M3.61552734,11.2194141 C3.61552734,11.4212109 3.77958984,11.5852734 3.98138672,11.5852734 L6.53132812,11.5852734 C6.733125,11.5852734 6.89677734,11.4212109 6.89677734,11.2194141 L6.89677734,10.4778516 L3.61552734,10.4778516 L3.61552734,11.2194141 Z" id="Path" fill="#000000" fill-rule="nonzero"></path>
                <path d="M0,5.48707031 L0,20.3847656 C0,20.724375 0.275625,21 0.615234375,21 L20.3847656,21 C20.724375,21 21,20.724375 21,20.3847656 L21,5.48707031 L0,5.48707031 Z M7.40291016,18.7219922 L3.39691406,19.6838086 C2.95115625,19.7914336 2.5480957,19.3884141 2.65535156,18.9418359 L3.61716797,14.93625 C3.70170117,14.5835566 4.07371289,14.3777402 4.41984375,14.4994336 C6.02724609,15.0654492 7.27371094,16.3119141 7.83931641,17.9193164 C7.96043555,18.2637656 7.75732617,18.6361875 7.40291016,18.7219922 L7.40291016,18.7219922 Z M8.46193359,10.4778516 L8.12724609,10.4778516 L8.12724609,11.2194141 C8.12724609,12.0996094 7.41152344,12.8157422 6.53132813,12.8157422 L3.98138672,12.8157422 C3.10119141,12.8157422 2.38505859,12.0996094 2.38505859,11.2194141 L2.38505859,10.4778516 L2.05078125,10.4778516 C1.71117188,10.4778516 1.43554688,10.2022266 1.43554688,9.86261719 C1.43554688,9.52259766 1.71117188,9.24738281 2.05078125,9.24738281 L2.415,9.24738281 C2.61474609,7.85777344 3.81240234,6.78644531 5.25615234,6.78644531 C6.7003125,6.78644531 7.89796875,7.85777344 8.09771484,9.24738281 L8.46193359,9.24738281 C8.80154297,9.24738281 9.07716797,9.52259766 9.07716797,9.86261719 C9.07716797,10.2022266 8.80154297,10.4778516 8.46193359,10.4778516 Z M18.6543164,18.9352734 L12.8456836,18.9352734 C12.5060742,18.9352734 12.2304492,18.6596484 12.2304492,18.3200391 C12.2304492,17.9804297 12.5060742,17.7048047 12.8456836,17.7048047 L18.6543164,17.7048047 C18.9939258,17.7048047 19.2695508,17.9804297 19.2695508,18.3200391 C19.2695508,18.6596484 18.9939258,18.9352734 18.6543164,18.9352734 Z M12.2304492,15.8591016 C12.2304492,15.519082 12.5060742,15.2438672 12.8456836,15.2438672 L14.9842383,15.2438672 C15.3238477,15.2438672 15.5994727,15.519082 15.5994727,15.8591016 C15.5994727,16.1987109 15.3238477,16.4743359 14.9842383,16.4743359 L12.8456836,16.4743359 C12.5060742,16.4743359 12.2304492,16.1987109 12.2304492,15.8591016 Z M18.6543164,16.4743359 L17.4845508,16.4743359 C17.1449414,16.4743359 16.8693164,16.1987109 16.8693164,15.8591016 C16.8693164,15.519082 17.1449414,15.2438672 17.4845508,15.2438672 L18.6543164,15.2438672 C18.9939258,15.2438672 19.2695508,15.519082 19.2695508,15.8591016 C19.2695508,16.1987109 18.9939258,16.4743359 18.6543164,16.4743359 Z M18.6543164,11.2432031 L12.8456836,11.2432031 C12.5060742,11.2432031 12.2304492,10.9675781 12.2304492,10.6279688 C12.2304492,10.2883594 12.5060742,10.0127344 12.8456836,10.0127344 L18.6543164,10.0127344 C18.9939258,10.0127344 19.2695508,10.2883594 19.2695508,10.6279688 C19.2695508,10.9675781 18.9939258,11.2432031 18.6543164,11.2432031 Z M18.6543164,8.78226563 L12.8456836,8.78226563 C12.5060742,8.78226563 12.2304492,8.50664062 12.2304492,8.16703125 C12.2304492,7.82742187 12.5060742,7.55179687 12.8456836,7.55179687 L18.6543164,7.55179687 C18.9939258,7.55179687 19.2695508,7.82742187 19.2695508,8.16703125 C19.2695508,8.50664062 18.9939258,8.78226563 18.6543164,8.78226563 Z" id="Shape" fill="#000000" fill-rule="nonzero"></path>
                <path d="M4.64173828,15.939082 L4.08597656,18.2527734 L6.40007813,17.6974219 C5.99689453,16.9509375 5.38822266,16.3418555 4.64173828,15.939082 L4.64173828,15.939082 Z" id="Path" fill="#000000" fill-rule="nonzero"></path>
                <path d="M18.7076367,0 L2.29236328,0 C1.02826172,0 0,1.02826172 0,2.29236328 L0,4.25660156 L21,4.25660156 L21,2.29236328 C21,1.02826172 19.9717383,0 18.7076367,0 Z M17.9238281,1.51306641 C18.2634375,1.51306641 18.5390625,1.78869141 18.5390625,2.12830078 C18.5390625,2.46791016 18.2634375,2.74353516 17.9238281,2.74353516 C17.5842188,2.74353516 17.3085938,2.46791016 17.3085938,2.12830078 C17.3085938,1.78869141 17.5842188,1.51306641 17.9238281,1.51306641 Z M15.4628906,1.51306641 C15.8025,1.51306641 16.078125,1.78869141 16.078125,2.12830078 C16.078125,2.46791016 15.8025,2.74353516 15.4628906,2.74353516 C15.1232813,2.74353516 14.8476562,2.46791016 14.8476562,2.12830078 C14.8476562,1.78869141 15.1232813,1.51306641 15.4628906,1.51306641 Z M3.07617188,1.51306641 L8.08007812,1.51306641 C8.4196875,1.51306641 8.6953125,1.78869141 8.6953125,2.12830078 C8.6953125,2.46791016 8.4196875,2.74353516 8.08007812,2.74353516 L3.07617188,2.74353516 C2.7365625,2.74353516 2.4609375,2.46791016 2.4609375,2.12830078 C2.4609375,1.78869141 2.7365625,1.51306641 3.07617188,1.51306641 Z" id="Shape" fill="#000000" fill-rule="nonzero"></path>
            </g>
        </g>
    </g>
</svg>