<?xml version="1.0" encoding="UTF-8"?>
<svg width="19px" height="25px" viewBox="0 0 19 25" version="1.1" xmlns="http://www.w3.org/2000/svg" xmlns:xlink="http://www.w3.org/1999/xlink">
    <title>marketplace-sale-order</title>
    <defs>
        <filter color-interpolation-filters="auto" id="filter-1">
            <feColorMatrix in="SourceGraphic" type="matrix" values="0 0 0 0 1.000000 0 0 0 0 1.000000 0 0 0 0 1.000000 0 0 0 1.000000 0"></feColorMatrix>
        </filter>
    </defs>
    <g id="Marketplace" stroke="none" stroke-width="1" fill="none" fill-rule="evenodd">
        <g id="marketplace-sale-order" transform="translate(-14.000000, -403.000000)" filter="url(#filter-1)">
            <g transform="translate(14.000000, 403.000000)">
                <path d="M18.0635658,0 L0.93643419,0 C0.420084378,0 0,0.328564453 0,0.732421875 L0,24.2675781 C0,24.6714355 0.420084378,25 0.93643419,25 L18.0635658,25 C18.5799156,25 19,24.6714355 19,24.2675781 L19,0.732421875 C19,0.328564453 18.5799156,0 18.0635658,0 Z M6.51825381,20.7296875 C6.51825381,21.1341797 6.19438579,21.4621094 5.79490355,21.4621094 L2.53023096,21.4621094 C2.13074873,21.4621094 1.80688071,21.1341797 1.80688071,20.7296875 L1.80688071,17.4353027 C1.80688071,17.0308105 2.13074873,16.7028809 2.53023096,16.7028809 L5.79490355,16.7028809 C6.19438579,16.7028809 6.51825381,17.0308105 6.51825381,17.4353027 L6.51825381,20.7296875 Z M6.51825381,14.147168 C6.51825381,14.5516602 6.19438579,14.8795898 5.79490355,14.8795898 L2.53023096,14.8795898 C2.13074873,14.8795898 1.80688071,14.5516602 1.80688071,14.147168 L1.80688071,10.8527832 C1.80688071,10.448291 2.13074873,10.1203613 2.53023096,10.1203613 L5.79490355,10.1203613 C6.19438579,10.1203613 6.51825381,10.448291 6.51825381,10.8527832 L6.51825381,14.147168 Z M6.51825381,7.56469727 C6.51825381,7.96918945 6.19438579,8.29711914 5.79490355,8.29711914 L2.53023096,8.29711914 C2.13074873,8.29711914 1.80688071,7.96918945 1.80688071,7.56469727 L1.80688071,4.2703125 C1.80688071,3.86582031 2.13074873,3.53789062 2.53023096,3.53789062 L5.79490355,3.53789062 C6.19438579,3.53789062 6.51825381,3.86582031 6.51825381,4.2703125 L6.51825381,7.56469727 Z M16.4864543,19.890332 L9.37379949,19.890332 C8.97431726,19.890332 8.65044924,19.5624023 8.65044924,19.1579102 C8.65044924,18.753418 8.97431726,18.4254883 9.37379949,18.4254883 L16.4864543,18.4254883 C16.8859365,18.4254883 17.2098046,18.753418 17.2098046,19.1579102 C17.2098046,19.5624023 16.8859365,19.890332 16.4864543,19.890332 Z M16.4864543,13.2016113 L9.37379949,13.2016113 C8.97431726,13.2016113 8.65044924,12.8736816 8.65044924,12.4691895 C8.65044924,12.0646973 8.97431726,11.7367676 9.37379949,11.7367676 L16.4864543,11.7367676 C16.8859365,11.7367676 17.2098046,12.0646973 17.2098046,12.4691895 C17.2098046,12.8736816 16.8859365,13.2016113 16.4864543,13.2016113 Z M16.4864543,6.64990234 L9.37379949,6.64990234 C8.97431726,6.64990234 8.65044924,6.32197266 8.65044924,5.91748047 C8.65044924,5.51298828 8.97431726,5.18505859 9.37379949,5.18505859 L16.4864543,5.18505859 C16.8859365,5.18505859 17.2098046,5.51298828 17.2098046,5.91748047 C17.2098046,6.32197266 16.8859365,6.64990234 16.4864543,6.64990234 Z" id="Shape" fill="#000000" fill-rule="nonzero"></path>
                <polygon id="Path" fill="#000000" fill-rule="nonzero" points="3.25358122 11.5852539 5.0715533 11.5852539 5.0715533 13.4147949 3.25358122 13.4147949"></polygon>
                <polygon id="Path" fill="#000000" fill-rule="nonzero" points="3.25358122 5.00273438 5.0715533 5.00273438 5.0715533 6.83227539 3.25358122 6.83227539"></polygon>
                <polygon id="Path" fill="#000000" fill-rule="nonzero" points="3.25358122 18.1677246 5.0715533 18.1677246 5.0715533 19.9972656 3.25358122 19.9972656"></polygon>
            </g>
        </g>
    </g>
</svg>