<?xml version="1.0" encoding="UTF-8"?>
<svg width="21px" height="21px" viewBox="0 0 21 21" version="1.1" xmlns="http://www.w3.org/2000/svg" xmlns:xlink="http://www.w3.org/1999/xlink">
    <title>repairing-service</title>
    <defs>
        <filter color-interpolation-filters="auto" id="filter-1">
            <feColorMatrix in="SourceGraphic" type="matrix" values="0 0 0 0 1.000000 0 0 0 0 1.000000 0 0 0 0 1.000000 0 0 0 1.000000 0"></feColorMatrix>
        </filter>
    </defs>
    <g id="Sales" stroke="none" stroke-width="1" fill="none" fill-rule="evenodd">
        <g id="repairing-service" transform="translate(-1648.000000, -25.000000)" filter="url(#filter-1)">
            <g transform="translate(1648.000000, 25.000000)">
                <path d="M20.9340384,9.3343033 C20.9008895,9.03914625 20.5565956,8.81709732 20.2588916,8.81709732 C19.2967575,8.81709732 18.4428794,8.25239376 18.0847809,7.3783656 C17.7192354,6.48335859 17.9550917,5.43977405 18.6719243,4.78216413 C18.8976998,4.57573583 18.9252179,4.23008421 18.7359516,3.99014422 C18.2433505,3.36477453 17.6837252,2.79979852 17.0725149,2.31020108 C16.833389,2.1183944 16.4820112,2.14509476 16.2744903,2.37477236 C15.6486581,3.06789194 14.5244125,3.32545053 13.6556401,2.96299767 C12.7519024,2.58274456 12.1814697,1.66666787 12.2375049,0.683386196 C12.2559411,0.374334053 12.029984,0.10578654 11.7220175,0.0699136052 C10.9376157,-0.0209039507 10.1463117,-0.0235376598 9.35963949,0.0637380114 C9.05557823,0.0973405071 8.82980275,0.359530791 8.83988364,0.664677779 C8.87394068,1.6383328 8.29705981,2.53824396 7.40204078,2.90487443 C6.54371252,3.25552101 5.42727731,2.99986959 4.80271659,2.31283478 C4.59628551,2.08651743 4.25108334,2.05872726 4.01032277,2.24644715 C3.38113029,2.7402222 2.80888118,3.30556149 2.3117392,3.9258454 C2.11802275,4.16696601 2.14663067,4.51643196 2.37431334,4.72358681 C3.10531367,5.38555597 3.34098839,6.43813145 2.96145672,7.34358248 C2.59908981,8.20680335 1.70279931,8.76287924 0.676819596,8.76287924 C0.343877963,8.75216277 0.106931776,8.97584641 0.0701501722,9.27863214 C-0.0221217042,10.067201 -0.0231207108,10.871118 0.0657000521,11.6661349 C0.0988489054,11.9625634 0.453314588,12.1827051 0.754288012,12.1827051 C1.66883309,12.1594558 2.5463241,12.7252492 2.91495751,13.621346 C3.28177455,14.516353 3.04564573,15.5594835 2.32763249,16.2180016 C2.10303765,16.4244299 2.07433892,16.7692642 2.26396852,17.0089317 C2.75157453,17.6303962 3.31174474,18.1957355 3.92477148,18.6895106 C4.16544124,18.8833152 4.5154568,18.8561608 4.72406753,18.6262107 C5.35235182,17.9314564 6.47641581,17.6743519 7.34164629,18.0375313 C8.24801767,18.4167854 8.81817795,19.3327713 8.76250604,20.3163254 C8.74425147,20.6253776 8.97075349,20.8947425 9.27763014,20.929798 C9.67904913,20.9767507 10.0825569,21 10.4873362,21 C10.8714997,21 11.2557539,20.9790211 11.6400081,20.9362461 C11.9444327,20.9026436 12.1698449,20.6401808 12.1595824,20.334943 C12.1244355,19.3617421 12.7025878,18.4617401 13.596517,18.0958362 C14.4605669,17.7429192 15.572007,18.0012043 16.196931,18.6872401 C16.4044519,18.9131034 16.7475653,18.9405303 16.9893249,18.7535369 C17.6174275,18.2610333 18.1885868,17.6959665 18.6879084,17.0740479 C18.8818065,16.8333814 18.8542884,16.4834613 18.6253343,16.2759432 C17.8945156,15.6144281 17.6575694,14.5613986 18.0371011,13.6568557 C18.3938372,12.8052595 19.2567972,12.2334721 20.1849651,12.2334721 L20.314836,12.2369232 C20.6161727,12.2613531 20.8930791,12.0293143 20.9294975,11.7218968 C21.0222234,10.9326015 21.0232224,10.1295926 20.9340384,9.3343033 Z M10.49996,16.5533908 C7.15664844,16.5533908 4.44652535,13.8433041 4.44652535,10.5001283 C4.44652535,7.1569524 7.15673926,4.44686571 10.49996,4.44686571 C13.8431808,4.44686571 16.5533947,7.1569524 16.5533947,10.5001283 C16.5533947,11.6348936 16.2405241,12.6962784 15.6971553,13.6039091 L13.0465185,10.9532171 C13.2384186,10.500764 13.3397724,10.0102584 13.3396815,9.50404132 C13.3396815,8.51276769 12.9536109,7.58088875 12.2525808,6.88004967 C11.5517323,6.17921059 10.6198408,5.79323598 9.62873553,5.79323598 C9.29797354,5.79323598 8.96875548,5.83719168 8.65025403,5.92392244 C8.51075639,5.961975 8.39668801,6.07695003 8.35954313,6.21671824 C8.32158088,6.35966508 8.36435653,6.50615379 8.47606362,6.61795021 C8.47606362,6.61795021 9.78467136,7.93662112 10.2225087,8.37436174 C10.2683722,8.4202246 10.2682813,8.52965976 10.2618332,8.56907458 L10.2577464,8.59786374 C10.2136084,9.07919679 10.1285113,9.65697808 10.0583083,9.879027 C10.0488632,9.88838121 10.0399629,9.89628234 10.0303362,9.905909 C10.0202553,9.91598975 10.0109918,9.92570723 10.0012741,9.93569716 C9.77631604,10.0078971 9.18962674,10.0939922 8.70065845,10.1377662 L8.70074927,10.1351325 L8.67877113,10.1406724 C8.67486592,10.1411265 8.66760042,10.1416714 8.65797363,10.1416714 C8.6051171,10.1416714 8.52737623,10.1268681 8.45671922,10.0563029 C8.0009906,9.60058038 6.74369547,8.35229307 6.74369547,8.35229307 C6.63089855,8.23986094 6.51519543,8.21624837 6.43809029,8.21624837 C6.25835993,8.21624837 6.09742906,8.34611748 6.04675218,8.53238429 C5.70064183,9.81318428 6.06754968,11.1908866 7.00452699,12.1279421 C7.70555713,12.828872 8.6375394,13.2148467 9.62882634,13.2148467 C10.1350502,13.2148467 10.6255624,13.1135851 11.0779307,12.9216876 L13.7573571,15.6010779 C12.8166562,16.2030167 11.6995853,16.5533908 10.49996,16.5533908 Z" id="Shape" fill="#000000" fill-rule="nonzero"></path>
            </g>
        </g>
    </g>
</svg>