<?xml version="1.0" encoding="UTF-8"?>
<svg width="20px" height="20px" viewBox="0 0 20 20" version="1.1" xmlns="http://www.w3.org/2000/svg" xmlns:xlink="http://www.w3.org/1999/xlink">
    <title>Admin spurtconnect3</title>
    <defs>
        <filter id="filter-1">
            <feColorMatrix in="SourceGraphic" type="matrix" values="0 0 0 0 1.000000 0 0 0 0 1.000000 0 0 0 0 1.000000 0 0 0 1.000000 0"></feColorMatrix>
        </filter>
    </defs>
    <g id="Page-1" stroke="none" stroke-width="1" fill="none" fill-rule="evenodd">
        <g filter="url(#filter-1)" id="Admin-spurtconnect3">
            <g>
                <path d="M7.1590625,8.18546875 L10.0112891,8.18546875 L12.8635156,8.18546875 C13.1733203,8.18546875 13.4242187,7.93355469 13.4242187,7.62246094 L13.4242187,7.00890625 C13.4242187,5.39980469 12.1463672,4.01011719 10.4052734,4.01011719 C11.3247656,3.82628906 12.0180078,3.01179687 12.0180078,2.03417969 C12.0180078,0.921484375 11.1194141,0.0195703125 10.0112891,0.0195703125 C8.90316406,0.0195703125 8.00457031,0.921484375 8.00457031,2.03417969 C8.00457031,3.01179687 8.6978125,3.82628906 9.61730469,4.01011719 C7.87847656,4.01011719 6.59835938,5.39765625 6.59835938,7.00890625 L6.59835938,7.62246094 C6.59835938,7.93351562 6.84925781,8.18546875 7.1590625,8.18546875 Z" id="Path" fill="#000000" fill-rule="nonzero"></path>
                <path d="M2.52023437,9.75652344 C2.55570312,9.76300781 2.59089844,9.76613281 2.62570312,9.76613281 C2.90304687,9.76613281 3.14941406,9.56730469 3.20085937,9.28355469 C3.34496094,8.48847656 3.61777344,7.7159375 4.01167969,6.98746094 C4.39183594,6.28445312 4.86855469,5.653125 5.42859375,5.11105469 C5.66132812,4.88582031 5.668125,4.51375 5.44378906,4.28003906 C5.21945313,4.04636719 4.84894531,4.03953125 4.61621094,4.26476562 C3.96984375,4.89042969 3.4203125,5.61777344 2.98296875,6.42660156 C2.52972656,7.26480469 2.21554687,8.15519531 2.04917969,9.07308594 C1.99132812,9.39242187 2.20222656,9.69839844 2.52023437,9.75652344 Z" id="Path" fill="#000000" fill-rule="nonzero"></path>
                <path d="M16.0109375,6.98742188 C16.4048437,7.7159375 16.6776562,8.4884375 16.8217578,9.28351562 C16.8732031,9.56730469 17.1195312,9.76609375 17.3969141,9.76609375 C17.4316797,9.76609375 17.4669531,9.76296875 17.5023828,9.75648438 C17.8203906,9.69835938 18.0312891,9.39238281 17.9733984,9.07304688 C17.8070312,8.15515625 17.4928516,7.26472656 17.0396094,6.4265625 C16.6022656,5.61773438 16.0527344,4.89035156 15.4063672,4.26472656 C15.1736328,4.03945312 14.803125,4.04632812 14.5787891,4.28 C14.3544531,4.51371094 14.3612891,4.88574219 14.5939844,5.11101563 C15.1540625,5.65308594 15.6307813,6.28441406 16.0109375,6.98742188 Z" id="Path" fill="#000000" fill-rule="nonzero"></path>
                <path d="M12.3758203,14.2453516 C11.6208203,14.4945313 10.825625,14.6222656 10.0113281,14.625 C10.0007813,14.6253906 9.98988281,14.6253906 9.97933594,14.6253906 C9.18296875,14.6253906 8.40261719,14.5058984 7.66085938,14.2704297 C7.35261719,14.1724609 7.0240625,14.3440625 6.92652344,14.6535938 C6.82898438,14.963125 6.99988281,15.2930078 7.308125,15.3909375 C8.16417969,15.6628516 9.06277344,15.8007422 9.97933594,15.8007422 L10.0113281,15.8007422 C10.9501172,15.7972266 11.8682031,15.6498828 12.7410547,15.3619141 C13.048125,15.2608203 13.2155078,14.9285937 13.1144531,14.6202344 C13.0137891,14.3119531 12.6828906,14.1438672 12.3758203,14.2453516 L12.3758203,14.2453516 Z" id="Path" fill="#000000" fill-rule="nonzero"></path>
                <path d="M3.80683594,15.8050781 C4.72636719,15.6212109 5.41964844,14.8064453 5.41964844,13.8291406 C5.41964844,12.7164453 4.52105469,11.8141406 3.41292969,11.8141406 C2.30480469,11.8141406 1.40621094,12.7164453 1.40621094,13.8291406 C1.40621094,14.8064453 2.09949219,15.6212109 3.01902344,15.8050781 C1.28167969,15.8050781 -5.55111512e-16,17.1912109 -5.55111512e-16,18.8039063 L-5.55111512e-16,19.4174609 C-5.55111512e-16,19.7281641 0.250898437,19.9804688 0.560703125,19.9804688 L3.41292969,19.9804688 L6.26515625,19.9804688 C6.57496094,19.9804688 6.82585937,19.7281641 6.82585937,19.4174609 L6.82585937,18.8039063 C6.82585937,17.1980078 5.55148437,15.8050781 3.80683594,15.8050781 L3.80683594,15.8050781 Z" id="Path" fill="#000000" fill-rule="nonzero"></path>
                <path d="M16.9809766,15.8050781 C17.9005078,15.6212109 18.5937891,14.8064453 18.5937891,13.8291406 C18.5937891,12.7164453 17.6951953,11.8141406 16.5870703,11.8141406 C15.4785547,11.8141406 14.5803516,12.7164453 14.5803516,13.8291406 C14.5803516,14.8064453 15.2733594,15.6212109 16.1930469,15.8050781 C14.4517188,15.8050781 13.1741016,17.1944531 13.1741016,18.8038672 L13.1741016,19.4174219 C13.1741016,19.728125 13.425,19.9804297 13.7348047,19.9804297 L16.5870313,19.9804297 L19.4392578,19.9804297 C19.7486719,19.9804297 19.9999609,19.728125 19.9999609,19.4174219 L19.9999609,18.8039062 C19.9999609,17.1946484 18.7220703,15.8050781 16.9809766,15.8050781 Z" id="Path" fill="#000000" fill-rule="nonzero"></path>
            </g>
        </g>
    </g>
</svg>