<svg xmlns="http://www.w3.org/2000/svg" width="20" height="17.241" viewBox="0 0 20 17.241">
  <path id="Path" d="M19.687,2.718a1.4,1.4,0,0,0-1.094-.524H3.349l-.136-.979A1.414,1.414,0,0,0,1.82,0H.625a.627.627,0,0,0,0,1.254h1.2a.157.157,0,0,1,.155.135L3.662,13.518a1.414,1.414,0,0,0,1.393,1.216h.678a1.875,1.875,0,1,0,3.535,0h3.34a1.875,1.875,0,1,0,3.535,0H17.5a.627.627,0,0,0,0-1.254H5.055a.157.157,0,0,1-.155-.135l-.156-1.119H17.053a1.415,1.415,0,0,0,1.375-1.115l1.54-7.21a1.408,1.408,0,0,0-.281-1.182Z" fill="#fff"/>
</svg>
