<svg xmlns="http://www.w3.org/2000/svg" width="448" height="88" viewBox="0 0 448 88">
    <g fill="none" fill-rule="nonzero">
        <g fill="#8D8D8D">
            <path d="M410.965 74.258l-4.72 12.282h-1.997l-4.876-12.282h2.557l2.438 6.899.903 2.89.83-2.891 2.341-6.899zM425.294 84.665v1.875h-10.195l-.356-1.217a26.254 26.254 0 0 0 3.641-2.527 14.313 14.313 0 0 0 2.708-2.908c.694-1.016 1.041-2.002 1.041-2.957 0-.747-.22-1.338-.658-1.772-.44-.434-1.072-.652-1.9-.652a4.882 4.882 0 0 0-2.011.442 5.128 5.128 0 0 0-1.613 1.088l-1.003-1.334a6.748 6.748 0 0 1 2.012-1.46 6.38 6.38 0 0 1 2.874-.62c1.67 0 2.872.388 3.609 1.165.737.777 1.105 1.778 1.105 3.003a5.97 5.97 0 0 1-.726 2.767 10.836 10.836 0 0 1-2.058 2.707 17.447 17.447 0 0 1-3.107 2.402l6.637-.002zM429.167 83.965a1.97 1.97 0 0 1 .648-.673c.252-.165.546-.253.847-.253.504 0 .894.161 1.17.484.281.334.43.76.416 1.195a1.842 1.842 0 0 1-.89 1.588 1.64 1.64 0 0 1-.857.242 1.48 1.48 0 0 1-.777-.221 1.616 1.616 0 0 1-.582-.604 1.69 1.69 0 0 1-.216-.847c-.003-.32.08-.634.241-.91zM447.204 84.786v1.875h-10.195l-.356-1.218a26.254 26.254 0 0 0 3.641-2.526 14.313 14.313 0 0 0 2.708-2.908c.694-1.017 1.04-2.002 1.04-2.957 0-.747-.219-1.338-.658-1.772-.439-.434-1.072-.652-1.899-.652a4.882 4.882 0 0 0-2.012.442 5.128 5.128 0 0 0-1.612 1.087l-1.004-1.333a6.748 6.748 0 0 1 2.012-1.46 6.38 6.38 0 0 1 2.875-.62c1.67 0 2.872.388 3.609 1.165.736.777 1.105 1.778 1.105 3.003a5.97 5.97 0 0 1-.726 2.767 10.836 10.836 0 0 1-2.058 2.707 17.447 17.447 0 0 1-3.108 2.402l6.638-.002z"/>
        </g>
        <path fill="#FFF" d="M42.56 0l42.561 21.972v43.943l-42.56 21.971L0 65.916V21.971z"/>
        <path fill="#FFF" d="M0 69.151l.02-43.79 42.272 62.17zM0 21.956l85.084 43.965L42.67 0z"/>
        <path fill="#FFF" d="M42.797.13l42.32 21.981L69.5 42.277z"/>
        <ellipse cx="27.823" cy="73.924" fill="#000" rx="3.9" ry="3.487"/>
        <ellipse cx="60.771" cy="73.924" fill="#000" rx="3.9" ry="3.487"/>
        <path fill="#000" d="M21.07 59.013h46.078l.266.078.028-.078h.042v-.117l10.24-28.272-1.202-.349-9.999 27.61H20.806l-7.009-29.88v-.212h-.05l-.014-.06-.324.06H3.269v1.129h9.453l9.269 39.516v.197h.046l.013.056.298-.056h47.216v-1.129H23.062z"/>
        <path fill="#000" stroke="#FFF" stroke-width=".5" d="M25.729 55.348a2.576 2.576 0 0 1-1.237.28c-.646 0-1.166-.187-1.562-.563a1.92 1.92 0 0 1-.594-1.46c0-.666.213-1.202.64-1.606.427-.405.997-.606 1.71-.605.36-.007.718.06 1.051.197v.664a1.992 1.992 0 0 0-1.078-.316 1.538 1.538 0 0 0-1.138.445 1.579 1.579 0 0 0-.444 1.168c0 .474.139.848.417 1.122.302.283.706.431 1.12.41a1.957 1.957 0 0 0 1.114-.351v.615zM28.715 55.629c-.669 0-1.203-.19-1.601-.567-.399-.378-.6-.88-.604-1.503 0-.68.207-1.21.623-1.592.416-.382.977-.573 1.684-.573.674 0 1.199.186 1.573.557.375.372.564.887.568 1.545 0 .645-.204 1.162-.612 1.551-.409.39-.952.583-1.63.582zm.053-3.69a1.454 1.454 0 0 0-1.104.425c-.27.282-.406.673-.406 1.17 0 .48.136.858.41 1.135a1.48 1.48 0 0 0 1.1.414c.468 0 .828-.135 1.08-.407.252-.272.378-.657.378-1.157 0-.505-.126-.895-.378-1.169s-.612-.41-1.08-.41zM38.55 55.534h-.726v-2.323c0-.448-.077-.77-.232-.967-.155-.197-.415-.297-.78-.3-.307 0-.598.14-.788.38a1.35 1.35 0 0 0-.324.909v2.307h-.727v-2.408c0-.795-.343-1.193-1.029-1.193a.994.994 0 0 0-.786.363 1.37 1.37 0 0 0-.31.93v2.308h-.725v-4.045h.726v.639h.018c.302-.48.839-.761 1.405-.735.287-.007.57.074.809.23.221.144.388.356.473.605.303-.54.884-.864 1.503-.837.995 0 1.493.549 1.493 1.647v2.49zM46.343 55.534h-.726v-2.323c0-.448-.077-.77-.232-.967-.155-.197-.415-.297-.78-.3-.307 0-.597.14-.788.38a1.35 1.35 0 0 0-.324.909v2.307h-.727v-2.408c0-.795-.343-1.193-1.029-1.193a.994.994 0 0 0-.786.363 1.37 1.37 0 0 0-.309.93v2.308h-.726v-4.045h.726v.639h.018c.302-.48.839-.761 1.406-.735.286-.007.568.074.808.23.221.144.388.356.473.605.303-.54.884-.864 1.503-.837.995 0 1.493.549 1.493 1.647v2.49zM51.349 53.67h-3.194c.013.45.148.799.407 1.044.26.244.616.365 1.069.362a2.39 2.39 0 0 0 1.404-.439v.605c-.398.258-.922.387-1.573.387-.64 0-1.142-.184-1.507-.552-.366-.367-.549-.884-.549-1.55a2.074 2.074 0 0 1 .6-1.54c.392-.393.93-.608 1.486-.594.592 0 1.05.171 1.374.514.323.342.485.818.484 1.426l-.001.337zm-.742-.548a1.228 1.228 0 0 0-.303-.873 1.09 1.09 0 0 0-.828-.312 1.242 1.242 0 0 0-.87.328 1.424 1.424 0 0 0-.442.857h2.443zM54.805 52.145a.97.97 0 0 0-.549-.13.954.954 0 0 0-.776.39c-.207.26-.31.616-.31 1.066v2.062h-.727v-4.038h.726v.832h.018c.089-.264.253-.495.474-.666.203-.157.454-.242.712-.241a1.31 1.31 0 0 1 .433.055l-.001.67zM58.675 55.348a2.576 2.576 0 0 1-1.238.28c-.645 0-1.166-.187-1.561-.563a1.92 1.92 0 0 1-.594-1.46c0-.666.213-1.202.64-1.606.427-.405.997-.606 1.71-.605.36-.007.718.06 1.051.197v.664a1.992 1.992 0 0 0-1.079-.316 1.538 1.538 0 0 0-1.137.445 1.579 1.579 0 0 0-.445 1.168c0 .474.14.848.418 1.122.302.283.706.431 1.12.41a1.957 1.957 0 0 0 1.113-.351l.002.615zM63.406 53.67h-3.194c.012.45.148.799.407 1.044.259.244.615.365 1.068.362a2.39 2.39 0 0 0 1.406-.439v.605c-.398.258-.923.387-1.574.387-.639 0-1.141-.184-1.507-.552-.365-.367-.548-.884-.548-1.55a2.074 2.074 0 0 1 .599-1.54c.393-.393.93-.608 1.486-.594.593 0 1.05.171 1.374.514.324.342.485.818.485 1.426l-.002.337zm-.742-.548a1.228 1.228 0 0 0-.302-.873 1.09 1.09 0 0 0-.828-.312 1.242 1.242 0 0 0-.87.328 1.424 1.424 0 0 0-.442.857h2.442z"/>
        <path fill="#000" d="M26.873 40.43a6.263 6.263 0 0 0-1.138-.782c-.419-.228-.87-.448-1.338-.655a43.38 43.38 0 0 1-1.19-.546 5.312 5.312 0 0 1-.848-.495 1.711 1.711 0 0 1-.484-.516 1.288 1.288 0 0 1-.154-.648c-.009-.237.06-.47.197-.664.147-.197.336-.359.553-.473.256-.134.532-.228.816-.278.314-.06.632-.09.95-.09 1.148 0 2.097.228 2.82.675l.37.228v-2.115l-.14-.065c-.622-.293-1.573-.435-2.896-.435-.573 0-1.145.064-1.704.192a5.197 5.197 0 0 0-1.513.594 3.41 3.41 0 0 0-1.1 1.04 2.898 2.898 0 0 0-.153 2.75c.185.354.436.67.738.932.327.281.685.524 1.067.725.396.213.827.425 1.28.63.427.193.828.378 1.195.552.324.15.634.327.927.529.226.153.42.346.575.57.131.204.198.442.19.683.023.457-.2.89-.584 1.138-.419.281-1.078.423-1.959.423a5.715 5.715 0 0 1-.847-.07 7.726 7.726 0 0 1-.925-.2 6.18 6.18 0 0 1-.87-.315 3.304 3.304 0 0 1-.687-.406l-.388-.305v2.236l.12.07c.23.132.473.234.727.305.301.089.607.161.917.216.318.057.634.102.941.132.308.03.573.046.783.046a9.252 9.252 0 0 0 1.802-.17 4.983 4.983 0 0 0 1.544-.566 3.16 3.16 0 0 0 1.09-1.046 2.914 2.914 0 0 0 .417-1.586 2.591 2.591 0 0 0-.306-1.264 3.648 3.648 0 0 0-.795-.976zM35.247 36.885c-1.242 0-2.247.415-2.995 1.233v-1.04h-1.967V49.65h1.967v-4.621c.66.668 1.522 1.007 2.57 1.007 1.373 0 2.474-.448 3.268-1.33.794-.882 1.193-2.049 1.193-3.489 0-1.3-.364-2.357-1.067-3.142-.703-.786-1.71-1.19-2.97-1.19zm2.036 4.308c0 1.031-.242 1.842-.708 2.41-.466.566-1.09.833-1.925.833-.707 0-1.272-.211-1.726-.648a2.073 2.073 0 0 1-.672-1.571v-1.156a2.515 2.515 0 0 1 .718-1.848c.484-.492 1.105-.731 1.906-.731.75 0 1.324.23 1.756.705.432.473.65 1.152.65 2.006zM47.582 42.091c0 .712-.207 1.268-.632 1.702a2.142 2.142 0 0 1-1.613.643c-1.364 0-2-.755-2-2.377v-4.98H41.38v5.19c0 2.5 1.195 3.767 3.552 3.767 1.115 0 2.003-.363 2.65-1.068v.874h1.968V37.08h-1.967v5.011zM56.65 36.933a2.612 2.612 0 0 0-1.602.54 2.876 2.876 0 0 0-.616.634v-1.026h-1.967v8.762h1.967V41.38c0-.86.197-1.544.584-2.032.388-.487.838-.71 1.397-.71.436 0 .768.077.985.226l.378.26V37.12l-.157-.058a2.885 2.885 0 0 0-.968-.129zM64.09 38.695V37.08h-2.334v-2.53l-1.967.568v1.96h-1.591v1.615h1.591v4.658c0 1.744.925 2.666 2.674 2.666.606 0 1.11-.095 1.49-.284l.135-.066V43.93l-.378.255a1.437 1.437 0 0 1-.831.233c-.414 0-.706-.091-.868-.274-.163-.182-.256-.535-.256-1.027v-4.423h2.334z"/>
        <path fill="#FFF" d="M91.814 25.989c-2.58 0-4.681-1.877-4.681-4.185 0-2.307 2.1-4.185 4.681-4.185 2.58 0 4.68 1.878 4.68 4.185 0 2.308-2.1 4.185-4.68 4.185zm0-7.994c-2.348 0-4.26 1.708-4.26 3.81 0 2.1 1.912 3.808 4.26 3.808s4.26-1.708 4.26-3.809c0-2.1-1.912-3.808-4.26-3.808z"/>
        <path fill="#FFF" d="M93.57 23.65h-.981a1.114 1.114 0 0 1-.116-.204l-.04-.074a2.19 2.19 0 0 1-.086-.186 9.065 9.065 0 0 1-.102-.261 5.395 5.395 0 0 0-.151-.377.809.809 0 0 0-.163-.242.316.316 0 0 0-.23-.097h-.558v1.431h-.882v-3.766h1.529a2.09 2.09 0 0 1 1.096.257c.282.172.423.46.423.864.012.246-.05.489-.18.698-.127.18-.31.314-.522.38.103.081.19.18.256.293.073.121.16.286.26.493.079.18.17.352.272.519l.175.272zm-2.427-1.993c.093.01.286.014.58.014a.727.727 0 0 0 .552-.186.714.714 0 0 0 .121-.757.442.442 0 0 0-.229-.198 1.201 1.201 0 0 0-.484-.076 2.303 2.303 0 0 0-.54.052v1.15z"/>
        <path fill="#264151" d="M101.822 51.068a18.703 18.703 0 0 0 3.798 1.311c1.524.366 3.087.548 4.655.542 1.769 0 3.013-.236 3.733-.707.72-.472 1.08-1.21 1.079-2.215a2.76 2.76 0 0 0-.54-1.725c-.36-.471-.968-.945-1.823-1.422-.856-.478-2.188-1.106-3.997-1.885-2.416-1.048-4.38-2.267-5.89-3.658-1.511-1.39-2.266-3.144-2.266-5.26 0-1.808.507-3.288 1.521-4.438 1.015-1.15 2.381-1.986 4.1-2.507 1.719-.521 3.665-.782 5.837-.782a22.336 22.336 0 0 1 5.103.54c1.534.36 2.66.747 3.378 1.158l-1.122 4.771a15.564 15.564 0 0 0-3.205-1.355 13.743 13.743 0 0 0-3.96-.522c-1.74 0-2.995.255-3.764.764-.769.51-1.154 1.235-1.154 2.176-.016.62.186 1.227.57 1.715.382.478.947.934 1.696 1.367.748.434 1.885 1.003 3.408 1.707 2.072.955 3.723 1.813 4.952 2.574a9.92 9.92 0 0 1 2.956 2.724c.741 1.056 1.112 2.32 1.112 3.79 0 1.684-.468 3.126-1.403 4.326-.936 1.2-2.255 2.111-3.96 2.734-1.704.623-3.679.934-5.923.934a29.705 29.705 0 0 1-4.045-.28 31.586 31.586 0 0 1-3.604-.685c-1.043-.27-1.78-.527-2.211-.771l.97-4.921zM146.574 36.83c1.481.758 2.665 1.905 3.549 3.44.884 1.535 1.328 3.418 1.332 5.648 0 2.344-.522 4.408-1.564 6.194a10.632 10.632 0 0 1-4.402 4.145c-1.891.978-4.074 1.466-6.548 1.466a12.987 12.987 0 0 1-4.079-.616l.086 3.076v7.284h-6.731V35.711h6.268v2.406a10.908 10.908 0 0 1 2.87-1.718c1.122-.471 2.553-.707 4.293-.707 1.71-.022 3.4.368 4.926 1.137zm-3.409 4.714c-.82-.906-2.014-1.359-3.582-1.359a8.586 8.586 0 0 0-2.578.388c-.736.215-1.43.55-2.058.99v11.088a3.72 3.72 0 0 0 1.586.663c.73.13 1.47.192 2.211.183a5.122 5.122 0 0 0 2.913-.846c.849-.564 1.518-1.396 2.007-2.496.489-1.1.733-2.4.733-3.902-.001-2.232-.412-3.801-1.232-4.707v-.002zM179.328 35.711v22.014h-4.445c-.575 0-.992-.074-1.251-.222-.26-.147-.389-.446-.389-.897v-1.002a14.12 14.12 0 0 1-3.42 1.505c-1.217.391-2.485.599-3.764.617-2.244 0-3.956-.375-5.135-1.124a5.41 5.41 0 0 1-2.363-3.105c-.395-1.32-.593-3.02-.593-5.103V35.711h6.732v12.583c0 1.353.133 2.375.4 3.065.265.69.66 1.155 1.185 1.395.525.242 1.255.363 2.19.363a7.413 7.413 0 0 0 2.287-.393c.807-.262 1.418-.536 1.834-.822v-16.19h6.732zM202.635 35.706v6.225a4.248 4.248 0 0 0-1.133-.514c-.425-.126-1.032-.189-1.823-.189-2.072 0-3.899.701-5.481 2.104v14.372h-6.732V35.711h5.97l.302 3.222c.359-.543.895-1.062 1.607-1.556a9.74 9.74 0 0 1 2.482-1.209 9.033 9.033 0 0 1 2.88-.472 76.03 76.03 0 0 1 1.928.01zM209.438 39.878h-2.956v-3.264a40.197 40.197 0 0 0 2.058-.597c.407-.133.79-.331 1.133-.587.34-.262.608-.607.777-1.002.302-.675.841-2.017 1.618-4.027h4.1v5.305h6.668v4.172h-6.668v8.648c0 1.435.087 2.48.26 3.134.172.654.445 1.073.819 1.256.375.18.952.27 1.73.27a9.4 9.4 0 0 0 2.082-.27c.783-.18 1.362-.39 1.737-.626l.82 3.347c-.677.54-1.686 1.023-3.027 1.45a14.375 14.375 0 0 1-4.348.636c-1.655 0-2.974-.224-3.96-.673a4.243 4.243 0 0 1-2.157-2.145c-.452-.981-.679-2.288-.679-3.92l-.007-11.107zM243.264 36.358c1.063.235 1.83.491 2.3.77l-.745 3.427a6.988 6.988 0 0 0-2.3-.992 13.356 13.356 0 0 0-3.147-.324 7.414 7.414 0 0 0-3.414.806c-1.056.537-1.91 1.378-2.562 2.521-.652 1.144-.98 2.584-.983 4.32 0 1.611.298 2.996.893 4.153a6.269 6.269 0 0 0 2.45 2.631 6.835 6.835 0 0 0 3.489.898 14.382 14.382 0 0 0 3.275-.37c1.064-.249 1.9-.53 2.51-.847l.957 2.317c-.751.622-1.8 1.12-3.147 1.493-1.4.381-2.845.57-4.296.561-2.212 0-4.123-.46-5.732-1.38a9.174 9.174 0 0 1-3.667-3.787c-.837-1.606-1.256-3.429-1.256-5.467 0-2.112.444-4.005 1.332-5.68.888-1.676 2.21-2.995 3.967-3.957 1.757-.967 3.898-1.45 6.422-1.45a17.09 17.09 0 0 1 3.654.357zM251.56 40.889a9.254 9.254 0 0 1 3.934-3.641c1.673-.828 3.573-1.242 5.7-1.242 2.454 0 4.474.495 6.061 1.483a8.816 8.816 0 0 1 3.489 3.966c.737 1.656 1.106 3.52 1.106 5.596 0 2.26-.474 4.194-1.424 5.802a9.179 9.179 0 0 1-3.934 3.641c-1.673.822-3.58 1.233-5.721 1.232-2.439 0-4.452-.495-6.04-1.483a8.812 8.812 0 0 1-3.49-3.965c-.737-1.655-1.105-3.521-1.105-5.597 0-2.261.474-4.192 1.424-5.792zm14.877 2.055c-.447-1.217-1.133-2.178-2.058-2.881-.924-.704-2.08-1.055-3.467-1.055-1.97 0-3.47.644-4.498 1.934s-1.542 3.133-1.542 5.532c-.02 1.433.21 2.858.68 4.212.454 1.254 1.14 2.245 2.058 2.972.919.728 2.06 1.09 3.425 1.088 1.97 0 3.473-.667 4.509-2 1.035-1.334 1.553-3.212 1.553-5.635.007-1.558-.213-2.946-.66-4.164v-.003zM310.24 36.813c1.007.537 1.748 1.409 2.223 2.615.476 1.207.713 2.835.713 4.886v13.391h-4.678V44.447c0-1.243-.114-2.216-.34-2.918a2.556 2.556 0 0 0-1.298-1.547c-.638-.329-1.566-.494-2.784-.494-.865 0-1.844.172-2.936.516a13.17 13.17 0 0 0-2.998 1.358c.135.976.2 1.961.191 2.946v13.397h-4.682V44.447c0-1.243-.117-2.216-.35-2.918a2.595 2.595 0 0 0-1.31-1.547c-.638-.329-1.56-.494-2.764-.494-.837 0-1.812.198-2.925.596a11.448 11.448 0 0 0-3.026 1.613v16.008h-4.683V36.022h4.169l.022 2.538a21.334 21.334 0 0 1 3.902-1.763 13.453 13.453 0 0 1 4.434-.788c1.602 0 2.903.201 3.903.604a4.455 4.455 0 0 1 2.286 2.01c1.078-.7 2.442-1.31 4.094-1.832a15.887 15.887 0 0 1 4.796-.784c1.688 0 3.035.268 4.042.806zM353.14 36.813c1.007.537 1.748 1.409 2.223 2.615.475 1.207.713 2.835.713 4.886v13.391h-4.679V44.447c0-1.243-.113-2.216-.34-2.918a2.557 2.557 0 0 0-1.297-1.547c-.639-.329-1.567-.494-2.785-.494-.865 0-1.843.172-2.935.516-1.052.326-2.06.783-2.998 1.36.135.976.199 1.96.19 2.945v13.396h-4.681V44.447c0-1.243-.117-2.216-.351-2.918a2.595 2.595 0 0 0-1.308-1.547c-.638-.329-1.56-.494-2.764-.494-.837 0-1.812.198-2.925.596a11.448 11.448 0 0 0-3.026 1.613v16.008h-4.685V36.022h4.17l.021 2.538a21.334 21.334 0 0 1 3.903-1.763 13.453 13.453 0 0 1 4.434-.788c1.602 0 2.902.201 3.902.604a4.456 4.456 0 0 1 2.287 2.01c1.077-.7 2.442-1.31 4.094-1.832a15.89 15.89 0 0 1 4.796-.784c1.687 0 3.034.268 4.041.806zM382.428 46.075c-.02.478-.084.953-.191 1.418h-14.952c.017.127.024.254.022.381.242 4.463 2.709 6.694 7.4 6.694.851 0 1.929-.12 3.234-.362s2.24-.514 2.807-.817l.893 2.396c-.78.57-1.963 1.036-3.551 1.397-1.52.353-3.076.535-4.636.541-2.283 0-4.226-.43-5.828-1.29a8.588 8.588 0 0 1-3.658-3.748c-.837-1.635-1.255-3.598-1.255-5.89 0-2.08.415-3.933 1.244-5.56a9.177 9.177 0 0 1 3.68-3.836c1.624-.935 3.591-1.403 5.903-1.404 1.527-.02 3.042.281 4.444.885a7.417 7.417 0 0 1 3.2 2.66c.802 1.18 1.231 2.6 1.288 4.262-.001.98-.016 1.738-.044 2.273zm-4.296-2.175c0-1.465-.363-2.652-1.09-3.564-.726-.911-1.976-1.367-3.752-1.367-1.573 0-2.882.453-3.924 1.357-1.043.905-1.692 2.367-1.947 4.386h10.677c.024-.366.036-.635.036-.809V43.9zM402.23 36.022v4.422a3.603 3.603 0 0 0-1.158-.554c-.475-.142-1.152-.213-2.031-.213a7.534 7.534 0 0 0-2.989.585c-.84.345-1.62.823-2.307 1.416v16.028h-4.679V36.022h3.936l.318 2.653c.312-.368.818-.76 1.52-1.178a11.629 11.629 0 0 1 2.404-1.06 8.576 8.576 0 0 1 2.627-.433c1.133.001 1.92.008 2.36.018zM421.309 36.358c1.063.235 1.83.491 2.3.77l-.745 3.427a6.99 6.99 0 0 0-2.3-.992 13.359 13.359 0 0 0-3.147-.324 7.414 7.414 0 0 0-3.413.806c-1.057.541-1.91 1.382-2.56 2.521-.651 1.14-.977 2.58-.979 4.318 0 1.612.298 2.996.894 4.154a6.27 6.27 0 0 0 2.445 2.631 6.835 6.835 0 0 0 3.488.898 14.385 14.385 0 0 0 3.276-.37c1.064-.25 1.9-.531 2.51-.847l.957 2.317c-.751.622-1.8 1.12-3.147 1.493-1.4.38-2.846.57-4.296.561-2.212 0-4.123-.46-5.732-1.38a9.174 9.174 0 0 1-3.669-3.79c-.837-1.606-1.255-3.428-1.255-5.466 0-2.112.444-4.006 1.331-5.681.888-1.676 2.21-2.995 3.967-3.957 1.758-.967 3.899-1.45 6.423-1.45a17.09 17.09 0 0 1 3.652.361zM447.916 46.075c-.02.478-.084.953-.19 1.418h-14.953c.017.127.024.254.022.381.242 4.463 2.71 6.694 7.401 6.694.85 0 1.928-.12 3.233-.362 1.305-.242 2.24-.514 2.807-.817l.894 2.396c-.78.57-1.964 1.036-3.552 1.397-1.52.353-3.075.535-4.636.541-2.283 0-4.225-.43-5.827-1.29a8.588 8.588 0 0 1-3.658-3.748c-.837-1.635-1.256-3.598-1.256-5.89 0-2.08.415-3.933 1.245-5.56a9.177 9.177 0 0 1 3.68-3.836c1.623-.935 3.59-1.403 5.902-1.404 1.527-.02 3.042.281 4.445.885a7.417 7.417 0 0 1 3.2 2.66c.802 1.18 1.23 2.6 1.287 4.262 0 .98-.014 1.738-.044 2.273zM443.62 43.9c0-1.465-.363-2.652-1.089-3.564-.726-.911-1.977-1.367-3.752-1.367-1.574 0-2.882.453-3.925 1.357-1.042.905-1.691 2.367-1.946 4.386h10.676c.024-.366.036-.635.036-.809V43.9z"/>
    </g>
</svg>
