<svg width="32" height="32" viewBox="0 0 32 32" xmlns="http://www.w3.org/2000/svg">
    <g fill="none" fill-rule="evenodd">
        <path d="M29 16a13.02 13.02 0 0 1-11.444 12.907.5.5 0 0 1-.556-.5V19h3a1 1 0 0 0 1-1.066A1.021 1.021 0 0 0 19.969 17H17v-3a2 2 0 0 1 2-2h2a1 1 0 0 0 1-1.066A1.021 1.021 0 0 0 20.966 10H19a4 4 0 0 0-4 4v3h-3a1 1 0 0 0-1 1.066c.046.535.497.943 1.034.934H15v9.41a.5.5 0 0 1-.555.5A13.019 13.019 0 0 1 3.009 15.511c.25-6.75 5.717-12.237 12.472-12.5A13.015 13.015 0 0 1 29 16z" fill="#231616" fill-rule="nonzero"/>
        <path d="M0 0h32v32H0z"/>
    </g>
</svg>
