<svg xmlns="http://www.w3.org/2000/svg" width="12" height="16.002" viewBox="0 0 12 16.002">
  <g id="placeholder_4_" data-name="placeholder (4)" transform="translate(0 0.001)">
    <path id="Path_464" data-name="Path 464" d="M18.462,5.738a5.874,5.874,0,0,0-6-5.738,5.874,5.874,0,0,0-6,5.738A7.324,7.324,0,0,0,7.592,9.09c.939,1.814,2.67,4.669,3.581,6.215a1.677,1.677,0,0,0,2.719,0c.892-1.545,2.415-4.026,3.453-6.235a7.867,7.867,0,0,0,1.117-3.332Zm-6-1.878a1.924,1.924,0,0,1,1.967,1.878,1.969,1.969,0,0,1-3.934,0A1.924,1.924,0,0,1,12.462,3.86Z" transform="translate(-6.462)" fill="#239323"/>
  </g>
</svg>
