<svg width="32" height="32" viewBox="0 0 32 32" xmlns="http://www.w3.org/2000/svg">
    <g fill="none" fill-rule="evenodd">
        <path d="m30.707 9.707-3.737 3.738C26.215 22.198 18.834 29 10 29c-1.815 0-3.311-.288-4.447-.855-.917-.459-1.292-.95-1.385-1.09a1 1 0 0 1 .48-1.491c.033-.013 3.03-1.164 4.934-3.355a13.866 13.866 0 0 1-2.735-3.025c-1.55-2.302-3.285-6.299-2.75-12.273a1 1 0 0 1 1.707-.615c.043.044 4.16 4.138 9.192 5.465V11a5.984 5.984 0 0 1 1.795-4.287A5.859 5.859 0 0 1 21.012 5a6.083 6.083 0 0 1 5.184 3H30a1 1 0 0 1 .707 1.707z" fill="#231616" fill-rule="nonzero"/>
        <path d="M0 0h32v32H0z"/>
    </g>
</svg>
