<svg id="CMS" xmlns="http://www.w3.org/2000/svg" width="21" height="21" viewBox="0 0 21 21">
  <g id="banner-ico" transform="translate(-471 -86)">
    <g id="Group_35" data-name="Group 35" transform="translate(471 86)">
      <path id="Shape" d="M18.882,0H2.118A2.119,2.119,0,0,0,0,2.119V18.881A2.119,2.119,0,0,0,2.118,21H18.882A2.119,2.119,0,0,0,21,18.881V2.1A2.119,2.119,0,0,0,18.882,0ZM9.441,17.791A1.271,1.271,0,0,1,8.17,19.063H3.206a1.271,1.271,0,0,1-1.271-1.272V12.857a1.271,1.271,0,0,1,1.271-1.272h4.93a1.271,1.271,0,0,1,1.271,1.272Zm0-9.665A1.271,1.271,0,0,1,8.17,9.4H3.206A1.271,1.271,0,0,1,1.936,8.126V3.192A1.271,1.271,0,0,1,3.206,1.92h4.93A1.271,1.271,0,0,1,9.407,3.192Zm8.327,7.363H15.651v2.12a.318.318,0,1,1-.635,0v-2.12H12.9a.318.318,0,0,1,0-.636h2.118v-2.12a.318.318,0,1,1,.635,0v2.12h2.118a.318.318,0,0,1,0,.636Zm1.309-7.363A1.271,1.271,0,0,1,17.806,9.4H12.863a1.271,1.271,0,0,1-1.271-1.272V3.192A1.271,1.271,0,0,1,12.863,1.92h4.926A1.271,1.271,0,0,1,19.06,3.192Z" fill="#b282e7"/>
    </g>
  </g>
</svg>
