<svg width="54" height="32" viewBox="0 0 54 32" xmlns="http://www.w3.org/2000/svg">
    <g fill="none" fill-rule="evenodd">
        <g fill="#FFF" fill-rule="nonzero">
            <path d="m13.395 1.423 13.396 7.644v15.289L13.395 32 0 24.356V9.067z"/>
            <path d="M0 24.424.006 9.189 13.422 32zM0 9.062l26.779 15.296L13.43 1.423z"/>
            <path d="m13.47 1.468 13.32 7.648-4.915 7.016z"/>
        </g>
        <g transform="translate(1.228 10.532)">
            <ellipse fill="#008200" fill-rule="nonzero" cx="7.529" cy="15.725" rx="1.228" ry="1.213"/>
            <ellipse fill="#028400" fill-rule="nonzero" cx="17.841" cy="15.725" rx="1.228" ry="1.213"/>
            <path stroke="#008200" stroke-width=".5" stroke-linecap="square" d="M0 .356h2.946"/>
            <path stroke="#027600" stroke-width=".5" stroke-linecap="square" d="m2.946.356 2.783 13.428"/>
            <path stroke="#028400" stroke-width=".5" stroke-linecap="square" d="M5.238 10.548h14.575M5.892 13.784h14.576M13.91 11.761h5.74M9.406 12.732h9.425"/>
            <path d="M6.51 9.531a.847.847 0 0 0 .29-.05.594.594 0 0 0 .24-.162l-.188-.187a.49.49 0 0 1-.147.115.429.429 0 0 1-.192.04.42.42 0 0 1-.327-.137.458.458 0 0 1-.091-.15.511.511 0 0 1-.033-.182c0-.064.01-.126.028-.185a.482.482 0 0 1 .083-.157.386.386 0 0 1 .135-.108.43.43 0 0 1 .19-.04.438.438 0 0 1 .348.155l.2-.18a.645.645 0 0 0-.243-.165.809.809 0 0 0-.293-.054c-.11 0-.21.018-.299.054a.672.672 0 0 0-.379.38.792.792 0 0 0-.052.294.78.78 0 0 0 .053.293.65.65 0 0 0 .381.374c.09.035.188.052.296.052zm1.432 0a.747.747 0 0 0 .685-.44.706.706 0 0 0 .058-.285.696.696 0 0 0-.058-.282.736.736 0 0 0-.685-.443.747.747 0 0 0-.527.213.736.736 0 0 0-.158.23.696.696 0 0 0-.057.282.706.706 0 0 0 .215.514.749.749 0 0 0 .527.211zm0-.244a.484.484 0 0 1-.191-.037.423.423 0 0 1-.236-.25.56.56 0 0 1-.033-.194c0-.07.011-.134.033-.193a.423.423 0 0 1 .236-.25.484.484 0 0 1 .191-.037c.07 0 .135.012.192.036a.423.423 0 0 1 .235.25.56.56 0 0 1 .033.194.56.56 0 0 1-.033.194.423.423 0 0 1-.236.25.484.484 0 0 1-.19.037zm1.34.21V8.78c0-.078.01-.145.03-.202a.402.402 0 0 1 .08-.142.324.324 0 0 1 .116-.083.352.352 0 0 1 .137-.027c.065 0 .116.011.155.033a.226.226 0 0 1 .088.094.42.42 0 0 1 .041.14c.007.055.01.115.01.181v.722h.266v-.754c0-.122.027-.222.082-.3.055-.077.147-.116.274-.116.065 0 .117.011.156.033.04.023.07.052.092.09.021.036.036.079.042.127.007.049.01.1.01.152v.768h.266v-.803c0-.078-.007-.153-.022-.226a.525.525 0 0 0-.081-.195.425.425 0 0 0-.162-.138.585.585 0 0 0-.265-.053.54.54 0 0 0-.25.064.444.444 0 0 0-.192.192.479.479 0 0 0-.174-.192.499.499 0 0 0-.262-.064c-.063 0-.12.01-.173.028a.585.585 0 0 0-.135.067.468.468 0 0 0-.095.083.227.227 0 0 0-.045.073h-.006v-.216h-.248v1.38h.266zm2.51 0V8.78c0-.078.01-.145.03-.202a.402.402 0 0 1 .08-.142.324.324 0 0 1 .116-.083.352.352 0 0 1 .137-.027c.065 0 .117.011.155.033a.226.226 0 0 1 .088.094.42.42 0 0 1 .041.14c.007.055.01.115.01.181v.722h.266v-.754c0-.122.027-.222.082-.3.055-.077.147-.116.274-.116.065 0 .117.011.157.033.039.023.07.052.09.09.023.036.037.079.044.127.007.049.01.1.01.152v.768h.265v-.803c0-.078-.007-.153-.022-.226a.525.525 0 0 0-.081-.195.425.425 0 0 0-.162-.138.585.585 0 0 0-.265-.053.54.54 0 0 0-.25.064.444.444 0 0 0-.192.192.479.479 0 0 0-.174-.192.499.499 0 0 0-.262-.064c-.063 0-.12.01-.173.028a.585.585 0 0 0-.135.067.468.468 0 0 0-.094.083.227.227 0 0 0-.046.073h-.006v-.216h-.247v1.38h.265zm2.882.034c.265 0 .472-.094.619-.282l-.2-.151a.69.69 0 0 1-.168.15.399.399 0 0 1-.215.056.544.544 0 0 1-.327-.11.41.41 0 0 1-.105-.127.343.343 0 0 1-.04-.165h1.12V8.81a.96.96 0 0 0-.037-.263.619.619 0 0 0-.33-.4.697.697 0 0 0-.314-.065c-.104 0-.2.019-.289.056a.686.686 0 0 0-.378.382.805.805 0 0 0-.004.574.651.651 0 0 0 .37.383c.089.037.188.055.298.055zm.4-.838h-.836c0-.047.01-.094.031-.141a.437.437 0 0 1 .402-.261c.067 0 .125.01.176.03a.346.346 0 0 1 .2.212.547.547 0 0 1 .028.16zm.867.803v-.693c0-.151.034-.263.103-.334.069-.072.168-.108.298-.108.021 0 .043.002.065.006a.777.777 0 0 1 .064.014l.012-.282a.375.375 0 0 0-.118-.018.525.525 0 0 0-.348.147.374.374 0 0 0-.07.1h-.006v-.212h-.265v1.38h.265zm1.435.035a.847.847 0 0 0 .29-.05.594.594 0 0 0 .24-.162l-.188-.187a.49.49 0 0 1-.148.115.429.429 0 0 1-.191.04.42.42 0 0 1-.327-.137.458.458 0 0 1-.092-.15.511.511 0 0 1-.032-.182c0-.064.01-.126.028-.185a.482.482 0 0 1 .083-.157.386.386 0 0 1 .135-.108.43.43 0 0 1 .19-.04.438.438 0 0 1 .348.155l.2-.18a.645.645 0 0 0-.243-.165.809.809 0 0 0-.293-.054c-.11 0-.21.018-.3.054a.672.672 0 0 0-.379.38.792.792 0 0 0-.052.294.78.78 0 0 0 .053.293.65.65 0 0 0 .382.374c.09.035.188.052.296.052zm1.393 0c.266 0 .472-.094.62-.282l-.201-.151a.69.69 0 0 1-.168.15.399.399 0 0 1-.215.056.544.544 0 0 1-.327-.11.41.41 0 0 1-.105-.127.343.343 0 0 1-.04-.165h1.12V8.81a.96.96 0 0 0-.037-.263.619.619 0 0 0-.33-.4.697.697 0 0 0-.314-.065c-.104 0-.2.019-.288.056a.686.686 0 0 0-.379.382.805.805 0 0 0-.004.574.651.651 0 0 0 .37.383c.089.037.188.055.298.055zm.401-.838h-.837c0-.047.01-.094.031-.141a.437.437 0 0 1 .403-.261c.066 0 .125.01.175.03a.346.346 0 0 1 .2.212.547.547 0 0 1 .028.16z" fill="#008200" fill-rule="nonzero"/>
            <path stroke="#008200" stroke-width=".533" stroke-linecap="square" d="m19.969 10.386 2.946-9.221"/>
            <path d="M6.315 6.042c.204 0 .402-.027.595-.081.192-.055.363-.138.513-.25.149-.113.268-.256.356-.429.088-.173.133-.378.133-.614a.989.989 0 0 0-.124-.516 1.182 1.182 0 0 0-.312-.346 1.659 1.659 0 0 0-.419-.225c-.153-.056-.3-.107-.442-.154a5.807 5.807 0 0 1-.265-.09 1.161 1.161 0 0 1-.203-.096.391.391 0 0 1-.13-.123.321.321 0 0 1-.044-.174c0-.082.019-.149.056-.201a.457.457 0 0 1 .138-.128.529.529 0 0 1 .186-.067.965.965 0 0 1 .607.079c.14.063.252.15.339.258l.642-.67a1.863 1.863 0 0 0-.645-.378 2.189 2.189 0 0 0-1.305-.055 1.604 1.604 0 0 0-.519.23 1.22 1.22 0 0 0-.371.402c-.094.163-.142.359-.142.588 0 .186.03.345.092.475.06.13.141.24.241.332.1.09.215.166.342.224.128.058.258.109.392.151.138.043.26.083.368.12.108.037.199.077.271.122a.573.573 0 0 1 .168.148c.04.055.06.12.06.198a.436.436 0 0 1-.048.21.38.38 0 0 1-.127.14.547.547 0 0 1-.185.076c-.07.015-.144.023-.218.023-.165 0-.331-.042-.498-.125a1.217 1.217 0 0 1-.404-.312l-.66.664c.185.19.417.337.696.44.278.103.567.154.866.154zm3.307 1.293V5.617h.012c.09.124.216.222.377.294.16.072.332.108.512.108a1.313 1.313 0 0 0 1.029-.469c.12-.142.21-.306.274-.492a1.81 1.81 0 0 0-.003-1.162 1.507 1.507 0 0 0-.277-.486 1.302 1.302 0 0 0-1.017-.455c-.216 0-.403.044-.563.131-.159.088-.283.19-.374.306h-.017v-.355h-.92v4.298h.967zm.671-2.108a.656.656 0 0 1-.515-.233.771.771 0 0 1-.192-.513.776.776 0 0 1 .192-.512.656.656 0 0 1 .516-.233.655.655 0 0 1 .645.466.868.868 0 0 1-.13.792.637.637 0 0 1-.516.233zm3.402.792c.102 0 .2-.014.291-.04.093-.028.177-.063.254-.106a.872.872 0 0 0 .339-.338h.011v.402h.931v-2.9h-.966v1.567a.734.734 0 0 1-.133.436.444.444 0 0 1-.386.187.42.42 0 0 1-.218-.05.372.372 0 0 1-.132-.137.578.578 0 0 1-.068-.198 1.476 1.476 0 0 1-.018-.233V3.037h-.972V4.83c0 .147.019.292.056.434.037.141.098.268.183.378.084.11.194.201.33.271.135.07.301.105.498.105zm3.678-.082v-1.49a.715.715 0 0 1 .15-.42.664.664 0 0 1 .54-.239c.039 0 .079.002.12.006a.76.76 0 0 1 .127.023l.041-.838a.447.447 0 0 0-.091-.018 1.11 1.11 0 0 0-.115-.006.83.83 0 0 0-.477.14.945.945 0 0 0-.319.361h-.011v-.42h-.931v2.901h.966zm2.647.07a1.814 1.814 0 0 0 .56-.087l-.012-.7a.52.52 0 0 1-.133.036 1.04 1.04 0 0 1-.15.012c-.137 0-.233-.034-.286-.102-.053-.068-.08-.17-.08-.306V3.753h.69v-.716h-.69v-.763h-.948v.763h-.465v.716h.471v1.223c0 .156.018.296.053.423a.819.819 0 0 0 .174.326c.08.091.187.16.321.21.134.048.299.072.495.072z" fill="#008200" fill-rule="nonzero"/>
        </g>
        <g transform="translate(29.52)" fill-rule="nonzero">
            <rect fill="#FFF" width="24.48" height="12.81" rx="6.399"/>
            <text transform="translate(5.04 .716)" fill="#027600" font-family="Montserrat-Medium, Montserrat" font-size="9.244" font-weight="400">
                            <tspan x="0" y="9">4.7</tspan>
                        </text>
        </g>
    </g>
</svg>
