<svg xmlns="http://www.w3.org/2000/svg" width="40" height="40" viewBox="0 0 40 40">
    <g data-name="Icon ionic-md-chatbubbles">
        <path data-name="Path 5215" d="M11.529 31.25a5.019 5.019 0 0 1-4.308-4.308V11.25H6.3a2.934 2.934 0 0 0-2.923 2.923v26.308L9 34.9h20.683a2.97 2.97 0 0 0 2.923-2.971v-.679z" transform="translate(-3.375 -.481)" style="fill:#2d2f33"/>
        <path data-name="Path 5216" d="M38.288 3.375H11.442a3.365 3.365 0 0 0-3.356 3.356v21.74a3.373 3.373 0 0 0 3.356 3.365h22.9l7.3 5.1V6.731a3.365 3.365 0 0 0-3.354-3.356z" transform="translate(-1.644 -3.375)" style="fill:#2d2f33"/>
    </g>
</svg>
