<svg xmlns="http://www.w3.org/2000/svg" width="32" height="18" viewBox="0 0 32 18">
  <g id="delivery-truck" transform="translate(0 -112)">
    <g id="Group_648" data-name="Group 648" transform="translate(0 114)">
      <path id="Path_164" data-name="Path 164" d="M8,145a1,1,0,0,0-1-1H1a1,1,0,0,0,0,2H7A1,1,0,0,0,8,145Z" transform="translate(0 -144)" fill="#ffc107"/>
      <path id="Path_165" data-name="Path 165" d="M37,208H33a1,1,0,0,0,0,2h4a1,1,0,0,0,0-2Z" transform="translate(-30 -204)" fill="#ffc107"/>
      <path id="Path_166" data-name="Path 166" d="M67,272H65a1,1,0,0,0,0,2h2a1,1,0,1,0,0-2Z" transform="translate(-60 -264)" fill="#ffc107"/>
    </g>
    <path id="Path_167" data-name="Path 167" d="M331.858,181.486l-3-5A1,1,0,0,0,328,176h-7a1,1,0,0,0-1,1v10a1,1,0,0,0,1,1h10a1,1,0,0,0,1-1v-5A.985.985,0,0,0,331.858,181.486Z" transform="translate(-300 -60)" fill="#2874f0"/>
    <path id="Path_168" data-name="Path 168" d="M384,208h3.434l2.4,4H384Z" transform="translate(-360 -90)" fill="#fafafa"/>
    <path id="Path_169" data-name="Path 169" d="M111,112H97a1,1,0,0,0-1,1v14a1,1,0,0,0,1,1h15V113A1,1,0,0,0,111,112Z" transform="translate(-90)" fill="#ffc107"/>
    <ellipse id="Ellipse_198" data-name="Ellipse 198" cx="2.087" cy="1.739" rx="2.087" ry="1.739" transform="translate(25.043 125.217)" fill="#fafafa"/>
    <path id="Path_170" data-name="Path 170" d="M387,310a3,3,0,1,1,3-3A3,3,0,0,1,387,310Zm0-4a1,1,0,1,0,1,1A1,1,0,0,0,387,306Z" transform="translate(-360 -180)" fill="#4b90ff"/>
    <path id="Path_171" data-name="Path 171" d="M112,308H97a1,1,0,0,1-1-1v-3h16Z" transform="translate(-90 -180)" fill="#2874f0"/>
    <ellipse id="Ellipse_199" data-name="Ellipse 199" cx="2.087" cy="1.739" rx="2.087" ry="1.739" transform="translate(11.13 125.217)" fill="#fafafa"/>
    <path id="Path_172" data-name="Path 172" d="M163,310a3,3,0,1,1,3-3A3,3,0,0,1,163,310Zm0-4a1,1,0,1,0,1,1A1,1,0,0,0,163,306Z" transform="translate(-150 -180)" fill="#4b90ff"/>
  </g>
</svg>
