<svg xmlns="http://www.w3.org/2000/svg" width="18" height="17" viewBox="0 0 18 17">
    <g fill="none" fill-rule="evenodd">
        <g fill="#D3D3D3" fill-rule="nonzero">
            <g>
                <path d="M2.888 5.434H.578C.26 5.434 0 5.692 0 6.01v10.396c0 .32.259.578.578.578h2.31c.319 0 .577-.259.577-.578V6.011c0-.319-.26-.577-.577-.577zM16.249 5.434c-.093-.016-4.448 0-4.448 0l.608-1.66c.42-1.146.148-2.896-1.017-3.519-.379-.202-.909-.304-1.336-.197-.245.062-.46.224-.588.442-.148.25-.133.541-.185.818-.134.703-.466 1.372-.98 1.873C7.406 4.066 4.62 6.59 4.62 6.59v9.24h9.626c1.299.002 2.15-1.449 1.51-2.582.763-.489 1.024-1.52.577-2.31.764-.49 1.025-1.52.577-2.31 1.318-.844.878-2.933-.662-3.193z" transform="translate(-1050 -1638) matrix(1 0 0 -1 1050 1655)"/>
            </g>
        </g>
    </g>
</svg>
