<svg xmlns="http://www.w3.org/2000/svg" width="114.258" height="98.097" viewBox="0 0 114.258 98.097">
  <g id="Group_198" data-name="Group 198" transform="translate(8003.559 -257.324)">
    <g id="heart" transform="translate(-8003 257.882)">
      <path id="Shape" d="M54.388,96.181l-.143-.121c-4.82-4.091-9.35-7.835-13.727-11.454-11.749-9.714-21.9-18.1-28.951-26.244C3.675,49.255,0,40.761,0,31.628a32.69,32.69,0,0,1,8.256-22.1A29.052,29.052,0,0,1,30.053,0c11.922,0,19.471,6.907,23.7,12.7a42.3,42.3,0,0,1,2.816,4.43,42.3,42.3,0,0,1,2.816-4.43C63.62,6.907,71.169,0,83.087,0a29.069,29.069,0,0,1,21.8,9.527,32.686,32.686,0,0,1,8.252,22.1c0,9.133-3.675,17.628-11.567,26.734-7.05,8.139-17.2,16.53-28.947,26.244C68.245,88.224,63.72,91.968,58.9,96.06l-.148.121a3.382,3.382,0,0,1-4.365,0Z" transform="translate(0 0)" fill="#e0d8c6" stroke="#cec5b0" stroke-miterlimit="10" stroke-width="1.118" opacity="0.52"/>
    </g>
    <g id="Layer_2" data-name="Layer 2" transform="translate(-7977.203 270.57)">
      <g id="Layer_2-2" data-name="Layer 2" transform="translate(0 0)">
        <circle id="Ellipse_11" data-name="Ellipse 11" cx="10.249" cy="10.249" r="10.249" transform="translate(36.368 20.002)" fill="#fff"/>
        <circle id="Ellipse_12" data-name="Ellipse 12" cx="10.249" cy="10.249" r="10.249" transform="translate(2.651 20.002)" fill="#fff"/>
        <path id="Path_15" data-name="Path 15" d="M46.554,163.39A10.248,10.248,0,0,1,31.92,177.256,10.249,10.249,0,1,0,46.554,163.39Z" transform="translate(-27.627 -141.415)" fill="#efefef"/>
        <path id="Path_16" data-name="Path 16" d="M297.244,163.39a10.248,10.248,0,0,1-14.634,13.866,10.249,10.249,0,1,0,14.634-13.866Z" transform="translate(-244.598 -141.415)" fill="#efefef"/>
        <path id="Path_17" data-name="Path 17" d="M26.93,166.67a10.72,10.72,0,1,1,10.72-10.72A10.72,10.72,0,0,1,26.93,166.67Zm0-20.5a9.778,9.778,0,1,0,9.778,9.778A9.778,9.778,0,0,0,26.93,146.17Z" transform="translate(-14.03 -125.697)" fill="#231f20"/>
        <circle id="Ellipse_13" data-name="Ellipse 13" cx="4.966" cy="4.966" r="4.966" transform="translate(7.949 29.888)" fill="#231f20"/>
        <circle id="Ellipse_14" data-name="Ellipse 14" cx="2.032" cy="2.032" r="2.032" transform="translate(9.663 31.92)" fill="#fff"/>
        <path id="Path_18" data-name="Path 18" d="M277.61,166.67a10.72,10.72,0,1,1,10.72-10.72A10.72,10.72,0,0,1,277.61,166.67Zm0-20.5a9.778,9.778,0,1,0,9.778,9.778A9.778,9.778,0,0,0,277.61,146.17Z" transform="translate(-230.993 -125.697)" fill="#231f20"/>
        <circle id="Ellipse_15" data-name="Ellipse 15" cx="4.966" cy="4.966" r="4.966" transform="translate(41.651 29.888)" fill="#231f20"/>
        <circle id="Ellipse_16" data-name="Ellipse 16" cx="2.032" cy="2.032" r="2.032" transform="translate(43.366 31.92)" fill="#fff"/>
        <path id="Path_19" data-name="Path 19" d="M.821,13c2.152,1.529,2.818-2.342,7.77-4.708C12.721,6.315,15.972,7.834,16.327,6S12.658,2.717,6.5,5.286C1.91,7.2-1.682,11.222.821,13Z" transform="translate(0.001 -3.376)" fill="#231f20"/>
        <path id="Path_20" data-name="Path 20" d="M341.736,9.556c-2.287,1.644-3.061-2.459-8.416-4.924-4.465-2.055-7.936-.412-8.339-2.354s3.88-3.525,10.542-.857C340.476,3.407,344.4,7.645,341.736,9.556Z" transform="translate(-281.248 -0.008)" fill="#231f20"/>
        <path id="Path_21" data-name="Path 21" d="M129.308,366.009a.673.673,0,0,1-.574-.323,14.391,14.391,0,0,0-3.344-3.434,19.907,19.907,0,0,0-10.99-3.879c-10.127-.611-16.179,7.285-16.24,7.367a.673.673,0,0,1-1.076-.807,21.155,21.155,0,0,1,4.588-4.2,20.365,20.365,0,0,1,12.807-3.7,21.23,21.23,0,0,1,11.778,4.192,15.289,15.289,0,0,1,3.623,3.766.673.673,0,0,1-.573,1.022Z" transform="translate(-83.91 -308.981)" fill="#231f20"/>
        <path id="Path_22" data-name="Path 22" d="M78.5,397.885a6.44,6.44,0,0,0-.488,5.769.347.347,0,0,0,.414.235.339.339,0,0,0,.235-.414,5.808,5.808,0,0,1,.42-5.246c.229-.369-.352-.706-.581-.339Z" transform="translate(-67.122 -344.238)" fill="#231f20"/>
        <path id="Path_23" data-name="Path 23" d="M344.979,399.116A4.877,4.877,0,0,1,346.216,404c-.135.414.519.592.648.179a5.553,5.553,0,0,0-1.408-5.539C345.145,398.339,344.669,398.814,344.979,399.116Z" transform="translate(-298.492 -344.94)" fill="#231f20"/>
      </g>
    </g>
  </g>
</svg>
