<svg id="google" xmlns="http://www.w3.org/2000/svg" width="24" height="24" viewBox="0 0 24 24">
  <path id="Path_2156" data-name="Path 2156" d="M277.7,211.479h-9.789a.783.783,0,0,0-.783.783v3.127a.783.783,0,0,0,.783.783h5.513a7.36,7.36,0,0,1-3.168,3.712l2.351,4.069a11.767,11.767,0,0,0,6-10.29,7.93,7.93,0,0,0-.135-1.537A.786.786,0,0,0,277.7,211.479Z" transform="translate(-254.609 -201.566)" fill="#167ee6"/>
  <path id="Path_2157" data-name="Path 2157" d="M44.8,337.5a7.3,7.3,0,0,1-6.318-3.655l-4.069,2.345a11.99,11.99,0,0,0,16.387,4.4v-.006l-2.351-4.069A7.25,7.25,0,0,1,44.8,337.5Z" transform="translate(-32.798 -318.198)" fill="#12b347"/>
  <path id="Path_2158" data-name="Path 2158" d="M262,394.854v-.006l-2.351-4.069a7.25,7.25,0,0,1-3.649.987v4.7A11.979,11.979,0,0,0,262,394.854Z" transform="translate(-244 -372.461)" fill="#0f993e"/>
  <path id="Path_2159" data-name="Path 2159" d="M4.7,134.113a7.25,7.25,0,0,1,.986-3.649l-4.069-2.345a11.945,11.945,0,0,0,0,11.989l4.069-2.345A7.25,7.25,0,0,1,4.7,134.113Z" transform="translate(0 -122.113)" fill="#ffd500"/>
  <path id="Path_2160" data-name="Path 2160" d="M44.8,4.7a7.271,7.271,0,0,1,4.637,1.665.78.78,0,0,0,1.049-.047L52.7,4.1a.789.789,0,0,0-.045-1.153A11.974,11.974,0,0,0,34.411,6.006L38.48,8.351A7.3,7.3,0,0,1,44.8,4.7Z" transform="translate(-32.798)" fill="#ff4b26"/>
  <path id="Path_2161" data-name="Path 2161" d="M260.637,6.361a.78.78,0,0,0,1.049-.047L263.9,4.1a.789.789,0,0,0-.045-1.153A11.964,11.964,0,0,0,256,0V4.7A7.271,7.271,0,0,1,260.637,6.361Z" transform="translate(-244)" fill="#d93f21"/>
</svg>
