<svg xmlns="http://www.w3.org/2000/svg" width="16" height="14" viewBox="0 0 16 14">
  <g id="heart" transform="translate(0.5)">
    <path id="Shape" d="M7.691,13.885l-.02-.018c-.682-.59-1.322-1.131-1.941-1.653A36.19,36.19,0,0,1,1.636,8.425,5.852,5.852,0,0,1,0,4.565a4.777,4.777,0,0,1,1.167-3.19A4.053,4.053,0,0,1,7.6,1.834a6.182,6.182,0,0,1,.4.639,6.055,6.055,0,0,1,.4-.639,4.053,4.053,0,0,1,6.435-.459A4.774,4.774,0,0,1,16,4.565a5.854,5.854,0,0,1-1.635,3.86,36.249,36.249,0,0,1-4.094,3.788c-.619.523-1.26,1.063-1.941,1.653l-.021.018a.473.473,0,0,1-.618,0Z" transform="translate(-0.5)" fill="#ee2e0f"/>
  </g>
</svg>
