<svg xmlns="http://www.w3.org/2000/svg" width="20.006" height="14" viewBox="0 0 20.006 14">
  <g id="list" transform="translate(0 14)">
    <path id="Path" d="M14.226,0H.774A.909.909,0,0,1,0-1,.909.909,0,0,1,.774-2H14.226A.909.909,0,0,1,15-1,.909.909,0,0,1,14.226,0Z" transform="translate(5 -6)" fill="#2874f0"/>
    <path id="Path-2" d="M14.226,0H.774A.909.909,0,0,1,0-1,.909.909,0,0,1,.774-2H14.226A.909.909,0,0,1,15-1,.909.909,0,0,1,14.226,0Z" transform="translate(5)" fill="#2874f0"/>
    <path id="Path-3" d="M14.226,0H.774A.909.909,0,0,1,0-1,.909.909,0,0,1,.774-2H14.226A.909.909,0,0,1,15-1,.909.909,0,0,1,14.226,0Z" transform="translate(5 -12)" fill="#2874f0"/>
    <circle id="Oval" cx="1" cy="1" r="1" transform="translate(0 -2)" fill="#2874f0"/>
    <circle id="Oval-2" cx="1" cy="1" r="1" transform="translate(0 -8)" fill="#2874f0"/>
    <circle id="Oval-3" cx="1" cy="1" r="1" transform="translate(0 -14)" fill="#2874f0"/>
  </g>
</svg>
