<svg xmlns="http://www.w3.org/2000/svg" xmlns:xlink="http://www.w3.org/1999/xlink" width="24" height="24" viewBox="0 0 24 24">
  <defs>
    <clipPath id="clip-path">
      <rect id="Rectangle_1952" data-name="Rectangle 1952" width="24" height="24" transform="translate(32 504)" fill="#fff"/>
    </clipPath>
  </defs>
  <g id="Mask_Group_7" data-name="Mask Group 7" transform="translate(-32 -504)" clip-path="url(#clip-path)">
    <path id="broadcast-fill" d="M16.795,12.8a4,4,0,1,1-4-4,4,4,0,0,1,4,4Zm4,0a7.972,7.972,0,0,0-2.036-5.331.8.8,0,1,0-1.192,1.067,6.4,6.4,0,0,1,0,8.53.8.8,0,1,0,1.192,1.067A7.977,7.977,0,0,0,20.794,12.8ZM8.027,8.531A.8.8,0,1,0,6.835,7.465a7.992,7.992,0,0,0,0,10.664.8.8,0,1,0,1.192-1.067,6.393,6.393,0,0,1,0-8.53Zm15.823-.4A11.944,11.944,0,0,0,21.364,4.4a.8.8,0,1,0-1.142,1.12,10.387,10.387,0,0,1,0,14.551.8.8,0,0,0,1.142,1.124A12.008,12.008,0,0,0,23.85,8.126ZM3.216,16.843A10.387,10.387,0,0,1,5.369,5.52.8.8,0,1,0,4.228,4.4a11.983,11.983,0,0,0,0,16.795.8.8,0,1,0,1.142-1.12,10.358,10.358,0,0,1-2.153-3.231Z" transform="translate(31.207 503.204)" fill="#fff"/>
  </g>
</svg>
