<svg width="12" height="12" viewBox="0 0 12 12" fill="none" xmlns="http://www.w3.org/2000/svg">
<path fill-rule="evenodd" clip-rule="evenodd" d="M6 0C6.3682 0 6.66667 0.29848 6.66667 0.666667V5.33333H11.3333C11.7015 5.33333 12 5.6318 12 6C12 6.3682 11.7015 6.66667 11.3333 6.66667H6.66667V11.3333C6.66667 11.7015 6.3682 12 6 12C5.6318 12 5.33333 11.7015 5.33333 11.3333V6.66667H0.666667C0.29848 6.66667 0 6.3682 0 6C0 5.6318 0.29848 5.33333 0.666667 5.33333H5.33333V0.666667C5.33333 0.29848 5.6318 0 6 0Z" fill="#4D4D4D"/>
</svg>
