<svg width="24" height="24" viewBox="0 0 24 24" fill="none" xmlns="http://www.w3.org/2000/svg">
<g id="layer1">
<path id="path49" d="M5.98473 0.000454752C5.67344 0.00973948 5.378 0.139951 5.16099 0.363363L0.368302 5.15702C0.25638 5.2684 0.167566 5.4007 0.106962 5.54651C0.0463584 5.69232 0.0151601 5.84867 0.0151601 6.00658C0.0151601 6.16449 0.0463584 6.32084 0.106962 6.46665C0.167566 6.61246 0.25638 6.7449 0.368302 6.85627L5.16099 11.6501C5.2706 11.7689 5.4031 11.8641 5.55052 11.9304C5.69793 11.9966 5.85723 12.0323 6.01881 12.0354C6.18039 12.0385 6.34092 12.0088 6.49075 11.9482C6.64057 11.8876 6.7766 11.7974 6.89063 11.6829C7.00467 11.5683 7.09437 11.4319 7.15433 11.2818C7.21428 11.1317 7.24326 10.971 7.23952 10.8094C7.23578 10.6478 7.1994 10.4886 7.13256 10.3414C7.06572 10.1942 6.96981 10.0622 6.8506 9.95304L4.10791 7.20977H22.7802C23.0934 7.20289 23.3915 7.07363 23.6106 6.84963C23.8296 6.62563 23.9523 6.32464 23.9523 6.01129C23.9523 5.69793 23.8296 5.39708 23.6106 5.17308C23.3915 4.94908 23.0934 4.81982 22.7802 4.81294H4.09855L6.8506 2.06026C7.02426 1.89234 7.14313 1.67589 7.19162 1.43922C7.24012 1.20255 7.21597 0.956727 7.12236 0.734023C7.02874 0.511319 6.87002 0.322084 6.66701 0.191183C6.464 0.060281 6.22618 -0.00619826 5.98473 0.000454752ZM17.9852 11.9871C17.7462 11.9871 17.5128 12.0586 17.3147 12.1924C17.1167 12.3261 16.9632 12.5159 16.8739 12.7376C16.7846 12.9592 16.7636 13.2025 16.8136 13.4362C16.8636 13.6699 16.9822 13.8834 17.1544 14.0491L19.8971 16.79H1.22481C1.06524 16.7865 0.906587 16.815 0.758148 16.8736C0.609708 16.9323 0.474476 17.02 0.360387 17.1316C0.246298 17.2433 0.155651 17.3766 0.0937646 17.5237C0.0318784 17.6709 0 17.8289 0 17.9885C0 18.1482 0.0318784 18.3062 0.0937646 18.4533C0.155651 18.6004 0.246298 18.7338 0.360387 18.8454C0.474476 18.957 0.609708 19.0448 0.758148 19.1034C0.906587 19.1621 1.06524 19.1904 1.22481 19.1869H19.9065L17.1544 21.9395C17.0398 22.0503 16.9484 22.1828 16.8857 22.3293C16.8229 22.4758 16.79 22.6334 16.7888 22.7928C16.7877 22.9522 16.8184 23.1102 16.879 23.2576C16.9397 23.405 17.0291 23.5389 17.1421 23.6513C17.2551 23.7637 17.3894 23.8524 17.5371 23.9123C17.6848 23.9721 17.843 24.0019 18.0023 23.9999C18.1617 23.9979 18.319 23.964 18.4651 23.9004C18.6113 23.8368 18.7433 23.7448 18.8534 23.6295L23.6461 18.8428C23.758 18.7314 23.8468 18.5991 23.9074 18.4533C23.968 18.3075 23.9992 18.1511 23.9992 17.9932C23.9992 17.8353 23.968 17.679 23.9074 17.5332C23.8468 17.3873 23.758 17.2549 23.6461 17.1435L18.8534 12.3499C18.7406 12.2339 18.6056 12.1421 18.4564 12.0797C18.3072 12.0173 18.1469 11.9859 17.9852 11.9871Z" fill="#239323"/>
</g>
</svg>
