<svg width="20" height="10" viewBox="0 0 20 10" fill="none" xmlns="http://www.w3.org/2000/svg">
<g id="Group 661">
<g id="Group 659">
<path id="Vector" d="M14.3932 0H5.60676C2.5152 0 0 2.24297 0 5C0 7.75703 2.5152 10 5.60676 10H14.3932C17.4848 10 20 7.75703 20 5C20 2.24297 17.4848 0 14.3932 0ZM14.3932 8.95494H5.60676C3.16137 8.95494 1.17188 7.18079 1.17188 5C1.17188 2.81921 3.16137 1.04506 5.60676 1.04506H14.3932C16.8386 1.04506 18.8281 2.81921 18.8281 5C18.8281 7.18079 16.8386 8.95494 14.3932 8.95494Z" fill="#4D4D4D"/>
</g>
<ellipse id="Ellipse 16" cx="14.2857" cy="5.0958" rx="2.85714" ry="2.54795" fill="#4D4D4D"/>
</g>
</svg>
