<svg width="25" height="24" viewBox="0 0 25 24" xmlns="http://www.w3.org/2000/svg">
    <path d="M24.281 7.875a1.815 1.815 0 0 0-1.812-1.812h-3.625V2.438A1.815 1.815 0 0 0 17.03.625h-14.5C1.531.626.72 1.437.72 2.438v14.5a.906.906 0 0 0 1.476.704l3.961-3.202v3.404c.002 1 .812 1.811 1.813 1.812H18.57l4.234 3.424a.906.906 0 0 0 1.476-.705v-14.5zm-4.82 10.17a.906.906 0 0 0-.57-.201H7.97v-3.625h9.062c1-.001 1.812-.812 1.813-1.813v-4.53h3.625v12.601l-3.008-2.432z" fill="#FFF" fill-rule="nonzero"/>
</svg>
