<svg width="20" height="20" viewBox="0 0 20 20" fill="none" xmlns="http://www.w3.org/2000/svg">
<g id="Group 605">
<path id="Vector" d="M10 19.5C4.76214 19.5 0.5 15.2379 0.5 10C0.5 4.76214 4.76214 0.5 10 0.5C15.2379 0.5 19.5 4.76214 19.5 10C19.5 15.2379 15.238 19.5 10 19.5ZM10 0.75C4.89911 0.75 0.75 4.89911 0.75 10C0.75 15.1009 4.89911 19.25 10 19.25C15.1009 19.25 19.25 15.1009 19.25 10C19.25 4.89911 15.1009 0.75 10 0.75Z" stroke="#565656"/>
<path id="Vector_2" d="M14.6595 6.66351L8.7557 12.818L8.39581 13.1932L8.03495 12.819L5.21482 9.89434C5.16684 9.84458 5.08756 9.84333 5.03816 9.89099C4.98838 9.93901 4.987 10.0182 5.03489 10.0679L8.30588 13.4602C8.30592 13.4602 8.30596 13.4603 8.306 13.4603C8.32967 13.4847 8.36228 13.4985 8.39612 13.4985H8.39613H8.39613H8.39614H8.39614H8.39615H8.39615H8.39615H8.39616H8.39616H8.39617H8.39617H8.39618H8.39618H8.39618H8.39619H8.39619H8.3962H8.3962H8.39621H8.39621H8.39622H8.39622L14.6595 6.66351ZM14.6595 6.66351C14.7075 6.61351 14.7867 6.61218 14.8361 6.65963L14.8362 6.65971M14.6595 6.66351L14.8362 6.65971M14.8362 6.65971C14.8862 6.70764 14.8876 6.78668 14.84 6.83629L14.8399 6.8364M14.8362 6.65971L14.8399 6.8364M14.8399 6.8364L8.48617 13.46L8.48617 13.46M14.8399 6.8364L8.48617 13.46M8.48617 13.46C8.46272 13.4845 8.43021 13.4984 8.39622 13.4985L8.48617 13.46Z" stroke="#565656"/>
</g>
</svg>
