<svg width="14" height="14" viewBox="0 0 14 14" fill="none" xmlns="http://www.w3.org/2000/svg">
<g id="Group">
<path id="Vector" fill-rule="evenodd" clip-rule="evenodd" d="M7 0C3.13906 0 0 3.13906 0 7C0 10.8609 3.13906 14 7 14C10.8609 14 14 10.8609 14 7C14 3.13906 10.8609 0 7 0Z" fill="#078E05"/>
<path id="Vector_2" fill-rule="evenodd" clip-rule="evenodd" d="M10.3853 4.64025C10.5548 4.80978 10.5548 5.08868 10.3853 5.25822L6.28369 9.35978C6.19893 9.44454 6.08682 9.48829 5.97471 9.48829C5.8626 9.48829 5.75049 9.44454 5.66572 9.35978L3.61494 7.309C3.44541 7.13947 3.44541 6.86056 3.61494 6.69103C3.78447 6.5215 4.06338 6.5215 4.23291 6.69103L5.97471 8.43282L9.76728 4.64025C9.93682 4.46798 10.2157 4.46798 10.3853 4.64025Z" fill="white"/>
</g>
</svg>
