<svg width="20" height="20" viewBox="0 0 20 20" fill="none" xmlns="http://www.w3.org/2000/svg">
<g id="Group 1489">
<g id="Group">
<path id="Vector" d="M16.1386 1.53645H15.3926V0.78125C15.3926 0.349766 15.043 0 14.6117 0C14.1804 0 13.8308 0.349766 13.8308 0.78125V1.53645H6.16913V0.78125C6.16913 0.349766 5.81952 0 5.38823 0C4.95693 0 4.60732 0.349766 4.60732 0.78125V1.53645H3.86137C1.7322 1.53645 0 3.26941 0 5.39949V16.1369C0 18.267 1.7322 20 3.86137 20H16.1387C18.2678 20 20 18.267 20 16.1369V5.39949C20 3.26941 18.2678 1.53645 16.1386 1.53645ZM3.86137 3.09895H4.60732V4.62238C4.60732 5.05387 4.95693 5.40363 5.38823 5.40363C5.81952 5.40363 6.16913 5.05387 6.16913 4.62238V3.09895H13.8309V4.62238C13.8309 5.05387 14.1805 5.40363 14.6118 5.40363C15.0431 5.40363 15.3927 5.05387 15.3927 4.62238V3.09895H16.1387C17.4066 3.09895 18.4382 4.13098 18.4382 5.39949V6.14582H1.5618V5.39949C1.5618 4.13098 2.59338 3.09895 3.86137 3.09895ZM16.1386 18.4375H3.86137C2.59338 18.4375 1.5618 17.4055 1.5618 16.1369V7.70832H18.4382V16.1369C18.4382 17.4055 17.4066 18.4375 16.1386 18.4375ZM6.93703 10.7812C6.93703 11.2127 6.58742 11.5625 6.15613 11.5625H4.62036C4.18907 11.5625 3.83946 11.2127 3.83946 10.7812C3.83946 10.3498 4.18907 10 4.62036 10H6.15613C6.58738 10 6.93703 10.3498 6.93703 10.7812ZM16.1606 10.7812C16.1606 11.2127 15.811 11.5625 15.3797 11.5625H13.8439C13.4126 11.5625 13.063 11.2127 13.063 10.7812C13.063 10.3498 13.4126 10 13.8439 10H15.3797C15.8109 10 16.1606 10.3498 16.1606 10.7812ZM11.5444 10.7812C11.5444 11.2127 11.1947 11.5625 10.7634 11.5625H9.22769C8.79639 11.5625 8.44678 11.2127 8.44678 10.7812C8.44678 10.3498 8.79639 10 9.22769 10H10.7634C11.1947 10 11.5444 10.3498 11.5444 10.7812ZM6.93703 15.3906C6.93703 15.8221 6.58742 16.1719 6.15613 16.1719H4.62036C4.18907 16.1719 3.83946 15.8221 3.83946 15.3906C3.83946 14.9591 4.18907 14.6094 4.62036 14.6094H6.15613C6.58738 14.6094 6.93703 14.9591 6.93703 15.3906ZM16.1606 15.3906C16.1606 15.8221 15.811 16.1719 15.3797 16.1719H13.8439C13.4126 16.1719 13.063 15.8221 13.063 15.3906C13.063 14.9591 13.4126 14.6094 13.8439 14.6094H15.3797C15.8109 14.6094 16.1606 14.9591 16.1606 15.3906ZM11.5444 15.3906C11.5444 15.8221 11.1947 16.1719 10.7634 16.1719H9.22769C8.79639 16.1719 8.44678 15.8221 8.44678 15.3906C8.44678 14.9591 8.79639 14.6094 9.22769 14.6094H10.7634C11.1947 14.6094 11.5444 14.9591 11.5444 15.3906Z" fill="#4D4D4D"/>
</g>
</g>
</svg>
