<svg width="20" height="18" viewBox="0 0 20 18" fill="none" xmlns="http://www.w3.org/2000/svg">
<g id="Group 703">
<g id="Group 700">
<g id="Group">
<path id="Vector" d="M3.64113 1.22864C3.64127 1.22912 3.63763 1.23479 3.62978 1.24422C3.63706 1.23288 3.64098 1.22816 3.64113 1.22864ZM3.05051 0.964188L3.1281 1.00731L3.05051 0.964188ZM0.369185 5.96846C0.369171 5.96837 0.37024 5.96672 0.372436 5.96374C0.370297 5.96705 0.369199 5.96854 0.369185 5.96846ZM1.62756 5.96374C1.62976 5.96672 1.63083 5.96838 1.63082 5.96846C1.6308 5.96854 1.6297 5.96704 1.62756 5.96374Z" stroke="#565656" stroke-width="3"/>
</g>
<g id="Group_2">
<path id="Vector_2" d="M18.0024 8.62419C18.0144 8.62031 18.0262 8.61636 18.0377 8.61238L17.8745 9.00378L18.0196 9.35173C17.7724 9.30069 17.5527 9.30259 17.5063 9.303C17.5034 9.30302 17.5011 9.30304 17.4996 9.30304H16.5175C16.5066 9.21926 16.4996 9.1195 16.4996 9.00378C16.4996 8.88805 16.5066 8.78829 16.5175 8.70451H17.4996C17.7242 8.70451 17.9024 8.6565 18.0024 8.62419ZM18.0024 15.8213C18.0248 15.814 18.0464 15.8065 18.0669 15.799C18.0231 15.9125 17.977 16.0232 17.929 16.1312C17.834 16.3449 17.7392 16.4212 17.6967 16.4488C17.6506 16.4786 17.5897 16.5001 17.4996 16.5001H15.5175C15.5066 16.4163 15.4996 16.3166 15.4996 16.2008C15.4996 16.0851 15.5066 15.9854 15.5175 15.9016H17.4996C17.7242 15.9016 17.9024 15.8536 18.0024 15.8213ZM17.9869 2.01022C18.0143 2.07536 18.041 2.14146 18.0669 2.20852C18.0464 2.201 18.0248 2.19354 18.0024 2.1863C17.9024 2.15399 17.7242 2.10598 17.4996 2.10598H15.5175C15.5066 2.0222 15.4996 1.92244 15.4996 1.80671C15.4996 1.69099 15.5066 1.59123 15.5175 1.50745H17.4786C17.4939 1.51399 17.5253 1.53034 17.5749 1.56748C17.6831 1.64862 17.8235 1.79024 17.9869 2.01022ZM17.4676 1.50358C17.4676 1.50345 17.4692 1.5038 17.4725 1.505C17.4693 1.50431 17.4677 1.50371 17.4676 1.50358Z" stroke="#565656" stroke-width="3"/>
</g>
</g>
<ellipse id="Ellipse 17" cx="9.5" cy="16.1999" rx="1.5" ry="1.79999" fill="#565656"/>
</g>
</svg>
