<svg width="19" height="17" viewBox="0 0 19 17" xmlns="http://www.w3.org/2000/svg">
    <path d="M19 10.2v5.44c0 .751-.608 1.36-1.357 1.36H1.357C.607 17 0 16.391 0 15.64V10.2c0-.751.608-1.36 1.357-1.36H4.75a.68.68 0 0 1 0 1.36H1.357v5.44h16.286V10.2H14.25a.68.68 0 0 1 0-1.36h3.393c.75 0 1.357.609 1.357 1.36zm-9.98-.199a.678.678 0 0 0 .96 0l4.072-4.08a.681.681 0 0 0 0-.962.678.678 0 0 0-.96 0l-2.913 2.92V.68a.68.68 0 1 0-1.358 0v7.199L5.91 4.959a.678.678 0 0 0-.96 0 .681.681 0 0 0 0 .962l4.07 4.08zm6.587 2.919a1.016 1.016 0 0 0-1.738-.721 1.022 1.022 0 0 0 .72 1.741c.562 0 1.018-.457 1.018-1.02z" fill="#616060" fill-rule="nonzero"/>
</svg>
