<svg width="12" height="11" viewBox="0 0 12 11" fill="none" xmlns="http://www.w3.org/2000/svg">
<g id="Download">
<path id="Vector" d="M12 9.5V7.5C12 7.36739 11.9473 7.24021 11.8536 7.14645C11.7598 7.05268 11.6326 7 11.5 7C11.3674 7 11.2402 7.05268 11.1464 7.14645C11.0527 7.24021 11 7.36739 11 7.5V9.5C11 9.63261 10.9473 9.75979 10.8536 9.85355C10.7598 9.94732 10.6326 10 10.5 10H1.5C1.36739 10 1.24021 9.94732 1.14645 9.85355C1.05268 9.75979 1 9.63261 1 9.5V7.5C1 7.36739 0.947321 7.24021 0.853553 7.14645C0.759785 7.05268 0.632608 7 0.5 7C0.367392 7 0.240215 7.05268 0.146447 7.14645C0.0526785 7.24021 0 7.36739 0 7.5V9.5C0 9.89782 0.158035 10.2794 0.43934 10.5607C0.720644 10.842 1.10218 11 1.5 11H10.5C10.8978 11 11.2794 10.842 11.5607 10.5607C11.842 10.2794 12 9.89782 12 9.5ZM8.81 6.89L6.31 8.89C6.22173 8.95975 6.11251 8.9977 6 8.9977C5.88749 8.9977 5.77827 8.95975 5.69 8.89L3.19 6.89C3.09891 6.80402 3.04341 6.68697 3.03448 6.56203C3.02556 6.43708 3.06386 6.31334 3.1418 6.21528C3.21975 6.11722 3.33166 6.05199 3.4554 6.03249C3.57913 6.013 3.70568 6.04066 3.81 6.11L5.5 7.46V0.5C5.5 0.367392 5.55268 0.240215 5.64645 0.146447C5.74021 0.0526785 5.86739 0 6 0C6.13261 0 6.25979 0.0526785 6.35355 0.146447C6.44732 0.240215 6.5 0.367392 6.5 0.5V7.46L8.19 6.11C8.24035 6.06247 8.30002 6.02592 8.36523 6.00266C8.43044 5.9794 8.49978 5.96994 8.56884 5.97487C8.6379 5.9798 8.70518 5.99903 8.76643 6.03132C8.82767 6.06362 8.88154 6.10828 8.92462 6.16248C8.96771 6.21668 8.99906 6.27924 9.01671 6.34619C9.03435 6.41314 9.0379 6.48302 9.02712 6.55142C9.01634 6.61981 8.99148 6.68522 8.95411 6.7435C8.91673 6.80179 8.86766 6.85167 8.81 6.89Z" fill="#078E05"/>
</g>
</svg>
