<svg width="15" height="9" viewBox="0 0 15 9" fill="none" xmlns="http://www.w3.org/2000/svg">
<path d="M14.1667 2.25H0.833333C0.61232 2.25 0.400358 2.13147 0.244078 1.92049C0.0877973 1.70952 0 1.42337 0 1.125C0 0.826631 0.0877973 0.540483 0.244078 0.329505C0.400358 0.118527 0.61232 0 0.833333 0H14.1667C14.3877 0 14.5996 0.118527 14.7559 0.329505C14.9122 0.540483 15 0.826631 15 1.125C15 1.42337 14.9122 1.70952 14.7559 1.92049C14.5996 2.13147 14.3877 2.25 14.1667 2.25ZM15 7.875C15 7.57663 14.9122 7.29048 14.7559 7.0795C14.5996 6.86853 14.3877 6.75 14.1667 6.75H0.833333C0.61232 6.75 0.400358 6.86853 0.244078 7.0795C0.0877973 7.29048 0 7.57663 0 7.875C0 8.17337 0.0877973 8.45952 0.244078 8.67049C0.400358 8.88147 0.61232 9 0.833333 9H14.1667C14.3877 9 14.5996 8.88147 14.7559 8.67049C14.9122 8.45952 15 8.17337 15 7.875Z" fill="#EDEDED"/>
</svg>
