<svg width="20" height="20" viewBox="0 0 20 20" fill="none" xmlns="http://www.w3.org/2000/svg">
<g id="Group 1487">
<g id="Group">
<path id="Vector" d="M15.0935 4.9065C15.3223 5.13533 15.6933 5.13533 15.9221 4.9065L17.4846 3.344C17.7134 3.11518 17.7134 2.7442 17.4846 2.51537C17.2558 2.28654 16.8848 2.28654 16.656 2.51537L15.5078 3.66354L14.3596 2.51537C14.1308 2.28654 13.7598 2.28654 13.531 2.51537C13.3022 2.7442 13.3022 3.11518 13.531 3.344L15.0935 4.9065Z" fill="black"/>
<path id="Vector_2" d="M19.4141 0H0.585938C0.262344 0 0 0.262344 0 0.585938V19.4141C0 19.7377 0.262344 20 0.585938 20H14.6484C14.972 20 15.2344 19.7377 15.2344 19.4141V7.42188H19.4141C19.7377 7.42188 20 7.15953 20 6.83594V0.585938C20 0.262344 19.7377 0 19.4141 0ZM1.17188 1.17188H11.0156V6.25H1.17188V1.17188ZM14.0625 18.8281H1.17188V7.42188H14.0625V18.8281ZM18.8281 6.25H12.1875V1.17188H18.8281V6.25Z" fill="black"/>
<path id="Vector_3" d="M2.92969 10.625H12.3047C12.6283 10.625 12.8906 10.3627 12.8906 10.0391C12.8906 9.71547 12.6283 9.45312 12.3047 9.45312H2.92969C2.60609 9.45312 2.34375 9.71547 2.34375 10.0391C2.34375 10.3627 2.60609 10.625 2.92969 10.625Z" fill="black"/>
<path id="Vector_4" d="M2.92969 13.75H12.3047C12.6283 13.75 12.8906 13.4877 12.8906 13.1641C12.8906 12.8405 12.6283 12.5781 12.3047 12.5781H2.92969C2.60609 12.5781 2.34375 12.8405 2.34375 13.1641C2.34375 13.4877 2.60609 13.75 2.92969 13.75Z" fill="black"/>
<path id="Vector_5" d="M2.92969 16.875H12.3047C12.6283 16.875 12.8906 16.6127 12.8906 16.2891C12.8906 15.9655 12.6283 15.7031 12.3047 15.7031H2.92969C2.60609 15.7031 2.34375 15.9655 2.34375 16.2891C2.34375 16.6127 2.60609 16.875 2.92969 16.875Z" fill="black"/>
</g>
</g>
</svg>
