<svg width="12" height="10" viewBox="0 0 12 10" xmlns="http://www.w3.org/2000/svg">
    <path d="M12 .45a.463.463 0 0 0-.114-.291l-.007-.01-.007-.006a.454.454 0 0 0-.07-.06l-.017-.011c-.007-.005-.014-.01-.021-.013l-.019-.01-.02-.01-.022-.008-.02-.008-.023-.006-.02-.006a.46.46 0 0 0-.092-.01L11.538 0H.452a.467.467 0 0 0-.07.007L.362.011.339.017.318.023.296.031l-.02.008-.022.01-.018.01a.463.463 0 0 0-.021.013l-.017.01a.433.433 0 0 0-.07.06L.121.15.114.159a.484.484 0 0 0-.096.178A.475.475 0 0 0 0 .45L0 .46v7.847c0 .51.414.922.923.923h10.154c.51 0 .922-.414.923-.923V.45zM.922 1.51 4.31 4.616.923 7.72V1.51zm.725 6.798 3.345-3.066.695.637a.462.462 0 0 0 .624 0l.695-.637 3.345 3.066H1.648zM7.69 4.615l3.387-3.104v6.21L7.69 4.614z" fill="#223948" fill-rule="nonzero"/>
</svg>
