<svg width="26" height="30" viewBox="0 0 26 30" fill="none" xmlns="http://www.w3.org/2000/svg">
<g id="Group">
<path id="Vector" d="M22.7052 7.36868C22.588 7.09546 22.4231 6.84391 22.2171 6.63069C22.2171 6.63069 16.5153 0.724979 16.5121 0.721581C16.0739 0.267714 15.4478 0 14.828 0H2.36703C1.06184 0 0 1.09506 0 2.44107V27.5589C0 28.9049 1.06184 30 2.36703 30H7.24138C7.58654 30 7.86636 29.7114 7.86636 29.3555C7.86636 28.9995 7.58654 28.7109 7.24138 28.7109H2.36703C1.75109 28.7109 1.24996 28.1941 1.24996 27.5589V2.44107C1.24996 1.80586 1.75109 1.28906 2.36703 1.28906H14.828C14.8626 1.28906 14.8968 1.29152 14.9309 1.29469V7.61377C14.9309 7.96973 15.2107 8.2583 15.5559 8.2583H21.6551C21.658 8.292 21.6598 8.3258 21.6598 8.35955V23.6927C21.6598 24.0487 21.9397 24.3373 22.2848 24.3373C22.63 24.3373 22.9098 24.0487 22.9098 23.6927V8.35955C22.9098 8.01748 22.8383 7.67911 22.7052 7.36868ZM16.1808 2.20541L20.7801 6.96924H16.1808V2.20541Z" fill="#078E05"/>
<g id="Group_2">
<path id="Vector_2" d="M25.375 30H7.24142C7.01711 30 6.80996 29.876 6.69871 29.6751C6.58747 29.4741 6.58917 29.2272 6.70314 29.028L15.77 13.1798C15.8823 12.9833 16.0871 12.8628 16.3083 12.8628C16.5295 12.8628 16.7342 12.9834 16.8465 13.1798L25.9133 29.028C26.0274 29.2272 26.029 29.4742 25.9178 29.6751C25.8065 29.876 25.5993 30 25.375 30ZM8.33583 28.7109H24.2807L16.3082 14.7757L8.33583 28.7109Z" fill="#ED4337"/>
<path id="Vector_3" d="M16.3081 22.852C15.9629 22.852 15.6831 22.5635 15.6831 22.2075V20.2019C15.6831 19.8459 15.9629 19.5574 16.3081 19.5574C16.6532 19.5574 16.9331 19.8459 16.9331 20.2019V22.2075C16.9331 22.5635 16.6532 22.852 16.3081 22.852Z" fill="#ED4337"/>
<path id="Vector_4" d="M16.3081 26.4257C15.4098 26.4098 15.5463 24.9844 16.4297 25.1495C17.1536 25.279 17.0426 26.4441 16.3081 26.4257Z" fill="#ED4337"/>
</g>
<g id="Group_3">
<path id="Vector_5" d="M11.5127 5.51489H4.66819C4.32303 5.51489 4.04321 5.22632 4.04321 4.87036C4.04321 4.5144 4.32303 4.22583 4.66819 4.22583H11.5127C11.8579 4.22583 12.1377 4.5144 12.1377 4.87036C12.1377 5.22632 11.8579 5.51489 11.5127 5.51489Z" fill="#078E05"/>
<path id="Vector_6" d="M11.5126 9.08862H9.79539C9.45023 9.08862 9.17041 8.80005 9.17041 8.44409C9.17041 8.08813 9.45023 7.79956 9.79539 7.79956H11.5126C11.8578 7.79956 12.1376 8.08813 12.1376 8.44409C12.1376 8.80011 11.8578 9.08862 11.5126 9.08862Z" fill="#078E05"/>
<path id="Vector_7" d="M6.38536 9.08862H4.66819C4.32303 9.08862 4.04321 8.80005 4.04321 8.44409C4.04321 8.08813 4.32303 7.79956 4.66819 7.79956H6.38536C6.73052 7.79956 7.01034 8.08813 7.01034 8.44409C7.01034 8.80011 6.73058 9.08862 6.38536 9.08862Z" fill="#078E05"/>
<path id="Vector_8" d="M11.5127 12.6628H4.66819C4.32303 12.6628 4.04321 12.3743 4.04321 12.0183C4.04321 11.6624 4.32303 11.3738 4.66819 11.3738H11.5127C11.8579 11.3738 12.1377 11.6624 12.1377 12.0183C12.1377 12.3743 11.8579 12.6628 11.5127 12.6628Z" fill="#078E05"/>
</g>
</g>
</svg>
