<svg width="29" height="40" viewBox="0 0 29 40" fill="none" xmlns="http://www.w3.org/2000/svg">
<g id="Group 2291">
<path id="Vector" d="M28.9688 10.9531V37.4219C28.9688 38.8438 27.8125 40 26.3906 40H2.57812C1.15625 40 0 38.8438 0 37.4219V2.57812C0 1.15625 1.15625 0 2.57812 0H18.0156L28.9688 10.9531Z" fill="#078E05"/>
<g id="Group">
<path id="Vector_2" d="M7.07812 20.0859H21.8906V21.7344H7.07812V20.0859Z" fill="white"/>
<path id="Vector_3" d="M7.07812 23.7578H21.8906V25.4063H7.07812V23.7578Z" fill="white"/>
<path id="Vector_4" d="M7.07812 27.4375H21.8906V29.0859H7.07812V27.4375Z" fill="white"/>
<path id="Vector_5" d="M7.07812 31.1094H17.6172V32.7578H7.07812V31.1094Z" fill="white"/>
</g>
<path id="Vector_6" opacity="0.19" d="M19.5078 10.5391L28.9688 18.2031V11L23.6094 7.89062L19.5078 10.5391Z" fill="#015400"/>
<path id="Vector_7" d="M28.9687 10.9531H20.5938C19.1719 10.9531 18.0156 9.79688 18.0156 8.375V0L28.9687 10.9531Z" fill="#027600"/>
</g>
</svg>
