<svg width="20" height="20" viewBox="0 0 20 20" fill="none" xmlns="http://www.w3.org/2000/svg">
<g id="Group 698">
<g id="Group">
<g id="Group_2">
<path id="Vector" d="M18.2422 0H1.75781C0.788555 0 0 0.788555 0 1.75781V18.2422C0 19.2114 0.788555 20 1.75781 20H18.2422C19.2114 20 20 19.2114 20 18.2422V1.75781C20 0.788555 19.2114 0 18.2422 0ZM18.8281 18.2422C18.8281 18.5653 18.5653 18.8281 18.2422 18.8281H1.75781C1.43473 18.8281 1.17188 18.5653 1.17188 18.2422V5.85938H18.8281V18.2422ZM18.8281 4.6875H1.17188V1.75781C1.17188 1.43473 1.43473 1.17188 1.75781 1.17188H18.2422C18.5653 1.17188 18.8281 1.43473 18.8281 1.75781V4.6875Z" fill="#4D4D4D"/>
</g>
</g>
<g id="Group_3">
<g id="Group_4">
<path id="Vector_2" d="M4.96928 12.3438L6.89869 10.4144C7.12752 10.1855 7.12752 9.81451 6.89869 9.58568C6.6699 9.35686 6.29889 9.35686 6.07006 9.58568L3.72631 11.9294C3.49748 12.1583 3.49748 12.5292 3.72631 12.7581L6.07006 15.1018C6.29885 15.3306 6.66986 15.3306 6.89869 15.1018C7.12752 14.873 7.12752 14.502 6.89869 14.2732L4.96928 12.3438Z" fill="#4D4D4D"/>
</g>
</g>
<g id="Group_5">
<g id="Group_6">
<path id="Vector_3" d="M16.2737 11.9294L13.9299 9.58568C13.7012 9.35686 13.3301 9.35686 13.1013 9.58568C12.8725 9.81451 12.8725 10.1855 13.1013 10.4143L15.0308 12.3438L13.1013 14.2732C12.8725 14.502 12.8725 14.873 13.1013 15.1018C13.3301 15.3306 13.7012 15.3306 13.93 15.1018L16.2737 12.7581C16.5026 12.5292 16.5026 12.1583 16.2737 11.9294Z" fill="#4D4D4D"/>
</g>
</g>
<g id="Group_7">
<g id="Group_8">
<path id="Vector_4" d="M11.3573 8.27231C11.0502 8.16993 10.7185 8.3359 10.6162 8.6429L8.27242 15.6741C8.17007 15.9811 8.33601 16.313 8.643 16.4153C8.95007 16.5177 9.28187 16.3517 9.38418 16.0447L11.7279 9.01348C11.8302 8.70645 11.6643 8.37462 11.3573 8.27231Z" fill="#4D4D4D"/>
</g>
</g>
<g id="Group_9">
<g id="Group_10">
<path id="Vector_5" d="M4.14062 2.34375H2.96875C2.64516 2.34375 2.38281 2.60609 2.38281 2.92969C2.38281 3.25328 2.64516 3.51562 2.96875 3.51562H4.14062C4.46422 3.51562 4.72656 3.25328 4.72656 2.92969C4.72656 2.60609 4.46422 2.34375 4.14062 2.34375Z" fill="#4D4D4D"/>
</g>
</g>
<g id="Group_11">
<g id="Group_12">
<path id="Vector_6" d="M7.65625 2.34375H6.48438C6.16078 2.34375 5.89844 2.60609 5.89844 2.92969C5.89844 3.25328 6.16078 3.51562 6.48438 3.51562H7.65625C7.97984 3.51562 8.24219 3.25328 8.24219 2.92969C8.24219 2.60609 7.97984 2.34375 7.65625 2.34375Z" fill="#4D4D4D"/>
</g>
</g>
<g id="Group_13">
<g id="Group_14">
<path id="Vector_7" d="M11.1719 2.34375H10C9.67641 2.34375 9.41406 2.60609 9.41406 2.92969C9.41406 3.25328 9.67641 3.51562 10 3.51562H11.1719C11.4955 3.51562 11.7578 3.25328 11.7578 2.92969C11.7578 2.60609 11.4955 2.34375 11.1719 2.34375Z" fill="#4D4D4D"/>
</g>
</g>
</g>
</svg>
