<svg width="20" height="14" viewBox="0 0 20 14" fill="none" xmlns="http://www.w3.org/2000/svg">
<g id="Group 701">
<g id="Group 700">
<g id="Group">
<path id="Vector" d="M3.52501 1.29157C3.52502 1.29163 3.52416 1.2928 3.52237 1.29492C3.52411 1.29258 3.525 1.29152 3.52501 1.29157Z" stroke="#565656" stroke-width="3"/>
</g>
<g id="Group_2">
<g id="Vector_2">
<mask id="path-2-inside-1_2_1334" fill="white">
<path d="M11.0001 14.0001H8.00012C7.50012 14.0001 7.00012 13.7202 6.60012 13.1604C6.20012 12.6007 6.00012 11.901 6.00012 11.2013V8.40245C6.00012 7.70274 6.20012 7.00304 6.60012 6.44327C7.00012 5.88351 7.50012 5.60363 8.00012 5.60363H10.0001V2.8048H7.00012C6.40012 2.8048 6.00012 2.24504 6.00012 1.40539C6.00012 0.565746 6.40012 0.00598145 7.00012 0.00598145H10.0001C10.5001 0.00598145 11.0001 0.285864 11.4001 0.845628C11.8001 1.40539 12.0001 2.1051 12.0001 2.8048V5.60363C12.0001 6.30333 11.8001 7.00304 11.4001 7.5628C11.0001 8.12257 10.5001 8.40245 10.0001 8.40245H8.00012V11.2013H11.0001C11.6001 11.2013 12.0001 11.761 12.0001 12.6007C12.0001 13.4403 11.6001 14.0001 11.0001 14.0001Z"/>
</mask>
<path d="M10.0001 5.60363V8.60363H13.0001V5.60363H10.0001ZM10.0001 2.8048H13.0001V-0.195196H10.0001V2.8048ZM8.00012 8.40245V5.40245H5.00012V8.40245H8.00012ZM8.00012 11.2013H5.00012V14.2013H8.00012V11.2013ZM11.0001 11.0001H8.00012V17.0001H11.0001V11.0001ZM8.00012 11.0001C8.32626 11.0001 8.59781 11.0949 8.78559 11.2055C8.96463 11.311 9.03735 11.4112 9.04098 11.4162L4.15927 14.9046C4.96436 16.0313 6.28827 17.0001 8.00012 17.0001V11.0001ZM9.04098 11.4162C9.04682 11.4244 9.03566 11.4114 9.02291 11.369C9.01004 11.3262 9.00012 11.2681 9.00012 11.2013H3.00012C3.00012 12.4489 3.35299 13.7763 4.15927 14.9046L9.04098 11.4162ZM9.00012 11.2013V8.40245H3.00012V11.2013H9.00012ZM9.00012 8.40245C9.00012 8.33559 9.01004 8.27751 9.02291 8.23474C9.03566 8.19236 9.04682 8.17929 9.04098 8.18747L4.15927 4.69907C3.35299 5.8274 3.00012 7.15483 3.00012 8.40245H9.00012ZM9.04098 8.18747C9.03735 8.19254 8.96463 8.29272 8.78559 8.39822C8.59781 8.50886 8.32626 8.60363 8.00012 8.60363V2.60363C6.28827 2.60363 4.96436 3.57242 4.15927 4.69907L9.04098 8.18747ZM8.00012 8.60363H10.0001V2.60363H8.00012V8.60363ZM13.0001 5.60363V2.8048H7.00012V5.60363H13.0001ZM10.0001 -0.195196H7.00012V5.8048H10.0001V-0.195196ZM7.00012 -0.195196C7.75088 -0.195196 8.37731 0.201828 8.71598 0.675766C9.00046 1.07388 9.00012 1.3877 9.00012 1.40539H3.00012C3.00012 2.26274 3.19978 3.27626 3.83427 4.16417C4.52294 5.1279 5.64936 5.8048 7.00012 5.8048V-0.195196ZM9.00012 1.40539C9.00012 1.42309 9.00046 1.73691 8.71598 2.13502C8.37731 2.60896 7.75088 3.00598 7.00012 3.00598V-2.99402C5.64936 -2.99402 4.52294 -2.31711 3.83427 -1.35338C3.19978 -0.465474 3.00012 0.54805 3.00012 1.40539H9.00012ZM7.00012 3.00598H10.0001V-2.99402H7.00012V3.00598ZM10.0001 3.00598C9.67399 3.00598 9.40244 2.91122 9.21466 2.80058C9.03561 2.69508 8.96289 2.5949 8.95927 2.58983L13.841 -0.898572C13.0359 -2.02522 11.712 -2.99402 10.0001 -2.99402V3.00598ZM8.95927 2.58983C8.95342 2.58165 8.96459 2.59471 8.97734 2.6371C8.99021 2.67986 9.00012 2.73794 9.00012 2.8048H15.0001C15.0001 1.55718 14.6473 0.22975 13.841 -0.898572L8.95927 2.58983ZM9.00012 2.8048V5.60363H15.0001V2.8048H9.00012ZM9.00012 5.60363C9.00012 5.67049 8.99021 5.72857 8.97734 5.77133C8.96459 5.81372 8.95342 5.82678 8.95927 5.8186L13.841 9.307C14.6473 8.17868 15.0001 6.85125 15.0001 5.60363H9.00012ZM8.95927 5.8186C8.96289 5.81353 9.03561 5.71336 9.21466 5.60785C9.40244 5.49721 9.67399 5.40245 10.0001 5.40245V11.4024C11.712 11.4024 13.0359 10.4337 13.841 9.307L8.95927 5.8186ZM10.0001 5.40245H8.00012V11.4024H10.0001V5.40245ZM5.00012 8.40245V11.2013H11.0001V8.40245H5.00012ZM8.00012 14.2013H11.0001V8.20127H8.00012V14.2013ZM11.0001 14.2013C10.2494 14.2013 9.62294 13.8042 9.28427 13.3303C8.99978 12.9322 9.00012 12.6184 9.00012 12.6007H15.0001C15.0001 11.7433 14.8005 10.7298 14.166 9.84191C13.4773 8.87818 12.3509 8.20127 11.0001 8.20127V14.2013ZM9.00012 12.6007C9.00012 12.583 8.99978 12.2692 9.28427 11.8711C9.62294 11.3971 10.2494 11.0001 11.0001 11.0001V17.0001C12.3509 17.0001 13.4773 16.3232 14.166 15.3595C14.8005 14.4716 15.0001 13.458 15.0001 12.6007H9.00012Z" fill="#565656" mask="url(#path-2-inside-1_2_1334)"/>
</g>
</g>
<g id="Group_3">
<g id="Vector_3">
<mask id="path-4-inside-2_2_1334" fill="white">
<path d="M17.4999 14.0001H14.9999C14.3999 14.0001 13.9999 13.4403 13.9999 12.6007C13.9999 11.761 14.3999 11.2013 14.9999 11.2013H17.4999C17.5999 11.2013 17.7999 11.0613 17.8999 11.0613C17.9999 11.0613 17.9999 10.7814 17.9999 10.5016V9.10215C17.9999 8.96221 17.8999 8.68233 17.8999 8.54239C17.8999 8.40245 17.5999 8.40245 17.4999 8.40245H15.9999C15.3999 8.40245 14.9999 7.84268 14.9999 7.00304C14.9999 6.16339 15.3999 5.60363 15.9999 5.60363H17.4999C17.5999 5.60363 17.7999 5.46369 17.8999 5.46369C17.9999 5.32374 17.9999 5.1838 17.9999 4.90392V3.50451C17.9999 3.36457 17.8999 3.08469 17.8999 2.94475C17.7999 2.94475 17.5999 2.8048 17.4999 2.8048H14.9999C14.3999 2.8048 13.9999 2.24504 13.9999 1.40539C13.9999 0.565746 14.3999 0.00598145 14.9999 0.00598145H17.4999C18.1999 0.00598145 18.7999 0.425805 19.2999 0.985569C19.6999 1.68527 19.9999 2.52492 19.9999 3.50451V4.90392C19.9999 5.60363 19.7999 6.44327 19.4999 7.00304C19.7999 7.5628 19.9999 8.40245 19.9999 9.10215V10.5016C19.9999 11.4812 19.6999 12.3208 19.2999 13.0205C18.8999 13.7202 18.1999 14.0001 17.4999 14.0001Z"/>
</mask>
<path d="M17.8999 5.46369V8.46369H19.4434L20.3407 7.20789L17.8999 5.46369ZM17.8999 2.94475H20.8999V-0.0552542H17.8999V2.94475ZM19.2999 0.985569L21.9043 -0.50332L21.7476 -0.777451L21.5373 -1.01295L19.2999 0.985569ZM19.4999 7.00304L16.8557 5.58591L16.0962 7.00304L16.8557 8.42017L19.4999 7.00304ZM17.4999 11.0001H14.9999V17.0001H17.4999V11.0001ZM14.9999 11.0001C15.7506 11.0001 16.3771 11.3971 16.7157 11.8711C17.0002 12.2692 16.9999 12.583 16.9999 12.6007H10.9999C10.9999 13.458 11.1995 14.4716 11.834 15.3595C12.5227 16.3232 13.6491 17.0001 14.9999 17.0001V11.0001ZM16.9999 12.6007C16.9999 12.6184 17.0002 12.9322 16.7157 13.3303C16.3771 13.8042 15.7506 14.2013 14.9999 14.2013V8.20127C13.6491 8.20127 12.5227 8.87818 11.834 9.84191C11.1995 10.7298 10.9999 11.7433 10.9999 12.6007H16.9999ZM14.9999 14.2013H17.4999V8.20127H14.9999V14.2013ZM17.4999 14.2013C17.6781 14.2013 17.8327 14.1859 17.9555 14.1679C18.0791 14.1497 18.1863 14.1265 18.2725 14.1049C18.44 14.0628 18.5752 14.0147 18.6602 13.9822C18.7487 13.9485 18.8219 13.9165 18.8674 13.8962C18.9122 13.8762 18.9536 13.8568 18.9681 13.8501C18.9911 13.8393 18.9872 13.8412 18.9791 13.8448C18.9703 13.8488 18.933 13.8654 18.879 13.886C18.8283 13.9053 18.7259 13.9425 18.5889 13.977C18.5179 13.9948 18.4254 14.015 18.3157 14.0311C18.2069 14.0471 18.0656 14.0613 17.8999 14.0613V8.06133C17.7216 8.06133 17.5671 8.07668 17.4443 8.09471C17.3206 8.11287 17.2135 8.13606 17.1273 8.15772C16.9598 8.19979 16.8246 8.24794 16.7395 8.28039C16.6511 8.31415 16.5779 8.34606 16.5323 8.36639C16.4876 8.38639 16.4462 8.40576 16.4317 8.41255C16.4087 8.42325 16.4126 8.42137 16.4206 8.41778C16.4294 8.41384 16.4667 8.39724 16.5208 8.3766C16.5714 8.35727 16.6738 8.32006 16.8108 8.28564C16.8819 8.2678 16.9743 8.24761 17.084 8.23151C17.1929 8.21553 17.3341 8.20127 17.4999 8.20127V14.2013ZM17.8999 14.0613C19.6813 14.0613 20.4835 12.7015 20.6838 12.2655C20.8988 11.7975 20.9505 11.3743 20.9663 11.2412C21.0046 10.9196 20.9999 10.5756 20.9999 10.5016H14.9999C14.9999 10.7074 14.9951 10.6433 15.0084 10.5316C15.0118 10.5035 15.0447 10.1677 15.2316 9.76091C15.3313 9.54375 15.549 9.14073 15.981 8.77058C16.4694 8.35209 17.1386 8.06133 17.8999 8.06133V14.0613ZM20.9999 10.5016V9.10215H14.9999V10.5016H20.9999ZM20.9999 9.10215C20.9999 8.91665 20.9841 8.76224 20.9712 8.66201C20.9577 8.55686 20.9415 8.46655 20.9289 8.40147C20.9054 8.28092 20.8773 8.16525 20.8682 8.12713C20.8523 8.06029 20.8554 8.07101 20.8601 8.09534C20.8634 8.11232 20.8718 8.15671 20.8798 8.21923C20.8872 8.27682 20.8999 8.39187 20.8999 8.54239H14.8999C14.8999 8.7279 14.9157 8.88231 14.9286 8.98253C14.942 9.08769 14.9582 9.178 14.9709 9.24308C14.9944 9.36362 15.0224 9.4793 15.0315 9.51742C15.0474 9.58426 15.0444 9.57353 15.0397 9.5492C15.0363 9.53222 15.028 9.48783 15.02 9.42532C15.0126 9.36773 14.9999 9.25268 14.9999 9.10215H20.9999ZM20.8999 8.54239C20.8999 7.21504 20.1062 6.35689 19.509 5.96098C19.0025 5.62521 18.5174 5.51653 18.3255 5.47815C17.9034 5.39377 17.5144 5.40245 17.4999 5.40245V11.4024C17.5853 11.4024 17.3964 11.4111 17.1493 11.3617C17.0448 11.3409 16.6411 11.2584 16.1939 10.962C15.656 10.6054 14.8999 9.79977 14.8999 8.54239H20.8999ZM17.4999 5.40245H15.9999V11.4024H17.4999V5.40245ZM15.9999 5.40245C16.7506 5.40245 17.3771 5.79947 17.7157 6.27341C18.0002 6.67152 17.9999 6.98534 17.9999 7.00304H11.9999C11.9999 7.86038 12.1995 8.87391 12.834 9.76181C13.5227 10.7255 14.6491 11.4024 15.9999 11.4024V5.40245ZM17.9999 7.00304C17.9999 7.02073 18.0002 7.33455 17.7157 7.73267C17.3771 8.2066 16.7506 8.60363 15.9999 8.60363V2.60363C14.6491 2.60363 13.5227 3.28053 12.834 4.24426C12.1995 5.13217 11.9999 6.1457 11.9999 7.00304H17.9999ZM15.9999 8.60363H17.4999V2.60363H15.9999V8.60363ZM17.4999 8.60363C17.6781 8.60363 17.8327 8.58827 17.9555 8.57025C18.0791 8.55209 18.1863 8.5289 18.2725 8.50723C18.44 8.46516 18.5752 8.41702 18.6602 8.38456C18.7487 8.35081 18.8219 8.3189 18.8674 8.29856C18.9122 8.27857 18.9536 8.2592 18.9681 8.25241C18.9911 8.2417 18.9872 8.24359 18.9791 8.24718C18.9703 8.25112 18.933 8.26772 18.879 8.28835C18.8283 8.30769 18.7259 8.3449 18.5889 8.37932C18.5179 8.39715 18.4254 8.41734 18.3157 8.43345C18.2069 8.44942 18.0656 8.46369 17.8999 8.46369V2.46369C17.7216 2.46369 17.5671 2.47904 17.4443 2.49707C17.3206 2.51522 17.2135 2.53842 17.1273 2.56008C16.9598 2.60215 16.8246 2.65029 16.7395 2.68275C16.6511 2.7165 16.5779 2.74841 16.5323 2.76875C16.4876 2.78874 16.4462 2.80812 16.4317 2.8149C16.4087 2.82561 16.4126 2.82373 16.4206 2.82013C16.4294 2.8162 16.4667 2.79959 16.5208 2.77896C16.5714 2.75962 16.6738 2.72241 16.8108 2.68799C16.8819 2.67016 16.9743 2.64997 17.084 2.63386C17.1929 2.61789 17.3341 2.60363 17.4999 2.60363V8.60363ZM20.3407 7.20789C21.1058 6.13726 20.9999 4.92074 20.9999 4.90392H14.9999C14.9999 4.94106 14.9999 4.96398 14.9997 4.98362C14.9996 5.00249 14.9994 5.00728 14.9995 5.00406C14.9995 5.00402 15.0012 4.92643 15.0176 4.81184C15.0353 4.68741 15.0721 4.50563 15.1518 4.29503C15.2337 4.07843 15.3406 3.88519 15.459 3.71948L20.3407 7.20789ZM20.9999 4.90392V3.50451H14.9999V4.90392H20.9999ZM20.9999 3.50451C20.9999 3.319 20.9841 3.16459 20.9712 3.06437C20.9577 2.95921 20.9415 2.8689 20.9289 2.80382C20.9054 2.68328 20.8773 2.5676 20.8682 2.52949C20.8523 2.46265 20.8554 2.47337 20.8601 2.4977C20.8634 2.51468 20.8718 2.55907 20.8798 2.62158C20.8872 2.67917 20.8999 2.79422 20.8999 2.94475H14.8999C14.8999 3.13025 14.9157 3.28466 14.9286 3.38489C14.942 3.49004 14.9582 3.58035 14.9709 3.64544C14.9944 3.76598 15.0224 3.88165 15.0315 3.91977C15.0474 3.98661 15.0444 3.97589 15.0397 3.95156C15.0363 3.93458 15.028 3.89019 15.02 3.82767C15.0126 3.77008 14.9999 3.65503 14.9999 3.50451H20.9999ZM17.8999 -0.0552542C18.0656 -0.0552542 18.2069 -0.0409938 18.3157 -0.0250172C18.4254 -0.00891163 18.5179 0.0112762 18.5889 0.029113C18.7259 0.063529 18.8283 0.100741 18.879 0.120076C18.933 0.14071 18.9703 0.157314 18.9791 0.161252C18.9872 0.164845 18.9911 0.166728 18.9681 0.156023C18.9536 0.149236 18.9122 0.12986 18.8674 0.109867C18.8219 0.08953 18.7487 0.0576199 18.6602 0.0238665C18.5752 -0.00858803 18.44 -0.0567333 18.2725 -0.0988024C18.1863 -0.120466 18.0791 -0.14366 17.9555 -0.161816C17.8327 -0.179842 17.6781 -0.195196 17.4999 -0.195196V5.8048C17.3341 5.8048 17.1929 5.79054 17.084 5.77457C16.9743 5.75846 16.8819 5.73827 16.8108 5.72044C16.6738 5.68602 16.5714 5.64881 16.5208 5.62947C16.4667 5.60884 16.4294 5.59224 16.4206 5.5883C16.4126 5.5847 16.4087 5.58282 16.4317 5.59353C16.4462 5.60031 16.4876 5.61969 16.5323 5.63968C16.5779 5.66002 16.6511 5.69193 16.7395 5.72568C16.8246 5.75814 16.9598 5.80628 17.1273 5.84835C17.2135 5.87002 17.3206 5.89321 17.4443 5.91137C17.5671 5.92939 17.7216 5.94475 17.8999 5.94475V-0.0552542ZM17.4999 -0.195196H14.9999V5.8048H17.4999V-0.195196ZM14.9999 -0.195196C15.7506 -0.195196 16.3771 0.201828 16.7157 0.675766C17.0002 1.07388 16.9999 1.3877 16.9999 1.40539H10.9999C10.9999 2.26274 11.1995 3.27626 11.834 4.16417C12.5227 5.1279 13.6491 5.8048 14.9999 5.8048V-0.195196ZM16.9999 1.40539C16.9999 1.42309 17.0002 1.73691 16.7157 2.13502C16.3771 2.60896 15.7506 3.00598 14.9999 3.00598V-2.99402C13.6491 -2.99402 12.5227 -2.31711 11.834 -1.35338C11.1995 -0.465474 10.9999 0.54805 10.9999 1.40539H16.9999ZM14.9999 3.00598H17.4999V-2.99402H14.9999V3.00598ZM17.4999 3.00598C17.2244 3.00598 17.0333 2.91801 16.9637 2.87748C16.9123 2.8475 16.9501 2.85823 17.0625 2.98408L21.5373 -1.01295C20.8173 -1.81899 19.4664 -2.99402 17.4999 -2.99402V3.00598ZM16.6954 2.47446C16.9007 2.83351 16.9999 3.1633 16.9999 3.50451H22.9999C22.9999 1.88654 22.4991 0.537038 21.9043 -0.50332L16.6954 2.47446ZM16.9999 3.50451V4.90392H22.9999V3.50451H16.9999ZM16.9999 4.90392C16.9999 4.98659 16.9855 5.13661 16.944 5.31082C16.9009 5.49178 16.8556 5.58614 16.8557 5.58591L22.1441 8.42017C22.7008 7.38146 22.9999 6.04677 22.9999 4.90392H16.9999ZM16.8557 8.42017C16.8556 8.41994 16.9009 8.5143 16.944 8.69526C16.9855 8.86947 16.9999 9.01948 16.9999 9.10215H22.9999C22.9999 7.95931 22.7008 6.62462 22.1441 5.58591L16.8557 8.42017ZM16.9999 9.10215V10.5016H22.9999V9.10215H16.9999ZM16.9999 10.5016C16.9999 10.8428 16.9007 11.1726 16.6954 11.5316L21.9043 14.5094C22.4991 13.469 22.9999 12.1195 22.9999 10.5016H16.9999ZM16.6954 11.5316C16.7989 11.3506 16.9695 11.1908 17.1626 11.0935C17.3339 11.0072 17.4599 11.0001 17.4999 11.0001V17.0001C18.9894 17.0001 20.8416 16.3685 21.9043 14.5094L16.6954 11.5316Z" fill="#565656" mask="url(#path-4-inside-2_2_1334)"/>
</g>
</g>
</g>
</g>
</svg>
