<svg width="31" height="35" viewBox="0 0 31 35" xmlns="http://www.w3.org/2000/svg">
    <g fill="none" fill-rule="evenodd">
        <path fill="#078E05" d="m15.313 0 15.312 8.75v17.5L15.312 35 0 26.25V8.75z"/>
        <path fill="#028400" d="m0 26.328.007-17.44L15.343 35z"/>
        <path fill="#027600" d="m0 8.744 30.611 17.509L15.352 0z"/>
        <path fill="#02AD00" d="m15.397.052 15.226 8.754-5.617 8.03z"/>
        <path d="M10.01 29.815c.775 0 1.403-.622 1.403-1.39 0-.766-.628-1.388-1.403-1.388s-1.403.622-1.403 1.389.628 1.389 1.403 1.389zM21.798 29.815c.775 0 1.403-.622 1.403-1.39 0-.766-.628-1.388-1.403-1.388s-1.404.622-1.404 1.389.629 1.389 1.404 1.389z" fill="#FFF"/>
        <path stroke="#FFF" stroke-width=".634" stroke-linecap="square" d="M1.403 10.833h3.368M4.771 10.833l3.181 15.371M7.391 22.5h16.661M8.139 26.204h16.662"/>
        <path stroke="#FFF" stroke-width=".625" stroke-linecap="square" d="M17.304 23.889h6.561M12.155 25H22.93"/>
        <path stroke="#FFF" stroke-width=".634" stroke-linecap="square" d="m24.23 22.315 3.368-10.556"/>
        <path d="M8.622 17.342c.233 0 .46-.03.68-.093.22-.062.415-.158.586-.287.17-.129.307-.292.408-.49.1-.198.151-.432.151-.703 0-.236-.047-.432-.141-.59a1.352 1.352 0 0 0-.357-.397 1.897 1.897 0 0 0-.479-.256 16.014 16.014 0 0 0-.505-.177 6.59 6.59 0 0 1-.303-.103 1.328 1.328 0 0 1-.232-.11.447.447 0 0 1-.148-.14.368.368 0 0 1-.05-.2c0-.094.02-.17.063-.23a.521.521 0 0 1 .158-.147.603.603 0 0 1 .213-.077 1.102 1.102 0 0 1 .694.09c.159.074.288.172.387.297l.734-.767a2.13 2.13 0 0 0-.738-.433 2.5 2.5 0 0 0-1.492-.063c-.22.055-.417.143-.592.263-.176.12-.317.273-.425.46a1.325 1.325 0 0 0-.161.673c0 .214.034.395.104.544.07.148.162.275.276.38.115.104.245.19.39.256.147.067.296.125.449.174.157.048.297.094.42.136.124.042.227.09.31.14a.656.656 0 0 1 .193.17.377.377 0 0 1 .067.227.5.5 0 0 1-.054.24.435.435 0 0 1-.145.16.625.625 0 0 1-.212.087c-.08.017-.164.026-.25.026-.188 0-.378-.048-.568-.143a1.392 1.392 0 0 1-.462-.357l-.754.76a2.1 2.1 0 0 0 .795.504c.318.117.648.176.99.176zm3.78 1.48v-1.966h.013c.104.142.247.254.432.336.184.082.379.124.586.124a1.5 1.5 0 0 0 1.175-.537c.137-.162.241-.35.313-.563a2.075 2.075 0 0 0-.003-1.33 1.724 1.724 0 0 0-.317-.557 1.488 1.488 0 0 0-1.162-.52c-.247 0-.461.05-.643.15-.182.1-.324.217-.428.35h-.02v-.407h-1.05v4.92h1.104zm.768-2.413a.749.749 0 0 1-.59-.267.89.89 0 0 1 0-1.173.75.75 0 0 1 .59-.267.749.749 0 0 1 .738.533.995.995 0 0 1-.149.907.729.729 0 0 1-.59.267zm3.888.907c.117 0 .228-.016.333-.047a1.41 1.41 0 0 0 .29-.12.994.994 0 0 0 .387-.387h.014v.46h1.064v-3.32h-1.105v1.794a.84.84 0 0 1-.151.5.507.507 0 0 1-.441.213.48.48 0 0 1-.25-.057.426.426 0 0 1-.151-.156.662.662 0 0 1-.078-.227 1.693 1.693 0 0 1-.02-.267v-1.8H15.84v2.054c0 .168.021.334.064.496.042.162.112.307.209.434.096.126.222.23.377.31.155.08.344.12.569.12zm4.205-.094v-1.706a.82.82 0 0 1 .171-.48.76.76 0 0 1 .243-.194.794.794 0 0 1 .374-.08c.045 0 .09.002.138.007a.874.874 0 0 1 .145.027l.047-.96a.509.509 0 0 0-.105-.02 1.262 1.262 0 0 0-.131-.007.948.948 0 0 0-.546.16 1.081 1.081 0 0 0-.363.413h-.014v-.48h-1.064v3.32h1.105zm3.025.08a2.076 2.076 0 0 0 .64-.1l-.013-.8a.593.593 0 0 1-.152.04c-.06.01-.118.014-.172.014-.157 0-.266-.04-.326-.117-.06-.078-.091-.195-.091-.35v-1.267h.788v-.82h-.788v-.873h-1.085v.873h-.532v.82h.54v1.4c0 .178.02.34.06.484.04.144.106.268.198.373a.878.878 0 0 0 .368.24c.152.055.34.083.565.083z" fill="#FFF"/>
    </g>
</svg>
