<svg width="35" height="40" viewBox="0 0 35 40" fill="none" xmlns="http://www.w3.org/2000/svg">
<g id="logo-spurt">
<path id="Path" d="M17.5 0L35 10V30L17.5 40L0 30V10L17.5 0Z" fill="#078E05"/>
<path id="Path_2" d="M0 30.089L0.008 10.159L17.534 40L0 30.089Z" fill="#028400"/>
<path id="Path_3" d="M0 9.993L34.984 30L17.545 0L0 9.993Z" fill="#027600"/>
<path id="Path_4" d="M17.6001 0.0589905L35.0001 10.064L28.5801 19.242L17.6001 0.0589905Z" fill="#02AD00"/>
<g id="Group">
<path id="Oval" d="M11.4399 34.073C12.3258 34.073 13.0439 33.3625 13.0439 32.486C13.0439 31.6095 12.3258 30.899 11.4399 30.899C10.5541 30.899 9.83594 31.6095 9.83594 32.486C9.83594 33.3625 10.5541 34.073 11.4399 34.073Z" fill="white"/>
<path id="Oval_2" d="M24.9121 34.073C25.798 34.073 26.5161 33.3625 26.5161 32.486C26.5161 31.6095 25.798 30.899 24.9121 30.899C24.0262 30.899 23.3081 31.6095 23.3081 32.486C23.3081 33.3625 24.0262 34.073 24.9121 34.073Z" fill="white"/>
<path id="Shape" d="M1.604 12.38H5.453L9.088 29.947M8.447 25.714H27.489M9.304 29.947H28.344" stroke="white" stroke-width="0.634" stroke-linecap="square"/>
<path id="Shape_2" d="M19.777 27.301H27.277M13.894 28.571H26.204" stroke="white" stroke-width="0.625" stroke-linecap="square"/>
<path id="Shape_3" d="M10.1085 24.38C10.238 24.3812 10.3666 24.3595 10.4885 24.316C10.6088 24.2719 10.7164 24.1988 10.8015 24.103L10.5545 23.859C10.5007 23.9208 10.4355 23.9718 10.3625 24.009C10.2843 24.0454 10.1988 24.0632 10.1125 24.061C10.0291 24.0623 9.94626 24.0459 9.86953 24.013C9.79978 23.9826 9.73712 23.938 9.68553 23.882C9.63283 23.8238 9.59206 23.7559 9.56553 23.682C9.53722 23.6059 9.52299 23.5252 9.52353 23.444C9.52321 23.362 9.53535 23.2804 9.55953 23.202C9.58245 23.1272 9.61908 23.0574 9.66753 22.996C9.71498 22.9361 9.77553 22.8879 9.84453 22.855C9.92255 22.8192 10.0077 22.8018 10.0935 22.804C10.1802 22.8021 10.2662 22.8191 10.3455 22.854C10.4202 22.8928 10.4878 22.9438 10.5455 23.005L10.8035 22.78C10.7158 22.685 10.6073 22.6114 10.4865 22.565C10.3643 22.5181 10.2344 22.4944 10.1035 22.495C9.97023 22.4929 9.83777 22.5167 9.71353 22.565C9.60037 22.6086 9.49775 22.6758 9.41242 22.7619C9.3271 22.8481 9.26102 22.9514 9.21853 23.065C9.17062 23.1876 9.14685 23.3184 9.14853 23.45C9.14675 23.581 9.17053 23.7111 9.21853 23.833C9.2623 23.9455 9.32953 24.0474 9.41574 24.1319C9.50196 24.2164 9.60517 24.2815 9.71853 24.323C9.84388 24.366 9.97612 24.3853 10.1085 24.38ZM11.9785 24.38C12.2358 24.383 12.4838 24.2841 12.6685 24.105C12.7579 24.0173 12.8288 23.9126 12.8769 23.797C12.925 23.6813 12.9494 23.5572 12.9485 23.432C12.9496 23.3048 12.9241 23.1788 12.8735 23.062C12.798 22.8884 12.6728 22.7409 12.5138 22.6381C12.3547 22.5353 12.1689 22.4817 11.9795 22.484C11.7218 22.4818 11.4738 22.5818 11.2895 22.762C11.2046 22.8485 11.1367 22.9503 11.0895 23.062C11.039 23.1788 11.0134 23.3048 11.0145 23.432C11.0132 23.5573 11.0373 23.6816 11.0854 23.7973C11.1336 23.9129 11.2047 24.0176 11.2945 24.105C11.4793 24.2842 11.7272 24.3834 11.9845 24.381L11.9785 24.38ZM11.9785 24.06C11.8929 24.0615 11.8078 24.0455 11.7285 24.013C11.6571 23.9831 11.5928 23.9386 11.5398 23.8823C11.4867 23.8259 11.4461 23.7591 11.4205 23.686C11.3645 23.5217 11.3645 23.3434 11.4205 23.179C11.446 23.1058 11.4865 23.0387 11.5396 22.9822C11.5927 22.9257 11.657 22.881 11.7285 22.851C11.8078 22.8186 11.8929 22.8026 11.9785 22.804C12.0642 22.8028 12.1492 22.8188 12.2285 22.851C12.3002 22.8809 12.3648 22.9255 12.418 22.982C12.4713 23.0386 12.512 23.1057 12.5375 23.179C12.5935 23.3434 12.5935 23.5217 12.5375 23.686C12.5121 23.7592 12.4715 23.8263 12.4185 23.8828C12.3654 23.9393 12.301 23.984 12.2295 24.014C12.1502 24.0465 12.0652 24.0625 11.9795 24.061L11.9785 24.06ZM13.7305 24.335V23.398C13.7289 23.3082 13.7417 23.2187 13.7685 23.133C13.789 23.0652 13.8231 23.0023 13.8685 22.948C13.9105 22.9012 13.9625 22.8643 14.0205 22.84C14.0775 22.816 14.1387 22.8038 14.2005 22.804C14.2699 22.8011 14.3388 22.8162 14.4005 22.848C14.4499 22.8765 14.4901 22.9185 14.5165 22.969C14.5453 23.027 14.5636 23.0896 14.5705 23.154C14.5798 23.2323 14.5841 23.3112 14.5835 23.39V24.335H14.9305V23.348C14.9243 23.2094 14.9617 23.0723 15.0375 22.956C15.0798 22.9029 15.1347 22.8612 15.1973 22.8346C15.2598 22.8081 15.3279 22.7975 15.3955 22.804C15.4649 22.8011 15.5338 22.8162 15.5955 22.848C15.6454 22.875 15.6868 22.9151 15.7155 22.964C15.7445 23.0156 15.7632 23.0723 15.7705 23.131C15.7804 23.1972 15.7851 23.2641 15.7845 23.331V24.337H16.1305V23.287C16.1309 23.1863 16.1211 23.0858 16.1015 22.987C16.0857 22.8962 16.0516 22.8094 16.0015 22.732C15.9473 22.655 15.8743 22.5931 15.7895 22.552C15.681 22.5018 15.5621 22.4778 15.4425 22.482C15.3283 22.4834 15.216 22.5126 15.1155 22.567C15.0082 22.6223 14.9208 22.7097 14.8655 22.817C14.8142 22.7145 14.7357 22.628 14.6385 22.567C14.5341 22.5079 14.4154 22.4789 14.2955 22.483C14.219 22.4821 14.1429 22.4943 14.0705 22.519C14.008 22.5406 13.9485 22.5701 13.8935 22.607C13.8479 22.6373 13.8065 22.6737 13.7705 22.715C13.7442 22.7441 13.7238 22.7781 13.7105 22.815H13.7035V22.533H13.3835V24.339L13.7305 24.335ZM17.0105 24.335V23.398C17.0084 23.3082 17.0213 23.2186 17.0485 23.133C17.069 23.0652 17.1031 23.0023 17.1485 22.948C17.1905 22.9012 17.2425 22.8643 17.3005 22.84C17.3572 22.8162 17.4181 22.8039 17.4795 22.804C17.5489 22.8011 17.6178 22.8162 17.6795 22.848C17.7285 22.8767 17.7684 22.9186 17.7945 22.969C17.8233 23.027 17.8416 23.0896 17.8485 23.154C17.8581 23.2323 17.8628 23.3111 17.8625 23.39V24.335H18.2085V23.348C18.2026 23.2093 18.2404 23.0721 18.3165 22.956C18.3879 22.8827 18.48 22.833 18.5806 22.8137C18.6811 22.7943 18.7851 22.8063 18.8785 22.848C18.9278 22.8754 18.9689 22.9154 18.9975 22.964C19.0269 23.0155 19.0459 23.0722 19.0535 23.131C19.0626 23.1973 19.0669 23.2641 19.0665 23.331V24.337H19.4135V23.287C19.414 23.1862 19.404 23.0857 19.3835 22.987C19.3677 22.8962 19.3336 22.8094 19.2835 22.732C19.2293 22.655 19.1563 22.5931 19.0715 22.552C18.9633 22.502 18.8447 22.478 18.7255 22.482C18.6112 22.4832 18.499 22.5124 18.3985 22.567C18.2912 22.6223 18.2038 22.7097 18.1485 22.817C18.0969 22.7143 18.018 22.6278 17.9205 22.567C17.8164 22.5081 17.6981 22.4791 17.5785 22.483C17.502 22.4821 17.4259 22.4943 17.3535 22.519C17.291 22.5406 17.2315 22.5701 17.1765 22.607C17.1305 22.6373 17.0888 22.6736 17.0525 22.715C17.0262 22.7441 17.0058 22.7781 16.9925 22.815H16.9855V22.533H16.6635V24.339H17.0105V24.335ZM20.7745 24.38C20.929 24.3874 21.083 24.3577 21.2236 24.2933C21.3641 24.229 21.4872 24.1318 21.5825 24.01L21.3205 23.81C21.2588 23.8884 21.1844 23.956 21.1005 24.01C21.0162 24.061 20.9191 24.0871 20.8205 24.085C20.6659 24.0846 20.5156 24.0337 20.3925 23.94C20.3365 23.8944 20.2902 23.8379 20.2565 23.774C20.2215 23.7078 20.2037 23.6339 20.2045 23.559H21.6665V23.437C21.6666 23.3203 21.6504 23.2042 21.6185 23.092C21.5889 22.9787 21.535 22.8731 21.4606 22.7826C21.3862 22.6922 21.293 22.6189 21.1875 22.568C21.0592 22.5089 20.9188 22.4805 20.7775 22.485C20.6483 22.4836 20.5201 22.5081 20.4005 22.557C20.2889 22.603 20.1876 22.6709 20.1027 22.7568C20.0178 22.8427 19.9511 22.9448 19.9065 23.057C19.8126 23.2978 19.8105 23.5647 19.9005 23.807C19.9413 23.9197 20.0054 24.0224 20.0886 24.1086C20.1719 24.1947 20.2724 24.2624 20.3835 24.307C20.5073 24.3571 20.641 24.382 20.7745 24.38ZM21.2975 23.28H20.2035C20.2039 23.2162 20.2175 23.1532 20.2435 23.095C20.2884 22.9931 20.3621 22.9065 20.4556 22.8459C20.549 22.7853 20.6582 22.7534 20.7695 22.754C20.8477 22.7523 20.9255 22.7659 20.9985 22.794C21.0595 22.8183 21.1144 22.8556 21.1594 22.9033C21.2045 22.9509 21.2387 23.0078 21.2595 23.07C21.2823 23.1378 21.2957 23.2086 21.2975 23.28ZM22.4295 24.331V23.424C22.416 23.2662 22.464 23.1093 22.5635 22.986C22.6151 22.937 22.6763 22.8992 22.7433 22.8751C22.8103 22.851 22.8815 22.8411 22.9525 22.846C22.981 22.8459 23.0094 22.8483 23.0375 22.853C23.0659 22.8578 23.094 22.8645 23.1215 22.873L23.1375 22.503C23.0878 22.4872 23.0358 22.4794 22.9835 22.48C22.8693 22.4828 22.7576 22.514 22.6585 22.571C22.6109 22.5984 22.5672 22.6321 22.5285 22.671C22.4908 22.7096 22.4597 22.7542 22.4365 22.803H22.4295V22.524H22.0825V24.33L22.4295 24.331ZM24.3035 24.38C24.433 24.3805 24.5616 24.3585 24.6835 24.315C24.8038 24.2709 24.9114 24.1978 24.9965 24.102L24.7505 23.858C24.6964 23.9199 24.6309 23.9709 24.5575 24.008C24.4793 24.0444 24.3938 24.0622 24.3075 24.06C24.2241 24.0613 24.1413 24.0449 24.0645 24.012C23.9948 23.9816 23.9321 23.937 23.8805 23.881C23.8278 23.8228 23.7871 23.7549 23.7605 23.681C23.7322 23.6049 23.718 23.5242 23.7185 23.443C23.718 23.3609 23.7305 23.2792 23.7555 23.201C23.7782 23.1263 23.8144 23.0565 23.8625 22.995C23.91 22.9351 23.9705 22.8869 24.0395 22.854C24.1175 22.8182 24.2027 22.8008 24.2885 22.803C24.3752 22.8011 24.4612 22.8181 24.5405 22.853C24.6152 22.8918 24.6828 22.9428 24.7405 23.004L25.0035 22.78C24.9155 22.6848 24.8067 22.6113 24.6855 22.565C24.5633 22.5181 24.4334 22.4944 24.3025 22.495C24.1692 22.4929 24.0368 22.5167 23.9125 22.565C23.7996 22.6091 23.6972 22.6763 23.612 22.7625C23.5267 22.8486 23.4605 22.9517 23.4175 23.065C23.3701 23.1878 23.3463 23.3184 23.3475 23.45C23.3463 23.581 23.37 23.711 23.4175 23.833C23.4613 23.9455 23.5285 24.0474 23.6147 24.1319C23.701 24.2164 23.8042 24.2815 23.9175 24.323C24.0416 24.3655 24.1725 24.3848 24.3035 24.38ZM26.1235 24.38C26.2781 24.3876 26.4323 24.358 26.5731 24.2936C26.7139 24.2292 26.8371 24.1319 26.9325 24.01L26.6705 23.81C26.6088 23.8884 26.5344 23.956 26.4505 24.01C26.3662 24.061 26.2691 24.0871 26.1705 24.085C26.0162 24.0844 25.8663 24.0335 25.7435 23.94C25.6867 23.8965 25.6391 23.8421 25.6035 23.78C25.5685 23.7138 25.5507 23.6399 25.5515 23.565H27.0145V23.443C27.0147 23.3263 26.9982 23.2101 26.9655 23.098C26.9359 22.9847 26.882 22.8791 26.8076 22.7886C26.7332 22.6982 26.64 22.6249 26.5345 22.574C26.4062 22.5149 26.2658 22.4865 26.1245 22.491C25.9953 22.4896 25.8671 22.5141 25.7475 22.563C25.6359 22.609 25.5346 22.6769 25.4497 22.7628C25.3648 22.8487 25.2981 22.9508 25.2535 23.063C25.1596 23.3038 25.1575 23.5707 25.2475 23.813C25.2883 23.9257 25.3524 24.0284 25.4356 24.1146C25.5189 24.2007 25.6194 24.2684 25.7305 24.313C25.8544 24.3631 25.987 24.388 26.1205 24.386L26.1235 24.38ZM26.6475 23.28H25.5545C25.5549 23.2162 25.5685 23.1532 25.5945 23.095C25.6394 22.9931 25.7131 22.9065 25.8066 22.8459C25.9 22.7853 26.0092 22.7534 26.1205 22.754C26.1987 22.7523 26.2765 22.7659 26.3495 22.794C26.4106 22.8182 26.4657 22.8554 26.511 22.9031C26.5562 22.9508 26.5906 23.0077 26.6115 23.07C26.6339 23.1378 26.6461 23.2086 26.6475 23.28Z" fill="white"/>
<path id="Path_5" d="M27.6919 25.502L31.5409 13.439" stroke="white" stroke-width="0.634" stroke-linecap="square"/>
<path id="Shape_4" d="M9.85396 19.819C10.1166 19.8197 10.3781 19.784 10.631 19.713C10.8729 19.6466 11.1002 19.5354 11.301 19.385C11.497 19.2363 11.6564 19.0448 11.767 18.825C11.887 18.5757 11.9462 18.3016 11.94 18.025C11.9485 17.7897 11.8925 17.5566 11.778 17.351C11.6735 17.174 11.5348 17.0197 11.37 16.897C11.2032 16.7722 11.0193 16.6722 10.824 16.6C10.624 16.526 10.431 16.46 10.246 16.4C10.13 16.362 10.016 16.322 9.90396 16.28C9.81142 16.2467 9.72234 16.2045 9.63797 16.154C9.56973 16.1144 9.51155 16.0597 9.46796 15.994C9.4252 15.9257 9.40299 15.8465 9.40396 15.766C9.40042 15.6729 9.42593 15.5809 9.47696 15.503C9.525 15.435 9.58663 15.3778 9.65796 15.335C9.73369 15.2906 9.81718 15.2611 9.90396 15.248C10.1721 15.1944 10.4505 15.2295 10.697 15.348C10.8696 15.4235 11.0213 15.5398 11.139 15.687L11.979 14.81C11.7345 14.5877 11.4473 14.4176 11.135 14.31C10.5888 14.1138 9.99578 14.0887 9.43496 14.238C9.19327 14.297 8.96402 14.3986 8.75796 14.538C8.55855 14.6747 8.39273 14.8549 8.27296 15.065C8.14429 15.3004 8.08045 15.5658 8.08797 15.834C8.08191 16.0473 8.12288 16.2593 8.20796 16.455C8.28274 16.6193 8.38988 16.7669 8.52296 16.889C8.65539 17.0096 8.80588 17.1088 8.96896 17.183C9.13562 17.2595 9.30658 17.3263 9.48096 17.383C9.66096 17.439 9.82097 17.491 9.96297 17.539C10.0865 17.5791 10.2052 17.6327 10.317 17.699C10.402 17.7486 10.4764 17.8146 10.536 17.893C10.5871 17.9718 10.611 18.0653 10.604 18.159C10.6065 18.2541 10.5852 18.3482 10.542 18.433C10.503 18.5064 10.4462 18.569 10.377 18.615C10.3028 18.663 10.2204 18.6969 10.134 18.715C10.0406 18.7351 9.94543 18.7452 9.84997 18.745C9.62468 18.7413 9.40341 18.6848 9.20396 18.58C9.00109 18.4829 8.82113 18.3438 8.67596 18.172L7.81396 19.041C8.06927 19.2988 8.37972 19.4954 8.72196 19.616C9.08436 19.7496 9.46773 19.8173 9.85396 19.816V19.819ZM14.174 21.511V19.263H14.189C14.3164 19.4326 14.4865 19.5655 14.682 19.648C14.8928 19.7417 15.1212 19.7895 15.352 19.788C15.607 19.793 15.8599 19.741 16.0922 19.6358C16.3246 19.5307 16.5305 19.3749 16.695 19.18C16.8542 18.9904 16.9757 18.7722 17.053 18.537C17.2198 18.044 17.2198 17.5099 17.053 17.017C16.9731 16.7839 16.8504 16.5678 16.691 16.38C16.5275 16.1872 16.3231 16.0334 16.0927 15.9296C15.8623 15.8258 15.6116 15.7747 15.359 15.78C15.1033 15.7737 14.8503 15.8329 14.624 15.952C14.4352 16.0503 14.2688 16.1865 14.135 16.352H14.112V15.888H12.912V21.511H14.174ZM15.051 18.753C14.9182 18.7551 14.7867 18.7264 14.667 18.669C14.5565 18.6155 14.4579 18.5403 14.377 18.448C14.2141 18.2626 14.1243 18.0242 14.1243 17.7775C14.1243 17.5307 14.2141 17.2924 14.377 17.107C14.4579 17.0146 14.5565 16.9395 14.667 16.886C14.7812 16.8327 14.9053 16.8041 15.0313 16.8021C15.1573 16.8001 15.2824 16.8247 15.3982 16.8744C15.514 16.924 15.6181 16.9976 15.7035 17.0902C15.7889 17.1829 15.8538 17.2925 15.894 17.412C15.9511 17.5855 15.9656 17.7703 15.9362 17.9506C15.9068 18.131 15.8343 18.3016 15.725 18.448C15.6437 18.5473 15.5406 18.6265 15.4237 18.6794C15.3068 18.7323 15.1792 18.7575 15.051 18.753ZM19.495 19.789C19.6239 19.7896 19.7523 19.7714 19.876 19.735C19.9912 19.7022 20.1023 19.6562 20.207 19.598C20.393 19.4949 20.5465 19.3418 20.65 19.156H20.665V19.68H21.881V15.888H20.619V17.938C20.6231 18.1415 20.5625 18.3411 20.446 18.508C20.3899 18.5875 20.3147 18.6516 20.2273 18.6944C20.1399 18.7372 20.0432 18.7574 19.946 18.753C19.8472 18.7573 19.7491 18.7348 19.662 18.688C19.5892 18.6442 19.5293 18.5821 19.488 18.508C19.4432 18.428 19.4134 18.3406 19.4 18.25C19.3845 18.1507 19.3768 18.0504 19.377 17.95V15.888H18.104V18.233C18.1036 18.4247 18.1281 18.6156 18.177 18.801C18.2225 18.9802 18.3034 19.1485 18.415 19.296C18.5303 19.4451 18.6776 19.5664 18.846 19.651C19.0487 19.7476 19.2715 19.7946 19.496 19.788L19.495 19.789ZM24.304 19.68V17.732C24.3104 17.5323 24.3805 17.34 24.504 17.183C24.5804 17.0909 24.6751 17.0157 24.782 16.962C24.9148 16.8973 25.0613 16.8661 25.209 16.871C25.26 16.871 25.309 16.871 25.367 16.878C25.4227 16.8833 25.4779 16.8933 25.532 16.908L25.586 15.808C25.5469 15.7961 25.5067 15.7884 25.466 15.785C25.4121 15.7803 25.358 15.7786 25.304 15.78C25.0825 15.776 24.8651 15.8398 24.681 15.963C24.5041 16.0821 24.3609 16.2446 24.265 16.435H24.25V15.888H23.039V19.68H24.304ZM27.762 19.771C28.0104 19.7716 28.2575 19.7332 28.494 19.657L28.478 18.743C28.4226 18.7659 28.3644 18.7813 28.305 18.789C28.2387 18.7988 28.1719 18.8038 28.105 18.804C28.0366 18.8117 27.9674 18.8037 27.9026 18.7806C27.8378 18.7576 27.7791 18.7201 27.731 18.671C27.6551 18.552 27.62 18.4116 27.631 18.271V16.825H28.531V15.888H27.631V14.888H26.391V15.888H25.783V16.825H26.399V18.425C26.3968 18.6113 26.42 18.797 26.468 18.977C26.5101 19.1348 26.5877 19.2808 26.695 19.404C26.8094 19.5295 26.954 19.6238 27.115 19.678C27.3229 19.7486 27.5415 19.7824 27.761 19.778L27.762 19.771Z" fill="white"/>
</g>
</g>
</svg>
