<svg width="20" height="20" viewBox="0 0 20 20" fill="none" xmlns="http://www.w3.org/2000/svg">
<g id="Group 662">
<g id="Group">
<g id="Icon">
<path id="Vector" fill-rule="evenodd" clip-rule="evenodd" d="M20 2.30769C20 1.69538 19.7569 1.10846 19.3238 0.676152C18.8915 0.243075 18.3046 0 17.6923 0C14.2154 0 5.78462 0 2.30769 0C1.69538 0 1.10846 0.243075 0.676152 0.676152C0.243075 1.10846 0 1.69538 0 2.30769V17.6923C0 18.3046 0.243075 18.8915 0.676152 19.3238C1.10846 19.7569 1.69538 20 2.30769 20H17.6923C18.3046 20 18.8915 19.7569 19.3238 19.3238C19.7569 18.8915 20 18.3046 20 17.6923V2.30769ZM18.4615 11.8569L15.1592 8.55462C15.0154 8.41077 14.8192 8.32923 14.6154 8.32923C14.4115 8.32923 14.2154 8.41077 14.0715 8.55462L9.54923 13.0769L10.5438 14.0715C10.8438 14.3715 10.8438 14.8592 10.5438 15.1592C10.2438 15.4592 9.75615 15.4592 9.45615 15.1592L5.92846 11.6315C5.62846 11.3315 5.14077 11.3315 4.84077 11.6315L1.53846 14.9338V17.6923C1.53846 17.8962 1.61923 18.0923 1.76385 18.2362C1.90769 18.3808 2.10385 18.4615 2.30769 18.4615H17.6923C17.8962 18.4615 18.0923 18.3808 18.2362 18.2362C18.3808 18.0923 18.4615 17.8962 18.4615 17.6923V11.8569ZM18.4615 9.68154V2.30769C18.4615 2.10385 18.3808 1.90769 18.2362 1.76385C18.0923 1.61923 17.8962 1.53846 17.6923 1.53846H2.30769C2.10385 1.53846 1.90769 1.61923 1.76385 1.76385C1.61923 1.90769 1.53846 2.10385 1.53846 2.30769V12.7585L3.75308 10.5438C4.65384 9.64308 6.11539 9.64308 7.01616 10.5438L8.46154 11.9892L12.9838 7.46692C13.4162 7.03462 14.0031 6.79077 14.6154 6.79077C15.2277 6.79077 15.8146 7.03385 16.2469 7.46692L18.4615 9.68154Z" fill="#4D4D4D"/>
</g>
</g>
<path id="Vector_2" d="M5.76879 8.46141C7.13404 8.46141 8.24132 7.35016 8.24132 5.98888C8.24132 4.62761 7.13007 3.51636 5.76879 3.51636C4.40751 3.51636 3.29626 4.62761 3.29626 5.98888C3.29626 7.35016 4.40354 8.46141 5.76879 8.46141ZM5.76879 4.4887C6.59826 4.4887 7.26898 5.16339 7.26898 5.98888C7.26898 6.81438 6.59429 7.48907 5.76879 7.48907C4.94329 7.48907 4.26861 6.81438 4.26861 5.98888C4.26861 5.16339 4.93932 4.4887 5.76879 4.4887Z" fill="#4D4D4D"/>
</g>
</svg>
