<svg width="20" height="20" viewBox="0 0 20 20" fill="none" xmlns="http://www.w3.org/2000/svg">
<g id="Group">
<path id="Vector" d="M15.0935 4.9065C15.3223 5.13533 15.6933 5.13533 15.9221 4.9065L17.4846 3.344C17.7134 3.11518 17.7134 2.7442 17.4846 2.51537C17.2558 2.28654 16.8848 2.28654 16.656 2.51537L15.5078 3.66354L14.3596 2.51537C14.1308 2.28654 13.7598 2.28654 13.531 2.51537C13.3022 2.7442 13.3022 3.11518 13.531 3.344L15.0935 4.9065Z" fill="#4D4D4D"/>
<path id="Vector_2" d="M19.4141 0H0.585938C0.262344 0 0 0.262344 0 0.585938V19.4141C0 19.7377 0.262344 20 0.585938 20H14.6484C14.972 20 15.2344 19.7377 15.2344 19.4141V7.42188H19.4141C19.7377 7.42188 20 7.15953 20 6.83594V0.585938C20 0.262344 19.7377 0 19.4141 0ZM1.17188 1.17188H11.0156V6.25H1.17188V1.17188ZM14.0625 18.8281H1.17188V7.42188H14.0625V18.8281ZM18.8281 6.25H12.1875V1.17188H18.8281V6.25Z" fill="#4D4D4D"/>
<path id="Vector_3" fill-rule="evenodd" clip-rule="evenodd" d="M11.2904 10.0955C11.4568 10.2382 11.4761 10.4887 11.3335 10.6551L6.79831 15.9461C6.72292 16.034 6.61286 16.0846 6.49702 16.0846C6.38118 16.0846 6.27112 16.034 6.19573 15.9461L4.38167 13.8297C4.23904 13.6633 4.25832 13.4127 4.42471 13.2702C4.59111 13.1275 4.84163 13.1468 4.98426 13.3132L6.49702 15.0781L10.7309 10.1386C10.8735 9.97219 11.124 9.95291 11.2904 10.0955Z" fill="#4D4D4D"/>
</g>
</svg>
