<svg width="90" height="80" viewBox="0 0 90 80" fill="none" xmlns="http://www.w3.org/2000/svg">
<path d="M83.7969 24.5743V56.2791C83.7953 56.948 83.5732 57.5981 83.1643 58.1306C82.7554 58.6632 82.182 59.049 81.5314 59.2296L46.679 68.8907C45.583 69.1963 44.4231 69.1963 43.3272 68.8907L8.47479 59.2296C7.82411 59.049 7.25077 58.6632 6.84186 58.1306C6.43295 57.5981 6.21082 56.948 6.20923 56.2791V24.5743L45.0031 16.8946L83.7969 24.5743Z" fill="#A4BBDB"/>
<path d="M83.797 10.7508L89.1753 19.6592C89.6339 20.4168 89.9098 21.2689 89.9813 22.1491C90.0529 23.0294 89.9183 23.9142 89.5879 24.7346C89.2576 25.5549 88.7405 26.2888 88.0768 26.879C87.4131 27.4693 86.6208 27.9 85.7615 28.1376L58.5654 35.6852C57.3422 36.0243 56.0403 35.9561 54.8601 35.4909C53.68 35.0258 52.687 34.1895 52.0341 33.111L45.0031 21.5024L37.9721 33.1079C37.3192 34.1865 36.3262 35.0227 35.1461 35.4878C33.9659 35.953 32.664 36.0213 31.4408 35.6821L4.23853 28.1422C3.37921 27.9046 2.58688 27.4739 1.9232 26.8837C1.25952 26.2934 0.742399 25.5595 0.41207 24.7392C0.0817413 23.9188 -0.0528795 23.034 0.0186842 22.1538C0.0902479 21.2735 0.366066 20.4214 0.824673 19.6639L6.20926 10.7508H83.797Z" fill="#E9F3FC"/>
<path d="M6.20923 10.7508L45.0031 21.5024L83.7969 10.7508L46.26 0.172808C45.4382 -0.0576027 44.5679 -0.0576027 43.7462 0.172808L6.20923 10.7508Z" fill="#C9DBEF"/>
<path d="M46.5549 24.0674V41.4696H43.4514V24.0674L45.0032 21.5024L46.5549 24.0674Z" fill="#CADCF0"/>
<path d="M14.4529 41.5908L14.4529 75.3909C14.4529 77.9364 17.2184 80 20.6298 80H72.104C75.5154 80 78.2809 77.9364 78.2809 75.3909V41.5908C78.2809 39.0453 75.5154 36.9818 72.104 36.9818H20.6298C17.2184 36.9818 14.4529 39.0453 14.4529 41.5908Z" fill="#E1EFFF"/>
<path d="M63.9276 71.4684H48.3427C47.6257 71.4684 47.0439 72.0443 47.0439 72.7552C47.0439 73.4661 47.6257 74.0419 48.3427 74.0419L63.9276 74.0047C64.6445 74.0047 65.2263 73.4661 65.2263 72.7552C65.2263 72.0443 64.6458 71.4684 63.9276 71.4684ZM45.7452 43.1552L63.9276 43.1526C64.6445 43.1526 65.2263 42.5793 65.2263 41.8684C65.2263 41.1575 64.6445 40.5816 63.9276 40.5816H45.7452C45.0283 40.5816 44.4465 41.1575 44.4465 41.8684C44.4465 42.5793 45.0283 43.1552 45.7452 43.1552ZM47.9362 64.1102C47.4271 63.6037 46.6011 63.6037 46.092 64.1102L39.2515 71.9016V40.5816H36.654V71.9479L29.7719 64.1102C29.2629 63.6037 28.4368 63.6037 27.9278 64.1102C27.4186 64.6167 27.4186 65.4368 27.9278 65.942L36.9436 76.2119C37.215 76.4819 37.5761 76.5963 37.9306 76.5783C38.2864 76.5963 38.6462 76.4819 38.9176 76.2119L47.9335 65.942C48.4453 65.4368 48.4453 64.6167 47.9362 64.1102ZM63.9276 48.3036H45.7452C45.0283 48.3036 44.4465 48.8796 44.4465 49.5904C44.4465 50.3013 45.0283 50.8656 45.7452 50.8656H63.9276C64.6445 50.8656 65.2263 50.3013 65.2263 49.5904C65.2263 48.8796 64.6458 48.3036 63.9276 48.3036ZM63.9276 56.0244H45.7452C45.0283 56.0244 44.4465 56.6003 44.4465 57.3112C44.4465 58.0221 45.0283 58.5774 45.7452 58.5774L63.9276 58.598C64.6445 58.598 65.2263 58.022 65.2263 57.3112C65.2263 56.6016 64.6458 56.0244 63.9276 56.0244ZM63.9276 63.7464H53.5377C52.8207 63.7464 52.2389 64.3223 52.2389 65.0331C52.2389 65.744 52.8207 66.2916 53.5377 66.2916H63.9276C64.6445 66.2916 65.2263 65.744 65.2263 65.0331C65.2263 64.3223 64.6458 63.7464 63.9276 63.7464Z" fill="#A4BBDB"/>
</svg>
