<svg width="48" height="37" viewBox="0 0 48 37" fill="none" xmlns="http://www.w3.org/2000/svg">
<g id="Group 1905">
<path id="Vector" d="M37.9924 36.3397C37.5028 36.3397 37.0332 36.1452 36.687 35.799C36.3407 35.4528 36.1462 34.9832 36.1462 34.4936V18.1699C36.1462 17.6803 36.3407 17.2107 36.687 16.8645C37.0332 16.5182 37.5028 16.3237 37.9924 16.3237C38.482 16.3237 38.9516 16.5182 39.2978 16.8645C39.644 17.2107 39.8385 17.6803 39.8385 18.1699V34.4936C39.8385 34.9832 39.644 35.4528 39.2978 35.799C38.9516 36.1452 38.482 36.3397 37.9924 36.3397Z" fill="#078E05"/>
<path id="Vector_2" d="M46.1537 28.1779H29.83C29.3404 28.1779 28.8708 27.9834 28.5246 27.6372C28.1784 27.291 27.9839 26.8214 27.9839 26.3318C27.9839 25.8421 28.1784 25.3725 28.5246 25.0263C28.8708 24.6801 29.3404 24.4856 29.83 24.4856H46.1537C46.6434 24.4856 47.1129 24.6801 47.4592 25.0263C47.8054 25.3725 47.9999 25.8421 47.9999 26.3318C47.9999 26.8214 47.8054 27.291 47.4592 27.6372C47.1129 27.9834 46.6434 28.1779 46.1537 28.1779Z" fill="#078E05"/>
<path id="Vector_3" d="M40.3237 3.69231H1.84615C1.35652 3.69231 0.886947 3.4978 0.540726 3.15158C0.194505 2.80536 0 2.33579 0 1.84615C0 1.35652 0.194505 0.886948 0.540726 0.540727C0.886947 0.194505 1.35652 0 1.84615 0H40.3237C40.8133 0 41.2829 0.194505 41.6291 0.540727C41.9754 0.886948 42.1699 1.35652 42.1699 1.84615C42.1699 2.33579 41.9754 2.80536 41.6291 3.15158C41.2829 3.4978 40.8133 3.69231 40.3237 3.69231Z" fill="#B5B5B5"/>
<path id="Vector_4" d="M40.3237 3.69231H1.84615C1.35652 3.69231 0.886947 3.4978 0.540726 3.15158C0.194505 2.80536 0 2.33579 0 1.84615C0 1.35652 0.194505 0.886948 0.540726 0.540727C0.886947 0.194505 1.35652 0 1.84615 0H40.3237C40.8133 0 41.2829 0.194505 41.6291 0.540727C41.9754 0.886948 42.1699 1.35652 42.1699 1.84615C42.1699 2.33579 41.9754 2.80536 41.6291 3.15158C41.2829 3.4978 40.8133 3.69231 40.3237 3.69231Z" fill="#B5B5B5"/>
<path id="Vector_5" d="M40.3237 13.0188H1.84615C1.35652 13.0188 0.886947 12.8243 0.540726 12.4781C0.194505 12.1319 0 11.6623 0 11.1727C0 10.6831 0.194505 10.2135 0.540726 9.86726C0.886947 9.52104 1.35652 9.32654 1.84615 9.32654H40.3237C40.8133 9.32654 41.2829 9.52104 41.6291 9.86726C41.9754 10.2135 42.1699 10.6831 42.1699 11.1727C42.1699 11.6623 41.9754 12.1319 41.6291 12.4781C41.2829 12.8243 40.8133 13.0188 40.3237 13.0188Z" fill="#B5B5B5"/>
<path id="Vector_6" d="M21.6683 22.3475H1.84615C1.35652 22.3475 0.886947 22.153 0.540726 21.8067C0.194505 21.4605 0 20.9909 0 20.5013C0 20.0117 0.194505 19.5421 0.540726 19.1959C0.886947 18.8497 1.35652 18.6552 1.84615 18.6552H21.6683C22.1579 18.6552 22.6275 18.8497 22.9737 19.1959C23.32 19.5421 23.5145 20.0117 23.5145 20.5013C23.5145 20.9909 23.32 21.4605 22.9737 21.8067C22.6275 22.153 22.1579 22.3475 21.6683 22.3475Z" fill="#B5B5B5"/>
<path id="Vector_7" d="M21.6683 31.6764H1.84615C1.35652 31.6764 0.886947 31.4819 0.540726 31.1357C0.194505 30.7895 0 30.3199 0 29.8303C0 29.3407 0.194505 28.8711 0.540726 28.5249C0.886947 28.1786 1.35652 27.9841 1.84615 27.9841H21.6683C22.1579 27.9841 22.6275 28.1786 22.9737 28.5249C23.32 28.8711 23.5145 29.3407 23.5145 29.8303C23.5145 30.3199 23.32 30.7895 22.9737 31.1357C22.6275 31.4819 22.1579 31.6764 21.6683 31.6764Z" fill="#B5B5B5"/>
</g>
</svg>
