<svg width="24" height="24" viewBox="0 0 24 24" xmlns="http://www.w3.org/2000/svg">
    <g fill="none" fill-rule="evenodd">
        <path d="M0 0h24v24H0z"/>
        <path d="M19.655 11.47a.75.75 0 0 1 0 1.06l-7.693 7.683a5.25 5.25 0 1 1-7.424-7.425l9.306-9.436a3.75 3.75 0 1 1 5.307 5.3l-9.306 9.435a2.25 2.25 0 1 1-3.186-3.178l7.806-7.935a.75.75 0 1 1 1.07 1.052l-7.811 7.94A.75.75 0 1 0 8.78 17.03l9.307-9.436a2.25 2.25 0 1 0-3.179-3.185l-9.306 9.436a3.75 3.75 0 1 0 5.3 5.307l7.692-7.683a.75.75 0 0 1 1.061 0z" fill="#B0B0B0" fill-rule="nonzero"/>
    </g>
</svg>
