<svg width="18" height="18" viewBox="0 0 18 18" fill="none" xmlns="http://www.w3.org/2000/svg">
<g id="Group">
<path id="Vector" d="M17.2969 0H5.44922C2.44448 0 0 2.44448 0 5.44922C0 8.45395 2.44448 10.8984 5.44922 10.8984H7.94531C8.33365 10.8984 8.64844 10.5836 8.64844 10.1953C8.64844 9.80698 8.33365 9.49219 7.94531 9.49219H5.44922C3.21993 9.49219 1.40625 7.67851 1.40625 5.44922C1.40625 3.21993 3.21993 1.40625 5.44922 1.40625H10.0547V17.2969C10.0547 17.6852 10.3695 18 10.7578 18C11.1461 18 11.4609 17.6852 11.4609 17.2969V1.40625H13.9219V17.2969C13.9219 17.6852 14.2367 18 14.625 18C15.0133 18 15.3281 17.6852 15.3281 17.2969V1.40625H17.2969C17.6852 1.40625 18 1.09146 18 0.703125C18 0.314789 17.6852 0 17.2969 0Z" fill="#4D4D4D"/>
</g>
</svg>
