<svg width="20" height="20" viewBox="0 0 20 20" fill="none" xmlns="http://www.w3.org/2000/svg">
<g id="Group 602">
<path id="Vector" d="M12.654 10.0016C12.6537 10.526 12.498 11.0385 12.2067 11.4745C11.9151 11.9109 11.5006 12.2511 11.0156 12.452C10.5307 12.6529 9.99706 12.7054 9.48223 12.603C8.96741 12.5006 8.49451 12.2478 8.12334 11.8767C7.75217 11.5055 7.4994 11.0326 7.397 10.5178C7.29459 10.0029 7.34715 9.46931 7.54802 8.98436C7.7489 8.4994 8.08907 8.0849 8.52552 7.79328C8.96146 7.50199 9.47391 7.34636 9.9982 7.346C10.7022 7.34711 11.3771 7.62726 11.8749 8.12509C12.3727 8.62288 12.6528 9.29767 12.654 10.0016Z" fill="#565656" stroke="#565656" stroke-width="7"/>
</g>
</svg>
