<svg width="20" height="20" viewBox="0 0 20 20" fill="none" xmlns="http://www.w3.org/2000/svg">
<path d="M5.27551 7.70031H6.44739V6.71875H9.41418V13.3925H8.39872V14.5644H11.6015V13.3925H10.5861V6.71875H13.5529V7.70031H14.7247V5.54688H5.27551V7.70031Z" fill="#4D4D4D"/>
<path d="M18.6035 15.6643V4.33574C19.4221 3.99805 20 3.19172 20 2.25262C20 1.01051 18.9895 0 17.7474 0C16.8083 0 16.002 0.577852 15.6643 1.39648H4.33574C3.99805 0.577852 3.19172 0 2.25262 0C1.01051 0 0 1.01051 0 2.25262C0 3.19172 0.577852 3.99809 1.39648 4.33578V15.6643C0.577852 16.002 0 16.8083 0 17.7474C0 18.9895 1.01051 20 2.25262 20C3.19172 20 3.99805 19.4221 4.33574 18.6035H15.6643C16.002 19.4221 16.8083 20 17.7474 20C18.9895 20 20 18.9895 20 17.7474C20 16.8083 19.4221 16.002 18.6035 15.6643ZM15.5174 17.4316H4.48262C4.34309 16.4418 3.55816 15.6569 2.56836 15.5174V4.48262C3.55816 4.34312 4.34309 3.55816 4.48262 2.56836H15.5174C15.6569 3.5582 16.4418 4.34312 17.4316 4.48262V15.5173C16.4418 15.6569 15.6569 16.4418 15.5174 17.4316ZM17.7474 1.17188C18.3433 1.17188 18.8281 1.65668 18.8281 2.25262C18.8281 2.84855 18.3433 3.33336 17.7474 3.33336C17.1515 3.33336 16.6667 2.84855 16.6667 2.25262C16.6667 1.65668 17.1515 1.17188 17.7474 1.17188ZM2.25262 1.17188C2.84852 1.17188 3.33332 1.65668 3.33332 2.25262C3.33332 2.84855 2.84852 3.33336 2.25262 3.33336C1.65668 3.33332 1.17188 2.84852 1.17188 2.25262C1.17188 1.65668 1.65668 1.17188 2.25262 1.17188ZM2.25262 18.8281C1.65668 18.8281 1.17188 18.3433 1.17188 17.7474C1.17188 17.1514 1.65668 16.6666 2.25262 16.6666C2.84852 16.6666 3.33332 17.1514 3.33332 17.7474C3.33332 18.3433 2.84852 18.8281 2.25262 18.8281ZM17.7474 18.8281C17.1515 18.8281 16.6667 18.3433 16.6667 17.7474C16.6667 17.1514 17.1515 16.6666 17.7474 16.6666C18.3433 16.6666 18.8281 17.1514 18.8281 17.7474C18.8281 18.3433 18.3433 18.8281 17.7474 18.8281Z" fill="#4D4D4D"/>
</svg>
