<svg xmlns="http://www.w3.org/2000/svg" width="11" height="14" viewBox="0 0 11 14">
    <g fill="#959595" fill-rule="nonzero">
        <path d="M8.903 1.149H7.357L7.179.794A1.427 1.427 0 0 0 5.895 0H4.443C3.896 0 3.404.304 3.16.794l-.177.355H1.436C.644 1.149 0 1.793 0 2.585v.574c0 .158.129.287.287.287h9.764a.287.287 0 0 0 .287-.287v-.574c0-.792-.643-1.436-1.435-1.436zm.861 1.723H.574v-.287c0-.475.387-.862.862-.862h1.723a.288.288 0 0 0 .257-.158l.257-.514a.856.856 0 0 1 .77-.477h1.452c.329 0 .624.183.771.477l.257.514a.288.288 0 0 0 .256.158h1.724c.475 0 .861.387.861.862v.287z"/>
        <path d="M9.477 2.872H.862a.287.287 0 0 0-.288.287v8.615c0 1.109.902 2.01 2.01 2.01h5.17c1.108 0 2.01-.901 2.01-2.01V3.16a.287.287 0 0 0-.287-.287zm-.287 8.902c0 .792-.644 1.436-1.436 1.436h-5.17a1.438 1.438 0 0 1-1.435-1.436V3.446h8.04v8.328z"/>
        <path d="M2.585 4.595a.287.287 0 0 0-.288.287v6.892a.287.287 0 0 0 .575 0V4.882a.287.287 0 0 0-.287-.287zM4.308 4.595a.287.287 0 0 0-.287.287v6.892a.287.287 0 0 0 .574 0V4.882a.287.287 0 0 0-.287-.287zM6.03 4.595a.287.287 0 0 0-.286.287v6.892a.287.287 0 0 0 .574 0V4.882a.287.287 0 0 0-.287-.287zM7.754 4.595a.287.287 0 0 0-.287.287v6.892a.287.287 0 0 0 .574 0V4.882a.287.287 0 0 0-.287-.287z"/>
    </g>
</svg>
