<svg width="20" height="20" viewBox="0 0 20 20" fill="none" xmlns="http://www.w3.org/2000/svg">
<g id="Group 658">
<path id="Vector" d="M18.4861 1.49398C18.0136 1.02037 17.4525 0.644647 16.8349 0.388298C16.2172 0.131948 15.5551 0 14.8865 0C14.2179 0 13.5558 0.131948 12.9382 0.388298C12.3205 0.644647 11.7594 1.02037 11.287 1.49398L9.14649 3.63674C9.07961 3.70314 9.02653 3.78214 8.99031 3.86918C8.95409 3.95621 8.93544 4.04957 8.93544 4.14386C8.93544 4.23815 8.95409 4.33151 8.99031 4.41855C9.02653 4.50559 9.07961 4.58458 9.14649 4.65098C9.28017 4.78401 9.461 4.85868 9.6495 4.85868C9.83799 4.85868 10.0188 4.78401 10.1525 4.65098L12.293 2.50822C12.9799 1.82058 13.9115 1.43427 14.883 1.43427C15.8544 1.43427 16.786 1.82058 17.4729 2.50822C18.1598 3.19586 18.5457 4.1285 18.5457 5.10096C18.5457 6.07343 18.1598 7.00607 17.4729 7.69371L13.8627 11.3078C13.1752 11.9944 12.2437 12.3799 11.2727 12.3799C10.3016 12.3799 9.37021 11.9944 8.68272 11.3078C8.38044 11.0009 8.13842 10.6399 7.96923 10.2436C7.88975 10.0712 7.74513 9.9375 7.56716 9.87186C7.3892 9.80622 7.19249 9.81405 7.02029 9.89361C6.84809 9.97317 6.71451 10.118 6.64895 10.2961C6.58338 10.4743 6.5912 10.6712 6.67068 10.8436C6.92361 11.3931 7.27141 11.8936 7.6981 12.3221C8.65509 13.2734 9.94902 13.8072 11.2977 13.8072C12.6463 13.8072 13.9402 13.2734 14.8972 12.3221L18.5075 8.70795C18.9806 8.23497 19.3559 7.67326 19.612 7.05495C19.8681 6.43665 19.9999 5.77387 19.9999 5.10453C19.9999 4.43519 19.8681 3.77242 19.612 3.15411C19.3559 2.53581 18.9806 1.9741 18.5075 1.50112L18.4861 1.49398Z" fill="#4D4D4D"/>
<path id="Vector_2" d="M9.80315 15.3718L7.66268 17.5146C6.97388 18.2003 6.04118 18.5841 5.06975 18.5814C4.09833 18.5787 3.16775 18.1898 2.48274 17.5003C1.79773 16.8108 1.4144 15.8771 1.41707 14.9046C1.41975 13.9321 1.80821 13.0005 2.49701 12.3148L6.10727 8.70067C6.79476 8.01415 7.72618 7.62861 8.69724 7.62861C9.6683 7.62861 10.5997 8.01415 11.2872 8.70067C11.5895 9.00758 11.8315 9.36858 12.0007 9.76491C12.0802 9.93729 12.2248 10.071 12.4028 10.1366C12.5807 10.2023 12.7774 10.1945 12.9496 10.1149C13.1218 10.0353 13.2554 9.89055 13.321 9.7124C13.3865 9.53425 13.3787 9.33732 13.2993 9.16494C12.9549 8.42371 12.4375 7.77624 11.7908 7.27707C11.1441 6.7779 10.387 6.44168 9.58338 6.29674C8.77972 6.1518 7.95302 6.20239 7.17297 6.44424C6.39293 6.6861 5.68239 7.11213 5.10125 7.68643L1.49099 11.3006C1.01829 11.7738 0.643319 12.3355 0.387495 12.9538C0.131671 13.5721 4.98071e-09 14.2348 0 14.904C-4.98071e-09 15.5732 0.131671 16.2358 0.387495 16.8541C0.643319 17.4724 1.01829 18.0342 1.49099 18.5074C1.96369 18.9806 2.52486 19.356 3.14248 19.6121C3.76009 19.8682 4.42205 20 5.09055 20C5.75905 20 6.421 19.8682 7.03861 19.6121C7.65623 19.356 8.2174 18.9806 8.6901 18.5074L10.8306 16.3646C10.8975 16.2982 10.9505 16.2192 10.9868 16.1322C11.023 16.0451 11.0416 15.9518 11.0416 15.8575C11.0416 15.7632 11.023 15.6699 10.9868 15.5828C10.9505 15.4958 10.8975 15.4168 10.8306 15.3504C10.7626 15.2826 10.6817 15.2293 10.5926 15.1936C10.5036 15.1578 10.4082 15.1404 10.3123 15.1424C10.2164 15.1444 10.1219 15.1658 10.0344 15.2052C9.9469 15.2446 9.86826 15.3013 9.80315 15.3718Z" fill="#4D4D4D"/>
</g>
</svg>
